<svg version="1.1" viewBox="0.0 0.0 960.0 540.0" fill="none" stroke="none" stroke-linecap="square" stroke-miterlimit="10" xmlns:xlink="http://www.w3.org/1999/xlink" xmlns="http://www.w3.org/2000/svg"><clipPath id="p.0"><path d="m0 0l960.0 0l0 540.0l-960.0 0l0 -540.0z" clip-rule="nonzero"/></clipPath><g clip-path="url(#p.0)"><path fill="#6fa8dc" d="m0 0l960.0 0l0 540.0l-960.0 0z" fill-rule="evenodd"/><path fill="#000000" fill-opacity="0.0" d="m32.725285 78.1706l894.55115 0l0 215.49606l-894.55115 0z" fill-rule="evenodd"/><path fill="#000000" d="m91.369484 194.81068l-9.8125 0l-3.890625 -10.140625l-17.859379 0l-3.6875 10.140625l-9.5625 0l17.390625 -44.65625l9.546879 0l17.875 44.65625zm-16.609375 -17.671875l-6.140625 -16.5625l-6.031254 16.5625l12.171879 0zm47.809387 17.671875l-15.96875 -44.65625l9.78125 0l11.296875 33.046875l10.937492 -33.046875l9.5625 0l-15.984375 44.65625l-9.624992 0zm29.033577 -36.734375l0 -7.921875l8.546875 0l0 7.921875l-8.546875 0zm0 36.734375l0 -32.359375l8.546875 0l0 32.359375l-8.546875 0zm25.521622 0l-8.5625 0l0 -32.359375l7.953125 0l0 4.609375q2.046875 -3.265625 3.671875 -4.296875q1.625 -1.03125 3.703125 -1.03125q2.921875 0 5.640625 1.609375l-2.65625 7.46875q-2.15625 -1.40625 -4.015625 -1.40625q-1.796875 0 -3.046875 1.0q-1.25 0.984375 -1.96875 3.578125q-0.71875 2.578125 -0.71875 10.828125l0 10.0zm30.920578 -32.359375l0 6.828125l-5.84375 0l0 13.046875q0 3.953125 0.15625 4.609375q0.171875 0.65625 0.765625 1.09375q0.59375 0.421875 1.453125 0.421875q1.1875 0 3.4375 -0.828125l0.734375 6.640625q-2.984375 1.28125 -6.765625 1.28125q-2.3125 0 -4.171875 -0.78125q-1.859375 -0.78125 -2.734375 -2.015625q-0.859375 -1.234375 -1.1875 -3.328125q-0.28125 -1.5 -0.28125 -6.03125l0 -14.109375l-3.9375 0l0 -6.828125l3.9375 0l0 -6.421875l8.59375 -5.0l0 11.421875l5.84375 0zm27.22969 32.359375l0 -4.84375q-1.765625 2.59375 -4.640625 4.09375q-2.875 1.484375 -6.078125 1.484375q-3.25 0 -5.84375 -1.421875q-2.59375 -1.4375 -3.75 -4.03125q-1.15625 -2.59375 -1.15625 -7.15625l0 -20.484375l8.5625 0l0 14.875q0 6.828125 0.46875 8.375q0.46875 1.53125 1.71875 2.4375q1.25 0.890625 3.171875 0.890625q2.1875 0 3.921875 -1.203125q1.75 -1.203125 2.375 -2.984375q0.640625 -1.796875 0.640625 -8.734375l0 -13.65625l8.5625 0l0 32.359375l-7.953125 0zm23.220062 -22.484375l-7.765625 -1.40625q1.3125 -4.6875 4.5 -6.9375q3.203125 -2.25 9.515625 -2.25q5.71875 0 8.515625 1.359375q2.8125 1.34375 3.953125 3.4375q1.140625 2.078125 1.140625 7.65625l-0.09375 10.0q0 4.265625 0.40625 6.296875q0.421875 2.015625 1.546875 4.328125l-8.46875 0q-0.328125 -0.859375 -0.8125 -2.53125q-0.21875 -0.765625 -0.3125 -1.0q-2.1875 2.125 -4.6875 3.203125q-2.5 1.0625 -5.328125 1.0625q-5.0 0 -7.890625 -2.703125q-2.875 -2.71875 -2.875 -6.859375q0 -2.75 1.3125 -4.890625q1.3125 -2.15625 3.671875 -3.296875q2.359375 -1.140625 6.8125 -2.0q6.0 -1.125 8.3125 -2.09375l0 -0.859375q0 -2.46875 -1.21875 -3.515625q-1.21875 -1.046875 -4.59375 -1.046875q-2.28125 0 -3.5625 0.90625q-1.28125 0.890625 -2.078125 3.140625zm11.453125 6.953125q-1.640625 0.546875 -5.203125 1.3125q-3.5625 0.75 -4.671875 1.484375q-1.671875 1.1875 -1.671875 3.015625q0 1.796875 1.34375 3.109375q1.34375 1.3125 3.40625 1.3125q2.328125 0 4.421875 -1.53125q1.546875 -1.15625 2.046875 -2.828125q0.328125 -1.09375 0.328125 -4.171875l0 -1.703125zm-9.25 -20.78125l4.203125 -9.109375l9.59375 0l-8.375 9.109375l-5.421875 0zm26.10495 36.3125l0 -44.65625l8.546875 0l0 44.65625l-8.546875 0zm17.334106 -36.734375l0 -7.921875l8.546875 0l0 7.921875l-8.546875 0zm0 36.734375l0 -32.359375l8.546875 0l0 32.359375l-8.546875 0zm14.318512 -9.234375l8.578125 -1.3125q0.546875 2.5 2.21875 3.796875q1.6875 1.296875 4.703125 1.296875q3.328125 0 5.0 -1.21875q1.125 -0.859375 1.125 -2.28125q0 -0.984375 -0.609375 -1.625q-0.640625 -0.609375 -2.859375 -1.125q-10.359375 -2.28125 -13.140625 -4.171875q-3.828125 -2.609375 -3.828125 -7.28125q0 -4.203125 3.3125 -7.0625q3.328125 -2.859375 10.296875 -2.859375q6.640625 0 9.875 2.15625q3.234375 2.15625 4.453125 6.390625l-8.078125 1.5q-0.515625 -1.890625 -1.96875 -2.890625q-1.453125 -1.015625 -4.125 -1.015625q-3.390625 0 -4.84375 0.953125q-0.984375 0.671875 -0.984375 1.734375q0 0.921875 0.859375 1.546875q1.15625 0.859375 8.0 2.421875q6.84375 1.546875 9.546875 3.796875q2.6875 2.28125 2.6875 6.375q0 4.4375 -3.71875 7.640625q-3.71875 3.203125 -11.0 3.203125q-6.609375 0 -10.46875 -2.671875q-3.84375 -2.6875 -5.03125 -7.296875zm66.50159 9.234375l-15.96875 -44.65625l9.78125 0l11.296875 33.046875l10.9375 -33.046875l9.5625 0l-15.984375 44.65625l-9.625 0zm33.10858 -22.484375l-7.765625 -1.40625q1.3125 -4.6875 4.5 -6.9375q3.203125 -2.25 9.515625 -2.25q5.71875 0 8.515625 1.359375q2.8125 1.34375 3.953125 3.4375q1.140625 2.078125 1.140625 7.65625l-0.09375 10.0q0 4.265625 0.40625 6.296875q0.421875 2.015625 1.546875 4.328125l-8.46875 0q-0.328125 -0.859375 -0.8125 -2.53125q-0.21875 -0.765625 -0.3125 -1.0q-2.1875 2.125 -4.6875 3.203125q-2.5 1.0625 -5.328125 1.0625q-5.0 0 -7.890625 -2.703125q-2.875 -2.71875 -2.875 -6.859375q0 -2.75 1.3125 -4.890625q1.3125 -2.15625 3.671875 -3.296875q2.359375 -1.140625 6.8125 -2.0q6.0 -1.125 8.3125 -2.09375l0 -0.859375q0 -2.46875 -1.21875 -3.515625q-1.21875 -1.046875 -4.59375 -1.046875q-2.28125 0 -3.5625 0.90625q-1.28125 0.890625 -2.078125 3.140625zm11.453125 6.953125q-1.640625 0.546875 -5.203125 1.3125q-3.5625 0.75 -4.671875 1.484375q-1.671875 1.1875 -1.671875 3.015625q0 1.796875 1.34375 3.109375q1.34375 1.3125 3.40625 1.3125q2.328125 0 4.421875 -1.53125q1.546875 -1.15625 2.046875 -2.828125q0.328125 -1.09375 0.328125 -4.171875l0 -1.703125zm16.85495 15.53125l0 -44.65625l8.546875 0l0 44.65625l-8.546875 0zm15.349762 -16.640625q0 -4.25 2.09375 -8.234375q2.109375 -4.0 5.953125 -6.09375q3.859375 -2.109375 8.609375 -2.109375q7.34375 0 12.03125 4.765625q4.703125 4.765625 4.703125 12.046875q0 7.34375 -4.75 12.171875q-4.734375 4.828125 -11.921875 4.828125q-4.4375 0 -8.484375 -2.015625q-4.03125 -2.015625 -6.140625 -5.890625q-2.09375 -3.890625 -2.09375 -9.46875zm8.765625 0.46875q0 4.8125 2.28125 7.375q2.296875 2.546875 5.640625 2.546875q3.359375 0 5.625 -2.546875q2.265625 -2.5625 2.265625 -7.4375q0 -4.75 -2.265625 -7.3125q-2.265625 -2.5625 -5.625 -2.5625q-3.34375 0 -5.640625 2.5625q-2.28125 2.5625 -2.28125 7.375zm3.609375 -20.140625l4.203125 -9.109375l9.59375 0l-8.375 9.109375l-5.421875 0zm24.704437 27.078125l8.578125 -1.3125q0.546875 2.5 2.21875 3.796875q1.6875 1.296875 4.703125 1.296875q3.328125 0 5.0 -1.21875q1.125 -0.859375 1.125 -2.28125q0 -0.984375 -0.609375 -1.625q-0.640625 -0.609375 -2.859375 -1.125q-10.359375 -2.28125 -13.140625 -4.171875q-3.828125 -2.609375 -3.828125 -7.28125q0 -4.203125 3.3125 -7.0625q3.328125 -2.859375 10.296875 -2.859375q6.640625 0 9.875 2.15625q3.234375 2.15625 4.453125 6.390625l-8.078125 1.5q-0.515625 -1.890625 -1.96875 -2.890625q-1.453125 -1.015625 -4.125 -1.015625q-3.390625 0 -4.84375 0.953125q-0.984375 0.671875 -0.984375 1.734375q0 0.921875 0.859375 1.546875q1.15625 0.859375 8.0 2.421875q6.84375 1.546875 9.546875 3.796875q2.6875 2.28125 2.6875 6.375q0 4.4375 -3.71875 7.640625q-3.71875 3.203125 -11.0 3.203125q-6.609375 0 -10.46875 -2.671875q-3.84375 -2.6875 -5.03125 -7.296875zm44.10498 -13.25l-7.765625 -1.40625q1.3125 -4.6875 4.5 -6.9375q3.203125 -2.25 9.515625 -2.25q5.71875 0 8.515625 1.359375q2.8125 1.34375 3.953125 3.4375q1.140625 2.078125 1.140625 7.65625l-0.09375 10.0q0 4.265625 0.40625 6.296875q0.421875 2.015625 1.546875 4.328125l-8.46875 0q-0.328125 -0.859375 -0.8125 -2.53125q-0.21875 -0.765625 -0.3125 -1.0q-2.1875 2.125 -4.6875 3.203125q-2.5 1.0625 -5.328125 1.0625q-5.0 0 -7.890625 -2.703125q-2.875 -2.71875 -2.875 -6.859375q0 -2.75 1.3125 -4.890625q1.3125 -2.15625 3.671875 -3.296875q2.359375 -1.140625 6.8125 -2.0q6.0 -1.125 8.3125 -2.09375l0 -0.859375q0 -2.46875 -1.21875 -3.515625q-1.21875 -1.046875 -4.59375 -1.046875q-2.28125 0 -3.5625 0.90625q-1.28125 0.890625 -2.078125 3.140625zm11.453125 6.953125q-1.640625 0.546875 -5.203125 1.3125q-3.5625 0.75 -4.671875 1.484375q-1.671875 1.1875 -1.671875 3.015625q0 1.796875 1.34375 3.109375q1.34375 1.3125 3.40625 1.3125q2.328125 0 4.421875 -1.53125q1.546875 -1.15625 2.046875 -2.828125q0.328125 -1.09375 0.328125 -4.171875l0 -1.703125zm-9.25 -20.78125l4.203125 -9.109375l9.59375 0l-8.375 9.109375l-5.421875 0zm25.307983 38.4375l9.78125 1.203125q0.234375 1.703125 1.125 2.34375q1.21875 0.90625 3.84375 0.90625q3.34375 0 5.015625 -1.0q1.125 -0.671875 1.703125 -2.171875q0.40625 -1.0625 0.40625 -3.921875l0 -4.71875q-3.84375 5.234375 -9.6875 5.234375q-6.515625 0 -10.328125 -5.515625q-2.984375 -4.359375 -2.984375 -10.84375q0 -8.140625 3.90625 -12.421875q3.921875 -4.296875 9.734375 -4.296875q6.0 0 9.90625 5.265625l0 -4.546875l8.015625 0l0 29.03125q0 5.734375 -0.953125 8.5625q-0.9375 2.84375 -2.65625 4.453125q-1.703125 1.609375 -4.546875 2.515625q-2.84375 0.921875 -7.203125 0.921875q-8.21875 0 -11.671875 -2.8125q-3.4375 -2.8125 -3.4375 -7.140625q0 -0.4375 0.03125 -1.046875zm7.640625 -18.96875q0 5.140625 2.0 7.53125q2.0 2.390625 4.921875 2.390625q3.140625 0 5.296875 -2.4375q2.171875 -2.453125 2.171875 -7.28125q0 -5.015625 -2.078125 -7.453125q-2.078125 -2.4375 -5.234375 -2.4375q-3.078125 0 -5.078125 2.390625q-2.0 2.390625 -2.0 7.296875zm48.89795 16.84375l0 -44.296875l9.015625 0l0 36.765625l22.421875 0l0 7.53125l-31.4375 0zm44.204468 -22.484375l-7.765625 -1.40625q1.3125 -4.6875 4.5 -6.9375q3.203125 -2.25 9.515625 -2.25q5.71875 0 8.515625 1.359375q2.8125 1.34375 3.953125 3.4375q1.140625 2.078125 1.140625 7.65625l-0.09375 10.0q0 4.265625 0.40625 6.296875q0.421875 2.015625 1.546875 4.328125l-8.46875 0q-0.328125 -0.859375 -0.8125 -2.53125q-0.21875 -0.765625 -0.3125 -1.0q-2.1875 2.125 -4.6875 3.203125q-2.5 1.0625 -5.328125 1.0625q-5.0 0 -7.890625 -2.703125q-2.875 -2.71875 -2.875 -6.859375q0 -2.75 1.3125 -4.890625q1.3125 -2.15625 3.671875 -3.296875q2.359375 -1.140625 6.8125 -2.0q6.0 -1.125 8.3125 -2.09375l0 -0.859375q0 -2.46875 -1.21875 -3.515625q-1.21875 -1.046875 -4.59375 -1.046875q-2.28125 0 -3.5625 0.90625q-1.28125 0.890625 -2.078125 3.140625zm11.453125 6.953125q-1.640625 0.546875 -5.203125 1.3125q-3.5625 0.75 -4.671875 1.484375q-1.671875 1.1875 -1.671875 3.015625q0 1.796875 1.34375 3.109375q1.34375 1.3125 3.40625 1.3125q2.328125 0 4.421875 -1.53125q1.546875 -1.15625 2.046875 -2.828125q0.328125 -1.09375 0.328125 -4.171875l0 -1.703125zm-9.25 -20.78125l4.203125 -9.109375l9.59375 0l-8.375 9.109375l-5.421875 0zm40.933105 3.953125l0 6.828125l-5.84375 0l0 13.046875q0 3.953125 0.15625 4.609375q0.171875 0.65625 0.765625 1.09375q0.59375 0.421875 1.453125 0.421875q1.1875 0 3.4375 -0.828125l0.734375 6.640625q-2.984375 1.28125 -6.765625 1.28125q-2.3125 0 -4.171875 -0.78125q-1.859375 -0.78125 -2.734375 -2.015625q-0.859375 -1.234375 -1.1875 -3.328125q-0.28125 -1.5 -0.28125 -6.03125l0 -14.109375l-3.9375 0l0 -6.828125l3.9375 0l0 -6.421875l8.59375 -5.0l0 11.421875l5.84375 0zm14.839111 32.359375l-13.046875 -32.359375l9.0 0l6.09375 16.515625l1.765625 5.515625q0.6875 -2.09375 0.875 -2.765625q0.421875 -1.375 0.921875 -2.75l6.15625 -16.515625l8.796875 0l-12.859375 32.359375l-7.703125 0zm32.19861 -22.484375l-7.765625 -1.40625q1.3125 -4.6875 4.5 -6.9375q3.203125 -2.25 9.515625 -2.25q5.71875 0 8.515625 1.359375q2.8125 1.34375 3.953125 3.4375q1.140625 2.078125 1.140625 7.65625l-0.09375 10.0q0 4.265625 0.40625 6.296875q0.421875 2.015625 1.546875 4.328125l-8.46875 0q-0.328125 -0.859375 -0.8125 -2.53125q-0.21875 -0.765625 -0.3125 -1.0q-2.1875 2.125 -4.6875 3.203125q-2.5 1.0625 -5.328125 1.0625q-5.0 0 -7.890625 -2.703125q-2.875 -2.71875 -2.875 -6.859375q0 -2.75 1.3125 -4.890625q1.3125 -2.15625 3.671875 -3.296875q2.359375 -1.140625 6.8125 -2.0q6.0 -1.125 8.3125 -2.09375l0 -0.859375q0 -2.46875 -1.21875 -3.515625q-1.21875 -1.046875 -4.59375 -1.046875q-2.28125 0 -3.5625 0.90625q-1.28125 0.890625 -2.078125 3.140625zm11.453125 6.953125q-1.640625 0.546875 -5.203125 1.3125q-3.5625 0.75 -4.671875 1.484375q-1.671875 1.1875 -1.671875 3.015625q0 1.796875 1.34375 3.109375q1.34375 1.3125 3.40625 1.3125q2.328125 0 4.421875 -1.53125q1.546875 -1.15625 2.046875 -2.828125q0.328125 -1.09375 0.328125 -4.171875l0 -1.703125zm-9.25 -20.78125l4.203125 -9.109375l9.59375 0l-8.375 9.109375l-5.421875 0zm55.526855 36.3125l-8.5625 0l0 -16.515625q0 -5.234375 -0.546875 -6.765625q-0.546875 -1.546875 -1.78125 -2.390625q-1.234375 -0.859375 -2.96875 -0.859375q-2.21875 0 -4.0 1.21875q-1.765625 1.21875 -2.421875 3.234375q-0.640625 2.0 -0.640625 7.421875l0 14.65625l-8.5625 0l0 -32.359375l7.953125 0l0 4.765625q4.234375 -5.484375 10.65625 -5.484375q2.828125 0 5.171875 1.015625q2.359375 1.015625 3.5625 2.609375q1.203125 1.578125 1.671875 3.59375q0.46875 2.0 0.46875 5.75l0 20.109375zm4.626343 -32.359375l9.109375 0l7.734375 22.96875l7.5625 -22.96875l8.859375 0l-11.421875 31.140625l-2.03125 5.640625q-1.140625 2.828125 -2.15625 4.3125q-1.015625 1.5 -2.34375 2.421875q-1.328125 0.9375 -3.265625 1.453125q-1.921875 0.515625 -4.359375 0.515625q-2.46875 0 -4.84375 -0.515625l-0.765625 -6.703125q2.015625 0.40625 3.625 0.40625q2.984375 0 4.40625 -1.765625q1.4375 -1.75 2.203125 -4.453125l-12.3125 -32.453125zm45.151855 9.875l-7.765625 -1.40625q1.3125 -4.6875 4.5 -6.9375q3.203125 -2.25 9.515625 -2.25q5.71875 0 8.515625 1.359375q2.8125 1.34375 3.953125 3.4375q1.140625 2.078125 1.140625 7.65625l-0.09375 10.0q0 4.265625 0.40625 6.296875q0.421875 2.015625 1.546875 4.328125l-8.46875 0q-0.328125 -0.859375 -0.8125 -2.53125q-0.21875 -0.765625 -0.3125 -1.0q-2.1875 2.125 -4.6875 3.203125q-2.5 1.0625 -5.328125 1.0625q-5.0 0 -7.890625 -2.703125q-2.875 -2.71875 -2.875 -6.859375q0 -2.75 1.3125 -4.890625q1.3125 -2.15625 3.671875 -3.296875q2.359375 -1.140625 6.8125 -2.0q6.0 -1.125 8.3125 -2.09375l0 -0.859375q0 -2.46875 -1.21875 -3.515625q-1.21875 -1.046875 -4.59375 -1.046875q-2.28125 0 -3.5625 0.90625q-1.28125 0.890625 -2.078125 3.140625zm11.453125 6.953125q-1.640625 0.546875 -5.203125 1.3125q-3.5625 0.75 -4.671875 1.484375q-1.671875 1.1875 -1.671875 3.015625q0 1.796875 1.34375 3.109375q1.34375 1.3125 3.40625 1.3125q2.328125 0 4.421875 -1.53125q1.546875 -1.15625 2.046875 -2.828125q0.328125 -1.09375 0.328125 -4.171875l0 -1.703125zm18.495605 -8.265625l0 -8.5625l8.5625 0l0 8.5625l-8.5625 0zm0 23.796875l0 -8.5625l8.5625 0l0 8.5625l-8.5625 0z" fill-rule="nonzero"/><path fill="#000000" d="m203.4823 269.69067l-15.96875 -44.65625l9.78125 0l11.296875 33.046875l10.9375 -33.046875l9.5625 0l-15.984375 44.65625l-9.625 0zm29.033585 -36.734375l0 -7.921875l8.546875 0l0 7.921875l-8.546875 0zm0 36.734375l0 -32.359375l8.546875 0l0 32.359375l-8.546875 0zm13.880997 0l0 -6.671875l12.125 -13.921875q2.984375 -3.40625 4.421875 -4.84375q-1.5 0.09375 -3.9375 0.125l-11.421875 0.0625l0 -7.109375l26.75 0l0 6.0625l-12.359375 14.265625l-4.359375 4.71875q3.5625 -0.21875 4.40625 -0.21875l13.265625 0l0 7.53125l-28.890625 0zm55.929688 0l0 -4.84375q-1.765625 2.59375 -4.640625 4.09375q-2.875 1.484375 -6.078125 1.484375q-3.25 0 -5.84375 -1.421875q-2.59375 -1.4375 -3.75 -4.03125q-1.15625 -2.59375 -1.15625 -7.15625l0 -20.484375l8.5625 0l0 14.875q0 6.828125 0.46875 8.375q0.46875 1.53125 1.71875 2.4375q1.25 0.890625 3.171875 0.890625q2.1875 0 3.921875 -1.203125q1.75 -1.203125 2.375 -2.984375q0.640625 -1.796875 0.640625 -8.734375l0 -13.65625l8.5625 0l0 32.359375l-7.953125 0zm23.220062 -22.484375l-7.765625 -1.40625q1.3125 -4.6875 4.5 -6.9375q3.203125 -2.25 9.515625 -2.25q5.71875 0 8.515625 1.359375q2.8125 1.34375 3.953125 3.4375q1.140625 2.078125 1.140625 7.65625l-0.09375 10.0q0 4.265625 0.40625 6.296875q0.421875 2.015625 1.546875 4.328125l-8.46875 0q-0.328125 -0.859375 -0.8125 -2.53125q-0.21875 -0.765625 -0.3125 -1.0q-2.1875 2.125 -4.6875 3.203125q-2.5 1.0625 -5.328125 1.0625q-5.0 0 -7.890625 -2.703125q-2.875 -2.71875 -2.875 -6.859375q0 -2.75 1.3125 -4.890625q1.3125 -2.15625 3.671875 -3.296875q2.359375 -1.140625 6.8125 -2.0q6.0 -1.125 8.3125 -2.09375l0 -0.859375q0 -2.46875 -1.21875 -3.515625q-1.21875 -1.046875 -4.59375 -1.046875q-2.28125 0 -3.5625 0.90625q-1.28125 0.890625 -2.078125 3.140625zm11.453125 6.953125q-1.640625 0.546875 -5.203125 1.3125q-3.5625 0.75 -4.671875 1.484375q-1.671875 1.1875 -1.671875 3.015625q0 1.796875 1.34375 3.109375q1.34375 1.3125 3.40625 1.3125q2.328125 0 4.421875 -1.53125q1.546875 -1.15625 2.046875 -2.828125q0.328125 -1.09375 0.328125 -4.171875l0 -1.703125zm-9.25 -20.78125l4.203125 -9.109375l9.59375 0l-8.375 9.109375l-5.421875 0zm26.10495 36.3125l0 -44.65625l8.546875 0l0 44.65625l-8.546875 0zm17.334137 -36.734375l0 -7.921875l8.546875 0l0 7.921875l-8.546875 0zm0 36.734375l0 -32.359375l8.546875 0l0 32.359375l-8.546875 0zm14.318481 -9.234375l8.578125 -1.3125q0.546875 2.5 2.21875 3.796875q1.6875 1.296875 4.703125 1.296875q3.328125 0 5.0 -1.21875q1.125 -0.859375 1.125 -2.28125q0 -0.984375 -0.609375 -1.625q-0.640625 -0.609375 -2.859375 -1.125q-10.359375 -2.28125 -13.140625 -4.171875q-3.828125 -2.609375 -3.828125 -7.28125q0 -4.203125 3.3125 -7.0625q3.328125 -2.859375 10.296875 -2.859375q6.640625 0 9.875 2.15625q3.234375 2.15625 4.453125 6.390625l-8.078125 1.5q-0.515625 -1.890625 -1.96875 -2.890625q-1.453125 -1.015625 -4.125 -1.015625q-3.390625 0 -4.84375 0.953125q-0.984375 0.671875 -0.984375 1.734375q0 0.921875 0.859375 1.546875q1.15625 0.859375 8.0 2.421875q6.84375 1.546875 9.546875 3.796875q2.6875 2.28125 2.6875 6.375q0 4.4375 -3.71875 7.640625q-3.71875 3.203125 -11.0 3.203125q-6.609375 0 -10.46875 -2.671875q-3.84375 -2.6875 -5.03125 -7.296875zm55.126587 9.234375l0 -44.65625l18.984375 0q7.15625 0 10.40625 1.203125q3.25 1.203125 5.1875 4.28125q1.953125 3.078125 1.953125 7.03125q0 5.03125 -2.953125 8.3125q-2.953125 3.265625 -8.828125 4.125q2.921875 1.703125 4.828125 3.75q1.90625 2.03125 5.125 7.234375l5.453125 8.71875l-10.78125 0l-6.515625 -9.71875q-3.484375 -5.203125 -4.765625 -6.5625q-1.265625 -1.359375 -2.703125 -1.859375q-1.4375 -0.5 -4.53125 -0.5l-1.828125 0l0 18.640625l-9.03125 0zm9.03125 -25.765625l6.671875 0q6.484375 0 8.09375 -0.546875q1.625 -0.5625 2.53125 -1.890625q0.90625 -1.34375 0.90625 -3.359375q0 -2.25 -1.203125 -3.640625q-1.203125 -1.390625 -3.390625 -1.75q-1.09375 -0.15625 -6.578125 -0.15625l-7.03125 0l0 11.34375zm54.68152 15.46875l8.53125 1.4375q-1.65625 4.6875 -5.203125 7.140625q-3.546875 2.453125 -8.875 2.453125q-8.4375 0 -12.5 -5.515625q-3.1875 -4.421875 -3.1875 -11.15625q0 -8.03125 4.203125 -12.578125q4.203125 -4.5625 10.625 -4.5625q7.21875 0 11.390625 4.765625q4.1875 4.765625 4.0 14.609375l-21.453125 0q0.09375 3.796875 2.078125 5.921875q1.984375 2.109375 4.9375 2.109375q2.0 0 3.375 -1.09375q1.375 -1.09375 2.078125 -3.53125zm0.484375 -8.65625q-0.09375 -3.71875 -1.921875 -5.640625q-1.828125 -1.9375 -4.453125 -1.9375q-2.796875 0 -4.625 2.03125q-1.828125 2.046875 -1.796875 5.546875l12.796875 0zm44.901794 18.953125l-8.562439 0l0 -16.515625q0 -5.234375 -0.546875 -6.765625q-0.546875 -1.546875 -1.78125 -2.390625q-1.234375 -0.859375 -2.96875 -0.859375q-2.21875 0 -4.0 1.21875q-1.765625 1.21875 -2.421875 3.234375q-0.640625 2.0 -0.640625 7.421875l0 14.65625l-8.5625 0l0 -32.359375l7.953125 0l0 4.765625q4.234375 -5.484375 10.65625 -5.484375q2.828125 0 5.171875 1.015625q2.359314 1.015625 3.562439 2.609375q1.203125 1.578125 1.671875 3.59375q0.46875 2.0 0.46875 5.75l0 20.109375zm38.360718 0l-7.953125 0l0 -4.75q-1.984375 2.765625 -4.6875 4.125q-2.6875 1.359375 -5.4375 1.359375q-5.5625 0 -9.546875 -4.484375q-3.96875 -4.5 -3.96875 -12.546875q0 -8.234375 3.859375 -12.5q3.875 -4.28125 9.78125 -4.28125q5.421875 0 9.390625 4.5l0 -16.078125l8.5625 0l0 44.65625zm-22.859375 -16.875q0 5.171875 1.4375 7.484375q2.078125 3.359375 5.78125 3.359375q2.96875 0 5.03125 -2.515625q2.078125 -2.515625 2.078125 -7.5q0 -5.578125 -2.015625 -8.03125q-2.015625 -2.453125 -5.140625 -2.453125q-3.046875 0 -5.109375 2.421875q-2.0625 2.421875 -2.0625 7.234375zm50.032593 6.578125l8.53125 1.4375q-1.65625 4.6875 -5.203125 7.140625q-3.546875 2.453125 -8.875 2.453125q-8.4375 0 -12.5 -5.515625q-3.1875 -4.421875 -3.1875 -11.15625q0 -8.03125 4.203125 -12.578125q4.203125 -4.5625 10.625 -4.5625q7.21875 0 11.390625 4.765625q4.1875 4.765625 4.0 14.609375l-21.453125 0q0.09375 3.796875 2.078125 5.921875q1.984375 2.109375 4.9375 2.109375q2.0 0 3.375 -1.09375q1.375 -1.09375 2.078125 -3.53125zm0.484375 -8.65625q-0.09375 -3.71875 -1.921875 -5.640625q-1.828125 -1.9375 -4.453125 -1.9375q-2.796875 0 -4.625 2.03125q-1.828125 2.046875 -1.796875 5.546875l12.796875 0zm23.66742 18.953125l-8.5625 0l0 -32.359375l7.953125 0l0 4.609375q2.046875 -3.265625 3.671875 -4.296875q1.625 -1.03125 3.703125 -1.03125q2.921875 0 5.640625 1.609375l-2.65625 7.46875q-2.15625 -1.40625 -4.015625 -1.40625q-1.796875 0 -3.046875 1.0q-1.25 0.984375 -1.96875 3.578125q-0.71875 2.578125 -0.71875 10.828125l0 10.0zm34.826843 -10.296875l8.53125 1.4375q-1.65625 4.6875 -5.203125 7.140625q-3.546875 2.453125 -8.875 2.453125q-8.4375 0 -12.5 -5.515625q-3.1875 -4.421875 -3.1875 -11.15625q0 -8.03125 4.203125 -12.578125q4.203125 -4.5625 10.625 -4.5625q7.21875 0 11.390625 4.765625q4.1875 4.765625 4.0 14.609375l-21.453125 0q0.09375 3.796875 2.078125 5.921875q1.984375 2.109375 4.9375 2.109375q2.0 0 3.375 -1.09375q1.375 -1.09375 2.078125 -3.53125zm0.484375 -8.65625q-0.09375 -3.71875 -1.921875 -5.640625q-1.828125 -1.9375 -4.453125 -1.9375q-2.796875 0 -4.625 2.03125q-1.828125 2.046875 -1.796875 5.546875l12.796875 0zm15.47998 18.953125l0 -44.65625l8.546875 0l0 44.65625l-8.546875 0zm36.06848 -10.296875l8.53125 1.4375q-1.65625 4.6875 -5.203125 7.140625q-3.546875 2.453125 -8.875 2.453125q-8.4375 0 -12.5 -5.515625q-3.1875 -4.421875 -3.1875 -11.15625q0 -8.03125 4.203125 -12.578125q4.203125 -4.5625 10.625 -4.5625q7.21875 0 11.390625 4.765625q4.1875 4.765625 4.0 14.609375l-21.453125 0q0.09375 3.796875 2.078125 5.921875q1.984375 2.109375 4.9375 2.109375q2.0 0 3.375 -1.09375q1.375 -1.09375 2.078125 -3.53125zm0.484375 -8.65625q-0.09375 -3.71875 -1.921875 -5.640625q-1.828125 -1.9375 -4.453125 -1.9375q-2.796875 0 -4.625 2.03125q-1.828125 2.046875 -1.796875 5.546875l12.796875 0zm-10.9375 -17.359375l4.203125 -9.109375l9.59375 0l-8.375 9.109375l-5.421875 0zm23.401794 27.078125l8.578125 -1.3125q0.546875 2.5 2.21875 3.796875q1.6875 1.296875 4.703125 1.296875q3.328125 0 5.0 -1.21875q1.125 -0.859375 1.125 -2.28125q0 -0.984375 -0.609375 -1.625q-0.640625 -0.609375 -2.859375 -1.125q-10.359375 -2.28125 -13.140625 -4.171875q-3.828125 -2.609375 -3.828125 -7.28125q0 -4.203125 3.3125 -7.0625q3.328125 -2.859375 10.296875 -2.859375q6.640625 0 9.875 2.15625q3.234375 2.15625 4.453125 6.390625l-8.078125 1.5q-0.515625 -1.890625 -1.96875 -2.890625q-1.453125 -1.015625 -4.125 -1.015625q-3.390625 0 -4.84375 0.953125q-0.984375 0.671875 -0.984375 1.734375q0 0.921875 0.859375 1.546875q1.15625 0.859375 8.0 2.421875q6.84375 1.546875 9.546875 3.796875q2.6875 2.28125 2.6875 6.375q0 4.4375 -3.71875 7.640625q-3.71875 3.203125 -11.0 3.203125q-6.609375 0 -10.46875 -2.671875q-3.84375 -2.6875 -5.03125 -7.296875z" fill-rule="nonzero"/><path fill="#000000" fill-opacity="0.0" d="m32.72441 297.54593l894.55115 0l0 83.212616l-894.55115 0z" fill-rule="evenodd"/><path fill="#595959" d="m171.54198 342.38593l0 -26.71875l3.53125 0l0 13.25l13.265625 -13.25l4.796875 0l-11.203125 10.828125l11.703125 15.890625l-4.671875 0l-9.515625 -13.53125l-4.375 4.265625l0 9.265625l-3.53125 0zm37.881943 -6.234375l3.375 0.421875q-0.796875 2.96875 -2.96875 4.609375q-2.15625 1.640625 -5.53125 1.640625q-4.25 0 -6.75 -2.609375q-2.484375 -2.625 -2.484375 -7.34375q0 -4.890625 2.515625 -7.578125q2.515625 -2.703125 6.53125 -2.703125q3.890625 0 6.34375 2.640625q2.453125 2.640625 2.453125 7.4375q0 0.296875 -0.015625 0.875l-14.4375 0q0.1875 3.1875 1.8125 4.890625q1.625 1.6875 4.046875 1.6875q1.796875 0 3.078125 -0.9375q1.28125 -0.953125 2.03125 -3.03125zm-10.78125 -5.296875l10.8125 0q-0.21875 -2.453125 -1.234375 -3.671875q-1.578125 -1.890625 -4.078125 -1.890625q-2.25 0 -3.796875 1.515625q-1.53125 1.5 -1.703125 4.046875zm3.53125 -10.234375l2.421875 -5.09375l4.296875 0l-4.0 5.09375l-2.71875 0zm13.432007 15.984375l3.25 -0.5q0.28125 1.9375 1.515625 2.984375q1.25 1.03125 3.5 1.03125q2.265625 0 3.359375 -0.90625q1.09375 -0.921875 1.09375 -2.171875q0 -1.109375 -0.96875 -1.75q-0.671875 -0.4375 -3.359375 -1.109375q-3.609375 -0.90625 -5.0 -1.5625q-1.390625 -0.671875 -2.125 -1.84375q-0.71875 -1.1875 -0.71875 -2.609375q0 -1.296875 0.59375 -2.390625q0.59375 -1.109375 1.625 -1.84375q0.765625 -0.5625 2.078125 -0.953125q1.328125 -0.390625 2.84375 -0.390625q2.265625 0 3.984375 0.65625q1.734375 0.65625 2.546875 1.78125q0.828125 1.125 1.140625 3.0l-3.21875 0.4375q-0.21875 -1.5 -1.265625 -2.328125q-1.046875 -0.84375 -2.953125 -0.84375q-2.265625 0 -3.234375 0.75q-0.96875 0.734375 -0.96875 1.75q0 0.625 0.40625 1.140625q0.40625 0.53125 1.265625 0.875q0.484375 0.1875 2.890625 0.84375q3.484375 0.921875 4.859375 1.515625q1.375 0.59375 2.15625 1.734375q0.78125 1.125 0.78125 2.796875q0 1.640625 -0.953125 3.09375q-0.953125 1.453125 -2.765625 2.25q-1.796875 0.78125 -4.078125 0.78125q-3.765625 0 -5.75 -1.5625q-1.984375 -1.578125 -2.53125 -4.65625zm18.257812 5.78125l0 -2.65625l12.3125 -14.15625q-2.09375 0.109375 -3.703125 0.109375l-7.890625 0l0 -2.65625l15.828125 0l0 2.171875l-10.484375 12.28125l-2.015625 2.25q2.203125 -0.171875 4.125 -0.171875l8.953125 0l0 2.828125l-17.125 0zm21.539062 0l0 -19.359375l3.28125 0l0 19.359375l-3.28125 0zm-0.15625 -21.765625l2.421875 -5.09375l4.296875 0l-4.0 5.09375l-2.71875 0zm16.542816 18.828125l0.46875 2.90625q-1.375 0.28125 -2.46875 0.28125q-1.796875 0 -2.78125 -0.5625q-0.984375 -0.5625 -1.390625 -1.484375q-0.390625 -0.921875 -0.390625 -3.875l0 -11.140625l-2.40625 0l0 -2.546875l2.40625 0l0 -4.796875l3.265625 -1.96875l0 6.765625l3.296875 0l0 2.546875l-3.296875 0l0 11.328125q0 1.40625 0.171875 1.8125q0.171875 0.390625 0.5625 0.625q0.390625 0.234375 1.125 0.234375q0.546875 0 1.4375 -0.125zm16.464722 -3.296875l3.3749695 0.421875q-0.796875 2.96875 -2.9687195 4.609375q-2.15625 1.640625 -5.53125 1.640625q-4.25 0 -6.75 -2.609375q-2.484375 -2.625 -2.484375 -7.34375q0 -4.890625 2.515625 -7.578125q2.515625 -2.703125 6.53125 -2.703125q3.890625 0 6.3437195 2.640625q2.453125 2.640625 2.453125 7.4375q0 0.296875 -0.015625 0.875l-14.4374695 0q0.1875 3.1875 1.8125 4.890625q1.625 1.6875 4.046875 1.6875q1.796875 0 3.078125 -0.9375q1.28125 -0.953125 2.03125 -3.03125zm-10.78125 -5.296875l10.8125 0q-0.21875 -2.453125 -1.234375 -3.671875q-1.578125 -1.890625 -4.078125 -1.890625q-2.25 0 -3.796875 1.515625q-1.53125 1.5 -1.703125 4.046875zm25.447601 8.59375l0.46875 2.90625q-1.375 0.28125 -2.46875 0.28125q-1.796875 0 -2.78125 -0.5625q-0.984375 -0.5625 -1.390625 -1.484375q-0.390625 -0.921875 -0.390625 -3.875l0 -11.140625l-2.40625 0l0 -2.546875l2.40625 0l0 -4.796875l3.265625 -1.96875l0 6.765625l3.296875 0l0 2.546875l-3.296875 0l0 11.328125q0 1.40625 0.171875 1.8125q0.171875 0.390625 0.5625 0.625q0.390625 0.234375 1.125 0.234375q0.546875 0 1.4375 -0.125zm10.370972 0l0.46875 2.90625q-1.375 0.28125 -2.46875 0.28125q-1.796875 0 -2.78125 -0.5625q-0.984375 -0.5625 -1.390625 -1.484375q-0.390625 -0.921875 -0.390625 -3.875l0 -11.140625l-2.40625 0l0 -2.546875l2.40625 0l0 -4.796875l3.265625 -1.96875l0 6.765625l3.296875 0l0 2.546875l-3.296875 0l0 11.328125q0 1.40625 0.171875 1.8125q0.171875 0.390625 0.5625 0.625q0.390625 0.234375 1.125 0.234375q0.546875 0 1.4375 -0.125zm16.464722 -3.296875l3.375 0.421875q-0.796875 2.96875 -2.96875 4.609375q-2.15625 1.640625 -5.53125 1.640625q-4.25 0 -6.75 -2.609375q-2.484375 -2.625 -2.484375 -7.34375q0 -4.890625 2.515625 -7.578125q2.515625 -2.703125 6.53125 -2.703125q3.890625 0 6.34375 2.640625q2.453125 2.640625 2.453125 7.4375q0 0.296875 -0.015625 0.875l-14.4375 0q0.1875 3.1875 1.8125 4.890625q1.625 1.6875 4.046875 1.6875q1.796875 0 3.078125 -0.9375q1.28125 -0.953125 2.03125 -3.03125zm-10.78125 -5.296875l10.8125 0q-0.21875 -2.453125 -1.234375 -3.671875q-1.578125 -1.890625 -4.078125 -1.890625q-2.25 0 -3.796875 1.515625q-1.53125 1.5 -1.703125 4.046875zm19.197632 -4.09375l0 -3.734375l3.734375 0l0 3.734375l-3.734375 0zm0 15.625l0 -3.734375l3.734375 0l0 3.734375l-3.734375 0zm22.386566 -10.484375l0 -3.125l11.3125 -0.03125l0 9.921875q-2.609375 2.078125 -5.375 3.125q-2.765625 1.046875 -5.6875 1.046875q-3.9375 0 -7.15625 -1.6875q-3.21875 -1.6875 -4.859375 -4.875q-1.640625 -3.1875 -1.640625 -7.125q0 -3.90625 1.625 -7.28125q1.640625 -3.375 4.703125 -5.015625q3.0625 -1.640625 7.046875 -1.640625q2.90625 0 5.25 0.9375q2.34375 0.9375 3.671875 2.625q1.328125 1.671875 2.015625 4.359375l-3.1875 0.875q-0.59375 -2.03125 -1.5 -3.203125q-0.890625 -1.171875 -2.546875 -1.875q-1.65625 -0.703125 -3.671875 -0.703125q-2.4375 0 -4.203125 0.75q-1.765625 0.734375 -2.859375 1.9375q-1.078125 1.203125 -1.671875 2.640625q-1.03125 2.484375 -1.03125 5.375q0 3.578125 1.234375 5.984375q1.234375 2.40625 3.578125 3.578125q2.359375 1.15625 5.0 1.15625q2.296875 0 4.484375 -0.875q2.1875 -0.890625 3.3125 -1.890625l0 -4.984375l-7.84375 0zm14.878754 0.8125q0 -5.390625 3.0 -7.96875q2.484375 -2.15625 6.078125 -2.15625q4.0 0 6.53125 2.625q2.53125 2.609375 2.53125 7.21875q0 3.734375 -1.125 5.875q-1.109375 2.140625 -3.265625 3.328125q-2.140625 1.1875 -4.671875 1.1875q-4.0625 0 -6.578125 -2.609375q-2.5 -2.609375 -2.5 -7.5zm3.375 0q0 3.71875 1.625 5.5625q1.625 1.84375 4.078125 1.84375q2.453125 0 4.0625 -1.859375q1.625 -1.859375 1.625 -5.65625q0 -3.59375 -1.640625 -5.4375q-1.625 -1.859375 -4.046875 -1.859375q-2.453125 0 -4.078125 1.84375q-1.625 1.84375 -1.625 5.5625zm0.578125 -13.46875l0 -3.75l3.421875 0l0 3.75l-3.421875 0zm6.796875 0l0 -3.75l3.4375 0l0 3.75l-3.4375 0zm11.197632 23.140625l0 -19.359375l2.953125 0l0 2.9375q1.125 -2.0625 2.078125 -2.71875q0.96875 -0.65625 2.109375 -0.65625q1.671875 0 3.375 1.0625l-1.125 3.046875q-1.203125 -0.71875 -2.40625 -0.71875q-1.078125 0 -1.9375 0.65625q-0.859375 0.640625 -1.21875 1.78125q-0.546875 1.75 -0.546875 3.828125l0 10.140625l-3.28125 0zm11.8680725 1.609375l3.1875 0.46875q0.203125 1.46875 1.109375 2.15625q1.21875 0.90625 3.34375 0.90625q2.28125 0 3.515625 -0.921875q1.234375 -0.90625 1.671875 -2.546875q0.265625 -1.0 0.234375 -4.203125q-2.140625 2.53125 -5.359375 2.53125q-3.984375 0 -6.171875 -2.875q-2.1875 -2.890625 -2.1875 -6.90625q0 -2.78125 1.0 -5.125q1.0 -2.34375 2.90625 -3.609375q1.90625 -1.28125 4.484375 -1.28125q3.421875 0 5.640625 2.765625l0 -2.328125l3.03125 0l0 16.734375q0 4.515625 -0.921875 6.40625q-0.921875 1.890625 -2.921875 2.984375q-1.984375 1.09375 -4.90625 1.09375q-3.46875 0 -5.609375 -1.5625q-2.125 -1.5625 -2.046875 -4.6875zm2.71875 -11.640625q0 3.8125 1.5 5.5625q1.515625 1.75 3.796875 1.75q2.265625 0 3.796875 -1.734375q1.53125 -1.75 1.53125 -5.46875q0 -3.546875 -1.578125 -5.34375q-1.578125 -1.8125 -3.796875 -1.8125q-2.1875 0 -3.71875 1.78125q-1.53125 1.765625 -1.53125 5.265625zm18.666382 -12.921875l0 -3.765625l3.28125 0l0 3.765625l-3.28125 0zm0 22.953125l0 -19.359375l3.28125 0l0 19.359375l-3.28125 0zm20.902496 -7.09375l3.21875 0.421875q-0.515625 3.34375 -2.703125 5.234375q-2.171875 1.875 -5.34375 1.875q-3.984375 0 -6.40625 -2.59375q-2.40625 -2.59375 -2.40625 -7.453125q0 -3.125 1.03125 -5.46875q1.046875 -2.359375 3.171875 -3.53125q2.125 -1.1875 4.625 -1.1875q3.15625 0 5.15625 1.59375q2.0 1.59375 2.578125 4.53125l-3.203125 0.5q-0.453125 -1.953125 -1.609375 -2.9375q-1.15625 -0.984375 -2.796875 -0.984375q-2.484375 0 -4.03125 1.78125q-1.546875 1.765625 -1.546875 5.609375q0 3.90625 1.484375 5.671875q1.5 1.765625 3.90625 1.765625q1.9375 0 3.234375 -1.171875q1.296875 -1.1875 1.640625 -3.65625zm4.3046875 7.09375l0 -2.65625l12.3125 -14.15625q-2.09375 0.109375 -3.703125 0.109375l-7.890625 0l0 -2.65625l15.828125 0l0 2.171875l-10.484375 12.28125l-2.015625 2.25q2.203125 -0.171875 4.125 -0.171875l8.953125 0l0 2.828125l-17.125 0zm33.648438 -6.234375l3.375 0.421875q-0.796875 2.96875 -2.96875 4.609375q-2.15625 1.640625 -5.53125 1.640625q-4.25 0 -6.75 -2.609375q-2.484375 -2.625 -2.484375 -7.34375q0 -4.890625 2.515625 -7.578125q2.515625 -2.703125 6.53125 -2.703125q3.890625 0 6.34375 2.640625q2.453125 2.640625 2.453125 7.4375q0 0.296875 -0.015625 0.875l-14.4375 0q0.1875 3.1875 1.8125 4.890625q1.625 1.6875 4.046875 1.6875q1.796875 0 3.078125 -0.9375q1.28125 -0.953125 2.03125 -3.03125zm-10.78125 -5.296875l10.8125 0q-0.21875 -2.453125 -1.234375 -3.671875q-1.578125 -1.890625 -4.078125 -1.890625q-2.25 0 -3.796875 1.515625q-1.53125 1.5 -1.703125 4.046875zm41.58426 1.046875l0 -3.125l11.3125 -0.03125l0 9.921875q-2.609375 2.078125 -5.375 3.125q-2.765625 1.046875 -5.6875 1.046875q-3.9375 0 -7.15625 -1.6875q-3.2187805 -1.6875 -4.8594055 -4.875q-1.640625 -3.1875 -1.640625 -7.125q0 -3.90625 1.625 -7.28125q1.640625 -3.375 4.7031555 -5.015625q3.0625 -1.640625 7.046875 -1.640625q2.90625 0 5.25 0.9375q2.34375 0.9375 3.671875 2.625q1.328125 1.671875 2.015625 4.359375l-3.1875 0.875q-0.59375 -2.03125 -1.5 -3.203125q-0.890625 -1.171875 -2.546875 -1.875q-1.65625 -0.703125 -3.671875 -0.703125q-2.4375 0 -4.203125 0.75q-1.765625 0.734375 -2.859375 1.9375q-1.078125 1.203125 -1.6719055 2.640625q-1.03125 2.484375 -1.03125 5.375q0 3.578125 1.234375 5.984375q1.2344055 2.40625 3.5781555 3.578125q2.359375 1.15625 5.0 1.15625q2.296875 0 4.484375 -0.875q2.1875 -0.890625 3.3125 -1.890625l0 -4.984375l-7.84375 0zm29.36316 4.25l3.375 0.421875q-0.796875 2.96875 -2.96875 4.609375q-2.15625 1.640625 -5.53125 1.640625q-4.25 0 -6.75 -2.609375q-2.484375 -2.625 -2.484375 -7.34375q0 -4.890625 2.515625 -7.578125q2.515625 -2.703125 6.53125 -2.703125q3.890625 0 6.34375 2.640625q2.453125 2.640625 2.453125 7.4375q0 0.296875 -0.015625 0.875l-14.4375 0q0.1875 3.1875 1.8125 4.890625q1.625 1.6875 4.046875 1.6875q1.796875 0 3.078125 -0.9375q1.28125 -0.953125 2.03125 -3.03125zm-10.78125 -5.296875l10.8125 0q-0.21875 -2.453125 -1.234375 -3.671875q-1.578125 -1.890625 -4.078125 -1.890625q-2.25 0 -3.796875 1.515625q-1.53125 1.5 -1.703125 4.046875zm18.244507 11.53125l0 -19.359375l2.953125 0l0 2.9375q1.125 -2.0625 2.078125 -2.71875q0.96875 -0.65625 2.109375 -0.65625q1.671875 0 3.375 1.0625l-1.125 3.046875q-1.203125 -0.71875 -2.40625 -0.71875q-1.078125 0 -1.9375 0.65625q-0.859375 0.640625 -1.21875 1.78125q-0.546875 1.75 -0.546875 3.828125l0 10.140625l-3.28125 0zm11.868042 1.609375l3.1875 0.46875q0.203125 1.46875 1.109375 2.15625q1.21875 0.90625 3.34375 0.90625q2.28125 0 3.515625 -0.921875q1.234375 -0.90625 1.671875 -2.546875q0.265625 -1.0 0.234375 -4.203125q-2.140625 2.53125 -5.359375 2.53125q-3.984375 0 -6.171875 -2.875q-2.1875 -2.890625 -2.1875 -6.90625q0 -2.78125 1.0 -5.125q1.0 -2.34375 2.90625 -3.609375q1.90625 -1.28125 4.484375 -1.28125q3.421875 0 5.640625 2.765625l0 -2.328125l3.03125 0l0 16.734375q0 4.515625 -0.921875 6.40625q-0.921875 1.890625 -2.921875 2.984375q-1.984375 1.09375 -4.90625 1.09375q-3.46875 0 -5.609375 -1.5625q-2.125 -1.5625 -2.046875 -4.6875zm2.71875 -11.640625q0 3.8125 1.5 5.5625q1.515625 1.75 3.796875 1.75q2.265625 0 3.796875 -1.734375q1.53125 -1.75 1.53125 -5.46875q0 -3.546875 -1.578125 -5.34375q-1.578125 -1.8125 -3.796875 -1.8125q-2.1875 0 -3.71875 1.78125q-1.53125 1.765625 -1.53125 5.265625zm17.416382 0.359375q0 -5.390625 3.0 -7.96875q2.484375 -2.15625 6.078125 -2.15625q4.0 0 6.53125 2.625q2.53125 2.609375 2.53125 7.21875q0 3.734375 -1.125 5.875q-1.109375 2.140625 -3.265625 3.328125q-2.140625 1.1875 -4.671875 1.1875q-4.0625 0 -6.578125 -2.609375q-2.5 -2.609375 -2.5 -7.5zm3.375 0q0 3.71875 1.625 5.5625q1.625 1.84375 4.078125 1.84375q2.453125 0 4.0625 -1.859375q1.625 -1.859375 1.625 -5.65625q0 -3.59375 -1.640625 -5.4375q-1.625 -1.859375 -4.046875 -1.859375q-2.453125 0 -4.078125 1.84375q-1.625 1.84375 -1.625 5.5625zm0.546875 -12.09375l2.203125 -5.09375l4.265625 0l-3.84375 5.09375l-2.625 0zm6.3125 0l2.328125 -5.09375l4.203125 0l-3.765625 5.09375l-2.765625 0zm22.974854 21.765625l0 -3.734375l3.734375 0l0 3.734375q0 2.0625 -0.734375 3.328125q-0.71875 1.265625 -2.296875 1.953125l-0.921875 -1.40625q1.046875 -0.453125 1.53125 -1.34375q0.5 -0.875 0.546875 -2.53125l-1.859375 0zm37.835693 -26.71875l3.546875 0l0 15.4375q0 4.03125 -0.921875 6.40625q-0.90625 2.359375 -3.28125 3.84375q-2.375 1.484375 -6.25 1.484375q-3.75 0 -6.140625 -1.28125q-2.390625 -1.296875 -3.40625 -3.75q-1.015625 -2.453125 -1.015625 -6.703125l0 -15.4375l3.53125 0l0 15.421875q0 3.484375 0.640625 5.140625q0.65625 1.640625 2.234375 2.53125q1.578125 0.890625 3.859375 0.890625q3.890625 0 5.546875 -1.765625q1.65625 -1.765625 1.65625 -6.796875l0 -15.421875zm8.988403 3.8125l0 -3.8125l3.28125 0l0 3.8125l-3.28125 0zm-4.15625 30.421875l0.625 -2.796875q0.984375 0.25 1.546875 0.25q1.0 0 1.484375 -0.671875q0.5 -0.65625 0.5 -3.3125l0 -20.34375l3.28125 0l0 20.421875q0 3.5625 -0.921875 4.96875q-1.1875 1.828125 -3.9375 1.828125q-1.328125 0 -2.578125 -0.34375zm12.449402 -30.421875l0 -3.8125l3.28125 0l0 3.8125l-3.28125 0zm-4.15625 30.421875l0.625 -2.796875q0.984375 0.25 1.546875 0.25q1.0 0 1.484375 -0.671875q0.5 -0.65625 0.5 -3.3125l0 -20.34375l3.28125 0l0 20.421875q0 3.5625 -0.921875 4.96875q-1.1875 1.828125 -3.9375 1.828125q-1.328125 0 -2.578125 -0.34375zm20.335938 -7.515625l10.25 -26.71875l3.8125 0l10.9375 26.71875l-4.03125 0l-3.109375 -8.09375l-11.171875 0l-2.9375 8.09375l-3.75 0zm7.703125 -10.96875l9.0625 0l-2.796875 -7.40625q-1.265625 -3.375 -1.890625 -5.53125q-0.515625 2.5625 -1.4375 5.09375l-2.9375 7.84375zm2.203125 -17.390625l2.421875 -5.09375l4.296875 0l-4.0 5.09375l-2.71875 0zm30.053833 28.359375l0 -2.4375q-1.84375 2.875 -5.40625 2.875q-2.3125 0 -4.265625 -1.265625q-1.9375 -1.28125 -3.0 -3.5625q-1.0625 -2.296875 -1.0625 -5.265625q0 -2.90625 0.953125 -5.265625q0.96875 -2.359375 2.90625 -3.609375q1.9375 -1.265625 4.3125 -1.265625q1.75 0 3.109375 0.75q1.375 0.734375 2.234375 1.90625l0 -9.578125l3.265625 0l0 26.71875l-3.046875 0zm-10.375 -9.65625q0 3.71875 1.5625 5.5625q1.578125 1.828125 3.71875 1.828125q2.140625 0 3.640625 -1.75q1.515625 -1.765625 1.515625 -5.375q0 -3.96875 -1.53125 -5.828125q-1.53125 -1.859375 -3.78125 -1.859375q-2.1875 0 -3.65625 1.796875q-1.46875 1.78125 -1.46875 5.625zm31.213257 7.265625q-1.828125 1.546875 -3.515625 2.1875q-1.6875 0.640625 -3.609375 0.640625q-3.1875 0 -4.90625 -1.546875q-1.71875 -1.5625 -1.71875 -4.0q0 -1.421875 0.640625 -2.59375q0.65625 -1.171875 1.703125 -1.875q1.046875 -0.71875 2.359375 -1.078125q0.96875 -0.265625 2.921875 -0.5q3.96875 -0.46875 5.84375 -1.125q0.03125 -0.671875 0.03125 -0.859375q0 -2.0 -0.9375 -2.828125q-1.25 -1.109375 -3.734375 -1.109375q-2.3125 0 -3.421875 0.8125q-1.09375 0.8125 -1.625 2.875l-3.21875 -0.4375q0.4375 -2.0625 1.4375 -3.328125q1.015625 -1.265625 2.90625 -1.953125q1.890625 -0.6875 4.390625 -0.6875q2.484375 0 4.03125 0.59375q1.546875 0.578125 2.28125 1.46875q0.734375 0.875 1.015625 2.21875q0.171875 0.84375 0.171875 3.03125l0 4.375q0 4.578125 0.203125 5.796875q0.21875 1.203125 0.828125 2.3125l-3.421875 0q-0.515625 -1.015625 -0.65625 -2.390625zm-0.28125 -7.328125q-1.78125 0.734375 -5.359375 1.25q-2.015625 0.28125 -2.859375 0.65625q-0.828125 0.359375 -1.296875 1.0625q-0.453125 0.703125 -0.453125 1.5625q0 1.3125 0.984375 2.1875q1.0 0.875 2.921875 0.875q1.890625 0 3.359375 -0.828125q1.484375 -0.84375 2.1875 -2.28125q0.515625 -1.109375 0.515625 -3.28125l0 -1.203125zm-6.375 -12.046875l2.421875 -5.09375l4.296875 0l-4.0 5.09375l-2.71875 0zm14.775757 21.765625l0 -19.359375l2.9375 0l0 2.71875q0.921875 -1.421875 2.421875 -2.28125q1.515625 -0.875 3.453125 -0.875q2.15625 0 3.53125 0.890625q1.375 0.890625 1.9375 2.5q2.296875 -3.390625 5.96875 -3.390625q2.890625 0 4.4375 1.59375q1.546875 1.59375 1.546875 4.921875l0 13.28125l-3.265625 0l0 -12.1875q0 -1.96875 -0.328125 -2.828125q-0.3125 -0.875 -1.15625 -1.40625q-0.828125 -0.53125 -1.953125 -0.53125q-2.046875 0 -3.390625 1.359375q-1.34375 1.359375 -1.34375 4.34375l0 11.25l-3.28125 0l0 -12.578125q0 -2.1875 -0.8125 -3.28125q-0.796875 -1.09375 -2.625 -1.09375q-1.375 0 -2.5625 0.734375q-1.171875 0.71875 -1.703125 2.125q-0.53125 1.40625 -0.53125 4.046875l0 10.046875l-3.28125 0z" fill-rule="nonzero"/></g></svg>