<svg version="1.1" viewBox="0.0 0.0 960.0 540.0" fill="none" stroke="none" stroke-linecap="square" stroke-miterlimit="10" xmlns:xlink="http://www.w3.org/1999/xlink" xmlns="http://www.w3.org/2000/svg"><clipPath id="g39e7b8ca80c_0_105.0"><path d="m0 0l960.0 0l0 540.0l-960.0 0l0 -540.0z" clip-rule="nonzero"/></clipPath><g clip-path="url(#g39e7b8ca80c_0_105.0)"><path fill="#6fa8dc" d="m0 0l960.0 0l0 540.0l-960.0 0z" fill-rule="evenodd"/><path fill="#000000" fill-opacity="0.0" d="m32.72441 46.721786l894.55115 0l0 60.125984l-894.55115 0z" fill-rule="evenodd"/><path fill="#000000" d="m44.865036 96.04179l0 -30.0625l6.0625 0l0 13.34375l12.265625 -13.34375l8.171875 0l-11.328125 11.703125l11.9375 18.359375l-7.859375 0l-8.265625 -14.109375l-4.921875 5.03125l0 9.078125l-6.0625 0zm28.87793 -11.203125q0 -2.859375 1.40625 -5.546875q1.421875 -2.6875 4.015625 -4.09375q2.59375 -1.421875 5.796875 -1.421875q4.9375 0 8.09375 3.203125q3.15625 3.203125 3.15625 8.109375q0 4.9375 -3.1875 8.203125q-3.1875 3.25 -8.03125 3.25q-2.984375 0 -5.703125 -1.359375q-2.71875 -1.359375 -4.140625 -3.96875q-1.40625 -2.609375 -1.40625 -6.375zm5.90625 0.3125q0 3.234375 1.53125 4.96875q1.546875 1.71875 3.796875 1.71875q2.25 0 3.78125 -1.71875q1.53125 -1.734375 1.53125 -5.015625q0 -3.1875 -1.53125 -4.90625q-1.53125 -1.734375 -3.78125 -1.734375q-2.25 0 -3.796875 1.734375q-1.53125 1.71875 -1.53125 4.953125zm-1.78125 -14.75l0 -4.9375l4.9375 0l0 4.9375l-4.9375 0zm8.8125 0l0 -4.9375l4.96875 0l0 4.9375l-4.96875 0zm12.014648 19.421875l5.78125 -0.875q0.375 1.671875 1.5 2.546875q1.125 0.875 3.15625 0.875q2.234375 0 3.359375 -0.8125q0.765625 -0.578125 0.765625 -1.546875q0 -0.65625 -0.40625 -1.078125q-0.4375 -0.421875 -1.9375 -0.765625q-6.96875 -1.53125 -8.828125 -2.8125q-2.59375 -1.765625 -2.59375 -4.90625q0 -2.828125 2.234375 -4.75q2.234375 -1.921875 6.9375 -1.921875q4.46875 0 6.640625 1.453125q2.171875 1.453125 3.0 4.296875l-5.4375 1.015625q-0.34375 -1.28125 -1.328125 -1.953125q-0.96875 -0.671875 -2.78125 -0.671875q-2.265625 0 -3.25 0.625q-0.65625 0.453125 -0.65625 1.171875q0 0.625 0.578125 1.046875q0.765625 0.578125 5.375 1.625q4.609375 1.046875 6.4375 2.5625q1.796875 1.53125 1.796875 4.28125q0 3.0 -2.5 5.15625q-2.5 2.15625 -7.40625 2.15625q-4.453125 0 -7.046875 -1.8125q-2.59375 -1.8125 -3.390625 -4.90625zm23.077148 6.21875l0 -4.484375l8.15625 -9.375q2.015625 -2.296875 2.96875 -3.265625q-1.0 0.0625 -2.640625 0.078125l-7.6875 0.046875l0 -4.78125l18.0 0l0 4.078125l-8.328125 9.609375l-2.921875 3.171875q2.390625 -0.140625 2.96875 -0.140625l8.921875 0l0 5.0625l-19.4375 0zm21.984375 -11.203125q0 -2.859375 1.40625 -5.546875q1.421875 -2.6875 4.015625 -4.09375q2.59375 -1.421875 5.796875 -1.421875q4.9375 0 8.09375 3.203125q3.15625 3.203125 3.15625 8.109375q0 4.9375 -3.1875 8.203125q-3.1875 3.25 -8.03125 3.25q-2.984375 0 -5.703125 -1.359375q-2.71875 -1.359375 -4.140625 -3.96875q-1.40625 -2.609375 -1.40625 -6.375zm5.90625 0.3125q0 3.234375 1.53125 4.96875q1.546875 1.71875 3.796875 1.71875q2.25 0 3.78125 -1.71875q1.53125 -1.734375 1.53125 -5.015625q0 -3.1875 -1.53125 -4.90625q-1.53125 -1.734375 -3.78125 -1.734375q-2.25 0 -3.796875 1.734375q-1.53125 1.71875 -1.53125 4.953125zm-1.78125 -14.75l0 -4.9375l4.9375 0l0 4.9375l-4.9375 0zm8.8125 0l0 -4.9375l4.96875 0l0 4.9375l-4.96875 0zm33.8584 25.640625l-5.765625 0l0 -11.109375q0 -3.53125 -0.375 -4.5625q-0.359375 -1.046875 -1.203125 -1.609375q-0.828125 -0.578125 -1.984375 -0.578125q-1.5 0 -2.6875 0.828125q-1.1875 0.8125 -1.640625 2.171875q-0.4375 1.34375 -0.4375 5.0l0 9.859375l-5.765625 0l0 -21.78125l5.359375 0l0 3.203125q2.84375 -3.6875 7.171875 -3.6875q1.90625 0 3.484375 0.6875q1.578125 0.6875 2.390625 1.75q0.8125 1.0625 1.125 2.421875q0.328125 1.34375 0.328125 3.875l0 13.53125zm4.5146484 -11.203125q0 -2.859375 1.40625 -5.546875q1.421875 -2.6875 4.015625 -4.09375q2.59375 -1.421875 5.796875 -1.421875q4.9375 0 8.09375 3.203125q3.15625 3.203125 3.15625 8.109375q0 4.9375 -3.1875 8.203125q-3.1875 3.25 -8.03125 3.25q-2.984375 0 -5.703125 -1.359375q-2.71875 -1.359375 -4.140625 -3.96875q-1.40625 -2.609375 -1.40625 -6.375zm5.90625 0.3125q0 3.234375 1.53125 4.96875q1.546875 1.71875 3.796875 1.71875q2.25 0 3.78125 -1.71875q1.53125 -1.734375 1.53125 -5.015625q0 -3.1875 -1.53125 -4.90625q-1.53125 -1.734375 -3.78125 -1.734375q-2.25 0 -3.796875 1.734375q-1.53125 1.71875 -1.53125 4.953125zm-1.78125 -14.75l0 -4.9375l4.9375 0l0 4.9375l-4.9375 0zm8.8125 0l0 -4.9375l4.96875 0l0 4.9375l-4.96875 0zm13.608398 3.859375l5.3125 0l0 2.96875q2.859375 -3.453125 6.796875 -3.453125q2.09375 0 3.625 0.859375q1.546875 0.859375 2.53125 2.59375q1.421875 -1.734375 3.078125 -2.59375q1.671875 -0.859375 3.5625 -0.859375q2.390625 0 4.046875 0.96875q1.671875 0.96875 2.484375 2.859375q0.609375 1.390625 0.609375 4.515625l0 13.921875l-5.765625 0l0 -12.453125q0 -3.234375 -0.59375 -4.171875q-0.8125 -1.234375 -2.46875 -1.234375q-1.203125 0 -2.28125 0.734375q-1.0625 0.734375 -1.53125 2.171875q-0.46875 1.421875 -0.46875 4.5l0 10.453125l-5.765625 0l0 -11.9375q0 -3.171875 -0.3125 -4.09375q-0.296875 -0.921875 -0.953125 -1.375q-0.640625 -0.453125 -1.75 -0.453125q-1.328125 0 -2.40625 0.71875q-1.0625 0.71875 -1.53125 2.078125q-0.453125 1.34375 -0.453125 4.484375l0 10.578125l-5.765625 0l0 -21.78125zm53.763657 6.640625l-5.234375 -0.9375q0.875 -3.15625 3.03125 -4.671875q2.15625 -1.515625 6.40625 -1.515625q3.84375 0 5.734375 0.90625q1.890625 0.90625 2.65625 2.3125q0.765625 1.40625 0.765625 5.15625l-0.0625 6.734375q0 2.875 0.28125 4.234375q0.28125 1.359375 1.03125 2.921875l-5.6875 0q-0.234375 -0.578125 -0.5625 -1.703125q-0.140625 -0.515625 -0.203125 -0.671875q-1.484375 1.4375 -3.171875 2.15625q-1.671875 0.71875 -3.578125 0.71875q-3.359375 0 -5.296875 -1.828125q-1.9375 -1.828125 -1.9375 -4.625q0 -1.84375 0.875 -3.28125q0.890625 -1.453125 2.46875 -2.21875q1.59375 -0.765625 4.59375 -1.34375q4.03125 -0.765625 5.59375 -1.421875l0 -0.5625q0 -1.671875 -0.828125 -2.375q-0.8125 -0.703125 -3.09375 -0.703125q-1.53125 0 -2.390625 0.609375q-0.859375 0.59375 -1.390625 2.109375zm7.703125 4.6875q-1.109375 0.359375 -3.515625 0.875q-2.390625 0.515625 -3.125 1.0q-1.125 0.8125 -1.125 2.03125q0 1.21875 0.890625 2.109375q0.90625 0.875 2.296875 0.875q1.5625 0 2.984375 -1.03125q1.046875 -0.78125 1.375 -1.90625q0.21875 -0.734375 0.21875 -2.8125l0 -1.140625zm20.496094 -11.328125l3.1875 0l0 -1.640625q0 -2.75 0.578125 -4.09375q0.59375 -1.359375 2.15625 -2.203125q1.578125 -0.859375 3.96875 -0.859375q2.46875 0 4.828125 0.734375l-0.78125 4.03125q-1.375 -0.328125 -2.640625 -0.328125q-1.25 0 -1.796875 0.578125q-0.546875 0.578125 -0.546875 2.25l0 1.53125l4.3125 0l0 4.53125l-4.3125 0l0 17.25l-5.765625 0l0 -17.25l-3.1875 0l0 -4.53125zm16.501953 -2.953125l0 -5.328125l5.765625 0l0 5.328125l-5.765625 0zm0 24.734375l0 -21.78125l5.765625 0l0 21.78125l-5.765625 0zm11.137695 1.4375l6.578125 0.796875q0.171875 1.15625 0.765625 1.578125q0.8125 0.625 2.578125 0.625q2.25 0 3.390625 -0.6875q0.75 -0.453125 1.140625 -1.453125q0.265625 -0.71875 0.265625 -2.640625l0 -3.1875q-2.578125 3.53125 -6.515625 3.53125q-4.390625 0 -6.953125 -3.71875q-2.015625 -2.921875 -2.015625 -7.296875q0 -5.46875 2.640625 -8.359375q2.640625 -2.890625 6.546875 -2.890625q4.046875 0 6.671875 3.546875l0 -3.0625l5.390625 0l0 19.546875q0 3.859375 -0.640625 5.765625q-0.625 1.90625 -1.78125 2.984375q-1.140625 1.09375 -3.0625 1.703125q-1.921875 0.625 -4.84375 0.625q-5.546875 0 -7.859375 -1.90625q-2.3125 -1.890625 -2.3125 -4.796875q0 -0.296875 0.015625 -0.703125zm5.140625 -12.78125q0 3.46875 1.34375 5.078125q1.34375 1.609375 3.3125 1.609375q2.109375 0 3.5625 -1.640625q1.46875 -1.65625 1.46875 -4.90625q0 -3.375 -1.40625 -5.015625q-1.390625 -1.640625 -3.515625 -1.640625q-2.078125 0 -3.421875 1.609375q-1.34375 1.609375 -1.34375 4.90625zm18.311523 -10.4375l6.140625 0l5.203125 15.46875l5.09375 -15.46875l5.96875 0l-7.703125 20.953125l-1.359375 3.796875q-0.765625 1.90625 -1.453125 2.90625q-0.6875 1.015625 -1.578125 1.640625q-0.890625 0.625 -2.203125 0.96875q-1.296875 0.359375 -2.9375 0.359375q-1.65625 0 -3.265625 -0.359375l-0.5 -4.5q1.34375 0.265625 2.4375 0.265625q2.0 0 2.96875 -1.1875q0.96875 -1.171875 1.484375 -3.0l-8.296875 -21.84375zm38.70215 14.84375l5.75 0.96875q-1.109375 3.15625 -3.5 4.8125q-2.390625 1.65625 -5.984375 1.65625q-5.671875 0 -8.40625 -3.71875q-2.15625 -2.96875 -2.15625 -7.5q0 -5.421875 2.828125 -8.484375q2.84375 -3.0625 7.171875 -3.0625q4.859375 0 7.65625 3.203125q2.8125 3.203125 2.6875 9.828125l-14.4375 0q0.0625 2.5625 1.390625 4.0q1.34375 1.421875 3.328125 1.421875q1.359375 0 2.28125 -0.734375q0.921875 -0.75 1.390625 -2.390625zm0.328125 -5.8125q-0.0625 -2.515625 -1.296875 -3.8125q-1.21875 -1.296875 -2.984375 -1.296875q-1.890625 0 -3.125 1.375q-1.21875 1.375 -1.203125 3.734375l8.609375 0zm10.420898 12.75l0 -30.0625l5.765625 0l0 30.0625l-5.765625 0zm11.231445 -21.78125l5.3125 0l0 2.96875q2.859375 -3.453125 6.796875 -3.453125q2.09375 0 3.625 0.859375q1.546875 0.859375 2.53125 2.59375q1.421875 -1.734375 3.078125 -2.59375q1.671875 -0.859375 3.5625 -0.859375q2.390625 0 4.046875 0.96875q1.671875 0.96875 2.484375 2.859375q0.609375 1.390625 0.609375 4.515625l0 13.921875l-5.765625 0l0 -12.453125q0 -3.234375 -0.59375 -4.171875q-0.8125 -1.234375 -2.46875 -1.234375q-1.203125 0 -2.28125 0.734375q-1.0625 0.734375 -1.53125 2.171875q-0.46875 1.421875 -0.46875 4.5l0 10.453125l-5.765625 0l0 -11.9375q0 -3.171875 -0.3125 -4.09375q-0.296875 -0.921875 -0.953125 -1.375q-0.640625 -0.453125 -1.75 -0.453125q-1.328125 0 -2.40625 0.71875q-1.0625 0.71875 -1.53125 2.078125q-0.453125 1.34375 -0.453125 4.484375l0 10.578125l-5.765625 0l0 -21.78125zm50.3916 14.84375l5.75 0.96875q-1.109375 3.15625 -3.5 4.8125q-2.390625 1.65625 -5.984375 1.65625q-5.671875 0 -8.40625 -3.71875q-2.15625 -2.96875 -2.15625 -7.5q0 -5.421875 2.828125 -8.484375q2.84375 -3.0625 7.171875 -3.0625q4.859375 0 7.65625 3.203125q2.8125 3.203125 2.6875 9.828125l-14.4375 0q0.0625 2.5625 1.390625 4.0q1.34375 1.421875 3.328125 1.421875q1.359375 0 2.28125 -0.734375q0.921875 -0.75 1.390625 -2.390625zm0.328125 -5.8125q-0.0625 -2.515625 -1.296875 -3.8125q-1.21875 -1.296875 -2.984375 -1.296875q-1.890625 0 -3.125 1.375q-1.21875 1.375 -1.203125 3.734375l8.609375 0zm20.405273 -9.03125l0 4.59375l-3.9375 0l0 8.78125q0 2.65625 0.109375 3.109375q0.125 0.4375 0.515625 0.734375q0.40625 0.28125 0.984375 0.28125q0.796875 0 2.3125 -0.5625l0.484375 4.46875q-2.0 0.875 -4.546875 0.875q-1.5625 0 -2.8125 -0.515625q-1.25 -0.53125 -1.84375 -1.359375q-0.578125 -0.84375 -0.796875 -2.25q-0.1875 -1.015625 -0.1875 -4.0625l0 -9.5l-2.640625 0l0 -4.59375l2.640625 0l0 -4.328125l5.78125 -3.359375l0 7.6875l3.9375 0zm6.251953 14.03125l-1.484375 -15.265625l0 -7.046875l6.234375 0l0 7.046875l-1.484375 15.265625l-3.265625 0zm-1.25 7.75l0 -5.765625l5.765625 0l0 5.765625l-5.765625 0z" fill-rule="nonzero"/><path fill="#000000" fill-opacity="0.0" d="m32.72441 172.36484l894.55115 0l0 307.30707l-894.55115 0z" fill-rule="evenodd"/></g></svg>