<svg version="1.1" viewBox="0.0 0.0 960.0 540.0" fill="none" stroke="none" stroke-linecap="square" stroke-miterlimit="10" xmlns:xlink="http://www.w3.org/1999/xlink" xmlns="http://www.w3.org/2000/svg"><clipPath id="g39e899d7e67_0_30.0"><path d="m0 0l960.0 0l0 540.0l-960.0 0l0 -540.0z" clip-rule="nonzero"/></clipPath><g clip-path="url(#g39e899d7e67_0_30.0)"><path fill="#6fa8dc" d="m0 0l960.0 0l0 540.0l-960.0 0z" fill-rule="evenodd"/><path fill="#000000" fill-opacity="0.0" d="m32.72441 46.721786l894.55115 0l0 60.125984l-894.55115 0z" fill-rule="evenodd"/><path fill="#000000" d="m71.896286 96.04179l-6.609375 0l-2.625 -6.828125l-12.015625 0l-2.484375 6.828125l-6.4375 0l11.703125 -30.0625l6.421875 0l12.046875 30.0625zm-11.1875 -11.890625l-4.140625 -11.15625l-4.0625 11.15625l8.203125 0zm24.347656 -12.84375l0 -5.328125l5.765625 0l0 5.328125l-5.765625 0zm5.765625 2.953125l0 21.109375q0 4.15625 -0.546875 5.859375q-0.546875 1.71875 -2.09375 2.6875q-1.546875 0.96875 -3.9375 0.96875q-0.875 0 -1.875 -0.15625q-0.984375 -0.15625 -2.125 -0.46875l1.0 -4.921875q0.40625 0.09375 0.765625 0.140625q0.359375 0.046875 0.671875 0.046875q0.875 0 1.4375 -0.375q0.5625 -0.375 0.75 -0.921875q0.1875 -0.53125 0.1875 -3.1875l0 -20.78125l5.765625 0zm4.7001953 10.578125q0 -2.859375 1.40625 -5.546875q1.421875 -2.6875 4.015625 -4.09375q2.59375 -1.421875 5.796875 -1.421875q4.9375 0 8.09375 3.203125q3.15625 3.203125 3.15625 8.109375q0 4.9375 -3.1875 8.203125q-3.1875 3.25 -8.03125 3.25q-2.984375 0 -5.703125 -1.359375q-2.71875 -1.359375 -4.140625 -3.96875q-1.40625 -2.609375 -1.40625 -6.375zm5.90625 0.3125q0 3.234375 1.53125 4.96875q1.546875 1.71875 3.796875 1.71875q2.25 0 3.78125 -1.71875q1.53125 -1.734375 1.53125 -5.015625q0 -3.1875 -1.53125 -4.90625q-1.53125 -1.734375 -3.78125 -1.734375q-2.25 0 -3.796875 1.734375q-1.53125 1.71875 -1.53125 4.953125zm-1.78125 -14.75l0 -4.9375l4.9375 0l0 4.9375l-4.9375 0zm8.8125 0l0 -4.9375l4.96875 0l0 4.9375l-4.96875 0zm20.030273 25.640625l-8.78125 -21.78125l6.0625 0l4.09375 11.109375l1.1875 3.71875q0.46875 -1.421875 0.59375 -1.859375q0.296875 -0.921875 0.625 -1.859375l4.140625 -11.109375l5.921875 0l-8.65625 21.78125l-5.1875 0zm16.045898 -11.203125q0 -2.859375 1.40625 -5.546875q1.421875 -2.6875 4.015625 -4.09375q2.59375 -1.421875 5.796875 -1.421875q4.9375 0 8.09375 3.203125q3.15625 3.203125 3.15625 8.109375q0 4.9375 -3.1875 8.203125q-3.1875 3.25 -8.03125 3.25q-2.984375 0 -5.703125 -1.359375q-2.71875 -1.359375 -4.140625 -3.96875q-1.40625 -2.609375 -1.40625 -6.375zm5.90625 0.3125q0 3.234375 1.53125 4.96875q1.546875 1.71875 3.796875 1.71875q2.25 0 3.78125 -1.71875q1.53125 -1.734375 1.53125 -5.015625q0 -3.1875 -1.53125 -4.90625q-1.53125 -1.734375 -3.78125 -1.734375q-2.25 0 -3.796875 1.734375q-1.53125 1.71875 -1.53125 4.953125zm-1.75 -13.65625l2.84375 -6.109375l6.03125 0l-5.265625 6.109375l-3.609375 0zm7.71875 0l2.890625 -6.109375l5.859375 0l-5.0625 6.109375l-3.6875 0zm16.217773 8.53125l0 -5.765625l5.765625 0l0 5.765625l-5.765625 0zm0 16.015625l0 -5.765625l5.765625 0l0 5.765625l-5.765625 0zm44.3584 0l-5.765625 0l0 -11.109375q0 -3.53125 -0.375 -4.5625q-0.359375 -1.046875 -1.203125 -1.609375q-0.828125 -0.578125 -1.984375 -0.578125q-1.5 0 -2.6875 0.828125q-1.1875 0.8125 -1.640625 2.171875q-0.4375 1.34375 -0.4375 5.0l0 9.859375l-5.765625 0l0 -21.78125l5.359375 0l0 3.203125q2.84375 -3.6875 7.171875 -3.6875q1.90625 0 3.484375 0.6875q1.578125 0.6875 2.390625 1.75q0.8125 1.0625 1.125 2.421875q0.328125 1.34375 0.328125 3.875l0 13.53125zm18.452148 -6.9375l5.75 0.96875q-1.109375 3.15625 -3.5 4.8125q-2.390625 1.65625 -5.984375 1.65625q-5.671875 0 -8.40625 -3.71875q-2.15625 -2.96875 -2.15625 -7.5q0 -5.421875 2.828125 -8.484375q2.84375 -3.0625 7.171875 -3.0625q4.859375 0 7.65625 3.203125q2.8125 3.203125 2.6875 9.828125l-14.4375 0q0.0625 2.5625 1.390625 4.0q1.34375 1.421875 3.328125 1.421875q1.359375 0 2.28125 -0.734375q0.921875 -0.75 1.390625 -2.390625zm0.328125 -5.8125q-0.0625 -2.515625 -1.296875 -3.8125q-1.21875 -1.296875 -2.984375 -1.296875q-1.890625 0 -3.125 1.375q-1.21875 1.375 -1.203125 3.734375l8.609375 0zm24.749008 12.75l0 -3.265625q-1.1875 1.75 -3.125 2.765625q-1.9374847 1.0 -4.0937347 1.0q-2.1875 0 -3.9375 -0.96875q-1.734375 -0.96875 -2.515625 -2.703125q-0.78125 -1.75 -0.78125 -4.828125l0 -13.78125l5.765625 0l0 10.015625q0 4.59375 0.3125 5.625q0.328125 1.03125 1.15625 1.640625q0.84375 0.609375 2.140625 0.609375q1.4687347 0 2.6406097 -0.8125q1.171875 -0.8125 1.59375 -2.015625q0.4375 -1.203125 0.4375 -5.875l0 -9.1875l5.765625 0l0 21.78125l-5.359375 0zm16.842773 0l-5.765625 0l0 -21.78125l5.359375 0l0 3.09375q1.375 -2.1875 2.46875 -2.875q1.09375 -0.703125 2.484375 -0.703125q1.96875 0 3.796875 1.078125l-1.78125 5.03125q-1.453125 -0.953125 -2.703125 -0.953125q-1.21875 0 -2.0625 0.671875q-0.828125 0.671875 -1.3125 2.421875q-0.484375 1.734375 -0.484375 7.28125l0 6.734375zm15.141602 -15.140625l-5.234375 -0.9375q0.875 -3.15625 3.03125 -4.671875q2.15625 -1.515625 6.40625 -1.515625q3.84375 0 5.734375 0.90625q1.890625 0.90625 2.65625 2.3125q0.765625 1.40625 0.765625 5.15625l-0.0625 6.734375q0 2.875 0.28125 4.234375q0.28125 1.359375 1.03125 2.921875l-5.6875 0q-0.234375 -0.578125 -0.5625 -1.703125q-0.140625 -0.515625 -0.203125 -0.671875q-1.484375 1.4375 -3.171875 2.15625q-1.671875 0.71875 -3.578125 0.71875q-3.359375 0 -5.296875 -1.828125q-1.9375 -1.828125 -1.9375 -4.625q0 -1.84375 0.875 -3.28125q0.890625 -1.453125 2.46875 -2.21875q1.59375 -0.765625 4.59375 -1.34375q4.03125 -0.765625 5.59375 -1.421875l0 -0.5625q0 -1.671875 -0.828125 -2.375q-0.8125 -0.703125 -3.09375 -0.703125q-1.53125 0 -2.390625 0.609375q-0.859375 0.59375 -1.390625 2.109375zm7.703125 4.6875q-1.109375 0.359375 -3.515625 0.875q-2.390625 0.515625 -3.125 1.0q-1.125 0.8125 -1.125 2.03125q0 1.21875 0.890625 2.109375q0.90625 0.875 2.296875 0.875q1.5625 0 2.984375 -1.03125q1.046875 -0.78125 1.375 -1.90625q0.21875 -0.734375 0.21875 -2.8125l0 -1.140625zm-6.234375 -14.0l2.84375 -6.125l6.453125 0l-5.640625 6.125l-3.65625 0zm17.577148 24.453125l0 -30.0625l5.765625 0l0 30.0625l-5.765625 0zm11.668945 -24.734375l0 -5.328125l5.765625 0l0 5.328125l-5.765625 0zm0 24.734375l0 -21.78125l5.765625 0l0 21.78125l-5.765625 0zm9.637695 -6.21875l5.78125 -0.875q0.375 1.671875 1.5 2.546875q1.125 0.875 3.15625 0.875q2.234375 0 3.359375 -0.8125q0.765625 -0.578125 0.765625 -1.546875q0 -0.65625 -0.40625 -1.078125q-0.4375 -0.421875 -1.9375 -0.765625q-6.96875 -1.53125 -8.828125 -2.8125q-2.59375 -1.765625 -2.59375 -4.90625q0 -2.828125 2.234375 -4.75q2.234375 -1.921875 6.9375 -1.921875q4.46875 0 6.640625 1.453125q2.171875 1.453125 3.0 4.296875l-5.4375 1.015625q-0.34375 -1.28125 -1.328125 -1.953125q-0.96875 -0.671875 -2.78125 -0.671875q-2.265625 0 -3.25 0.625q-0.65625 0.453125 -0.65625 1.171875q0 0.625 0.578125 1.046875q0.765625 0.578125 5.375 1.625q4.609375 1.046875 6.4375 2.5625q1.796875 1.53125 1.796875 4.28125q0 3.0 -2.5 5.15625q-2.5 2.15625 -7.40625 2.15625q-4.453125 0 -7.046875 -1.8125q-2.59375 -1.8125 -3.390625 -4.90625zm42.57422 6.21875l-5.765625 0l0 -21.78125l5.359375 0l0 3.09375q1.375 -2.1875 2.46875 -2.875q1.09375 -0.703125 2.484375 -0.703125q1.96875 0 3.796875 1.078125l-1.78125 5.03125q-1.453125 -0.953125 -2.703125 -0.953125q-1.21875 0 -2.0625 0.671875q-0.828125 0.671875 -1.3125 2.421875q-0.484375 1.734375 -0.484375 7.28125l0 6.734375zm23.438477 -6.9375l5.75 0.96875q-1.109375 3.15625 -3.5 4.8125q-2.390625 1.65625 -5.984375 1.65625q-5.671875 0 -8.40625 -3.71875q-2.15625 -2.96875 -2.15625 -7.5q0 -5.421875 2.828125 -8.484375q2.84375 -3.0625 7.171875 -3.0625q4.859375 0 7.65625 3.203125q2.8125 3.203125 2.6875 9.828125l-14.4375 0q0.0625 2.5625 1.390625 4.0q1.34375 1.421875 3.328125 1.421875q1.359375 0 2.28125 -0.734375q0.921875 -0.75 1.390625 -2.390625zm0.328125 -5.8125q-0.0625 -2.515625 -1.296875 -3.8125q-1.21875 -1.296875 -2.984375 -1.296875q-1.890625 0 -3.125 1.375q-1.21875 1.375 -1.203125 3.734375l8.609375 0zm30.233398 12.75l-5.765625 0l0 -11.109375q0 -3.53125 -0.375 -4.5625q-0.359375 -1.046875 -1.203125 -1.609375q-0.828125 -0.578125 -1.984375 -0.578125q-1.5 0 -2.6875 0.828125q-1.1875 0.8125 -1.640625 2.171875q-0.4375 1.34375 -0.4375 5.0l0 9.859375l-5.765625 0l0 -21.78125l5.359375 0l0 3.203125q2.84375 -3.6875 7.171875 -3.6875q1.90625 0 3.484375 0.6875q1.578125 0.6875 2.390625 1.75q0.8125 1.0625 1.125 2.421875q0.328125 1.34375 0.328125 3.875l0 13.53125zm25.811523 0l-5.34375 0l0 -3.203125q-1.34375 1.875 -3.15625 2.796875q-1.8125 0.90625 -3.65625 0.90625q-3.75 0 -6.4375 -3.03125q-2.671875 -3.03125 -2.671875 -8.4375q0 -5.546875 2.609375 -8.421875q2.609375 -2.875 6.578125 -2.875q3.65625 0 6.328125 3.03125l0 -10.828125l5.75 0l0 30.0625zm-15.375 -11.359375q0 3.484375 0.96875 5.046875q1.390625 2.25 3.890625 2.25q1.984375 0 3.375 -1.6875q1.40625 -1.6875 1.40625 -5.0625q0 -3.75 -1.359375 -5.390625q-1.34375 -1.65625 -3.46875 -1.65625q-2.046875 0 -3.4375 1.625q-1.375 1.625 -1.375 4.875zm33.6709 4.421875l5.75 0.96875q-1.109375 3.15625 -3.5 4.8125q-2.390625 1.65625 -5.984375 1.65625q-5.671875 0 -8.40625 -3.71875q-2.15625 -2.96875 -2.15625 -7.5q0 -5.421875 2.828125 -8.484375q2.84375 -3.0625 7.171875 -3.0625q4.859375 0 7.65625 3.203125q2.8125 3.203125 2.6875 9.828125l-14.4375 0q0.0625 2.5625 1.390625 4.0q1.34375 1.421875 3.328125 1.421875q1.359375 0 2.28125 -0.734375q0.921875 -0.75 1.390625 -2.390625zm0.328125 -5.8125q-0.0625 -2.515625 -1.296875 -3.8125q-1.21875 -1.296875 -2.984375 -1.296875q-1.890625 0 -3.125 1.375q-1.21875 1.375 -1.203125 3.734375l8.609375 0zm15.936523 12.75l-5.765625 0l0 -21.78125l5.359375 0l0 3.09375q1.375 -2.1875 2.46875 -2.875q1.09375 -0.703125 2.484375 -0.703125q1.96875 0 3.796875 1.078125l-1.78125 5.03125q-1.453125 -0.953125 -2.703125 -0.953125q-1.21875 0 -2.0625 0.671875q-0.828125 0.671875 -1.3125 2.421875q-0.484375 1.734375 -0.484375 7.28125l0 6.734375zm23.438507 -6.9375l5.75 0.96875q-1.109375 3.15625 -3.5 4.8125q-2.390625 1.65625 -5.9844055 1.65625q-5.671875 0 -8.40625 -3.71875q-2.15625 -2.96875 -2.15625 -7.5q0 -5.421875 2.828125 -8.484375q2.84375 -3.0625 7.171875 -3.0625q4.8594055 0 7.6562805 3.203125q2.8125 3.203125 2.6875 9.828125l-14.4375305 0q0.0625 2.5625 1.390625 4.0q1.34375 1.421875 3.328125 1.421875q1.359375 0 2.28125 -0.734375q0.9219055 -0.75 1.3906555 -2.390625zm0.328125 -5.8125q-0.0625 -2.515625 -1.296875 -3.8125q-1.2187805 -1.296875 -2.9844055 -1.296875q-1.890625 0 -3.125 1.375q-1.21875 1.375 -1.203125 3.734375l8.6094055 0zm10.420898 12.75l0 -30.0625l5.765625 0l0 30.0625l-5.765625 0zm24.27832 -6.9375l5.75 0.96875q-1.109375 3.15625 -3.5 4.8125q-2.390625 1.65625 -5.984375 1.65625q-5.671875 0 -8.40625 -3.71875q-2.15625 -2.96875 -2.15625 -7.5q0 -5.421875 2.828125 -8.484375q2.84375 -3.0625 7.171875 -3.0625q4.859375 0 7.65625 3.203125q2.8125 3.203125 2.6875 9.828125l-14.4375 0q0.0625 2.5625 1.390625 4.0q1.34375 1.421875 3.328125 1.421875q1.359375 0 2.28125 -0.734375q0.921875 -0.75 1.390625 -2.390625zm0.328125 -5.8125q-0.0625 -2.515625 -1.296875 -3.8125q-1.21875 -1.296875 -2.984375 -1.296875q-1.890625 0 -3.125 1.375q-1.21875 1.375 -1.203125 3.734375l8.609375 0zm-7.359375 -11.703125l2.84375 -6.125l6.453125 0l-5.640625 6.125l-3.65625 0zm15.749023 18.234375l5.78125 -0.875q0.375 1.671875 1.5 2.546875q1.125 0.875 3.15625 0.875q2.234375 0 3.359375 -0.8125q0.765625 -0.578125 0.765625 -1.546875q0 -0.65625 -0.40625 -1.078125q-0.4375 -0.421875 -1.9375 -0.765625q-6.96875 -1.53125 -8.828125 -2.8125q-2.59375 -1.765625 -2.59375 -4.90625q0 -2.828125 2.234375 -4.75q2.234375 -1.921875 6.9375 -1.921875q4.46875 0 6.640625 1.453125q2.171875 1.453125 3.0 4.296875l-5.4375 1.015625q-0.34375 -1.28125 -1.328125 -1.953125q-0.96875 -0.671875 -2.78125 -0.671875q-2.265625 0 -3.25 0.625q-0.65625 0.453125 -0.65625 1.171875q0 0.625 0.578125 1.046875q0.765625 0.578125 5.375 1.625q4.609375 1.046875 6.4375 2.5625q1.796875 1.53125 1.796875 4.28125q0 3.0 -2.5 5.15625q-2.5 2.15625 -7.40625 2.15625q-4.453125 0 -7.046875 -1.8125q-2.59375 -1.8125 -3.390625 -4.90625z" fill-rule="nonzero"/><path fill="#000000" fill-opacity="0.0" d="m32.72441 172.36484l894.55115 0l0 307.30707l-894.55115 0z" fill-rule="evenodd"/><path fill="#000000" d="m41.677536 213.36484l9.15625 -23.859375l3.40625 0l9.765625 23.859375l-3.59375 0l-2.78125 -7.21875l-9.984375 0l-2.625 7.21875l-3.34375 0zm6.875 -9.796875l8.09375 0l-2.484375 -6.609375q-1.140625 -3.015625 -1.703125 -4.9375q-0.453125 2.28125 -1.28125 4.546875l-2.625 7.0zm23.853165 4.640625l2.890625 -0.453125q0.25 1.734375 1.359375 2.671875q1.109375 0.921875 3.109375 0.921875q2.03125 0 3.0 -0.8125q0.984375 -0.828125 0.984375 -1.9375q0 -1.0 -0.875 -1.5625q-0.59375 -0.390625 -2.984375 -1.0q-3.234375 -0.8125 -4.484375 -1.40625q-1.234375 -0.59375 -1.875 -1.640625q-0.640625 -1.046875 -0.640625 -2.3125q0 -1.15625 0.53125 -2.140625q0.53125 -0.984375 1.4375 -1.640625q0.6875 -0.5 1.859375 -0.84375q1.1875 -0.359375 2.53125 -0.359375q2.03125 0 3.5625 0.59375q1.546875 0.578125 2.28125 1.578125q0.734375 1.0 1.015625 2.671875l-2.875 0.390625q-0.1875 -1.328125 -1.125 -2.078125q-0.9375 -0.75 -2.640625 -0.75q-2.03125 0 -2.890625 0.671875q-0.859375 0.65625 -0.859375 1.5625q0 0.5625 0.359375 1.015625q0.359375 0.484375 1.125 0.78125q0.4375 0.171875 2.578125 0.75q3.109375 0.828125 4.34375 1.359375q1.234375 0.53125 1.921875 1.546875q0.703125 1.0 0.703125 2.5q0 1.46875 -0.859375 2.765625q-0.84375 1.28125 -2.453125 2.0q-1.609375 0.703125 -3.65625 0.703125q-3.359375 0 -5.125 -1.390625q-1.765625 -1.40625 -2.25 -4.15625zm29.148438 5.15625l0 -2.53125q-2.015625 2.921875 -5.46875 2.921875q-1.53125 0 -2.859375 -0.578125q-1.328125 -0.59375 -1.96875 -1.484375q-0.640625 -0.890625 -0.90625 -2.171875q-0.1875 -0.859375 -0.1875 -2.734375l0 -10.703125l2.9375 0l0 9.578125q0 2.296875 0.171875 3.09375q0.28125 1.15625 1.171875 1.828125q0.90625 0.65625 2.21875 0.65625q1.3125 0 2.46875 -0.671875q1.15625 -0.6875 1.640625 -1.84375q0.484375 -1.171875 0.484375 -3.375l0 -9.265625l2.921875 0l0 17.28125l-2.625 0zm6.6761475 1.4375l2.84375 0.421875q0.1875 1.3125 1.0 1.921875q1.09375 0.8125 2.984375 0.8125q2.03125 0 3.125 -0.8125q1.109375 -0.8125 1.5 -2.28125q0.234375 -0.890625 0.21875 -3.765625q-1.921875 2.265625 -4.78125 2.265625q-3.5625 0 -5.515625 -2.5625q-1.953125 -2.578125 -1.953125 -6.171875q0 -2.484375 0.890625 -4.5625q0.890625 -2.09375 2.59375 -3.234375q1.703125 -1.140625 4.0 -1.140625q3.0625 0 5.046875 2.46875l0 -2.078125l2.703125 0l0 14.9375q0 4.03125 -0.828125 5.71875q-0.828125 1.6875 -2.609375 2.65625q-1.78125 0.984375 -4.375 0.984375q-3.09375 0 -5.0 -1.390625q-1.90625 -1.390625 -1.84375 -4.1875zm2.421875 -10.390625q0 3.40625 1.34375 4.96875q1.359375 1.5625 3.390625 1.5625q2.03125 0 3.390625 -1.546875q1.375 -1.5625 1.375 -4.890625q0 -3.171875 -1.421875 -4.78125q-1.40625 -1.609375 -3.390625 -1.609375q-1.953125 0 -3.328125 1.59375q-1.359375 1.578125 -1.359375 4.703125zm27.926147 6.828125q-1.625 1.375 -3.125 1.953125q-1.5 0.5625 -3.234375 0.5625q-2.84375 0 -4.375 -1.390625q-1.53125 -1.390625 -1.53125 -3.5625q0 -1.265625 0.578125 -2.3125q0.578125 -1.046875 1.515625 -1.671875q0.9375 -0.640625 2.109375 -0.96875q0.859375 -0.234375 2.59375 -0.4375q3.546875 -0.421875 5.234375 -1.015625q0.015625 -0.609375 0.015625 -0.765625q0 -1.78125 -0.828125 -2.515625q-1.125 -1.0 -3.34375 -1.0q-2.0625 0 -3.046875 0.734375q-0.984375 0.71875 -1.453125 2.546875l-2.875 -0.390625q0.390625 -1.828125 1.28125 -2.953125q0.90625 -1.140625 2.59375 -1.75q1.703125 -0.609375 3.921875 -0.609375q2.21875 0 3.59375 0.53125q1.390625 0.515625 2.03125 1.3125q0.65625 0.78125 0.921875 1.984375q0.140625 0.75 0.140625 2.703125l0 3.90625q0 4.078125 0.1875 5.15625q0.1875 1.078125 0.75 2.078125l-3.0625 0q-0.453125 -0.90625 -0.59375 -2.125zm-0.234375 -6.546875q-1.59375 0.65625 -4.78125 1.109375q-1.8125 0.25 -2.5625 0.578125q-0.75 0.328125 -1.15625 0.953125q-0.40625 0.625 -0.40625 1.390625q0 1.171875 0.890625 1.953125q0.890625 0.78125 2.59375 0.78125q1.6875 0 3.0 -0.734375q1.328125 -0.75 1.953125 -2.03125q0.46875 -0.984375 0.46875 -2.921875l0 -1.078125zm-5.703125 -10.765625l2.171875 -4.546875l3.84375 0l-3.59375 4.546875l-2.421875 0zm13.176147 19.4375l0 -17.28125l2.625 0l0 2.625q1.015625 -1.84375 1.859375 -2.421875q0.859375 -0.59375 1.890625 -0.59375q1.484375 0 3.0 0.9375l-1.0 2.71875q-1.078125 -0.625 -2.15625 -0.625q-0.953125 0 -1.71875 0.578125q-0.765625 0.578125 -1.09375 1.59375q-0.484375 1.5625 -0.484375 3.421875l0 9.046875l-2.921875 0zm11.145401 0l0 -23.859375l2.921875 0l0 13.609375l6.9375 -7.03125l3.78125 0l-6.59375 6.40625l7.265625 10.875l-3.609375 0l-5.71875 -8.84375l-2.0625 2.0l0 6.84375l-2.921875 0zm15.5546875 -8.640625q0 -4.796875 2.671875 -7.109375q2.21875 -1.921875 5.421875 -1.921875q3.578125 0 5.828125 2.34375q2.265625 2.328125 2.265625 6.4375q0 3.34375 -1.0 5.265625q-1.0 1.90625 -2.921875 2.96875q-1.90625 1.046875 -4.171875 1.046875q-3.625 0 -5.859375 -2.328125q-2.234375 -2.328125 -2.234375 -6.703125zm3.015625 0q0 3.3125 1.4375 4.96875q1.453125 1.65625 3.640625 1.65625q2.1875 0 3.625 -1.65625q1.453125 -1.671875 1.453125 -5.0625q0 -3.203125 -1.453125 -4.859375q-1.453125 -1.65625 -3.625 -1.65625q-2.1875 0 -3.640625 1.640625q-1.4375 1.640625 -1.4375 4.96875zm0.515625 -12.03125l0 -3.328125l3.046875 0l0 3.328125l-3.046875 0zm6.0625 0l0 -3.328125l3.0625 0l0 3.328125l-3.0625 0zm14.832397 20.671875l-6.578125 -17.28125l3.09375 0l3.703125 10.34375q0.609375 1.6875 1.109375 3.484375q0.390625 -1.359375 1.09375 -3.28125l3.84375 -10.546875l3.015625 0l-6.546875 17.28125l-2.734375 0zm23.695312 -5.5625l3.015625 0.375q-0.703125 2.65625 -2.640625 4.125q-1.9375 1.453125 -4.953125 1.453125q-3.796875 0 -6.015625 -2.328125q-2.21875 -2.34375 -2.21875 -6.5625q0 -4.359375 2.25 -6.765625q2.25 -2.40625 5.828125 -2.40625q3.46875 0 5.65625 2.359375q2.203125 2.359375 2.203125 6.640625q0 0.265625 -0.015625 0.78125l-12.890625 0q0.15625 2.84375 1.609375 4.359375q1.453125 1.515625 3.609375 1.515625q1.609375 0 2.75 -0.84375q1.140625 -0.84375 1.8125 -2.703125zm-9.625 -4.734375l9.65625 0q-0.203125 -2.1875 -1.109375 -3.28125q-1.40625 -1.6875 -3.625 -1.6875q-2.015625 0 -3.390625 1.359375q-1.375 1.34375 -1.53125 3.609375zm22.723022 7.671875l0.421875 2.59375q-1.234375 0.265625 -2.21875 0.265625q-1.59375 0 -2.46875 -0.5q-0.875 -0.515625 -1.234375 -1.328125q-0.359375 -0.828125 -0.359375 -3.46875l0 -9.9375l-2.15625 0l0 -2.28125l2.15625 0l0 -4.28125l2.90625 -1.75l0 6.03125l2.953125 0l0 2.28125l-2.953125 0l0 10.109375q0 1.25 0.15625 1.609375q0.15625 0.359375 0.5 0.578125q0.359375 0.203125 1.015625 0.203125q0.484375 0 1.28125 -0.125zm14.697128 -2.9375l3.015625 0.375q-0.703125 2.65625 -2.640625 4.125q-1.9375 1.453125 -4.953125 1.453125q-3.796875 0 -6.015625 -2.328125q-2.21875 -2.34375 -2.21875 -6.5625q0 -4.359375 2.25 -6.765625q2.25 -2.40625 5.828125 -2.40625q3.46875 0 5.65625 2.359375q2.203125 2.359375 2.203125 6.640625q0 0.265625 -0.015625 0.78125l-12.890625 0q0.15625 2.84375 1.609375 4.359375q1.453125 1.515625 3.609375 1.515625q1.609375 0 2.75 -0.84375q1.140625 -0.84375 1.8125 -2.703125zm-9.625 -4.734375l9.65625 0q-0.203125 -2.1875 -1.109375 -3.28125q-1.40625 -1.6875 -3.625 -1.6875q-2.015625 0 -3.390625 1.359375q-1.375 1.34375 -1.53125 3.609375zm3.15625 -9.140625l2.171875 -4.546875l3.84375 0l-3.59375 4.546875l-2.421875 0zm12.004272 14.28125l2.890625 -0.453125q0.25 1.734375 1.359375 2.671875q1.109375 0.921875 3.109375 0.921875q2.03125 0 3.0 -0.8125q0.984375 -0.828125 0.984375 -1.9375q0 -1.0 -0.875 -1.5625q-0.59375 -0.390625 -2.984375 -1.0q-3.234375 -0.8125 -4.484375 -1.40625q-1.234375 -0.59375 -1.875 -1.640625q-0.640625 -1.046875 -0.640625 -2.3125q0 -1.15625 0.53125 -2.140625q0.53125 -0.984375 1.4375 -1.640625q0.6875 -0.5 1.859375 -0.84375q1.1875 -0.359375 2.53125 -0.359375q2.03125 0 3.5625 0.59375q1.546875 0.578125 2.28125 1.578125q0.734375 1.0 1.015625 2.671875l-2.875 0.390625q-0.1875 -1.328125 -1.125 -2.078125q-0.9375 -0.75 -2.640625 -0.75q-2.03125 0 -2.890625 0.671875q-0.859375 0.65625 -0.859375 1.5625q0 0.5625 0.359375 1.015625q0.359375 0.484375 1.125 0.78125q0.4375 0.171875 2.578125 0.75q3.109375 0.828125 4.34375 1.359375q1.234375 0.53125 1.921875 1.546875q0.703125 1.0 0.703125 2.5q0 1.46875 -0.859375 2.765625q-0.84375 1.28125 -2.453125 2.0q-1.609375 0.703125 -3.65625 0.703125q-3.359375 0 -5.125 -1.390625q-1.765625 -1.40625 -2.25 -4.15625zm38.923676 -0.40625l3.015625 0.375q-0.703125 2.65625 -2.640625 4.125q-1.9375 1.453125 -4.953125 1.453125q-3.796875 0 -6.015625 -2.328125q-2.21875 -2.34375 -2.21875 -6.5625q0 -4.359375 2.25 -6.765625q2.25 -2.40625 5.828125 -2.40625q3.46875 0 5.65625 2.359375q2.203125 2.359375 2.203125 6.640625q0 0.265625 -0.015625 0.78125l-12.890625 0q0.15625 2.84375 1.609375 4.359375q1.453125 1.515625 3.609375 1.515625q1.609375 0 2.75 -0.84375q1.140625 -0.84375 1.8125 -2.703125zm-9.625 -4.734375l9.65625 0q-0.203125 -2.1875 -1.109375 -3.28125q-1.40625 -1.6875 -3.625 -1.6875q-2.015625 0 -3.390625 1.359375q-1.375 1.34375 -1.53125 3.609375zm3.15625 -9.140625l2.171875 -4.546875l3.84375 0l-3.59375 4.546875l-2.421875 0zm12.004272 14.28125l2.890625 -0.453125q0.25 1.734375 1.359375 2.671875q1.109375 0.921875 3.109375 0.921875q2.03125 0 3.0 -0.8125q0.984375 -0.828125 0.984375 -1.9375q0 -1.0 -0.875 -1.5625q-0.59375 -0.390625 -2.984375 -1.0q-3.234375 -0.8125 -4.484375 -1.40625q-1.234375 -0.59375 -1.875 -1.640625q-0.640625 -1.046875 -0.640625 -2.3125q0 -1.15625 0.53125 -2.140625q0.53125 -0.984375 1.4375 -1.640625q0.6875 -0.5 1.859375 -0.84375q1.1875 -0.359375 2.53125 -0.359375q2.03125 0 3.5625 0.59375q1.546875 0.578125 2.28125 1.578125q0.734375 1.0 1.015625 2.671875l-2.875 0.390625q-0.1875 -1.328125 -1.125 -2.078125q-0.9375 -0.75 -2.640625 -0.75q-2.03125 0 -2.890625 0.671875q-0.859375 0.65625 -0.859375 1.5625q0 0.5625 0.359375 1.015625q0.359375 0.484375 1.125 0.78125q0.4375 0.171875 2.578125 0.75q3.109375 0.828125 4.34375 1.359375q1.234375 0.53125 1.921875 1.546875q0.703125 1.0 0.703125 2.5q0 1.46875 -0.859375 2.765625q-0.84375 1.28125 -2.453125 2.0q-1.609375 0.703125 -3.65625 0.703125q-3.359375 0 -5.125 -1.390625q-1.765625 -1.40625 -2.25 -4.15625zm27.064331 5.15625l0 -17.28125l2.625 0l0 2.625q1.015625 -1.84375 1.859375 -2.421875q0.859375 -0.59375 1.890625 -0.59375q1.484375 0 3.0 0.9375l-1.0 2.71875q-1.078125 -0.625 -2.15625 -0.625q-0.953125 0 -1.71875 0.578125q-0.765625 0.578125 -1.09375 1.59375q-0.484375 1.5625 -0.484375 3.421875l0 9.046875l-2.921875 0zm22.395386 -2.125q-1.625 1.375 -3.125 1.953125q-1.5 0.5625 -3.234375 0.5625q-2.84375 0 -4.375 -1.390625q-1.53125 -1.390625 -1.53125 -3.5625q0 -1.265625 0.578125 -2.3125q0.578125 -1.046875 1.515625 -1.671875q0.9375 -0.640625 2.109375 -0.96875q0.859375 -0.234375 2.59375 -0.4375q3.546875 -0.421875 5.234375 -1.015625q0.015625 -0.609375 0.015625 -0.765625q0 -1.78125 -0.828125 -2.515625q-1.125 -1.0 -3.34375 -1.0q-2.0625 0 -3.046875 0.734375q-0.984375 0.71875 -1.453125 2.546875l-2.875 -0.390625q0.390625 -1.828125 1.28125 -2.953125q0.90625 -1.140625 2.59375 -1.75q1.703125 -0.609375 3.921875 -0.609375q2.21875 0 3.59375 0.53125q1.390625 0.515625 2.03125 1.3125q0.65625 0.78125 0.921875 1.984375q0.140625 0.75 0.140625 2.703125l0 3.90625q0 4.078125 0.1875 5.15625q0.1875 1.078125 0.75 2.078125l-3.0625 0q-0.453125 -0.90625 -0.59375 -2.125zm-0.234375 -6.546875q-1.59375 0.65625 -4.78125 1.109375q-1.8125 0.25 -2.5625 0.578125q-0.75 0.328125 -1.15625 0.953125q-0.40625 0.625 -0.40625 1.390625q0 1.171875 0.890625 1.953125q0.890625 0.78125 2.59375 0.78125q1.6875 0 3.0 -0.734375q1.328125 -0.75 1.953125 -2.03125q0.46875 -0.984375 0.46875 -2.921875l0 -1.078125zm6.3323975 3.515625l2.890625 -0.453125q0.25 1.734375 1.359375 2.671875q1.109375 0.921875 3.109375 0.921875q2.03125 0 3.0 -0.8125q0.984375 -0.828125 0.984375 -1.9375q0 -1.0 -0.875 -1.5625q-0.59375 -0.390625 -2.984375 -1.0q-3.234375 -0.8125 -4.484375 -1.40625q-1.234375 -0.59375 -1.875 -1.640625q-0.640625 -1.046875 -0.640625 -2.3125q0 -1.15625 0.53125 -2.140625q0.53125 -0.984375 1.4375 -1.640625q0.6875 -0.5 1.859375 -0.84375q1.1875 -0.359375 2.53125 -0.359375q2.03125 0 3.5625 0.59375q1.546875 0.578125 2.28125 1.578125q0.734375 1.0 1.015625 2.671875l-2.875 0.390625q-0.1875 -1.328125 -1.125 -2.078125q-0.9375 -0.75 -2.640625 -0.75q-2.03125 0 -2.890625 0.671875q-0.859375 0.65625 -0.859375 1.5625q0 0.5625 0.359375 1.015625q0.359375 0.484375 1.125 0.78125q0.4375 0.171875 2.578125 0.75q3.109375 0.828125 4.34375 1.359375q1.234375 0.53125 1.921875 1.546875q0.703125 1.0 0.703125 2.5q0 1.46875 -0.859375 2.765625q-0.84375 1.28125 -2.453125 2.0q-1.609375 0.703125 -3.65625 0.703125q-3.359375 0 -5.125 -1.390625q-1.765625 -1.40625 -2.25 -4.15625zm16.289062 5.15625l0 -2.375l11.0 -12.625q-1.875 0.09375 -3.3125 0.09375l-7.046875 0l0 -2.375l14.125 0l0 1.9375l-9.359375 10.96875l-1.796875 2.0q1.96875 -0.140625 3.6875 -0.140625l8.0 0l0 2.515625l-15.296875 0zm24.601562 -2.625l0.421875 2.59375q-1.234375 0.265625 -2.21875 0.265625q-1.59375 0 -2.46875 -0.5q-0.875 -0.515625 -1.234375 -1.328125q-0.359375 -0.828125 -0.359375 -3.46875l0 -9.9375l-2.15625 0l0 -2.28125l2.15625 0l0 -4.28125l2.90625 -1.75l0 6.03125l2.953125 0l0 2.28125l-2.953125 0l0 10.109375q0 1.25 0.15625 1.609375q0.15625 0.359375 0.5 0.578125q0.359375 0.203125 1.015625 0.203125q0.484375 0 1.28125 -0.125zm14.697144 -2.9375l3.015625 0.375q-0.703125 2.65625 -2.640625 4.125q-1.9375 1.453125 -4.953125 1.453125q-3.796875 0 -6.015625 -2.328125q-2.21875 -2.34375 -2.21875 -6.5625q0 -4.359375 2.25 -6.765625q2.25 -2.40625 5.828125 -2.40625q3.46875 0 5.65625 2.359375q2.203125 2.359375 2.203125 6.640625q0 0.265625 -0.015625 0.78125l-12.890625 0q0.15625 2.84375 1.609375 4.359375q1.453125 1.515625 3.609375 1.515625q1.609375 0 2.75 -0.84375q1.140625 -0.84375 1.8125 -2.703125zm-9.625 -4.734375l9.65625 0q-0.203125 -2.1875 -1.109375 -3.28125q-1.40625 -1.6875 -3.625 -1.6875q-2.015625 0 -3.390625 1.359375q-1.375 1.34375 -1.53125 3.609375zm16.301147 10.296875l0 -17.28125l2.625 0l0 2.625q1.015625 -1.84375 1.859375 -2.421875q0.859375 -0.59375 1.890625 -0.59375q1.484375 0 3.0 0.9375l-1.0 2.71875q-1.078125 -0.625 -2.15625 -0.625q-0.953125 0 -1.71875 0.578125q-0.765625 0.578125 -1.09375 1.59375q-0.484375 1.5625 -0.484375 3.421875l0 9.046875l-2.921875 0zm11.145386 -20.484375l0 -3.375l2.921875 0l0 3.375l-2.921875 0zm0 20.484375l0 -17.28125l2.921875 0l0 17.28125l-2.921875 0zm5.8419495 0l0 -2.375l11.0 -12.625q-1.875 0.09375 -3.3125 0.09375l-7.046875 0l0 -2.375l14.125 0l0 1.9375l-9.359375 10.96875l-1.796875 2.0q1.96875 -0.140625 3.6875 -0.140625l8.0 0l0 2.515625l-15.296875 0zm29.476562 -2.125q-1.625 1.375 -3.125 1.953125q-1.5 0.5625 -3.234375 0.5625q-2.84375 0 -4.375 -1.390625q-1.53125 -1.390625 -1.53125 -3.5625q0 -1.265625 0.578125 -2.3125q0.578125 -1.046875 1.515625 -1.671875q0.9375 -0.640625 2.109375 -0.96875q0.859375 -0.234375 2.59375 -0.4375q3.546875 -0.421875 5.234375 -1.015625q0.015625 -0.609375 0.015625 -0.765625q0 -1.78125 -0.828125 -2.515625q-1.125 -1.0 -3.34375 -1.0q-2.0625 0 -3.046875 0.734375q-0.984375 0.71875 -1.453125 2.546875l-2.875 -0.390625q0.390625 -1.828125 1.28125 -2.953125q0.90625 -1.140625 2.59375 -1.75q1.703125 -0.609375 3.921875 -0.609375q2.21875 0 3.59375 0.53125q1.390625 0.515625 2.03125 1.3125q0.65625 0.78125 0.921875 1.984375q0.140625 0.75 0.140625 2.703125l0 3.90625q0 4.078125 0.1875 5.15625q0.1875 1.078125 0.75 2.078125l-3.0625 0q-0.453125 -0.90625 -0.59375 -2.125zm-0.234375 -6.546875q-1.59375 0.65625 -4.78125 1.109375q-1.8125 0.25 -2.5625 0.578125q-0.75 0.328125 -1.15625 0.953125q-0.40625 0.625 -0.40625 1.390625q0 1.171875 0.890625 1.953125q0.890625 0.78125 2.59375 0.78125q1.6875 0 3.0 -0.734375q1.328125 -0.75 1.953125 -2.03125q0.46875 -0.984375 0.46875 -2.921875l0 -1.078125zm-5.703125 -10.765625l2.171875 -4.546875l3.84375 0l-3.59375 4.546875l-2.421875 0zm24.473022 13.109375l2.890625 0.375q-0.46875 2.96875 -2.421875 4.65625q-1.9375 1.6875 -4.78125 1.6875q-3.546875 0 -5.703125 -2.3125q-2.15625 -2.328125 -2.15625 -6.65625q0 -2.796875 0.921875 -4.890625q0.9375 -2.109375 2.828125 -3.15625q1.90625 -1.046875 4.125 -1.046875q2.828125 0 4.609375 1.421875q1.796875 1.421875 2.296875 4.046875l-2.84375 0.4375q-0.40625 -1.734375 -1.453125 -2.609375q-1.03125 -0.890625 -2.484375 -0.890625q-2.21875 0 -3.609375 1.59375q-1.375 1.578125 -1.375 5.015625q0 3.484375 1.328125 5.0625q1.34375 1.578125 3.484375 1.578125q1.734375 0 2.890625 -1.0625q1.15625 -1.0625 1.453125 -3.25zm5.4140625 -14.15625l0 -3.375l2.921875 0l0 3.375l-2.921875 0zm0 20.484375l0 -17.28125l2.921875 0l0 17.28125l-2.921875 0zm6.2950745 -8.640625q0 -4.796875 2.671875 -7.109375q2.21875 -1.921875 5.421875 -1.921875q3.578125 0 5.828125 2.34375q2.265625 2.328125 2.265625 6.4375q0 3.34375 -1.0 5.265625q-1.0 1.90625 -2.921875 2.96875q-1.90625 1.046875 -4.171875 1.046875q-3.625 0 -5.859375 -2.328125q-2.234375 -2.328125 -2.234375 -6.703125zm3.015625 0q0 3.3125 1.4375 4.96875q1.453125 1.65625 3.640625 1.65625q2.1875 0 3.625 -1.65625q1.453125 -1.671875 1.453125 -5.0625q0 -3.203125 -1.453125 -4.859375q-1.453125 -1.65625 -3.625 -1.65625q-2.1875 0 -3.640625 1.640625q-1.4375 1.640625 -1.4375 4.96875zm3.453125 -10.796875l2.171875 -4.546875l3.84375 0l-3.59375 4.546875l-2.421875 0zm22.420197 19.4375l0 -17.28125l2.609375 0l0 2.421875q0.8125 -1.265625 2.15625 -2.03125q1.359375 -0.78125 3.09375 -0.78125q1.921875 0 3.140625 0.796875q1.234375 0.796875 1.734375 2.234375q2.046875 -3.03125 5.34375 -3.03125q2.5625 0 3.9375 1.421875q1.390625 1.421875 1.390625 4.390625l0 11.859375l-2.90625 0l0 -10.890625q0 -1.75 -0.296875 -2.515625q-0.28125 -0.78125 -1.03125 -1.25q-0.734375 -0.484375 -1.75 -0.484375q-1.828125 0 -3.03125 1.21875q-1.203125 1.21875 -1.203125 3.875l0 10.046875l-2.921875 0l0 -11.234375q0 -1.953125 -0.71875 -2.921875q-0.71875 -0.984375 -2.34375 -0.984375q-1.234375 0 -2.296875 0.65625q-1.046875 0.65625 -1.515625 1.90625q-0.46875 1.25 -0.46875 3.609375l0 8.96875l-2.921875 0zm39.5907 -5.5625l3.015625 0.375q-0.703125 2.65625 -2.640625 4.125q-1.9375 1.453125 -4.953125 1.453125q-3.796875 0 -6.015625 -2.328125q-2.21875 -2.34375 -2.21875 -6.5625q0 -4.359375 2.25 -6.765625q2.25 -2.40625 5.828125 -2.40625q3.46875 0 5.65625 2.359375q2.203125 2.359375 2.203125 6.640625q0 0.265625 -0.015625 0.78125l-12.890625 0q0.15625 2.84375 1.609375 4.359375q1.453125 1.515625 3.609375 1.515625q1.609375 0 2.75 -0.84375q1.140625 -0.84375 1.8125 -2.703125zm-9.625 -4.734375l9.65625 0q-0.203125 -2.1875 -1.109375 -3.28125q-1.40625 -1.6875 -3.625 -1.6875q-2.015625 0 -3.390625 1.359375q-1.375 1.34375 -1.53125 3.609375zm16.254272 10.296875l0 -23.859375l2.9375 0l0 23.859375l-2.9375 0zm7.40448 0l0 -23.859375l2.9375 0l0 23.859375l-2.9375 0zm19.310669 -5.5625l3.015625 0.375q-0.703125 2.65625 -2.640625 4.125q-1.9375 1.453125 -4.953125 1.453125q-3.796875 0 -6.015625 -2.328125q-2.21875 -2.34375 -2.21875 -6.5625q0 -4.359375 2.25 -6.765625q2.25 -2.40625 5.828125 -2.40625q3.46875 0 5.65625 2.359375q2.203125 2.359375 2.203125 6.640625q0 0.265625 -0.015625 0.78125l-12.890625 0q0.15625 2.84375 1.609375 4.359375q1.453125 1.515625 3.609375 1.515625q1.609375 0 2.75 -0.84375q1.140625 -0.84375 1.8125 -2.703125zm-9.625 -4.734375l9.65625 0q-0.203125 -2.1875 -1.109375 -3.28125q-1.40625 -1.6875 -3.625 -1.6875q-2.015625 0 -3.390625 1.359375q-1.375 1.34375 -1.53125 3.609375zm22.723022 7.671875l0.421875 2.59375q-1.234375 0.265625 -2.21875 0.265625q-1.59375 0 -2.46875 -0.5q-0.875 -0.515625 -1.234375 -1.328125q-0.359375 -0.828125 -0.359375 -3.46875l0 -9.9375l-2.15625 0l0 -2.28125l2.15625 0l0 -4.28125l2.90625 -1.75l0 6.03125l2.953125 0l0 2.28125l-2.953125 0l0 10.109375q0 1.25 0.15625 1.609375q0.15625 0.359375 0.5 0.578125q0.359375 0.203125 1.015625 0.203125q0.484375 0 1.28125 -0.125zm9.259644 0l0.421875 2.59375q-1.234375 0.265625 -2.21875 0.265625q-1.59375 0 -2.46875 -0.5q-0.875 -0.515625 -1.234375 -1.328125q-0.359375 -0.828125 -0.359375 -3.46875l0 -9.9375l-2.15625 0l0 -2.28125l2.15625 0l0 -4.28125l2.90625 -1.75l0 6.03125l2.953125 0l0 2.28125l-2.953125 0l0 10.109375q0 1.25 0.15625 1.609375q0.15625 0.359375 0.5 0.578125q0.359375 0.203125 1.015625 0.203125q0.484375 0 1.28125 -0.125zm23.394287 0.5q-1.625 1.375 -3.125 1.953125q-1.5 0.5625 -3.234375 0.5625q-2.84375 0 -4.375 -1.390625q-1.53125 -1.390625 -1.53125 -3.5625q0 -1.265625 0.578125 -2.3125q0.578125 -1.046875 1.515625 -1.671875q0.9375 -0.640625 2.109375 -0.96875q0.859375 -0.234375 2.59375 -0.4375q3.546875 -0.421875 5.234375 -1.015625q0.015625 -0.609375 0.015625 -0.765625q0 -1.78125 -0.828125 -2.515625q-1.125 -1.0 -3.34375 -1.0q-2.0625 0 -3.046875 0.734375q-0.984375 0.71875 -1.453125 2.546875l-2.875 -0.390625q0.390625 -1.828125 1.28125 -2.953125q0.90625 -1.140625 2.59375 -1.75q1.703125 -0.609375 3.921875 -0.609375q2.21875 0 3.59375 0.53125q1.390625 0.515625 2.03125 1.3125q0.65625 0.78125 0.921875 1.984375q0.140625 0.75 0.140625 2.703125l0 3.90625q0 4.078125 0.1875 5.15625q0.1875 1.078125 0.75 2.078125l-3.0625 0q-0.453125 -0.90625 -0.59375 -2.125zm-0.234375 -6.546875q-1.59375 0.65625 -4.78125 1.109375q-1.8125 0.25 -2.5625 0.578125q-0.75 0.328125 -1.15625 0.953125q-0.40625 0.625 -0.40625 1.390625q0 1.171875 0.890625 1.953125q0.890625 0.78125 2.59375 0.78125q1.6875 0 3.0 -0.734375q1.328125 -0.75 1.953125 -2.03125q0.46875 -0.984375 0.46875 -2.921875l0 -1.078125zm16.763916 8.671875l0 -17.28125l2.625 0l0 2.453125q1.90625 -2.84375 5.5 -2.84375q1.5625 0 2.875 0.5625q1.3125 0.5625 1.953125 1.46875q0.65625 0.90625 0.921875 2.171875q0.15625 0.8125 0.15625 2.84375l0 10.625l-2.921875 0l0 -10.515625q0 -1.78125 -0.34375 -2.671875q-0.34375 -0.890625 -1.21875 -1.421875q-0.859375 -0.53125 -2.03125 -0.53125q-1.875 0 -3.234375 1.1875q-1.359375 1.1875 -1.359375 4.515625l0 9.4375l-2.921875 0zm30.363647 -5.5625l3.015625 0.375q-0.703125 2.65625 -2.640625 4.125q-1.9375 1.453125 -4.953125 1.453125q-3.796875 0 -6.015625 -2.328125q-2.21875 -2.34375 -2.21875 -6.5625q0 -4.359375 2.25 -6.765625q2.25 -2.40625 5.828125 -2.40625q3.46875 0 5.65625 2.359375q2.203125 2.359375 2.203125 6.640625q0 0.265625 -0.015625 0.78125l-12.890625 0q0.15625 2.84375 1.609375 4.359375q1.453125 1.515625 3.609375 1.515625q1.609375 0 2.75 -0.84375q1.140625 -0.84375 1.8125 -2.703125zm-9.625 -4.734375l9.65625 0q-0.203125 -2.1875 -1.109375 -3.28125q-1.40625 -1.6875 -3.625 -1.6875q-2.015625 0 -3.390625 1.359375q-1.375 1.34375 -1.53125 3.609375zm27.644897 10.296875l0 -2.53125q-2.015625 2.921875 -5.46875 2.921875q-1.53125 0 -2.859375 -0.578125q-1.328125 -0.59375 -1.96875 -1.484375q-0.640625 -0.890625 -0.90625 -2.171875q-0.1875 -0.859375 -0.1875 -2.734375l0 -10.703125l2.9375 0l0 9.578125q0 2.296875 0.171875 3.09375q0.28125 1.15625 1.171875 1.828125q0.90625 0.65625 2.21875 0.65625q1.3125 0 2.46875 -0.671875q1.15625 -0.6875 1.640625 -1.84375q0.484375 -1.171875 0.484375 -3.375l0 -9.265625l2.921875 0l0 17.28125l-2.625 0zm7.1917725 0l0 -17.28125l2.625 0l0 2.625q1.015625 -1.84375 1.859375 -2.421875q0.859375 -0.59375 1.890625 -0.59375q1.484375 0 3.0 0.9375l-1.0 2.71875q-1.078125 -0.625 -2.15625 -0.625q-0.953125 0 -1.71875 0.578125q-0.765625 0.578125 -1.09375 1.59375q-0.484375 1.5625 -0.484375 3.421875l0 9.046875l-2.921875 0zm22.395386 -2.125q-1.625 1.375 -3.125 1.953125q-1.5 0.5625 -3.234375 0.5625q-2.84375 0 -4.375 -1.390625q-1.53125 -1.390625 -1.53125 -3.5625q0 -1.265625 0.578125 -2.3125q0.578125 -1.046875 1.515625 -1.671875q0.9375 -0.640625 2.109375 -0.96875q0.859375 -0.234375 2.59375 -0.4375q3.546875 -0.421875 5.234375 -1.015625q0.015625 -0.609375 0.015625 -0.765625q0 -1.78125 -0.828125 -2.515625q-1.125 -1.0 -3.34375 -1.0q-2.0625 0 -3.046875 0.734375q-0.984375 0.71875 -1.453125 2.546875l-2.875 -0.390625q0.390625 -1.828125 1.28125 -2.953125q0.90625 -1.140625 2.59375 -1.75q1.703125 -0.609375 3.921875 -0.609375q2.21875 0 3.59375 0.53125q1.390625 0.515625 2.03125 1.3125q0.65625 0.78125 0.921875 1.984375q0.140625 0.75 0.140625 2.703125l0 3.90625q0 4.078125 0.1875 5.15625q0.1875 1.078125 0.75 2.078125l-3.0625 0q-0.453125 -0.90625 -0.59375 -2.125zm-0.234375 -6.546875q-1.59375 0.65625 -4.78125 1.109375q-1.8125 0.25 -2.5625 0.578125q-0.75 0.328125 -1.15625 0.953125q-0.40625 0.625 -0.40625 1.390625q0 1.171875 0.890625 1.953125q0.890625 0.78125 2.59375 0.78125q1.6875 0 3.0 -0.734375q1.328125 -0.75 1.953125 -2.03125q0.46875 -0.984375 0.46875 -2.921875l0 -1.078125zm-5.703125 -10.765625l2.171875 -4.546875l3.84375 0l-3.59375 4.546875l-2.421875 0zm13.129272 19.4375l0 -23.859375l2.9375 0l0 23.859375l-2.9375 0zm7.498169 -20.484375l0 -3.375l2.921875 0l0 3.375l-2.921875 0zm0 20.484375l0 -17.28125l2.921875 0l0 17.28125l-2.921875 0zm6.216919 -5.15625l2.890625 -0.453125q0.25 1.734375 1.359375 2.671875q1.109375 0.921875 3.109375 0.921875q2.03125 0 3.0 -0.8125q0.984375 -0.828125 0.984375 -1.9375q0 -1.0 -0.875 -1.5625q-0.59375 -0.390625 -2.984375 -1.0q-3.234375 -0.8125 -4.484375 -1.40625q-1.234375 -0.59375 -1.875 -1.640625q-0.640625 -1.046875 -0.640625 -2.3125q0 -1.15625 0.53125 -2.140625q0.53125 -0.984375 1.4375 -1.640625q0.6875 -0.5 1.859375 -0.84375q1.1875 -0.359375 2.53125 -0.359375q2.03125 0 3.5625 0.59375q1.546875 0.578125 2.28125 1.578125q0.734375 1.0 1.015625 2.671875l-2.875 0.390625q-0.1875 -1.328125 -1.125 -2.078125q-0.9375 -0.75 -2.640625 -0.75q-2.03125 0 -2.890625 0.671875q-0.859375 0.65625 -0.859375 1.5625q0 0.5625 0.359375 1.015625q0.359375 0.484375 1.125 0.78125q0.4375 0.171875 2.578125 0.75q3.109375 0.828125 4.34375 1.359375q1.234375 0.53125 1.921875 1.546875q0.703125 1.0 0.703125 2.5q0 1.46875 -0.859375 2.765625q-0.84375 1.28125 -2.453125 2.0q-1.609375 0.703125 -3.65625 0.703125q-3.359375 0 -5.125 -1.390625q-1.765625 -1.40625 -2.25 -4.15625zm27.095581 5.15625l0 -23.859375l2.921875 0l0 8.5625q2.046875 -2.375 5.171875 -2.375q1.921875 0 3.328125 0.765625q1.421875 0.75 2.03125 2.09375q0.625 1.328125 0.625 3.859375l0 10.953125l-2.9375 0l0 -10.953125q0 -2.203125 -0.953125 -3.203125q-0.953125 -1.0 -2.6875 -1.0q-1.3125 0 -2.453125 0.6875q-1.140625 0.671875 -1.640625 1.828125q-0.484375 1.15625 -0.484375 3.1875l0 9.453125l-2.921875 0zm29.801147 -2.125q-1.625 1.375 -3.125 1.953125q-1.5 0.5625 -3.234375 0.5625q-2.84375 0 -4.375 -1.390625q-1.53125 -1.390625 -1.53125 -3.5625q0 -1.265625 0.578125 -2.3125q0.578125 -1.046875 1.515625 -1.671875q0.9375 -0.640625 2.109375 -0.96875q0.859375 -0.234375 2.59375 -0.4375q3.546875 -0.421875 5.234375 -1.015625q0.015625 -0.609375 0.015625 -0.765625q0 -1.78125 -0.828125 -2.515625q-1.125 -1.0 -3.34375 -1.0q-2.0625 0 -3.046875 0.734375q-0.984375 0.71875 -1.453125 2.546875l-2.875 -0.390625q0.390625 -1.828125 1.28125 -2.953125q0.90625 -1.140625 2.59375 -1.75q1.703125 -0.609375 3.921875 -0.609375q2.21875 0 3.59375 0.53125q1.390625 0.515625 2.03125 1.3125q0.65625 0.78125 0.921875 1.984375q0.140625 0.75 0.140625 2.703125l0 3.90625q0 4.078125 0.1875 5.15625q0.1875 1.078125 0.75 2.078125l-3.0625 0q-0.453125 -0.90625 -0.59375 -2.125zm-0.234375 -6.546875q-1.59375 0.65625 -4.78125 1.109375q-1.8125 0.25 -2.5625 0.578125q-0.75 0.328125 -1.15625 0.953125q-0.40625 0.625 -0.40625 1.390625q0 1.171875 0.890625 1.953125q0.890625 0.78125 2.59375 0.78125q1.6875 0 3.0 -0.734375q1.328125 -0.75 1.953125 -2.03125q0.46875 -0.984375 0.46875 -2.921875l0 -1.078125zm-5.703125 -10.765625l2.171875 -4.546875l3.84375 0l-3.59375 4.546875l-2.421875 0zm13.129272 19.4375l0 -23.859375l2.9375 0l0 23.859375l-2.9375 0zm6.388794 -8.640625q0 -4.796875 2.671875 -7.109375q2.21875 -1.921875 5.421875 -1.921875q3.578125 0 5.828125 2.34375q2.265625 2.328125 2.265625 6.4375q0 3.34375 -1.0 5.265625q-1.0 1.90625 -2.921875 2.96875q-1.90625 1.046875 -4.171875 1.046875q-3.625 0 -5.859375 -2.328125q-2.234375 -2.328125 -2.234375 -6.703125zm3.015625 0q0 3.3125 1.4375 4.96875q1.453125 1.65625 3.640625 1.65625q2.1875 0 3.625 -1.65625q1.453125 -1.671875 1.453125 -5.0625q0 -3.203125 -1.453125 -4.859375q-1.453125 -1.65625 -3.625 -1.65625q-2.1875 0 -3.640625 1.640625q-1.4375 1.640625 -1.4375 4.96875zm3.453125 -10.796875l2.171875 -4.546875l3.84375 0l-3.59375 4.546875l-2.421875 0zm13.176147 19.4375l0 -23.859375l2.921875 0l0 13.609375l6.9375 -7.03125l3.78125 0l-6.59375 6.40625l7.265625 10.875l-3.609375 0l-5.71875 -8.84375l-2.0625 2.0l0 6.84375l-2.921875 0z" fill-rule="nonzero"/><path fill="#000000" d="m55.19316 257.23984q-1.625 1.375 -3.125 1.953125q-1.5 0.5625 -3.234375 0.5625q-2.84375 0 -4.375 -1.390625q-1.53125 -1.390625 -1.53125 -3.5625q0 -1.265625 0.578125 -2.3125q0.578125 -1.046875 1.515625 -1.671875q0.9375 -0.640625 2.109375 -0.96875q0.859375 -0.234375 2.59375 -0.4375q3.546875 -0.421875 5.234375 -1.015625q0.015625 -0.609375 0.015625 -0.765625q0 -1.78125 -0.828125 -2.515625q-1.125 -1.0 -3.34375 -1.0q-2.0625 0 -3.046875 0.734375q-0.984375 0.71875 -1.453125 2.546875l-2.875 -0.390625q0.390625 -1.828125 1.28125 -2.953125q0.90625 -1.140625 2.59375 -1.75q1.703125 -0.609375 3.921875 -0.609375q2.21875 0 3.59375 0.53125q1.390625 0.515625 2.03125 1.3125q0.65625 0.78125 0.921875 1.984375q0.140625 0.75 0.140625 2.703125l0 3.90625q0 4.078125 0.1875 5.15625q0.1875 1.078125 0.75 2.078125l-3.0625 0q-0.453125 -0.90625 -0.59375 -2.125zm-0.234375 -6.546875q-1.59375 0.65625 -4.78125 1.109375q-1.8125 0.25 -2.5625 0.578125q-0.75 0.328125 -1.15625 0.953125q-0.40625 0.625 -0.40625 1.390625q0 1.171875 0.890625 1.953125q0.890625 0.78125 2.59375 0.78125q1.6875 0 3.0 -0.734375q1.328125 -0.75 1.953125 -2.03125q0.46875 -0.984375 0.46875 -2.921875l0 -1.078125zm-5.703125 -10.765625l2.171875 -4.546875l3.84375 0l-3.59375 4.546875l-2.421875 0zm13.129272 19.4375l0 -23.859375l2.9375 0l0 23.859375l-2.9375 0zm13.873199 -2.625l0.421875 2.59375q-1.234375 0.265625 -2.21875 0.265625q-1.59375 0 -2.46875 -0.5q-0.875 -0.515625 -1.234375 -1.328125q-0.359375 -0.828125 -0.359375 -3.46875l0 -9.9375l-2.15625 0l0 -2.28125l2.15625 0l0 -4.28125l2.90625 -1.75l0 6.03125l2.953125 0l0 2.28125l-2.953125 0l0 10.109375q0 1.25 0.15625 1.609375q0.15625 0.359375 0.5 0.578125q0.359375 0.203125 1.015625 0.203125q0.484375 0 1.28125 -0.125zm14.134628 0.5q-1.625 1.375 -3.125 1.953125q-1.5 0.5625 -3.234375 0.5625q-2.84375 0 -4.375 -1.390625q-1.53125 -1.390625 -1.53125 -3.5625q0 -1.265625 0.578125 -2.3125q0.578125 -1.046875 1.515625 -1.671875q0.9375 -0.640625 2.109375 -0.96875q0.859375 -0.234375 2.59375 -0.4375q3.546875 -0.421875 5.234375 -1.015625q0.015625 -0.609375 0.015625 -0.765625q0 -1.78125 -0.828125 -2.515625q-1.125 -1.0 -3.34375 -1.0q-2.0625 0 -3.046875 0.734375q-0.984375 0.71875 -1.453125 2.546875l-2.875 -0.390625q0.390625 -1.828125 1.28125 -2.953125q0.90625 -1.140625 2.59375 -1.75q1.703125 -0.609375 3.921875 -0.609375q2.21875 0 3.59375 0.53125q1.390625 0.515625 2.03125 1.3125q0.65625 0.78125 0.921875 1.984375q0.140625 0.75 0.140625 2.703125l0 3.90625q0 4.078125 0.1875 5.15625q0.1875 1.078125 0.75 2.078125l-3.0625 0q-0.453125 -0.90625 -0.59375 -2.125zm-0.234375 -6.546875q-1.59375 0.65625 -4.78125 1.109375q-1.8125 0.25 -2.5625 0.578125q-0.75 0.328125 -1.15625 0.953125q-0.40625 0.625 -0.40625 1.390625q0 1.171875 0.890625 1.953125q0.890625 0.78125 2.59375 0.78125q1.6875 0 3.0 -0.734375q1.328125 -0.75 1.953125 -2.03125q0.46875 -0.984375 0.46875 -2.921875l0 -1.078125zm7.4261475 8.671875l0 -23.859375l2.9375 0l0 23.859375l-2.9375 0zm16.195328 1.4375l2.84375 0.421875q0.1875 1.3125 1.0 1.921875q1.09375 0.8125 2.984375 0.8125q2.03125 0 3.125 -0.8125q1.109375 -0.8125 1.5 -2.28125q0.234375 -0.890625 0.21875 -3.765625q-1.921875 2.265625 -4.78125 2.265625q-3.5625 0 -5.515625 -2.5625q-1.953125 -2.578125 -1.953125 -6.171875q0 -2.484375 0.890625 -4.5625q0.890625 -2.09375 2.59375 -3.234375q1.703125 -1.140625 4.0 -1.140625q3.0625 0 5.046875 2.46875l0 -2.078125l2.703125 0l0 14.9375q0 4.03125 -0.828125 5.71875q-0.828125 1.6875 -2.609375 2.65625q-1.78125 0.984375 -4.375 0.984375q-3.09375 0 -5.0 -1.390625q-1.90625 -1.390625 -1.84375 -4.1875zm2.421875 -10.390625q0 3.40625 1.34375 4.96875q1.359375 1.5625 3.390625 1.5625q2.03125 0 3.390625 -1.546875q1.375 -1.5625 1.375 -4.890625q0 -3.171875 -1.421875 -4.78125q-1.40625 -1.609375 -3.390625 -1.609375q-1.953125 0 -3.328125 1.59375q-1.359375 1.578125 -1.359375 4.703125zm28.488647 3.390625l3.015625 0.375q-0.703125 2.65625 -2.640625 4.125q-1.9375 1.453125 -4.953125 1.453125q-3.796875 0 -6.015625 -2.328125q-2.21875 -2.34375 -2.21875 -6.5625q0 -4.359375 2.25 -6.765625q2.25 -2.40625 5.828125 -2.40625q3.46875 0 5.65625 2.359375q2.203125 2.359375 2.203125 6.640625q0 0.265625 -0.015625 0.78125l-12.890625 0q0.15625 2.84375 1.609375 4.359375q1.453125 1.515625 3.609375 1.515625q1.609375 0 2.75 -0.84375q1.140625 -0.84375 1.8125 -2.703125zm-9.625 -4.734375l9.65625 0q-0.203125 -2.1875 -1.109375 -3.28125q-1.40625 -1.6875 -3.625 -1.6875q-2.015625 0 -3.390625 1.359375q-1.375 1.34375 -1.53125 3.609375zm16.332397 10.296875l0 -17.28125l2.625 0l0 2.453125q1.90625 -2.84375 5.5 -2.84375q1.5625 0 2.875 0.5625q1.3125 0.5625 1.953125 1.46875q0.65625 0.90625 0.921875 2.171875q0.15625 0.8125 0.15625 2.84375l0 10.625l-2.921875 0l0 -10.515625q0 -1.78125 -0.34375 -2.671875q-0.34375 -0.890625 -1.21875 -1.421875q-0.859375 -0.53125 -2.03125 -0.53125q-1.875 0 -3.234375 1.1875q-1.359375 1.1875 -1.359375 4.515625l0 9.4375l-2.921875 0zm30.363647 -5.5625l3.015625 0.375q-0.703125 2.65625 -2.640625 4.125q-1.9375 1.453125 -4.953125 1.453125q-3.796875 0 -6.015625 -2.328125q-2.21875 -2.34375 -2.21875 -6.5625q0 -4.359375 2.25 -6.765625q2.25 -2.40625 5.828125 -2.40625q3.46875 0 5.65625 2.359375q2.203125 2.359375 2.203125 6.640625q0 0.265625 -0.015625 0.78125l-12.890625 0q0.15625 2.84375 1.609375 4.359375q1.453125 1.515625 3.609375 1.515625q1.609375 0 2.75 -0.84375q1.140625 -0.84375 1.8125 -2.703125zm-9.625 -4.734375l9.65625 0q-0.203125 -2.1875 -1.109375 -3.28125q-1.40625 -1.6875 -3.625 -1.6875q-2.015625 0 -3.390625 1.359375q-1.375 1.34375 -1.53125 3.609375zm16.301147 10.296875l0 -17.28125l2.625 0l0 2.625q1.015625 -1.84375 1.859375 -2.421875q0.859375 -0.59375 1.890625 -0.59375q1.484375 0 3.0 0.9375l-1.0 2.71875q-1.078125 -0.625 -2.15625 -0.625q-0.953125 0 -1.71875 0.578125q-0.765625 0.578125 -1.09375 1.59375q-0.484375 1.5625 -0.484375 3.421875l0 9.046875l-2.921875 0zm22.395401 -2.125q-1.625 1.375 -3.125 1.953125q-1.5 0.5625 -3.234375 0.5625q-2.84375 0 -4.375 -1.390625q-1.53125 -1.390625 -1.53125 -3.5625q0 -1.265625 0.578125 -2.3125q0.578125 -1.046875 1.515625 -1.671875q0.9375 -0.640625 2.109375 -0.96875q0.859375 -0.234375 2.59375 -0.4375q3.546875 -0.421875 5.234375 -1.015625q0.015625 -0.609375 0.015625 -0.765625q0 -1.78125 -0.828125 -2.515625q-1.125 -1.0 -3.34375 -1.0q-2.0625 0 -3.046875 0.734375q-0.984375 0.71875 -1.453125 2.546875l-2.875 -0.390625q0.390625 -1.828125 1.28125 -2.953125q0.90625 -1.140625 2.59375 -1.75q1.703125 -0.609375 3.921875 -0.609375q2.21875 0 3.59375 0.53125q1.390625 0.515625 2.03125 1.3125q0.65625 0.78125 0.921875 1.984375q0.140625 0.75 0.140625 2.703125l0 3.90625q0 4.078125 0.1875 5.15625q0.1875 1.078125 0.75 2.078125l-3.0625 0q-0.453125 -0.90625 -0.59375 -2.125zm-0.234375 -6.546875q-1.59375 0.65625 -4.78125 1.109375q-1.8125 0.25 -2.5625 0.578125q-0.75 0.328125 -1.15625 0.953125q-0.40625 0.625 -0.40625 1.390625q0 1.171875 0.890625 1.953125q0.890625 0.78125 2.59375 0.78125q1.6875 0 3.0 -0.734375q1.328125 -0.75 1.953125 -2.03125q0.46875 -0.984375 0.46875 -2.921875l0 -1.078125zm-5.703125 -10.765625l2.171875 -4.546875l3.84375 0l-3.59375 4.546875l-2.421875 0zm13.129272 19.4375l0 -23.859375l2.9375 0l0 23.859375l-2.9375 0zm13.873199 -2.625l0.421875 2.59375q-1.234375 0.265625 -2.21875 0.265625q-1.59375 0 -2.46875 -0.5q-0.875 -0.515625 -1.234375 -1.328125q-0.359375 -0.828125 -0.359375 -3.46875l0 -9.9375l-2.15625 0l0 -2.28125l2.15625 0l0 -4.28125l2.90625 -1.75l0 6.03125l2.953125 0l0 2.28125l-2.953125 0l0 10.109375q0 1.25 0.15625 1.609375q0.15625 0.359375 0.5 0.578125q0.359375 0.203125 1.015625 0.203125q0.484375 0 1.28125 -0.125zm16.925507 2.625l-6.578125 -17.28125l3.09375 0l3.703125 10.34375q0.609375 1.6875 1.109375 3.484375q0.390625 -1.359375 1.09375 -3.28125l3.84375 -10.546875l3.015625 0l-6.546875 17.28125l-2.734375 0zm11.8828125 -20.484375l0 -3.375l2.921875 0l0 3.375l-2.921875 0zm0 20.484375l0 -17.28125l2.921875 0l0 17.28125l-2.921875 0zm7.3575745 0l0 -17.28125l2.625 0l0 2.625q1.015625 -1.84375 1.859375 -2.421875q0.859375 -0.59375 1.890625 -0.59375q1.484375 0 3.0 0.9375l-1.0 2.71875q-1.078125 -0.625 -2.15625 -0.625q-0.953125 0 -1.71875 0.578125q-0.765625 0.578125 -1.09375 1.59375q-0.484375 1.5625 -0.484375 3.421875l0 9.046875l-2.921875 0zm17.520386 -2.625l0.421875 2.59375q-1.234375 0.265625 -2.21875 0.265625q-1.59375 0 -2.46875 -0.5q-0.875 -0.515625 -1.234375 -1.328125q-0.359375 -0.828125 -0.359375 -3.46875l0 -9.9375l-2.15625 0l0 -2.28125l2.15625 0l0 -4.28125l2.90625 -1.75l0 6.03125l2.953125 0l0 2.28125l-2.953125 0l0 10.109375q0 1.25 0.15625 1.609375q0.15625 0.359375 0.5 0.578125q0.359375 0.203125 1.015625 0.203125q0.484375 0 1.28125 -0.125zm14.181488 2.625l0 -2.53125q-2.015625 2.921875 -5.46875 2.921875q-1.53125 0 -2.859375 -0.578125q-1.328125 -0.59375 -1.96875 -1.484375q-0.640625 -0.890625 -0.9062195 -2.171875q-0.1875 -0.859375 -0.1875 -2.734375l0 -10.703125l2.9374695 0l0 9.578125q0 2.296875 0.171875 3.09375q0.28125 1.15625 1.171875 1.828125q0.90625 0.65625 2.21875 0.65625q1.3125 0 2.46875 -0.671875q1.15625 -0.6875 1.640625 -1.84375q0.484375 -1.171875 0.484375 -3.375l0 -9.265625l2.921875 0l0 17.28125l-2.625 0zm18.488647 -2.125q-1.625 1.375 -3.125 1.953125q-1.5 0.5625 -3.234375 0.5625q-2.84375 0 -4.375 -1.390625q-1.53125 -1.390625 -1.53125 -3.5625q0 -1.265625 0.578125 -2.3125q0.578125 -1.046875 1.515625 -1.671875q0.9375 -0.640625 2.109375 -0.96875q0.859375 -0.234375 2.59375 -0.4375q3.546875 -0.421875 5.234375 -1.015625q0.015625 -0.609375 0.015625 -0.765625q0 -1.78125 -0.828125 -2.515625q-1.125 -1.0 -3.34375 -1.0q-2.0625 0 -3.046875 0.734375q-0.984375 0.71875 -1.453125 2.546875l-2.875 -0.390625q0.390625 -1.828125 1.28125 -2.953125q0.90625 -1.140625 2.59375 -1.75q1.703125 -0.609375 3.921875 -0.609375q2.21875 0 3.59375 0.53125q1.390625 0.515625 2.03125 1.3125q0.65625 0.78125 0.921875 1.984375q0.140625 0.75 0.140625 2.703125l0 3.90625q0 4.078125 0.1875 5.15625q0.1875 1.078125 0.75 2.078125l-3.0625 0q-0.453125 -0.90625 -0.59375 -2.125zm-0.234375 -6.546875q-1.59375 0.65625 -4.78125 1.109375q-1.8125 0.25 -2.5625 0.578125q-0.75 0.328125 -1.15625 0.953125q-0.40625 0.625 -0.40625 1.390625q0 1.171875 0.890625 1.953125q0.890625 0.78125 2.59375 0.78125q1.6875 0 3.0 -0.734375q1.328125 -0.75 1.953125 -2.03125q0.46875 -0.984375 0.46875 -2.921875l0 -1.078125zm-5.703125 -10.765625l2.171875 -4.546875l3.84375 0l-3.59375 4.546875l-2.421875 0zm13.129272 19.4375l0 -23.859375l2.9375 0l0 23.859375l-2.9375 0zm7.4981995 -20.484375l0 -3.375l2.921875 0l0 3.375l-2.921875 0zm0 20.484375l0 -17.28125l2.921875 0l0 17.28125l-2.921875 0zm6.2169495 -5.15625l2.890625 -0.453125q0.25 1.734375 1.359375 2.671875q1.109375 0.921875 3.109375 0.921875q2.03125 0 3.0 -0.8125q0.984375 -0.828125 0.984375 -1.9375q0 -1.0 -0.875 -1.5625q-0.59375 -0.390625 -2.984375 -1.0q-3.234375 -0.8125 -4.484375 -1.40625q-1.234375 -0.59375 -1.875 -1.640625q-0.640625 -1.046875 -0.640625 -2.3125q0 -1.15625 0.53125 -2.140625q0.53125 -0.984375 1.4375 -1.640625q0.6875 -0.5 1.859375 -0.84375q1.1875 -0.359375 2.53125 -0.359375q2.03125 0 3.5625 0.59375q1.546875 0.578125 2.28125 1.578125q0.734375 1.0 1.015625 2.671875l-2.875 0.390625q-0.1875 -1.328125 -1.125 -2.078125q-0.9375 -0.75 -2.640625 -0.75q-2.03125 0 -2.890625 0.671875q-0.859375 0.65625 -0.859375 1.5625q0 0.5625 0.359375 1.015625q0.359375 0.484375 1.125 0.78125q0.4375 0.171875 2.578125 0.75q3.109375 0.828125 4.34375 1.359375q1.234375 0.53125 1.921875 1.546875q0.703125 1.0 0.703125 2.5q0 1.46875 -0.859375 2.765625q-0.84375 1.28125 -2.453125 2.0q-1.609375 0.703125 -3.65625 0.703125q-3.359375 0 -5.125 -1.390625q-1.765625 -1.40625 -2.25 -4.15625zm33.486206 2.53125l0.421875 2.59375q-1.234375 0.265625 -2.21875 0.265625q-1.59375 0 -2.46875 -0.5q-0.875 -0.515625 -1.234375 -1.328125q-0.359375 -0.828125 -0.359375 -3.46875l0 -9.9375l-2.15625 0l0 -2.28125l2.15625 0l0 -4.28125l2.90625 -1.75l0 6.03125l2.953125 0l0 2.28125l-2.953125 0l0 10.109375q0 1.25 0.15625 1.609375q0.15625 0.359375 0.5 0.578125q0.359375 0.203125 1.015625 0.203125q0.484375 0 1.28125 -0.125zm14.697144 -2.9375l3.015625 0.375q-0.703125 2.65625 -2.640625 4.125q-1.9375 1.453125 -4.953125 1.453125q-3.796875 0 -6.015625 -2.328125q-2.21875 -2.34375 -2.21875 -6.5625q0 -4.359375 2.25 -6.765625q2.25 -2.40625 5.828125 -2.40625q3.46875 0 5.65625 2.359375q2.203125 2.359375 2.203125 6.640625q0 0.265625 -0.015625 0.78125l-12.890625 0q0.15625 2.84375 1.609375 4.359375q1.453125 1.515625 3.609375 1.515625q1.609375 0 2.75 -0.84375q1.140625 -0.84375 1.8125 -2.703125zm-9.625 -4.734375l9.65625 0q-0.203125 -2.1875 -1.109375 -3.28125q-1.40625 -1.6875 -3.625 -1.6875q-2.015625 0 -3.390625 1.359375q-1.375 1.34375 -1.53125 3.609375zm16.301147 10.296875l0 -17.28125l2.625 0l0 2.625q1.015625 -1.84375 1.859375 -2.421875q0.859375 -0.59375 1.890625 -0.59375q1.484375 0 3.0 0.9375l-1.0 2.71875q-1.078125 -0.625 -2.15625 -0.625q-0.953125 0 -1.71875 0.578125q-0.765625 0.578125 -1.09375 1.59375q-0.484375 1.5625 -0.484375 3.421875l0 9.046875l-2.921875 0zm22.957886 -5.5625l3.015625 0.375q-0.703125 2.65625 -2.640625 4.125q-1.9375 1.453125 -4.953125 1.453125q-3.796875 0 -6.015625 -2.328125q-2.21875 -2.34375 -2.21875 -6.5625q0 -4.359375 2.25 -6.765625q2.25 -2.40625 5.828125 -2.40625q3.46875 0 5.65625 2.359375q2.203125 2.359375 2.203125 6.640625q0 0.265625 -0.015625 0.78125l-12.890625 0q0.15625 2.84375 1.609375 4.359375q1.453125 1.515625 3.609375 1.515625q1.609375 0 2.75 -0.84375q1.140625 -0.84375 1.8125 -2.703125zm-9.625 -4.734375l9.65625 0q-0.203125 -2.1875 -1.109375 -3.28125q-1.40625 -1.6875 -3.625 -1.6875q-2.015625 0 -3.390625 1.359375q-1.375 1.34375 -1.53125 3.609375zm16.348022 10.296875l0 -23.859375l2.921875 0l0 13.609375l6.9375 -7.03125l3.78125 0l-6.59375 6.40625l7.265625 10.875l-3.609375 0l-5.71875 -8.84375l-2.0625 2.0l0 6.84375l-2.921875 0zm37.736206 -5.5625l3.015625 0.375q-0.703125 2.65625 -2.640625 4.125q-1.9375 1.453125 -4.953125 1.453125q-3.796875 0 -6.015625 -2.328125q-2.21875 -2.34375 -2.21875 -6.5625q0 -4.359375 2.25 -6.765625q2.25 -2.40625 5.828125 -2.40625q3.46875 0 5.65625 2.359375q2.203125 2.359375 2.203125 6.640625q0 0.265625 -0.015625 0.78125l-12.890625 0q0.15625 2.84375 1.609375 4.359375q1.453125 1.515625 3.609375 1.515625q1.609375 0 2.75 -0.84375q1.140625 -0.84375 1.8125 -2.703125zm-9.625 -4.734375l9.65625 0q-0.203125 -2.1875 -1.109375 -3.28125q-1.40625 -1.6875 -3.625 -1.6875q-2.015625 0 -3.390625 1.359375q-1.375 1.34375 -1.53125 3.609375zm15.785522 11.734375l2.84375 0.421875q0.1875 1.3125 1.0 1.921875q1.09375 0.8125 2.984375 0.8125q2.03125 0 3.125 -0.8125q1.109375 -0.8125 1.5 -2.28125q0.234375 -0.890625 0.21875 -3.765625q-1.921875 2.265625 -4.78125 2.265625q-3.5625 0 -5.515625 -2.5625q-1.953125 -2.578125 -1.953125 -6.171875q0 -2.484375 0.890625 -4.5625q0.890625 -2.09375 2.59375 -3.234375q1.703125 -1.140625 4.0 -1.140625q3.0625 0 5.046875 2.46875l0 -2.078125l2.703125 0l0 14.9375q0 4.03125 -0.828125 5.71875q-0.828125 1.6875 -2.609375 2.65625q-1.78125 0.984375 -4.375 0.984375q-3.09375 0 -5.0 -1.390625q-1.90625 -1.390625 -1.84375 -4.1875zm2.421875 -10.390625q0 3.40625 1.34375 4.96875q1.359375 1.5625 3.390625 1.5625q2.03125 0 3.390625 -1.546875q1.375 -1.5625 1.375 -4.890625q0 -3.171875 -1.421875 -4.78125q-1.40625 -1.609375 -3.390625 -1.609375q-1.953125 0 -3.328125 1.59375q-1.359375 1.578125 -1.359375 4.703125zm16.519897 15.609375l-0.328125 -2.75q0.96875 0.265625 1.6875 0.265625q0.96875 0 1.546875 -0.328125q0.59375 -0.328125 0.96875 -0.921875q0.28125 -0.4375 0.890625 -2.171875q0.09375 -0.25 0.265625 -0.71875l-6.5625 -17.3125l3.15625 0l3.609375 10.0q0.6875 1.90625 1.25 4.015625q0.5 -2.015625 1.203125 -3.9375l3.6875 -10.078125l2.9375 0l-6.578125 17.578125q-1.0625 2.84375 -1.640625 3.921875q-0.78125 1.4375 -1.796875 2.109375q-1.0 0.6875 -2.40625 0.6875q-0.84375 0 -1.890625 -0.359375zm16.773438 -6.65625l0 -17.28125l2.625 0l0 2.625q1.015625 -1.84375 1.859375 -2.421875q0.859375 -0.59375 1.890625 -0.59375q1.484375 0 3.0000305 0.9375l-1.0000305 2.71875q-1.078125 -0.625 -2.15625 -0.625q-0.953125 0 -1.71875 0.578125q-0.765625 0.578125 -1.09375 1.59375q-0.484375 1.5625 -0.484375 3.421875l0 9.046875l-2.921875 0zm22.957916 -5.5625l3.015625 0.375q-0.703125 2.65625 -2.640625 4.125q-1.9375 1.453125 -4.953125 1.453125q-3.796875 0 -6.015625 -2.328125q-2.21875 -2.34375 -2.21875 -6.5625q0 -4.359375 2.25 -6.765625q2.25 -2.40625 5.828125 -2.40625q3.46875 0 5.65625 2.359375q2.203125 2.359375 2.203125 6.640625q0 0.265625 -0.015625 0.78125l-12.890625 0q0.15625 2.84375 1.609375 4.359375q1.453125 1.515625 3.609375 1.515625q1.609375 0 2.75 -0.84375q1.140625 -0.84375 1.8125 -2.703125zm-9.625 -4.734375l9.65625 0q-0.203125 -2.1875 -1.109375 -3.28125q-1.40625 -1.6875 -3.625 -1.6875q-2.015625 0 -3.390625 1.359375q-1.375 1.34375 -1.53125 3.609375zm26.279541 10.296875l0 -15.0l-2.578125 0l0 -2.28125l2.578125 0l0 -1.84375q0 -1.734375 0.3125 -2.578125q0.421875 -1.140625 1.484375 -1.84375q1.078125 -0.71875 3.0 -0.71875q1.234375 0 2.734375 0.296875l-0.453125 2.546875q-0.90625 -0.15625 -1.71875 -0.15625q-1.328125 0 -1.890625 0.578125q-0.546875 0.5625 -0.546875 2.125l0 1.59375l3.359375 0l0 2.28125l-3.359375 0l0 15.0l-2.921875 0zm7.4783936 -8.640625q0 -4.796875 2.671875 -7.109375q2.21875 -1.921875 5.421875 -1.921875q3.578125 0 5.828125 2.34375q2.265625 2.328125 2.265625 6.4375q0 3.34375 -1.0 5.265625q-1.0 1.90625 -2.921875 2.96875q-1.90625 1.046875 -4.171875 1.046875q-3.625 0 -5.859375 -2.328125q-2.234375 -2.328125 -2.234375 -6.703125zm3.015625 0q0 3.3125 1.4375 4.96875q1.453125 1.65625 3.640625 1.65625q2.1875 0 3.625 -1.65625q1.453125 -1.671875 1.453125 -5.0625q0 -3.203125 -1.453125 -4.859375q-1.453125 -1.65625 -3.625 -1.65625q-2.1875 0 -3.640625 1.640625q-1.4375 1.640625 -1.4375 4.96875zm16.613647 8.640625l0 -17.28125l2.625 0l0 2.453125q1.90625 -2.84375 5.5 -2.84375q1.5625 0 2.875 0.5625q1.3125 0.5625 1.953125 1.46875q0.65625 0.90625 0.921875 2.171875q0.15625 0.8125 0.15625 2.84375l0 10.625l-2.921875 0l0 -10.515625q0 -1.78125 -0.34375 -2.671875q-0.34375 -0.890625 -1.21875 -1.421875q-0.859375 -0.53125 -2.03125 -0.53125q-1.875 0 -3.234375 1.1875q-1.359375 1.1875 -1.359375 4.515625l0 9.4375l-2.921875 0zm24.926147 -2.625l0.421875 2.59375q-1.234375 0.265625 -2.21875 0.265625q-1.59375 0 -2.46875 -0.5q-0.875 -0.515625 -1.234375 -1.328125q-0.359375 -0.828125 -0.359375 -3.46875l0 -9.9375l-2.15625 0l0 -2.28125l2.15625 0l0 -4.28125l2.90625 -1.75l0 6.03125l2.953125 0l0 2.28125l-2.953125 0l0 10.109375q0 1.25 0.15625 1.609375q0.15625 0.359375 0.5 0.578125q0.359375 0.203125 1.015625 0.203125q0.484375 0 1.28125 -0.125zm1.7752686 -6.015625q0 -4.796875 2.671875 -7.109375q2.21875 -1.921875 5.421875 -1.921875q3.578125 0 5.828125 2.34375q2.265625 2.328125 2.265625 6.4375q0 3.34375 -1.0 5.265625q-1.0 1.90625 -2.921875 2.96875q-1.90625 1.046875 -4.171875 1.046875q-3.625 0 -5.859375 -2.328125q-2.234375 -2.328125 -2.234375 -6.703125zm3.015625 0q0 3.3125 1.4375 4.96875q1.453125 1.65625 3.640625 1.65625q2.1875 0 3.625 -1.65625q1.453125 -1.671875 1.453125 -5.0625q0 -3.203125 -1.453125 -4.859375q-1.453125 -1.65625 -3.625 -1.65625q-2.1875 0 -3.640625 1.640625q-1.4375 1.640625 -1.4375 4.96875zm15.441772 3.484375l2.890625 -0.453125q0.25 1.734375 1.359375 2.671875q1.109375 0.921875 3.109375 0.921875q2.03125 0 3.0 -0.8125q0.984375 -0.828125 0.984375 -1.9375q0 -1.0 -0.875 -1.5625q-0.59375 -0.390625 -2.984375 -1.0q-3.234375 -0.8125 -4.484375 -1.40625q-1.234375 -0.59375 -1.875 -1.640625q-0.640625 -1.046875 -0.640625 -2.3125q0 -1.15625 0.53125 -2.140625q0.53125 -0.984375 1.4375 -1.640625q0.6875 -0.5 1.859375 -0.84375q1.1875 -0.359375 2.53125 -0.359375q2.03125 0 3.5625 0.59375q1.546875 0.578125 2.28125 1.578125q0.734375 1.0 1.015625 2.671875l-2.875 0.390625q-0.1875 -1.328125 -1.125 -2.078125q-0.9375 -0.75 -2.640625 -0.75q-2.03125 0 -2.890625 0.671875q-0.859375 0.65625 -0.859375 1.5625q0 0.5625 0.359375 1.015625q0.359375 0.484375 1.125 0.78125q0.4375 0.171875 2.578125 0.75q3.109375 0.828125 4.34375 1.359375q1.234375 0.53125 1.921875 1.546875q0.703125 1.0 0.703125 2.5q0 1.46875 -0.859375 2.765625q-0.84375 1.28125 -2.453125 2.0q-1.609375 0.703125 -3.65625 0.703125q-3.359375 0 -5.125 -1.390625q-1.765625 -1.40625 -2.25 -4.15625zm29.101562 3.03125q-1.625 1.375 -3.125 1.953125q-1.5 0.5625 -3.234375 0.5625q-2.84375 0 -4.375 -1.390625q-1.53125 -1.390625 -1.53125 -3.5625q0 -1.265625 0.578125 -2.3125q0.578125 -1.046875 1.515625 -1.671875q0.9375 -0.640625 2.109375 -0.96875q0.859375 -0.234375 2.59375 -0.4375q3.546875 -0.421875 5.234375 -1.015625q0.015625 -0.609375 0.015625 -0.765625q0 -1.78125 -0.828125 -2.515625q-1.125 -1.0 -3.34375 -1.0q-2.0625 0 -3.046875 0.734375q-0.984375 0.71875 -1.453125 2.546875l-2.875 -0.390625q0.390625 -1.828125 1.28125 -2.953125q0.90625 -1.140625 2.59375 -1.75q1.703125 -0.609375 3.921875 -0.609375q2.21875 0 3.59375 0.53125q1.390625 0.515625 2.03125 1.3125q0.65625 0.78125 0.921875 1.984375q0.140625 0.75 0.140625 2.703125l0 3.90625q0 4.078125 0.1875 5.15625q0.1875 1.078125 0.75 2.078125l-3.0625 0q-0.453125 -0.90625 -0.59375 -2.125zm-0.234375 -6.546875q-1.59375 0.65625 -4.78125 1.109375q-1.8125 0.25 -2.5625 0.578125q-0.75 0.328125 -1.15625 0.953125q-0.40625 0.625 -0.40625 1.390625q0 1.171875 0.890625 1.953125q0.890625 0.78125 2.59375 0.78125q1.6875 0 3.0 -0.734375q1.328125 -0.75 1.953125 -2.03125q0.46875 -0.984375 0.46875 -2.921875l0 -1.078125zm10.191772 8.671875l-2.703125 0l0 -23.859375l2.921875 0l0 8.515625q1.859375 -2.328125 4.734375 -2.328125q1.59375 0 3.015625 0.640625q1.421875 0.640625 2.34375 1.8125q0.921875 1.15625 1.4375 2.8125q0.53125 1.640625 0.53125 3.5q0 4.453125 -2.203125 6.875q-2.1875 2.421875 -5.265625 2.421875q-3.0625 0 -4.8125 -2.5625l0 2.171875zm-0.03125 -8.765625q0 3.109375 0.859375 4.484375q1.375 2.265625 3.734375 2.265625q1.921875 0 3.3125 -1.671875q1.40625 -1.671875 1.40625 -4.96875q0 -3.390625 -1.34375 -5.0q-1.34375 -1.609375 -3.25 -1.609375q-1.90625 0 -3.3125 1.671875q-1.40625 1.671875 -1.40625 4.828125zm18.566772 8.765625l-2.703125 0l0 -23.859375l2.921875 0l0 8.515625q1.859375 -2.328125 4.734375 -2.328125q1.59375 0 3.015625 0.640625q1.421875 0.640625 2.34375 1.8125q0.921875 1.15625 1.4375 2.8125q0.53125 1.640625 0.53125 3.5q0 4.453125 -2.203125 6.875q-2.1875 2.421875 -5.265625 2.421875q-3.0625 0 -4.8125 -2.5625l0 2.171875zm-0.03125 -8.765625q0 3.109375 0.859375 4.484375q1.375 2.265625 3.734375 2.265625q1.921875 0 3.3125 -1.671875q1.40625 -1.671875 1.40625 -4.96875q0 -3.390625 -1.34375 -5.0q-1.34375 -1.609375 -3.25 -1.609375q-1.90625 0 -3.3125 1.671875q-1.40625 1.671875 -1.40625 4.828125zm27.144897 6.640625q-1.625 1.375 -3.125 1.953125q-1.5 0.5625 -3.234375 0.5625q-2.84375 0 -4.375 -1.390625q-1.53125 -1.390625 -1.53125 -3.5625q0 -1.265625 0.578125 -2.3125q0.578125 -1.046875 1.515625 -1.671875q0.9375 -0.640625 2.109375 -0.96875q0.859375 -0.234375 2.59375 -0.4375q3.546875 -0.421875 5.234375 -1.015625q0.015625 -0.609375 0.015625 -0.765625q0 -1.78125 -0.828125 -2.515625q-1.125 -1.0 -3.34375 -1.0q-2.0625 0 -3.046875 0.734375q-0.984375 0.71875 -1.453125 2.546875l-2.875 -0.390625q0.390625 -1.828125 1.28125 -2.953125q0.90625 -1.140625 2.59375 -1.75q1.703125 -0.609375 3.921875 -0.609375q2.21875 0 3.59375 0.53125q1.390625 0.515625 2.03125 1.3125q0.65625 0.78125 0.921875 1.984375q0.140625 0.75 0.140625 2.703125l0 3.90625q0 4.078125 0.1875 5.15625q0.1875 1.078125 0.75 2.078125l-3.0625 0q-0.453125 -0.90625 -0.59375 -2.125zm-0.234375 -6.546875q-1.59375 0.65625 -4.78125 1.109375q-1.8125 0.25 -2.5625 0.578125q-0.75 0.328125 -1.15625 0.953125q-0.40625 0.625 -0.40625 1.390625q0 1.171875 0.890625 1.953125q0.890625 0.78125 2.59375 0.78125q1.6875 0 3.0 -0.734375q1.328125 -0.75 1.953125 -2.03125q0.46875 -0.984375 0.46875 -2.921875l0 -1.078125zm-5.703125 -10.765625l2.171875 -4.546875l3.84375 0l-3.59375 4.546875l-2.421875 0zm27.263916 19.4375l-6.578125 -17.28125l3.09375 0l3.703125 10.34375q0.609375 1.6875 1.109375 3.484375q0.390625 -1.359375 1.09375 -3.28125l3.84375 -10.546875l3.015625 0l-6.546875 17.28125l-2.734375 0zm23.132812 -2.125q-1.625 1.375 -3.125 1.953125q-1.5 0.5625 -3.234375 0.5625q-2.84375 0 -4.375 -1.390625q-1.53125 -1.390625 -1.53125 -3.5625q0 -1.265625 0.578125 -2.3125q0.578125 -1.046875 1.515625 -1.671875q0.9375 -0.640625 2.109375 -0.96875q0.859375 -0.234375 2.59375 -0.4375q3.546875 -0.421875 5.234375 -1.015625q0.015625 -0.609375 0.015625 -0.765625q0 -1.78125 -0.828125 -2.515625q-1.125 -1.0 -3.34375 -1.0q-2.0625 0 -3.046875 0.734375q-0.984375 0.71875 -1.453125 2.546875l-2.875 -0.390625q0.390625 -1.828125 1.28125 -2.953125q0.90625 -1.140625 2.59375 -1.75q1.703125 -0.609375 3.921875 -0.609375q2.21875 0 3.59375 0.53125q1.390625 0.515625 2.03125 1.3125q0.65625 0.78125 0.921875 1.984375q0.140625 0.75 0.140625 2.703125l0 3.90625q0 4.078125 0.1875 5.15625q0.1875 1.078125 0.75 2.078125l-3.0625 0q-0.453125 -0.90625 -0.59375 -2.125zm-0.234375 -6.546875q-1.59375 0.65625 -4.78125 1.109375q-1.8125 0.25 -2.5625 0.578125q-0.75 0.328125 -1.15625 0.953125q-0.40625 0.625 -0.40625 1.390625q0 1.171875 0.890625 1.953125q0.890625 0.78125 2.59375 0.78125q1.6875 0 3.0 -0.734375q1.328125 -0.75 1.953125 -2.03125q0.46875 -0.984375 0.46875 -2.921875l0 -1.078125zm-5.703125 -10.765625l2.171875 -4.546875l3.84375 0l-3.59375 4.546875l-2.421875 0zm13.129272 19.4375l0 -23.859375l2.9375 0l0 23.859375l-2.9375 0zm7.482544 0l0 -17.28125l2.625 0l0 2.453125q1.90625 -2.84375 5.5 -2.84375q1.5625 0 2.875 0.5625q1.3125 0.5625 1.953125 1.46875q0.65625 0.90625 0.921875 2.171875q0.15625 0.8125 0.15625 2.84375l0 10.625l-2.921875 0l0 -10.515625q0 -1.78125 -0.34375 -2.671875q-0.34375 -0.890625 -1.21875 -1.421875q-0.859375 -0.53125 -2.03125 -0.53125q-1.875 0 -3.234375 1.1875q-1.359375 1.1875 -1.359375 4.515625l0 9.4375l-2.921875 0zm29.801147 -2.125q-1.625 1.375 -3.125 1.953125q-1.5 0.5625 -3.234375 0.5625q-2.84375 0 -4.375 -1.390625q-1.53125 -1.390625 -1.53125 -3.5625q0 -1.265625 0.578125 -2.3125q0.578125 -1.046875 1.515625 -1.671875q0.9375 -0.640625 2.109375 -0.96875q0.859375 -0.234375 2.59375 -0.4375q3.546875 -0.421875 5.234375 -1.015625q0.015625 -0.609375 0.015625 -0.765625q0 -1.78125 -0.828125 -2.515625q-1.125 -1.0 -3.34375 -1.0q-2.0625 0 -3.046875 0.734375q-0.984375 0.71875 -1.453125 2.546875l-2.875 -0.390625q0.390625 -1.828125 1.28125 -2.953125q0.90625 -1.140625 2.59375 -1.75q1.703125 -0.609375 3.921875 -0.609375q2.21875 0 3.59375 0.53125q1.390625 0.515625 2.03125 1.3125q0.65625 0.78125 0.921875 1.984375q0.140625 0.75 0.140625 2.703125l0 3.90625q0 4.078125 0.1875 5.15625q0.1875 1.078125 0.75 2.078125l-3.0625 0q-0.453125 -0.90625 -0.59375 -2.125zm-0.234375 -6.546875q-1.59375 0.65625 -4.78125 1.109375q-1.8125 0.25 -2.5625 0.578125q-0.75 0.328125 -1.15625 0.953125q-0.40625 0.625 -0.40625 1.390625q0 1.171875 0.890625 1.953125q0.890625 0.78125 2.59375 0.78125q1.6875 0 3.0 -0.734375q1.328125 -0.75 1.953125 -2.03125q0.46875 -0.984375 0.46875 -2.921875l0 -1.078125zm7.5198975 8.671875l0 -23.859375l2.921875 0l0 13.609375l6.9375 -7.03125l3.78125 0l-6.59375 6.40625l7.265625 10.875l-3.609375 0l-5.71875 -8.84375l-2.0625 2.0l0 6.84375l-2.921875 0zm37.173706 -2.125q-1.625 1.375 -3.125 1.953125q-1.5 0.5625 -3.234375 0.5625q-2.84375 0 -4.375 -1.390625q-1.53125 -1.390625 -1.53125 -3.5625q0 -1.265625 0.578125 -2.3125q0.578125 -1.046875 1.515625 -1.671875q0.9375 -0.640625 2.109375 -0.96875q0.859375 -0.234375 2.59375 -0.4375q3.546875 -0.421875 5.234375 -1.015625q0.015625 -0.609375 0.015625 -0.765625q0 -1.78125 -0.828125 -2.515625q-1.125 -1.0 -3.34375 -1.0q-2.0625 0 -3.046875 0.734375q-0.984375 0.71875 -1.453125 2.546875l-2.875 -0.390625q0.390625 -1.828125 1.28125 -2.953125q0.90625 -1.140625 2.59375 -1.75q1.703125 -0.609375 3.921875 -0.609375q2.21875 0 3.59375 0.53125q1.390625 0.515625 2.03125 1.3125q0.65625 0.78125 0.921875 1.984375q0.140625 0.75 0.140625 2.703125l0 3.90625q0 4.078125 0.1875 5.15625q0.1875 1.078125 0.75 2.078125l-3.0625 0q-0.453125 -0.90625 -0.59375 -2.125zm-0.234375 -6.546875q-1.59375 0.65625 -4.78125 1.109375q-1.8125 0.25 -2.5625 0.578125q-0.75 0.328125 -1.15625 0.953125q-0.40625 0.625 -0.40625 1.390625q0 1.171875 0.890625 1.953125q0.890625 0.78125 2.59375 0.78125q1.6875 0 3.0 -0.734375q1.328125 -0.75 1.953125 -2.03125q0.46875 -0.984375 0.46875 -2.921875l0 -1.078125z" fill-rule="nonzero"/><path fill="#000000" d="m43.927536 311.98984l0 -23.90625l2.65625 0l0 2.25q0.953125 -1.328125 2.140625 -1.984375q1.1875 -0.65625 2.875 -0.65625q2.21875 0 3.90625 1.140625q1.6875 1.140625 2.546875 3.21875q0.875 2.0625 0.875 4.546875q0 2.640625 -0.953125 4.765625q-0.953125 2.125 -2.765625 3.265625q-1.8125 1.125 -3.8125 1.125q-1.46875 0 -2.640625 -0.609375q-1.15625 -0.625 -1.90625 -1.578125l0 8.421875l-2.921875 0zm2.640625 -15.171875q0 3.34375 1.34375 4.9375q1.359375 1.59375 3.28125 1.59375q1.953125 0 3.34375 -1.65625q1.390625 -1.65625 1.390625 -5.109375q0 -3.3125 -1.359375 -4.953125q-1.359375 -1.640625 -3.25 -1.640625q-1.859375 0 -3.3125 1.75q-1.4375 1.75 -1.4375 5.078125zm15.910522 -11.9375l0 -3.375l2.921875 0l0 3.375l-2.921875 0zm0 20.484375l0 -17.28125l2.921875 0l0 17.28125l-2.921875 0zm5.4356995 0l6.3125 -8.984375l-5.84375 -8.296875l3.65625 0l2.65625 4.046875q0.75 1.15625 1.203125 1.9375q0.71875 -1.078125 1.3125 -1.90625l2.921875 -4.078125l3.5 0l-5.984375 8.140625l6.4375 9.140625l-3.59375 0l-3.546875 -5.375l-0.953125 -1.4375l-4.53125 6.8125l-3.546875 0zm30.445312 -5.5625l3.015625 0.375q-0.703125 2.65625 -2.640625 4.125q-1.9375 1.453125 -4.953125 1.453125q-3.796875 0 -6.015625 -2.328125q-2.21875 -2.34375 -2.21875 -6.5625q0 -4.359375 2.25 -6.765625q2.25 -2.40625 5.828125 -2.40625q3.46875 0 5.65625 2.359375q2.203125 2.359375 2.203125 6.640625q0 0.265625 -0.015625 0.78125l-12.890625 0q0.15625 2.84375 1.609375 4.359375q1.453125 1.515625 3.609375 1.515625q1.609375 0 2.75 -0.84375q1.140625 -0.84375 1.8125 -2.703125zm-9.625 -4.734375l9.65625 0q-0.203125 -2.1875 -1.109375 -3.28125q-1.40625 -1.6875 -3.625 -1.6875q-2.015625 0 -3.390625 1.359375q-1.375 1.34375 -1.53125 3.609375zm16.254272 10.296875l0 -23.859375l2.9375 0l0 23.859375l-2.9375 0zm19.3107 -5.5625l3.015625 0.375q-0.703125 2.65625 -2.640625 4.125q-1.9375 1.453125 -4.953125 1.453125q-3.796875 0 -6.015625 -2.328125q-2.21875 -2.34375 -2.21875 -6.5625q0 -4.359375 2.25 -6.765625q2.25 -2.40625 5.828125 -2.40625q3.46875 0 5.65625 2.359375q2.203125 2.359375 2.203125 6.640625q0 0.265625 -0.015625 0.78125l-12.890625 0q0.15625 2.84375 1.609375 4.359375q1.453125 1.515625 3.609375 1.515625q1.609375 0 2.75 -0.84375q1.140625 -0.84375 1.8125 -2.703125zm-9.625 -4.734375l9.65625 0q-0.203125 -2.1875 -1.109375 -3.28125q-1.40625 -1.6875 -3.625 -1.6875q-2.015625 0 -3.390625 1.359375q-1.375 1.34375 -1.53125 3.609375zm16.348022 10.296875l0 -23.859375l2.921875 0l0 13.609375l6.9375 -7.03125l3.78125 0l-6.59375 6.40625l7.265625 10.875l-3.609375 0l-5.71875 -8.84375l-2.0625 2.0l0 6.84375l-2.921875 0zm24.73619 -5.15625l2.890625 -0.453125q0.25 1.734375 1.359375 2.671875q1.109375 0.921875 3.109375 0.921875q2.03125 0 3.0 -0.8125q0.984375 -0.828125 0.984375 -1.9375q0 -1.0 -0.875 -1.5625q-0.59375 -0.390625 -2.984375 -1.0q-3.234375 -0.8125 -4.484375 -1.40625q-1.234375 -0.59375 -1.875 -1.640625q-0.640625 -1.046875 -0.640625 -2.3125q0 -1.15625 0.53125 -2.140625q0.53125 -0.984375 1.4375 -1.640625q0.6875 -0.5 1.859375 -0.84375q1.1875 -0.359375 2.53125 -0.359375q2.03125 0 3.5625 0.59375q1.546875 0.578125 2.28125 1.578125q0.734375 1.0 1.015625 2.671875l-2.875 0.390625q-0.1875 -1.328125 -1.125 -2.078125q-0.9375 -0.75 -2.640625 -0.75q-2.03125 0 -2.890625 0.671875q-0.859375 0.65625 -0.859375 1.5625q0 0.5625 0.359375 1.015625q0.359375 0.484375 1.125 0.78125q0.4375 0.171875 2.578125 0.75q3.109375 0.828125 4.34375 1.359375q1.234375 0.53125 1.921875 1.546875q0.703125 1.0 0.703125 2.5q0 1.46875 -0.859375 2.765625q-0.84375 1.28125 -2.453125 2.0q-1.609375 0.703125 -3.65625 0.703125q-3.359375 0 -5.125 -1.390625q-1.765625 -1.40625 -2.25 -4.15625zm16.289062 5.15625l0 -2.375l11.0 -12.625q-1.875 0.09375 -3.3125 0.09375l-7.046875 0l0 -2.375l14.125 0l0 1.9375l-9.359375 10.96875l-1.796875 2.0q1.96875 -0.140625 3.6875 -0.140625l8.0 0l0 2.515625l-15.296875 0zm19.226562 0l0 -17.28125l2.9375 0l0 17.28125l-2.9375 0zm-0.140625 -19.4375l2.171875 -4.546875l3.84375 0l-3.59375 4.546875l-2.421875 0zm8.384628 19.4375l0 -17.28125l2.625 0l0 2.453125q1.90625 -2.84375 5.5 -2.84375q1.5625 0 2.875 0.5625q1.3125 0.5625 1.953125 1.46875q0.65625 0.90625 0.921875 2.171875q0.15625 0.8125 0.15625 2.84375l0 10.625l-2.921875 0l0 -10.515625q0 -1.78125 -0.34375 -2.671875q-0.34375 -0.890625 -1.21875 -1.421875q-0.859375 -0.53125 -2.03125 -0.53125q-1.875 0 -3.234375 1.1875q-1.359375 1.1875 -1.359375 4.515625l0 9.4375l-2.921875 0zm30.363647 -5.5625l3.015625 0.375q-0.703125 2.65625 -2.640625 4.125q-1.9375 1.453125 -4.953125 1.453125q-3.796875 0 -6.015625 -2.328125q-2.21875 -2.34375 -2.21875 -6.5625q0 -4.359375 2.25 -6.765625q2.25 -2.40625 5.828125 -2.40625q3.46875 0 5.65625 2.359375q2.203125 2.359375 2.203125 6.640625q0 0.265625 -0.015625 0.78125l-12.890625 0q0.15625 2.84375 1.609375 4.359375q1.453125 1.515625 3.609375 1.515625q1.609375 0 2.75 -0.84375q1.140625 -0.84375 1.8125 -2.703125zm-9.625 -4.734375l9.65625 0q-0.203125 -2.1875 -1.109375 -3.28125q-1.40625 -1.6875 -3.625 -1.6875q-2.015625 0 -3.390625 1.359375q-1.375 1.34375 -1.53125 3.609375zm14.785522 10.296875l0 -2.375l11.0 -12.625q-1.875 0.09375 -3.3125 0.09375l-7.046875 0l0 -2.375l14.125 0l0 1.9375l-9.359375 10.96875l-1.796875 2.0q1.96875 -0.140625 3.6875 -0.140625l8.0 0l0 2.515625l-15.296875 0zm30.039047 -5.5625l3.015625 0.375q-0.703125 2.65625 -2.640625 4.125q-1.9375 1.453125 -4.953125 1.453125q-3.796875 0 -6.0156097 -2.328125q-2.21875 -2.34375 -2.21875 -6.5625q0 -4.359375 2.25 -6.765625q2.2499847 -2.40625 5.8281097 -2.40625q3.46875 0 5.65625 2.359375q2.203125 2.359375 2.203125 6.640625q0 0.265625 -0.015625 0.78125l-12.89061 0q0.15625 2.84375 1.6093597 4.359375q1.453125 1.515625 3.609375 1.515625q1.609375 0 2.75 -0.84375q1.140625 -0.84375 1.8125 -2.703125zm-9.624985 -4.734375l9.656235 0q-0.203125 -2.1875 -1.109375 -3.28125q-1.40625 -1.6875 -3.625 -1.6875q-2.015625 0 -3.390625 1.359375q-1.3749847 1.34375 -1.5312347 3.609375zm3.1562347 -9.140625l2.171875 -4.546875l3.84375 0l-3.59375 4.546875l-2.421875 0zm12.004272 14.28125l2.890625 -0.453125q0.25 1.734375 1.359375 2.671875q1.109375 0.921875 3.109375 0.921875q2.03125 0 3.0 -0.8125q0.984375 -0.828125 0.984375 -1.9375q0 -1.0 -0.875 -1.5625q-0.59375 -0.390625 -2.984375 -1.0q-3.234375 -0.8125 -4.484375 -1.40625q-1.234375 -0.59375 -1.875 -1.640625q-0.640625 -1.046875 -0.640625 -2.3125q0 -1.15625 0.53125 -2.140625q0.53125 -0.984375 1.4375 -1.640625q0.6875 -0.5 1.859375 -0.84375q1.1875 -0.359375 2.53125 -0.359375q2.03125 0 3.5625 0.59375q1.546875 0.578125 2.28125 1.578125q0.734375 1.0 1.015625 2.671875l-2.875 0.390625q-0.1875 -1.328125 -1.125 -2.078125q-0.9375 -0.75 -2.640625 -0.75q-2.03125 0 -2.890625 0.671875q-0.859375 0.65625 -0.859375 1.5625q0 0.5625 0.359375 1.015625q0.359375 0.484375 1.125 0.78125q0.4375 0.171875 2.578125 0.75q3.109375 0.828125 4.34375 1.359375q1.234375 0.53125 1.921875 1.546875q0.703125 1.0 0.703125 2.5q0 1.46875 -0.859375 2.765625q-0.84375 1.28125 -2.453125 2.0q-1.609375 0.703125 -3.65625 0.703125q-3.359375 0 -5.125 -1.390625q-1.765625 -1.40625 -2.25 -4.15625zm29.664062 -0.40625l3.015625 0.375q-0.703125 2.65625 -2.640625 4.125q-1.9375 1.453125 -4.953125 1.453125q-3.796875 0 -6.015625 -2.328125q-2.21875 -2.34375 -2.21875 -6.5625q0 -4.359375 2.25 -6.765625q2.25 -2.40625 5.828125 -2.40625q3.46875 0 5.65625 2.359375q2.203125 2.359375 2.203125 6.640625q0 0.265625 -0.015625 0.78125l-12.890625 0q0.15625 2.84375 1.609375 4.359375q1.453125 1.515625 3.609375 1.515625q1.609375 0 2.75 -0.84375q1.140625 -0.84375 1.8125 -2.703125zm-9.625 -4.734375l9.65625 0q-0.203125 -2.1875 -1.109375 -3.28125q-1.40625 -1.6875 -3.625 -1.6875q-2.015625 0 -3.390625 1.359375q-1.375 1.34375 -1.53125 3.609375zm3.15625 -9.140625l2.171875 -4.546875l3.84375 0l-3.59375 4.546875l-2.421875 0zm15.863647 19.4375l-2.703125 0l0 -23.859375l2.921875 0l0 8.515625q1.859375 -2.328125 4.734375 -2.328125q1.59375 0 3.015625 0.640625q1.421875 0.640625 2.34375 1.8125q0.921875 1.15625 1.4375 2.8125q0.53125 1.640625 0.53125 3.5q0 4.453125 -2.203125 6.875q-2.1875 2.421875 -5.265625 2.421875q-3.0625 0 -4.8125 -2.5625l0 2.171875zm-0.03125 -8.765625q0 3.109375 0.859375 4.484375q1.375 2.265625 3.734375 2.265625q1.921875 0 3.3125 -1.671875q1.40625 -1.671875 1.40625 -4.96875q0 -3.390625 -1.34375 -5.0q-1.34375 -1.609375 -3.25 -1.609375q-1.90625 0 -3.3125 1.671875q-1.40625 1.671875 -1.40625 4.828125zm27.707397 3.203125l3.015625 0.375q-0.703125 2.65625 -2.640625 4.125q-1.9375 1.453125 -4.953125 1.453125q-3.796875 0 -6.015625 -2.328125q-2.21875 -2.34375 -2.21875 -6.5625q0 -4.359375 2.25 -6.765625q2.25 -2.40625 5.828125 -2.40625q3.46875 0 5.65625 2.359375q2.203125 2.359375 2.203125 6.640625q0 0.265625 -0.015625 0.78125l-12.890625 0q0.15625 2.84375 1.609375 4.359375q1.453125 1.515625 3.609375 1.515625q1.609375 0 2.75 -0.84375q1.140625 -0.84375 1.8125 -2.703125zm-9.625 -4.734375l9.65625 0q-0.203125 -2.1875 -1.109375 -3.28125q-1.40625 -1.6875 -3.625 -1.6875q-2.015625 0 -3.390625 1.359375q-1.375 1.34375 -1.53125 3.609375zm16.332397 10.296875l0 -17.28125l2.625 0l0 2.453125q1.90625 -2.84375 5.5 -2.84375q1.5625 0 2.875 0.5625q1.3125 0.5625 1.953125 1.46875q0.65625 0.90625 0.921875 2.171875q0.15625 0.8125 0.15625 2.84375l0 10.625l-2.921875 0l0 -10.515625q0 -1.78125 -0.34375 -2.671875q-0.34375 -0.890625 -1.21875 -1.421875q-0.859375 -0.53125 -2.03125 -0.53125q-1.875 0 -3.234375 1.1875q-1.359375 1.1875 -1.359375 4.515625l0 9.4375l-2.921875 0zm19.363647 0l0 -3.34375l3.328125 0l0 3.34375l-3.328125 0z" fill-rule="nonzero"/></g></svg>