<svg version="1.1" viewBox="0.0 0.0 960.0 540.0" fill="none" stroke="none" stroke-linecap="square" stroke-miterlimit="10" xmlns:xlink="http://www.w3.org/1999/xlink" xmlns="http://www.w3.org/2000/svg"><clipPath id="g39e899d7e67_0_16.0"><path d="m0 0l960.0 0l0 540.0l-960.0 0l0 -540.0z" clip-rule="nonzero"/></clipPath><g clip-path="url(#g39e899d7e67_0_16.0)"><path fill="#6fa8dc" d="m0 0l960.0 0l0 540.0l-960.0 0z" fill-rule="evenodd"/><path fill="#000000" fill-opacity="0.0" d="m32.72441 46.721786l894.55115 0l0 60.125984l-894.55115 0z" fill-rule="evenodd"/><path fill="#000000" d="m71.896286 96.04179l-6.609375 0l-2.625 -6.828125l-12.015625 0l-2.484375 6.828125l-6.4375 0l11.703125 -30.0625l6.421875 0l12.046875 30.0625zm-11.1875 -11.890625l-4.140625 -11.15625l-4.0625 11.15625l8.203125 0zm29.988281 11.890625l-5.765625 0l0 -21.78125l5.359375 0l0 3.09375q1.375 -2.1875 2.46875 -2.875q1.09375 -0.703125 2.484375 -0.703125q1.96875 0 3.796875 1.078125l-1.78125 5.03125q-1.453125 -0.953125 -2.703125 -0.953125q-1.21875 0 -2.0625 0.671875q-0.828125 0.671875 -1.3125 2.421875q-0.484375 1.734375 -0.484375 7.28125l0 6.734375zm15.141602 -15.140625l-5.234375 -0.9375q0.875 -3.15625 3.03125 -4.671875q2.15625 -1.515625 6.40625 -1.515625q3.84375 0 5.734375 0.90625q1.890625 0.90625 2.65625 2.3125q0.765625 1.40625 0.765625 5.15625l-0.0625 6.734375q0 2.875 0.28125 4.234375q0.28125 1.359375 1.03125 2.921875l-5.6875 0q-0.234375 -0.578125 -0.5625 -1.703125q-0.140625 -0.515625 -0.203125 -0.671875q-1.484375 1.4375 -3.171875 2.15625q-1.671875 0.71875 -3.578125 0.71875q-3.359375 0 -5.296875 -1.828125q-1.9375 -1.828125 -1.9375 -4.625q0 -1.84375 0.875 -3.28125q0.890625 -1.453125 2.46875 -2.21875q1.59375 -0.765625 4.59375 -1.34375q4.03125 -0.765625 5.59375 -1.421875l0 -0.5625q0 -1.671875 -0.828125 -2.375q-0.8125 -0.703125 -3.09375 -0.703125q-1.53125 0 -2.390625 0.609375q-0.859375 0.59375 -1.390625 2.109375zm7.703125 4.6875q-1.109375 0.359375 -3.515625 0.875q-2.390625 0.515625 -3.125 1.0q-1.125 0.8125 -1.125 2.03125q0 1.21875 0.890625 2.109375q0.90625 0.875 2.296875 0.875q1.5625 0 2.984375 -1.03125q1.046875 -0.78125 1.375 -1.90625q0.21875 -0.734375 0.21875 -2.8125l0 -1.140625zm9.311523 4.234375l5.78125 -0.875q0.375 1.671875 1.5 2.546875q1.125 0.875 3.15625 0.875q2.234375 0 3.359375 -0.8125q0.765625 -0.578125 0.765625 -1.546875q0 -0.65625 -0.40625 -1.078125q-0.4375 -0.421875 -1.9375 -0.765625q-6.96875 -1.53125 -8.828125 -2.8125q-2.59375 -1.765625 -2.59375 -4.90625q0 -2.828125 2.234375 -4.75q2.234375 -1.921875 6.9375 -1.921875q4.46875 0 6.640625 1.453125q2.171875 1.453125 3.0 4.296875l-5.4375 1.015625q-0.34375 -1.28125 -1.328125 -1.953125q-0.96875 -0.671875 -2.78125 -0.671875q-2.265625 0 -3.25 0.625q-0.65625 0.453125 -0.65625 1.171875q0 0.625 0.578125 1.046875q0.765625 0.578125 5.375 1.625q4.609375 1.046875 6.4375 2.5625q1.796875 1.53125 1.796875 4.28125q0 3.0 -2.5 5.15625q-2.5 2.15625 -7.40625 2.15625q-4.453125 0 -7.046875 -1.8125q-2.59375 -1.8125 -3.390625 -4.90625zm23.077148 6.21875l0 -4.484375l8.15625 -9.375q2.015625 -2.296875 2.96875 -3.265625q-1.0 0.0625 -2.640625 0.078125l-7.6875 0.046875l0 -4.78125l18.0 0l0 4.078125l-8.328125 9.609375l-2.921875 3.171875q2.390625 -0.140625 2.96875 -0.140625l8.921875 0l0 5.0625l-19.4375 0zm33.296875 -21.78125l0 4.59375l-3.9375 0l0 8.78125q0 2.65625 0.109375 3.109375q0.125 0.4375 0.515625 0.734375q0.40625 0.28125 0.984375 0.28125q0.796875 0 2.3125 -0.5625l0.484375 4.46875q-2.0 0.875 -4.546875 0.875q-1.5625 0 -2.8125 -0.515625q-1.25 -0.53125 -1.84375 -1.359375q-0.578125 -0.84375 -0.796875 -2.25q-0.1875 -1.015625 -0.1875 -4.0625l0 -9.5l-2.640625 0l0 -4.59375l2.640625 0l0 -4.328125l5.78125 -3.359375l0 7.6875l3.9375 0zm16.611328 14.84375l5.75 0.96875q-1.109375 3.15625 -3.5 4.8125q-2.390625 1.65625 -5.984375 1.65625q-5.671875 0 -8.40625 -3.71875q-2.15625 -2.96875 -2.15625 -7.5q0 -5.421875 2.828125 -8.484375q2.84375 -3.0625 7.171875 -3.0625q4.859375 0 7.65625 3.203125q2.8125 3.203125 2.6875 9.828125l-14.4375 0q0.0625 2.5625 1.390625 4.0q1.34375 1.421875 3.328125 1.421875q1.359375 0 2.28125 -0.734375q0.921875 -0.75 1.390625 -2.390625zm0.328125 -5.8125q-0.0625 -2.515625 -1.296875 -3.8125q-1.21875 -1.296875 -2.984375 -1.296875q-1.890625 0 -3.125 1.375q-1.21875 1.375 -1.203125 3.734375l8.609375 0zm15.936523 12.75l-5.765625 0l0 -21.78125l5.359375 0l0 3.09375q1.375 -2.1875 2.46875 -2.875q1.09375 -0.703125 2.484375 -0.703125q1.96875 0 3.796875 1.078125l-1.78125 5.03125q-1.453125 -0.953125 -2.703125 -0.953125q-1.21875 0 -2.0625 0.671875q-0.828125 0.671875 -1.3125 2.421875q-0.484375 1.734375 -0.484375 7.28125l0 6.734375zm10.829102 -24.734375l0 -5.328125l5.765625 0l0 5.328125l-5.765625 0zm0 24.734375l0 -21.78125l5.765625 0l0 21.78125l-5.765625 0zm9.356445 0l0 -4.484375l8.15625 -9.375q2.015625 -2.296875 2.96875 -3.265625q-1.0 0.0625 -2.640625 0.078125l-7.6875 0.046875l0 -4.78125l18.0 0l0 4.078125l-8.328125 9.609375l-2.921875 3.171875q2.390625 -0.140625 2.96875 -0.140625l8.921875 0l0 5.0625l-19.4375 0zm27.624985 -15.140625l-5.2343597 -0.9375q0.875 -3.15625 3.0312347 -4.671875q2.15625 -1.515625 6.40625 -1.515625q3.84375 0 5.734375 0.90625q1.890625 0.90625 2.65625 2.3125q0.765625 1.40625 0.765625 5.15625l-0.0625 6.734375q0 2.875 0.28125 4.234375q0.28125 1.359375 1.03125 2.921875l-5.6875 0q-0.234375 -0.578125 -0.5625 -1.703125q-0.140625 -0.515625 -0.203125 -0.671875q-1.484375 1.4375 -3.171875 2.15625q-1.671875 0.71875 -3.578125 0.71875q-3.359375 0 -5.296875 -1.828125q-1.9374847 -1.828125 -1.9374847 -4.625q0 -1.84375 0.875 -3.28125q0.890625 -1.453125 2.4687347 -2.21875q1.59375 -0.765625 4.59375 -1.34375q4.03125 -0.765625 5.59375 -1.421875l0 -0.5625q0 -1.671875 -0.828125 -2.375q-0.8125 -0.703125 -3.09375 -0.703125q-1.53125 0 -2.390625 0.609375q-0.859375 0.59375 -1.390625 2.109375zm7.703125 4.6875q-1.109375 0.359375 -3.515625 0.875q-2.390625 0.515625 -3.125 1.0q-1.125 0.8125 -1.125 2.03125q0 1.21875 0.890625 2.109375q0.90625 0.875 2.296875 0.875q1.5625 0 2.984375 -1.03125q1.046875 -0.78125 1.375 -1.90625q0.21875 -0.734375 0.21875 -2.8125l0 -1.140625zm-6.234375 -14.0l2.84375 -6.125l6.453125 0l-5.640625 6.125l-3.65625 0zm36.561523 9.109375l-5.671875 1.03125q-0.296875 -1.703125 -1.3125 -2.5625q-1.015625 -0.859375 -2.625 -0.859375q-2.15625 0 -3.4375 1.484375q-1.28125 1.484375 -1.28125 4.96875q0 3.875 1.296875 5.484375q1.3125 1.59375 3.5 1.59375q1.640625 0 2.6875 -0.9375q1.046875 -0.9375 1.46875 -3.203125l5.671875 0.953125q-0.890625 3.90625 -3.390625 5.90625q-2.5 1.984375 -6.703125 1.984375q-4.78125 0 -7.625 -3.015625q-2.828125 -3.015625 -2.828125 -8.359375q0 -5.390625 2.84375 -8.390625q2.84375 -3.0 7.71875 -3.0q3.96875 0 6.3125 1.71875q2.359375 1.703125 3.375 5.203125zm4.3740234 -9.390625l0 -5.328125l5.765625 0l0 5.328125l-5.765625 0zm0 24.734375l0 -21.78125l5.765625 0l0 21.78125l-5.765625 0zm10.34082 -11.203125q0 -2.859375 1.40625 -5.546875q1.421875 -2.6875 4.015625 -4.09375q2.59375 -1.421875 5.796875 -1.421875q4.9375 0 8.09375 3.203125q3.15625 3.203125 3.15625 8.109375q0 4.9375 -3.1875 8.203125q-3.1875 3.25 -8.03125 3.25q-2.984375 0 -5.703125 -1.359375q-2.71875 -1.359375 -4.140625 -3.96875q-1.40625 -2.609375 -1.40625 -6.375zm5.90625 0.3125q0 3.234375 1.53125 4.96875q1.546875 1.71875 3.796875 1.71875q2.25 0 3.78125 -1.71875q1.53125 -1.734375 1.53125 -5.015625q0 -3.1875 -1.53125 -4.90625q-1.53125 -1.734375 -3.78125 -1.734375q-2.25 0 -3.796875 1.734375q-1.53125 1.71875 -1.53125 4.953125zm2.40625 -13.5625l2.84375 -6.125l6.453125 0l-5.640625 6.125l-3.65625 0zm38.4834 24.453125l-5.765625 0l0 -11.109375q0 -3.53125 -0.375 -4.5625q-0.359375 -1.046875 -1.203125 -1.609375q-0.828125 -0.578125 -1.984375 -0.578125q-1.5 0 -2.6875 0.828125q-1.1875 0.8125 -1.640625 2.171875q-0.4375 1.34375 -0.4375 5.0l0 9.859375l-5.765625 0l0 -21.78125l5.359375 0l0 3.203125q2.84375 -3.6875 7.171875 -3.6875q1.90625 0 3.484375 0.6875q1.578125 0.6875 2.390625 1.75q0.8125 1.0625 1.125 2.421875q0.328125 1.34375 0.328125 3.875l0 13.53125zm10.155273 -15.140625l-5.234375 -0.9375q0.875 -3.15625 3.03125 -4.671875q2.15625 -1.515625 6.40625 -1.515625q3.84375 0 5.734375 0.90625q1.890625 0.90625 2.65625 2.3125q0.765625 1.40625 0.765625 5.15625l-0.0625 6.734375q0 2.875 0.28125 4.234375q0.28125 1.359375 1.03125 2.921875l-5.6875 0q-0.234375 -0.578125 -0.5625 -1.703125q-0.140625 -0.515625 -0.203125 -0.671875q-1.484375 1.4375 -3.171875 2.15625q-1.671875 0.71875 -3.578125 0.71875q-3.359375 0 -5.296875 -1.828125q-1.9375 -1.828125 -1.9375 -4.625q0 -1.84375 0.875 -3.28125q0.890625 -1.453125 2.46875 -2.21875q1.59375 -0.765625 4.59375 -1.34375q4.03125 -0.765625 5.59375 -1.421875l0 -0.5625q0 -1.671875 -0.828125 -2.375q-0.8125 -0.703125 -3.09375 -0.703125q-1.53125 0 -2.390625 0.609375q-0.859375 0.59375 -1.390625 2.109375zm7.703125 4.6875q-1.109375 0.359375 -3.515625 0.875q-2.390625 0.515625 -3.125 1.0q-1.125 0.8125 -1.125 2.03125q0 1.21875 0.890625 2.109375q0.90625 0.875 2.296875 0.875q1.5625 0 2.984375 -1.03125q1.046875 -0.78125 1.375 -1.90625q0.21875 -0.734375 0.21875 -2.8125l0 -1.140625zm11.139648 10.453125l0 -30.0625l5.765625 0l0 15.953125l6.734375 -7.671875l7.109375 0l-7.453125 7.953125l7.984375 13.828125l-6.21875 0l-5.46875 -9.78125l-2.6875 2.8125l0 6.96875l-5.765625 0zm45.214844 -21.78125l0 4.59375l-3.9375 0l0 8.78125q0 2.65625 0.109375 3.109375q0.125 0.4375 0.515625 0.734375q0.40625 0.28125 0.984375 0.28125q0.796875 0 2.3125 -0.5625l0.484375 4.46875q-2.0 0.875 -4.546875 0.875q-1.5625 0 -2.8125 -0.515625q-1.25 -0.53125 -1.84375 -1.359375q-0.578125 -0.84375 -0.796875 -2.25q-0.1875 -1.015625 -0.1875 -4.0625l0 -9.5l-2.640625 0l0 -4.59375l2.640625 0l0 -4.328125l5.78125 -3.359375l0 7.6875l3.9375 0zm9.517578 21.78125l-5.765625 0l0 -21.78125l5.359375 0l0 3.09375q1.375 -2.1875 2.46875 -2.875q1.09375 -0.703125 2.484375 -0.703125q1.96875 0 3.796875 1.078125l-1.78125 5.03125q-1.453125 -0.953125 -2.703125 -0.953125q-1.21875 0 -2.0625 0.671875q-0.828125 0.671875 -1.3125 2.421875q-0.484375 1.734375 -0.484375 7.28125l0 6.734375zm25.157227 0l0 -3.265625q-1.1875 1.75 -3.125 2.765625q-1.9375 1.0 -4.09375 1.0q-2.1875 0 -3.9375 -0.96875q-1.734375 -0.96875 -2.515625 -2.703125q-0.78125 -1.75 -0.78125 -4.828125l0 -13.78125l5.765625 0l0 10.015625q0 4.59375 0.3125 5.625q0.328125 1.03125 1.15625 1.640625q0.84375 0.609375 2.140625 0.609375q1.46875 0 2.640625 -0.8125q1.171875 -0.8125 1.59375 -2.015625q0.4375 -1.203125 0.4375 -5.875l0 -9.1875l5.765625 0l0 21.78125l-5.359375 0zm-11.4375 -25.640625l0 -4.9375l4.9375 0l0 4.9375l-4.9375 0zm8.8125 0l0 -4.9375l4.96875 0l0 4.9375l-4.96875 0zm13.749023 25.640625l0 -30.0625l5.765625 0l0 15.953125l6.734375 -7.671875l7.109375 0l-7.453125 7.953125l7.984375 13.828125l-6.21875 0l-5.46875 -9.78125l-2.6875 2.8125l0 6.96875l-5.765625 0zm23.358398 0l0 -30.0625l5.765625 0l0 15.953125l6.7344055 -7.671875l7.109375 0l-7.453125 7.953125l7.984375 13.828125l-6.21875 0l-5.4687805 -9.78125l-2.6875 2.8125l0 6.96875l-5.765625 0zm22.233429 -11.203125q0 -2.859375 1.40625 -5.546875q1.421875 -2.6875 4.015625 -4.09375q2.59375 -1.421875 5.796875 -1.421875q4.9375 0 8.09375 3.203125q3.15625 3.203125 3.15625 8.109375q0 4.9375 -3.1875 8.203125q-3.1875 3.25 -8.03125 3.25q-2.984375 0 -5.703125 -1.359375q-2.71875 -1.359375 -4.140625 -3.96875q-1.40625 -2.609375 -1.40625 -6.375zm5.90625 0.3125q0 3.234375 1.53125 4.96875q1.546875 1.71875 3.796875 1.71875q2.25 0 3.78125 -1.71875q1.53125 -1.734375 1.53125 -5.015625q0 -3.1875 -1.53125 -4.90625q-1.53125 -1.734375 -3.78125 -1.734375q-2.25 0 -3.796875 1.734375q-1.53125 1.71875 -1.53125 4.953125zm-1.78125 -14.75l0 -4.9375l4.9375 0l0 4.9375l-4.9375 0zm8.8125 0l0 -4.9375l4.96875 0l0 4.9375l-4.96875 0zm13.842773 25.640625l0 -30.0625l5.765625 0l0 15.953125l6.734375 -7.671875l7.109375 0l-7.453125 7.953125l7.984375 13.828125l-6.21875 0l-5.46875 -9.78125l-2.6875 2.8125l0 6.96875l-5.765625 0zm29.077148 0l-5.765625 0l0 -21.78125l5.359375 0l0 3.09375q1.375 -2.1875 2.46875 -2.875q1.09375 -0.703125 2.484375 -0.703125q1.96875 0 3.796875 1.078125l-1.78125 5.03125q-1.453125 -0.953125 -2.703125 -0.953125q-1.21875 0 -2.0625 0.671875q-0.828125 0.671875 -1.3125 2.421875q-0.484375 1.734375 -0.484375 7.28125l0 6.734375zm23.438477 -6.9375l5.75 0.96875q-1.109375 3.15625 -3.5 4.8125q-2.390625 1.65625 -5.984375 1.65625q-5.671875 0 -8.40625 -3.71875q-2.15625 -2.96875 -2.15625 -7.5q0 -5.421875 2.828125 -8.484375q2.84375 -3.0625 7.171875 -3.0625q4.859375 0 7.65625 3.203125q2.8125 3.203125 2.6875 9.828125l-14.4375 0q0.0625 2.5625 1.390625 4.0q1.34375 1.421875 3.328125 1.421875q1.359375 0 2.28125 -0.734375q0.921875 -0.75 1.390625 -2.390625zm0.328125 -5.8125q-0.0625 -2.515625 -1.296875 -3.8125q-1.21875 -1.296875 -2.984375 -1.296875q-1.890625 0 -3.125 1.375q-1.21875 1.375 -1.203125 3.734375l8.609375 0zm21.886719 12.75l0 -30.0625l5.765625 0l0 15.953125l6.734375 -7.671875l7.109375 0l-7.453125 7.953125l7.984375 13.828125l-6.21875 0l-5.46875 -9.78125l-2.6875 2.8125l0 6.96875l-5.765625 0zm36.1709 -6.9375l5.75 0.96875q-1.109375 3.15625 -3.5 4.8125q-2.390625 1.65625 -5.984375 1.65625q-5.671875 0 -8.40625 -3.71875q-2.15625 -2.96875 -2.15625 -7.5q0 -5.421875 2.828125 -8.484375q2.84375 -3.0625 7.171875 -3.0625q4.859375 0 7.65625 3.203125q2.8125 3.203125 2.6875 9.828125l-14.4375 0q0.0625 2.5625 1.390625 4.0q1.34375 1.421875 3.328125 1.421875q1.359375 0 2.28125 -0.734375q0.921875 -0.75 1.390625 -2.390625zm0.328125 -5.8125q-0.0625 -2.515625 -1.296875 -3.8125q-1.21875 -1.296875 -2.984375 -1.296875q-1.890625 0 -3.125 1.375q-1.21875 1.375 -1.203125 3.734375l8.609375 0zm10.420898 12.75l0 -30.0625l5.765625 0l0 30.0625l-5.765625 0zm11.668945 0l0 -30.0625l5.765625 0l0 30.0625l-5.765625 0z" fill-rule="nonzero"/><path fill="#000000" d="m50.47441 116.37929l0 11.046875q2.796875 -3.25 6.671875 -3.25q1.984375 0 3.578125 0.734375q1.609375 0.734375 2.421875 1.890625q0.8125 1.140625 1.109375 2.546875q0.296875 1.390625 0.296875 4.3125l0 12.78125l-5.765625 0l0 -11.5q0 -3.4375 -0.328125 -4.359375q-0.328125 -0.921875 -1.15625 -1.453125q-0.828125 -0.546875 -2.078125 -0.546875q-1.4375 0 -2.578125 0.703125q-1.125 0.6875 -1.65625 2.09375q-0.515625 1.40625 -0.515625 4.15625l0 10.90625l-5.75 0l0 -30.0625l5.75 0zm24.233398 14.921875l-5.234375 -0.9375q0.875 -3.15625 3.03125 -4.671875q2.15625 -1.515625 6.40625 -1.515625q3.84375 0 5.734375 0.90625q1.890625 0.90625 2.65625 2.3125q0.765625 1.40625 0.765625 5.15625l-0.0625 6.734375q0 2.875 0.28125 4.234375q0.28125 1.359375 1.03125 2.921875l-5.6875 0q-0.234375 -0.578125 -0.5625 -1.703125q-0.140625 -0.515625 -0.203125 -0.671875q-1.484375 1.4375 -3.171875 2.15625q-1.671875 0.71875 -3.578125 0.71875q-3.359375 0 -5.296875 -1.828125q-1.9375 -1.828125 -1.9375 -4.625q0 -1.84375 0.875 -3.28125q0.890625 -1.453125 2.46875 -2.21875q1.59375 -0.765625 4.59375 -1.34375q4.03125 -0.765625 5.59375 -1.421875l0 -0.5625q0 -1.671875 -0.828125 -2.375q-0.8125 -0.703125 -3.09375 -0.703125q-1.53125 0 -2.390625 0.609375q-0.859375 0.59375 -1.390625 2.109375zm7.703125 4.6875q-1.109375 0.359375 -3.515625 0.875q-2.390625 0.515625 -3.125 1.0q-1.125 0.8125 -1.125 2.03125q0 1.21875 0.890625 2.109375q0.90625 0.875 2.296875 0.875q1.5625 0 2.984375 -1.03125q1.046875 -0.78125 1.375 -1.90625q0.21875 -0.734375 0.21875 -2.8125l0 -1.140625zm10.811523 11.890625l6.578125 0.796875q0.171875 1.15625 0.765625 1.578125q0.8125 0.625 2.578125 0.625q2.25 0 3.390625 -0.6875q0.75 -0.453125 1.140625 -1.453125q0.265625 -0.71875 0.265625 -2.640625l0 -3.1875q-2.578125 3.53125 -6.515625 3.53125q-4.390625 0 -6.953125 -3.71875q-2.015625 -2.921875 -2.015625 -7.296875q0 -5.46875 2.640625 -8.359375q2.640625 -2.890625 6.546875 -2.890625q4.046875 0 6.671875 3.546875l0 -3.0625l5.390625 0l0 19.546875q0 3.859375 -0.640625 5.765625q-0.625 1.90625 -1.78125 2.984375q-1.140625 1.09375 -3.0625 1.703125q-1.921875 0.625 -4.84375 0.625q-5.546875 0 -7.859375 -1.90625q-2.3125 -1.890625 -2.3125 -4.796875q0 -0.296875 0.015625 -0.703125zm5.140625 -12.78125q0 3.46875 1.34375 5.078125q1.34375 1.609375 3.3125 1.609375q2.109375 0 3.5625 -1.640625q1.46875 -1.65625 1.46875 -4.90625q0 -3.375 -1.40625 -5.015625q-1.390625 -1.640625 -3.515625 -1.640625q-2.078125 0 -3.421875 1.609375q-1.34375 1.609375 -1.34375 4.90625zm18.311523 -10.4375l6.140625 0l5.203125 15.46875l5.09375 -15.46875l5.96875 0l-7.703125 20.953125l-1.359375 3.796875q-0.765625 1.90625 -1.453125 2.90625q-0.6875 1.015625 -1.578125 1.640625q-0.890625 0.625 -2.203125 0.96875q-1.296875 0.359375 -2.9375 0.359375q-1.65625 0 -3.265625 -0.359375l-0.5 -4.5q1.34375 0.265625 2.4375 0.265625q2.0 0 2.96875 -1.1875q0.96875 -1.171875 1.484375 -3.0l-8.296875 -21.84375zm30.405273 6.640625l-5.234375 -0.9375q0.875 -3.15625 3.03125 -4.671875q2.15625 -1.515625 6.40625 -1.515625q3.84375 0 5.734375 0.90625q1.890625 0.90625 2.65625 2.3125q0.765625 1.40625 0.765625 5.15625l-0.0625 6.734375q0 2.875 0.28125 4.234375q0.28125 1.359375 1.03125 2.921875l-5.6875 0q-0.234375 -0.578125 -0.5625 -1.703125q-0.140625 -0.515625 -0.203125 -0.671875q-1.484375 1.4375 -3.171875 2.15625q-1.671875 0.71875 -3.578125 0.71875q-3.359375 0 -5.296875 -1.828125q-1.9375 -1.828125 -1.9375 -4.625q0 -1.84375 0.875 -3.28125q0.890625 -1.453125 2.46875 -2.21875q1.59375 -0.765625 4.59375 -1.34375q4.03125 -0.765625 5.59375 -1.421875l0 -0.5625q0 -1.671875 -0.828125 -2.375q-0.8125 -0.703125 -3.09375 -0.703125q-1.53125 0 -2.390625 0.609375q-0.859375 0.59375 -1.390625 2.109375zm7.703125 4.6875q-1.109375 0.359375 -3.515625 0.875q-2.390625 0.515625 -3.125 1.0q-1.125 0.8125 -1.125 2.03125q0 1.21875 0.890625 2.109375q0.90625 0.875 2.296875 0.875q1.5625 0 2.984375 -1.03125q1.046875 -0.78125 1.375 -1.90625q0.21875 -0.734375 0.21875 -2.8125l0 -1.140625zm21.327148 -11.328125l0 4.59375l-3.9375 0l0 8.78125q0 2.65625 0.109375 3.109375q0.125 0.4375 0.515625 0.734375q0.40625 0.28125 0.984375 0.28125q0.796875 0 2.3125 -0.5625l0.484375 4.46875q-2.0 0.875 -4.546875 0.875q-1.5625 0 -2.8125 -0.515625q-1.25 -0.53125 -1.84375 -1.359375q-0.578125 -0.84375 -0.796875 -2.25q-0.1875 -1.015625 -0.1875 -4.0625l0 -9.5l-2.640625 0l0 -4.59375l2.640625 0l0 -4.328125l5.78125 -3.359375l0 7.6875l3.9375 0zm3.7988281 21.78125l0 -30.0625l5.765625 0l0 15.953125l6.734375 -7.671875l7.109375 0l-7.453125 7.953125l7.984375 13.828125l-6.21875 0l-5.46875 -9.78125l-2.6875 2.8125l0 6.96875l-5.765625 0zm22.233398 -11.203125q0 -2.859375 1.40625 -5.546875q1.421875 -2.6875 4.015625 -4.09375q2.59375 -1.421875 5.796875 -1.421875q4.9375 0 8.09375 3.203125q3.15625 3.203125 3.15625 8.109375q0 4.9375 -3.1875 8.203125q-3.1875 3.25 -8.03125 3.25q-2.984375 0 -5.703125 -1.359375q-2.71875 -1.359375 -4.140625 -3.96875q-1.40625 -2.609375 -1.40625 -6.375zm5.90625 0.3125q0 3.234375 1.53125 4.96875q1.546875 1.71875 3.796875 1.71875q2.25 0 3.78125 -1.71875q1.53125 -1.734375 1.53125 -5.015625q0 -3.1875 -1.53125 -4.90625q-1.53125 -1.734375 -3.78125 -1.734375q-2.25 0 -3.796875 1.734375q-1.53125 1.71875 -1.53125 4.953125zm18.764648 10.890625l0 -4.484375l8.15625 -9.375q2.015625 -2.296875 2.96875 -3.265625q-1.0 0.0625 -2.640625 0.078125l-7.6875 0.046875l0 -4.78125l18.0 0l0 4.078125l-8.328125 9.609375l-2.921875 3.171875q2.390625 -0.140625 2.96875 -0.140625l8.921875 0l0 5.0625l-19.4375 0zm43.124985 0l-5.765625 0l0 -11.109375q0 -3.53125 -0.375 -4.5625q-0.359375 -1.046875 -1.203125 -1.609375q-0.828125 -0.578125 -1.984375 -0.578125q-1.5 0 -2.6875 0.828125q-1.1875 0.8125 -1.640625 2.171875q-0.43748474 1.34375 -0.43748474 5.0l0 9.859375l-5.765625 0l0 -21.78125l5.359375 0l0 3.203125q2.8437347 -3.6875 7.1718597 -3.6875q1.90625 0 3.484375 0.6875q1.578125 0.6875 2.390625 1.75q0.8125 1.0625 1.125 2.421875q0.328125 1.34375 0.328125 3.875l0 13.53125zm5.8427734 -24.734375l0 -5.328125l5.765625 0l0 5.328125l-5.765625 0zm0 24.734375l0 -21.78125l5.765625 0l0 21.78125l-5.765625 0zm15.981445 -15.140625l-5.234375 -0.9375q0.875 -3.15625 3.03125 -4.671875q2.15625 -1.515625 6.40625 -1.515625q3.84375 0 5.734375 0.90625q1.890625 0.90625 2.65625 2.3125q0.765625 1.40625 0.765625 5.15625l-0.0625 6.734375q0 2.875 0.28125 4.234375q0.28125 1.359375 1.03125 2.921875l-5.6875 0q-0.234375 -0.578125 -0.5625 -1.703125q-0.140625 -0.515625 -0.203125 -0.671875q-1.484375 1.4375 -3.171875 2.15625q-1.671875 0.71875 -3.578125 0.71875q-3.359375 0 -5.296875 -1.828125q-1.9375 -1.828125 -1.9375 -4.625q0 -1.84375 0.875 -3.28125q0.890625 -1.453125 2.46875 -2.21875q1.59375 -0.765625 4.59375 -1.34375q4.03125 -0.765625 5.59375 -1.421875l0 -0.5625q0 -1.671875 -0.828125 -2.375q-0.8125 -0.703125 -3.09375 -0.703125q-1.53125 0 -2.390625 0.609375q-0.859375 0.59375 -1.390625 2.109375zm7.703125 4.6875q-1.109375 0.359375 -3.515625 0.875q-2.390625 0.515625 -3.125 1.0q-1.125 0.8125 -1.125 2.03125q0 1.21875 0.890625 2.109375q0.90625 0.875 2.296875 0.875q1.5625 0 2.984375 -1.03125q1.046875 -0.78125 1.375 -1.90625q0.21875 -0.734375 0.21875 -2.8125l0 -1.140625zm27.324219 -4.6875l-5.234375 -0.9375q0.875 -3.15625 3.03125 -4.671875q2.15625 -1.515625 6.40625 -1.515625q3.84375 0 5.734375 0.90625q1.890625 0.90625 2.65625 2.3125q0.765625 1.40625 0.765625 5.15625l-0.0625 6.734375q0 2.875 0.28125 4.234375q0.28125 1.359375 1.03125 2.921875l-5.6875 0q-0.234375 -0.578125 -0.5625 -1.703125q-0.140625 -0.515625 -0.203125 -0.671875q-1.484375 1.4375 -3.171875 2.15625q-1.671875 0.71875 -3.578125 0.71875q-3.359375 0 -5.296875 -1.828125q-1.9375 -1.828125 -1.9375 -4.625q0 -1.84375 0.875 -3.28125q0.890625 -1.453125 2.46875 -2.21875q1.59375 -0.765625 4.59375 -1.34375q4.03125 -0.765625 5.59375 -1.421875l0 -0.5625q0 -1.671875 -0.828125 -2.375q-0.8125 -0.703125 -3.09375 -0.703125q-1.53125 0 -2.390625 0.609375q-0.859375 0.59375 -1.390625 2.109375zm7.703125 4.6875q-1.109375 0.359375 -3.515625 0.875q-2.390625 0.515625 -3.125 1.0q-1.125 0.8125 -1.125 2.03125q0 1.21875 0.890625 2.109375q0.90625 0.875 2.296875 0.875q1.5625 0 2.984375 -1.03125q1.046875 -0.78125 1.375 -1.90625q0.21875 -0.734375 0.21875 -2.8125l0 -1.140625zm9.030273 10.453125l0 -4.484375l8.15625 -9.375q2.015625 -2.296875 2.96875 -3.265625q-1.0 0.0625 -2.640625 0.078125l-7.6875 0.046875l0 -4.78125l18.0 0l0 4.078125l-8.328125 9.609375l-2.921875 3.171875q2.390625 -0.140625 2.96875 -0.140625l8.921875 0l0 5.0625l-19.4375 0zm47.59082 -6.9375l5.75 0.96875q-1.109375 3.15625 -3.5 4.8125q-2.390625 1.65625 -5.984375 1.65625q-5.671875 0 -8.40625 -3.71875q-2.15625 -2.96875 -2.15625 -7.5q0 -5.421875 2.828125 -8.484375q2.84375 -3.0625 7.171875 -3.0625q4.859375 0 7.65625 3.203125q2.8125 3.203125 2.6875 9.828125l-14.4375 0q0.0625 2.5625 1.390625 4.0q1.34375 1.421875 3.328125 1.421875q1.359375 0 2.28125 -0.734375q0.921875 -0.75 1.390625 -2.390625zm0.328125 -5.8125q-0.0625 -2.515625 -1.296875 -3.8125q-1.21875 -1.296875 -2.984375 -1.296875q-1.890625 0 -3.125 1.375q-1.21875 1.375 -1.203125 3.734375l8.609375 0zm-7.359375 -11.703125l2.84375 -6.125l6.453125 0l-5.640625 6.125l-3.65625 0zm17.780273 24.453125l0 -30.0625l5.765625 0l0 30.0625l-5.765625 0zm24.27832 -6.9375l5.75 0.96875q-1.109375 3.15625 -3.5 4.8125q-2.390625 1.65625 -5.984375 1.65625q-5.671875 0 -8.40625 -3.71875q-2.15625 -2.96875 -2.15625 -7.5q0 -5.421875 2.828125 -8.484375q2.84375 -3.0625 7.171875 -3.0625q4.859375 0 7.65625 3.203125q2.8125 3.203125 2.6875 9.828125l-14.4375 0q0.0625 2.5625 1.390625 4.0q1.34375 1.421875 3.328125 1.421875q1.359375 0 2.28125 -0.734375q0.921875 -0.75 1.390625 -2.390625zm0.328125 -5.8125q-0.0625 -2.515625 -1.296875 -3.8125q-1.21875 -1.296875 -2.984375 -1.296875q-1.890625 0 -3.125 1.375q-1.21875 1.375 -1.203125 3.734375l8.609375 0zm16.155273 -17.3125l0 11.046875q2.796875 -3.25 6.671875 -3.25q1.984375 0 3.578125 0.734375q1.609375 0.734375 2.421875 1.890625q0.8125 1.140625 1.109375 2.546875q0.296875 1.390625 0.296875 4.3125l0 12.78125l-5.765625 0l0 -11.5q0 -3.4375 -0.328125 -4.359375q-0.328125 -0.921875 -1.15625 -1.453125q-0.828125 -0.546875 -2.078125 -0.546875q-1.4375 0 -2.578125 0.703125q-1.125 0.6875 -1.65625 2.09375q-0.515625 1.40625 -0.515625 4.15625l0 10.90625l-5.75 0l0 -30.0625l5.75 0zm34.249023 30.0625l0 -3.265625q-1.1875 1.75 -3.125 2.765625q-1.9375 1.0 -4.09375 1.0q-2.1875 0 -3.9375 -0.96875q-1.734375 -0.96875 -2.515625 -2.703125q-0.78125 -1.75 -0.78125 -4.828125l0 -13.78125l5.765625 0l0 10.015625q0 4.59375 0.3125 5.625q0.328125 1.03125 1.15625 1.640625q0.84375 0.609375 2.140625 0.609375q1.46875 0 2.640625 -0.8125q1.171875 -0.8125 1.59375 -2.015625q0.4375 -1.203125 0.4375 -5.875l0 -9.1875l5.765625 0l0 21.78125l-5.359375 0zm-10.796875 -24.546875l2.84375 -6.109375l6.03125 0l-5.265625 6.109375l-3.609375 0zm7.71875 0l2.890625 -6.109375l5.859375 0l-5.0625 6.109375l-3.6875 0zm12.374023 18.328125l5.78125 -0.875q0.375 1.671875 1.5 2.546875q1.125 0.875 3.15625 0.875q2.234375 0 3.359375 -0.8125q0.765625 -0.578125 0.765625 -1.546875q0 -0.65625 -0.40625 -1.078125q-0.4375 -0.421875 -1.9375 -0.765625q-6.96875 -1.53125 -8.828125 -2.8125q-2.59375 -1.765625 -2.59375 -4.90625q0 -2.828125 2.234375 -4.75q2.234375 -1.921875 6.9375 -1.921875q4.46875 0 6.640625 1.453125q2.171875 1.453125 3.0 4.296875l-5.4375 1.015625q-0.34375 -1.28125 -1.328125 -1.953125q-0.96875 -0.671875 -2.78125 -0.671875q-2.265625 0 -3.25 0.625q-0.65625 0.453125 -0.65625 1.171875q0 0.625 0.578125 1.046875q0.765625 0.578125 5.375 1.625q4.609375 1.046875 6.4375 2.5625q1.796875 1.53125 1.796875 4.28125q0 3.0 -2.5 5.15625q-2.5 2.15625 -7.40625 2.15625q-4.453125 0 -7.046875 -1.8125q-2.59375 -1.8125 -3.390625 -4.90625zm37.999054 -0.71875l5.75 0.96875q-1.109375 3.15625 -3.5 4.8125q-2.390625 1.65625 -5.984375 1.65625q-5.671875 0 -8.40625 -3.71875q-2.1562805 -2.96875 -2.1562805 -7.5q0 -5.421875 2.8281555 -8.484375q2.84375 -3.0625 7.171875 -3.0625q4.859375 0 7.65625 3.203125q2.8125 3.203125 2.6875 9.828125l-14.4375 0q0.0625 2.5625 1.390625 4.0q1.34375 1.421875 3.328125 1.421875q1.359375 0 2.28125 -0.734375q0.921875 -0.75 1.390625 -2.390625zm0.328125 -5.8125q-0.0625 -2.515625 -1.296875 -3.8125q-1.21875 -1.296875 -2.984375 -1.296875q-1.890625 0 -3.125 1.375q-1.21875 1.375 -1.203125 3.734375l8.609375 0zm-7.359375 -11.703125l2.84375 -6.125l6.453125 0l-5.640625 6.125l-3.65625 0zm17.249023 25.890625l6.578125 0.796875q0.171875 1.15625 0.765625 1.578125q0.8125 0.625 2.578125 0.625q2.25 0 3.390625 -0.6875q0.75 -0.453125 1.140625 -1.453125q0.265625 -0.71875 0.265625 -2.640625l0 -3.1875q-2.578125 3.53125 -6.515625 3.53125q-4.390625 0 -6.953125 -3.71875q-2.015625 -2.921875 -2.015625 -7.296875q0 -5.46875 2.640625 -8.359375q2.640625 -2.890625 6.546875 -2.890625q4.046875 0 6.671875 3.546875l0 -3.0625l5.390625 0l0 19.546875q0 3.859375 -0.640625 5.765625q-0.625 1.90625 -1.78125 2.984375q-1.140625 1.09375 -3.0625 1.703125q-1.921875 0.625 -4.84375 0.625q-5.546875 0 -7.859375 -1.90625q-2.3125 -1.890625 -2.3125 -4.796875q0 -0.296875 0.015625 -0.703125zm5.140625 -12.78125q0 3.46875 1.34375 5.078125q1.34375 1.609375 3.3125 1.609375q2.109375 0 3.5625 -1.640625q1.46875 -1.65625 1.46875 -4.90625q0 -3.375 -1.40625 -5.015625q-1.390625 -1.640625 -3.515625 -1.640625q-2.078125 0 -3.421875 1.609375q-1.34375 1.609375 -1.34375 4.90625zm45.32422 4.40625l5.75 0.96875q-1.109375 3.15625 -3.5 4.8125q-2.390625 1.65625 -5.984375 1.65625q-5.671875 0 -8.40625 -3.71875q-2.15625 -2.96875 -2.15625 -7.5q0 -5.421875 2.828125 -8.484375q2.84375 -3.0625 7.171875 -3.0625q4.859375 0 7.65625 3.203125q2.8125 3.203125 2.6875 9.828125l-14.4375 0q0.0625 2.5625 1.390625 4.0q1.34375 1.421875 3.328125 1.421875q1.359375 0 2.28125 -0.734375q0.921875 -0.75 1.390625 -2.390625zm0.328125 -5.8125q-0.0625 -2.515625 -1.296875 -3.8125q-1.21875 -1.296875 -2.984375 -1.296875q-1.890625 0 -3.125 1.375q-1.21875 1.375 -1.203125 3.734375l8.609375 0zm-7.359375 -11.703125l2.84375 -6.125l6.453125 0l-5.640625 6.125l-3.65625 0zm23.295898 24.453125l-5.765625 0l0 -21.78125l5.359375 0l0 3.09375q1.375 -2.1875 2.46875 -2.875q1.09375 -0.703125 2.484375 -0.703125q1.96875 0 3.796875 1.078125l-1.78125 5.03125q-1.453125 -0.953125 -2.703125 -0.953125q-1.21875 0 -2.0625 0.671875q-0.828125 0.671875 -1.3125 2.421875q-0.484375 1.734375 -0.484375 7.28125l0 6.734375zm30.797852 0l-5.34375 0l0 -3.203125q-1.34375 1.875 -3.15625 2.796875q-1.8125 0.90625 -3.65625 0.90625q-3.75 0 -6.4375 -3.03125q-2.671875 -3.03125 -2.671875 -8.4375q0 -5.546875 2.609375 -8.421875q2.609375 -2.875 6.578125 -2.875q3.65625 0 6.328125 3.03125l0 -10.828125l5.75 0l0 30.0625zm-15.375 -11.359375q0 3.484375 0.96875 5.046875q1.390625 2.25 3.890625 2.25q1.984375 0 3.375 -1.6875q1.40625 -1.6875 1.40625 -5.0625q0 -3.75 -1.359375 -5.390625q-1.34375 -1.65625 -3.46875 -1.65625q-2.046875 0 -3.4375 1.625q-1.375 1.625 -1.375 4.875zm33.6709 4.421875l5.75 0.96875q-1.109375 3.15625 -3.5 4.8125q-2.390625 1.65625 -5.984375 1.65625q-5.671875 0 -8.40625 -3.71875q-2.15625 -2.96875 -2.15625 -7.5q0 -5.421875 2.828125 -8.484375q2.84375 -3.0625 7.171875 -3.0625q4.859375 0 7.65625 3.203125q2.8125 3.203125 2.6875 9.828125l-14.4375 0q0.0625 2.5625 1.390625 4.0q1.34375 1.421875 3.328125 1.421875q1.359375 0 2.28125 -0.734375q0.921875 -0.75 1.390625 -2.390625zm0.328125 -5.8125q-0.0625 -2.515625 -1.296875 -3.8125q-1.21875 -1.296875 -2.984375 -1.296875q-1.890625 0 -3.125 1.375q-1.21875 1.375 -1.203125 3.734375l8.609375 0zm10.217773 12.75l0 -30.0625l5.765625 0l0 15.953125l6.734375 -7.671875l7.109375 0l-7.453125 7.953125l7.984375 13.828125l-6.21875 0l-5.46875 -9.78125l-2.6875 2.8125l0 6.96875l-5.765625 0zm36.1709 -6.9375l5.75 0.96875q-1.109375 3.15625 -3.5 4.8125q-2.390625 1.65625 -5.984375 1.65625q-5.671875 0 -8.40625 -3.71875q-2.15625 -2.96875 -2.15625 -7.5q0 -5.421875 2.828125 -8.484375q2.84375 -3.0625 7.171875 -3.0625q4.859375 0 7.65625 3.203125q2.8125 3.203125 2.6875 9.828125l-14.4375 0q0.0625 2.5625 1.390625 4.0q1.34375 1.421875 3.328125 1.421875q1.359375 0 2.28125 -0.734375q0.921875 -0.75 1.390625 -2.390625zm0.328125 -5.8125q-0.0625 -2.515625 -1.296875 -3.8125q-1.21875 -1.296875 -2.984375 -1.296875q-1.890625 0 -3.125 1.375q-1.21875 1.375 -1.203125 3.734375l8.609375 0zm-7.359375 -11.703125l2.84375 -6.125l6.453125 0l-5.640625 6.125l-3.65625 0zm17.530273 24.453125l0 -30.0625l5.765625 0l0 10.828125q2.671875 -3.03125 6.3125 -3.03125q3.984375 0 6.578125 2.875q2.609375 2.875 2.609375 8.28125q0 5.578125 -2.65625 8.59375q-2.65625 3.015625 -6.4375 3.015625q-1.875 0 -3.6875 -0.9375q-1.8125 -0.9375 -3.125 -2.765625l0 3.203125l-5.359375 0zm5.71875 -11.359375q0 3.375 1.078125 5.0q1.484375 2.296875 3.96875 2.296875q1.90625 0 3.25 -1.625q1.34375 -1.640625 1.34375 -5.140625q0 -3.734375 -1.359375 -5.375q-1.34375 -1.65625 -3.453125 -1.65625q-2.078125 0 -3.453125 1.609375q-1.375 1.609375 -1.375 4.890625zm32.7959 4.421875l5.75 0.96875q-1.109375 3.15625 -3.5 4.8125q-2.390625 1.65625 -5.984375 1.65625q-5.671875 0 -8.40625 -3.71875q-2.15625 -2.96875 -2.15625 -7.5q0 -5.421875 2.828125 -8.484375q2.84375 -3.0625 7.171875 -3.0625q4.859375 0 7.65625 3.203125q2.8125 3.203125 2.6875 9.828125l-14.4375 0q0.0625 2.5625 1.390625 4.0q1.34375 1.421875 3.328125 1.421875q1.359375 0 2.28125 -0.734375q0.921875 -0.75 1.390625 -2.390625zm0.328125 -5.8125q-0.0625 -2.515625 -1.296875 -3.8125q-1.21875 -1.296875 -2.984375 -1.296875q-1.890625 0 -3.125 1.375q-1.21875 1.375 -1.203125 3.734375l8.609375 0zm30.233398 12.75l-5.765625 0l0 -11.109375q0 -3.53125 -0.375 -4.5625q-0.359375 -1.046875 -1.203125 -1.609375q-0.828125 -0.578125 -1.984375 -0.578125q-1.5 0 -2.6875 0.828125q-1.1875 0.8125 -1.640625 2.171875q-0.4375 1.34375 -0.4375 5.0l0 9.859375l-5.765625 0l0 -21.78125l5.359375 0l0 3.203125q2.84375 -3.6875 7.171875 -3.6875q1.90625 0 3.484375 0.6875q1.578125 0.6875 2.390625 1.75q0.8125 1.0625 1.125 2.421875q0.328125 1.34375 0.328125 3.875l0 13.53125z" fill-rule="nonzero"/><path fill="#000000" fill-opacity="0.0" d="m32.72441 172.36484l894.55115 0l0 307.30707l-894.55115 0z" fill-rule="evenodd"/><path fill="#000000" d="m55.67221 196.80234q1.78125 0 3.5 0.921875q1.734375 0.921875 2.6875 2.65625q0.96875 1.71875 0.96875 3.578125q0 2.984375 -2.109375 5.078125q-2.09375 2.09375 -5.046875 2.09375q-2.984375 0 -5.09375 -2.09375q-2.09375 -2.09375 -2.09375 -5.078125q0 -1.875 0.953125 -3.59375q0.96875 -1.71875 2.6875 -2.640625q1.734375 -0.921875 3.546875 -0.921875z" fill-rule="nonzero"/><path fill="#000000" d="m91.22441 205.69296l2.96875 -0.25q0.21875 1.78125 0.984375 2.9375q0.78125 1.140625 2.40625 1.859375q1.625 0.703125 3.65625 0.703125q1.8125 0 3.1875 -0.53125q1.390625 -0.546875 2.0625 -1.484375q0.671875 -0.9375 0.671875 -2.046875q0 -1.109375 -0.65625 -1.953125q-0.640625 -0.84375 -2.140625 -1.40625q-0.953125 -0.375 -4.25 -1.15625q-3.28125 -0.796875 -4.59375 -1.5q-1.71875 -0.890625 -2.5625 -2.21875q-0.828125 -1.328125 -0.828125 -2.96875q0 -1.8125 1.015625 -3.375q1.03125 -1.578125 3.0 -2.390625q1.96875 -0.8125 4.390625 -0.8125q2.640625 0 4.671875 0.859375q2.03125 0.84375 3.109375 2.515625q1.09375 1.65625 1.171875 3.75l-3.015625 0.234375q-0.25 -2.265625 -1.65625 -3.421875q-1.40625 -1.15625 -4.15625 -1.15625q-2.859375 0 -4.171875 1.0625q-1.3125 1.046875 -1.3125 2.515625q0 1.296875 0.921875 2.125q0.921875 0.828125 4.765625 1.703125q3.84375 0.859375 5.28125 1.515625q2.078125 0.953125 3.0625 2.4375q1.0 1.46875 1.0 3.390625q0 1.90625 -1.09375 3.59375q-1.078125 1.671875 -3.125 2.609375q-2.046875 0.9375 -4.59375 0.9375q-3.25 0 -5.4375 -0.9375q-2.1875 -0.953125 -3.4375 -2.84375q-1.234375 -1.890625 -1.296875 -4.296875zm22.932724 7.671875l0 -23.859375l2.921875 0l0 8.5625q2.046875 -2.375 5.171875 -2.375q1.921875 0 3.328125 0.765625q1.421875 0.75 2.03125 2.09375q0.625 1.328125 0.625 3.859375l0 10.953125l-2.9375 0l0 -10.953125q0 -2.203125 -0.953125 -3.203125q-0.953125 -1.0 -2.6875 -1.0q-1.3125 0 -2.453125 0.6875q-1.140625 0.671875 -1.640625 1.828125q-0.484375 1.15625 -0.484375 3.1875l0 9.453125l-2.921875 0zm29.801147 -2.125q-1.625 1.375 -3.125 1.953125q-1.5 0.5625 -3.234375 0.5625q-2.84375 0 -4.375 -1.390625q-1.53125 -1.390625 -1.53125 -3.5625q0 -1.265625 0.578125 -2.3125q0.578125 -1.046875 1.515625 -1.671875q0.9375 -0.640625 2.109375 -0.96875q0.859375 -0.234375 2.59375 -0.4375q3.546875 -0.421875 5.234375 -1.015625q0.015625 -0.609375 0.015625 -0.765625q0 -1.78125 -0.828125 -2.515625q-1.125 -1.0 -3.34375 -1.0q-2.0625 0 -3.046875 0.734375q-0.984375 0.71875 -1.453125 2.546875l-2.875 -0.390625q0.390625 -1.828125 1.28125 -2.953125q0.90625 -1.140625 2.59375 -1.75q1.703125 -0.609375 3.921875 -0.609375q2.21875 0 3.59375 0.53125q1.390625 0.515625 2.03125 1.3125q0.65625 0.78125 0.921875 1.984375q0.140625 0.75 0.140625 2.703125l0 3.90625q0 4.078125 0.1875 5.15625q0.1875 1.078125 0.75 2.078125l-3.0625 0q-0.453125 -0.90625 -0.59375 -2.125zm-0.234375 -6.546875q-1.59375 0.65625 -4.78125 1.109375q-1.8125 0.25 -2.5625 0.578125q-0.75 0.328125 -1.15625 0.953125q-0.40625 0.625 -0.40625 1.390625q0 1.171875 0.890625 1.953125q0.890625 0.78125 2.59375 0.78125q1.6875 0 3.0 -0.734375q1.328125 -0.75 1.953125 -2.03125q0.46875 -0.984375 0.46875 -2.921875l0 -1.078125zm18.707397 8.671875l0 -2.1875q-1.640625 2.578125 -4.828125 2.578125q-2.0625 0 -3.796875 -1.140625q-1.734375 -1.140625 -2.6875 -3.171875q-0.953125 -2.046875 -0.953125 -4.703125q0 -2.59375 0.859375 -4.6875q0.859375 -2.109375 2.578125 -3.234375q1.734375 -1.125 3.875 -1.125q1.5625 0 2.78125 0.65625q1.21875 0.65625 1.984375 1.71875l0 -8.5625l2.90625 0l0 23.859375l-2.71875 0zm-9.25 -8.625q0 3.3125 1.390625 4.96875q1.40625 1.640625 3.3125 1.640625q1.90625 0 3.25 -1.5625q1.34375 -1.578125 1.34375 -4.796875q0 -3.546875 -1.375 -5.203125q-1.359375 -1.671875 -3.359375 -1.671875q-1.953125 0 -3.265625 1.59375q-1.296875 1.59375 -1.296875 5.03125zm15.488647 -0.015625q0 -4.796875 2.671875 -7.109375q2.21875 -1.921875 5.421875 -1.921875q3.578125 0 5.828125 2.34375q2.265625 2.328125 2.265625 6.4375q0 3.34375 -1.0 5.265625q-1.0 1.90625 -2.921875 2.96875q-1.90625 1.046875 -4.171875 1.046875q-3.625 0 -5.859375 -2.328125q-2.234375 -2.328125 -2.234375 -6.703125zm3.015625 0q0 3.3125 1.4375 4.96875q1.453125 1.65625 3.640625 1.65625q2.1875 0 3.625 -1.65625q1.453125 -1.671875 1.453125 -5.0625q0 -3.203125 -1.453125 -4.859375q-1.453125 -1.65625 -3.625 -1.65625q-2.1875 0 -3.640625 1.640625q-1.4375 1.640625 -1.4375 4.96875zm19.801147 8.640625l-5.296875 -17.28125l3.03125 0l2.75 9.96875l1.03125 3.71875q0.0625 -0.28125 0.890625 -3.5625l2.75 -10.125l3.015625 0l2.578125 10.015625l0.859375 3.3125l1.0 -3.34375l2.953125 -9.984375l2.859375 0l-5.40625 17.28125l-3.046875 0l-2.75 -10.34375l-0.671875 -2.953125l-3.484375 13.296875l-3.0625 0zm30.14064 0l0 -17.28125l2.609375 0l0 2.421875q0.8125 -1.265625 2.15625 -2.03125q1.359375 -0.78125 3.09375 -0.78125q1.921875 0 3.140625 0.796875q1.234375 0.796875 1.734375 2.234375q2.046875 -3.03125 5.34375 -3.03125q2.5625 0 3.9375 1.421875q1.390625 1.421875 1.390625 4.390625l0 11.859375l-2.90625 0l0 -10.890625q0 -1.75 -0.296875 -2.515625q-0.28125 -0.78125 -1.03125 -1.25q-0.734375 -0.484375 -1.75 -0.484375q-1.828125 0 -3.03125 1.21875q-1.203125 1.21875 -1.203125 3.875l0 10.046875l-2.921875 0l0 -11.234375q0 -1.953125 -0.71875 -2.921875q-0.71875 -0.984375 -2.34375 -0.984375q-1.234375 0 -2.296875 0.65625q-1.046875 0.65625 -1.515625 1.90625q-0.46875 1.25 -0.46875 3.609375l0 8.96875l-2.921875 0zm39.028214 -2.125q-1.625 1.375 -3.125 1.953125q-1.5 0.5625 -3.234375 0.5625q-2.84375 0 -4.375 -1.390625q-1.53125 -1.390625 -1.53125 -3.5625q0 -1.265625 0.578125 -2.3125q0.578125 -1.046875 1.515625 -1.671875q0.9375 -0.640625 2.109375 -0.96875q0.859375 -0.234375 2.59375 -0.4375q3.546875 -0.421875 5.234375 -1.015625q0.015625 -0.609375 0.015625 -0.765625q0 -1.78125 -0.828125 -2.515625q-1.125 -1.0 -3.34375 -1.0q-2.0625 0 -3.046875 0.734375q-0.984375 0.71875 -1.453125 2.546875l-2.875 -0.390625q0.390625 -1.828125 1.28125 -2.953125q0.90625 -1.140625 2.59375 -1.75q1.703125 -0.609375 3.921875 -0.609375q2.21875 0 3.59375 0.53125q1.390625 0.515625 2.03125 1.3125q0.65625 0.78125 0.921875 1.984375q0.140625 0.75 0.140625 2.703125l0 3.90625q0 4.078125 0.1875 5.15625q0.1875 1.078125 0.75 2.078125l-3.0625 0q-0.453125 -0.90625 -0.59375 -2.125zm-0.234375 -6.546875q-1.59375 0.65625 -4.78125 1.109375q-1.8125 0.25 -2.5625 0.578125q-0.75 0.328125 -1.15625 0.953125q-0.40625 0.625 -0.40625 1.390625q0 1.171875 0.890625 1.953125q0.890625 0.78125 2.59375 0.78125q1.6875 0 3.0 -0.734375q1.328125 -0.75 1.953125 -2.03125q0.46875 -0.984375 0.46875 -2.921875l0 -1.078125zm7.5042725 15.296875l0 -23.90625l2.65625 0l0 2.25q0.953125 -1.328125 2.140625 -1.984375q1.1875 -0.65625 2.875 -0.65625q2.21875 0 3.90625 1.140625q1.6875 1.140625 2.546875 3.21875q0.875 2.0625 0.875 4.546875q0 2.640625 -0.953125 4.765625q-0.953125 2.125 -2.765625 3.265625q-1.8125 1.125 -3.8125 1.125q-1.46875 0 -2.640625 -0.609375q-1.15625 -0.625 -1.90625 -1.578125l0 8.421875l-2.921875 0zm2.640625 -15.171875q0 3.34375 1.34375 4.9375q1.359375 1.59375 3.28125 1.59375q1.953125 0 3.34375 -1.65625q1.390625 -1.65625 1.390625 -5.109375q0 -3.3125 -1.359375 -4.953125q-1.359375 -1.640625 -3.25 -1.640625q-1.859375 0 -3.3125 1.75q-1.4375 1.75 -1.4375 5.078125zm14.723022 3.390625l2.890625 -0.453125q0.25 1.734375 1.3593445 2.671875q1.109375 0.921875 3.109375 0.921875q2.03125 0 3.0 -0.8125q0.984375 -0.828125 0.984375 -1.9375q0 -1.0 -0.875 -1.5625q-0.59375 -0.390625 -2.984375 -1.0q-3.234375 -0.8125 -4.4843445 -1.40625q-1.234375 -0.59375 -1.875 -1.640625q-0.640625 -1.046875 -0.640625 -2.3125q0 -1.15625 0.53125 -2.140625q0.53125 -0.984375 1.4375 -1.640625q0.6875 -0.5 1.8593445 -0.84375q1.1875 -0.359375 2.53125 -0.359375q2.03125 0 3.5625 0.59375q1.546875 0.578125 2.28125 1.578125q0.734375 1.0 1.015625 2.671875l-2.875 0.390625q-0.1875 -1.328125 -1.125 -2.078125q-0.9375 -0.75 -2.640625 -0.75q-2.03125 0 -2.890625 0.671875q-0.8593445 0.65625 -0.8593445 1.5625q0 0.5625 0.35934448 1.015625q0.359375 0.484375 1.125 0.78125q0.4375 0.171875 2.578125 0.75q3.109375 0.828125 4.34375 1.359375q1.234375 0.53125 1.921875 1.546875q0.703125 1.0 0.703125 2.5q0 1.46875 -0.859375 2.765625q-0.84375 1.28125 -2.453125 2.0q-1.609375 0.703125 -3.65625 0.703125q-3.359375 0 -5.1249695 -1.390625q-1.765625 -1.40625 -2.25 -4.15625z" fill-rule="nonzero"/><path fill="#000000" d="m55.67221 242.80234q1.78125 0 3.5 0.921875q1.734375 0.921875 2.6875 2.65625q0.96875 1.71875 0.96875 3.578125q0 2.984375 -2.109375 5.078125q-2.09375 2.09375 -5.046875 2.09375q-2.984375 0 -5.09375 -2.09375q-2.09375 -2.09375 -2.09375 -5.078125q0 -1.875 0.953125 -3.59375q0.96875 -1.71875 2.6875 -2.640625q1.734375 -0.921875 3.546875 -0.921875z" fill-rule="nonzero"/><path fill="#000000" d="m91.22441 251.69296l2.96875 -0.25q0.21875 1.78125 0.984375 2.9375q0.78125 1.140625 2.40625 1.859375q1.625 0.703125 3.65625 0.703125q1.8125 0 3.1875 -0.53125q1.390625 -0.546875 2.0625 -1.484375q0.671875 -0.9375 0.671875 -2.046875q0 -1.109375 -0.65625 -1.953125q-0.640625 -0.84375 -2.140625 -1.40625q-0.953125 -0.375 -4.25 -1.15625q-3.28125 -0.796875 -4.59375 -1.5q-1.71875 -0.890625 -2.5625 -2.21875q-0.828125 -1.328125 -0.828125 -2.96875q0 -1.8125 1.015625 -3.375q1.03125 -1.578125 3.0 -2.390625q1.96875 -0.8125 4.390625 -0.8125q2.640625 0 4.671875 0.859375q2.03125 0.84375 3.109375 2.515625q1.09375 1.65625 1.171875 3.75l-3.015625 0.234375q-0.25 -2.265625 -1.65625 -3.421875q-1.40625 -1.15625 -4.15625 -1.15625q-2.859375 0 -4.171875 1.0625q-1.3125 1.046875 -1.3125 2.515625q0 1.296875 0.921875 2.125q0.921875 0.828125 4.765625 1.703125q3.84375 0.859375 5.28125 1.515625q2.078125 0.953125 3.0625 2.4375q1.0 1.46875 1.0 3.390625q0 1.90625 -1.09375 3.59375q-1.078125 1.671875 -3.125 2.609375q-2.046875 0.9375 -4.59375 0.9375q-3.25 0 -5.4375 -0.9375q-2.1875 -0.953125 -3.4375 -2.84375q-1.234375 -1.890625 -1.296875 -4.296875zm34.19835 1.34375l2.890625 0.375q-0.46875 2.96875 -2.421875 4.65625q-1.9375 1.6875 -4.78125 1.6875q-3.546875 0 -5.703125 -2.3125q-2.15625 -2.328125 -2.15625 -6.65625q0 -2.796875 0.921875 -4.890625q0.9375 -2.109375 2.828125 -3.15625q1.90625 -1.046875 4.125 -1.046875q2.828125 0 4.609375 1.421875q1.796875 1.421875 2.296875 4.046875l-2.84375 0.4375q-0.40625 -1.734375 -1.453125 -2.609375q-1.03125 -0.890625 -2.484375 -0.890625q-2.21875 0 -3.609375 1.59375q-1.375 1.578125 -1.375 5.015625q0 3.484375 1.328125 5.0625q1.34375 1.578125 3.484375 1.578125q1.734375 0 2.890625 -1.0625q1.15625 -1.0625 1.453125 -3.25zm5.3671875 6.328125l0 -17.28125l2.625 0l0 2.625q1.015625 -1.84375 1.859375 -2.421875q0.859375 -0.59375 1.890625 -0.59375q1.484375 0 3.0 0.9375l-1.0 2.71875q-1.078125 -0.625 -2.15625 -0.625q-0.953125 0 -1.71875 0.578125q-0.765625 0.578125 -1.09375 1.59375q-0.484375 1.5625 -0.484375 3.421875l0 9.046875l-2.921875 0zm22.957901 -5.5625l3.015625 0.375q-0.703125 2.65625 -2.640625 4.125q-1.9375 1.453125 -4.953125 1.453125q-3.796875 0 -6.015625 -2.328125q-2.21875 -2.34375 -2.21875 -6.5625q0 -4.359375 2.25 -6.765625q2.25 -2.40625 5.828125 -2.40625q3.46875 0 5.65625 2.359375q2.203125 2.359375 2.203125 6.640625q0 0.265625 -0.015625 0.78125l-12.890625 0q0.15625 2.84375 1.609375 4.359375q1.453125 1.515625 3.609375 1.515625q1.609375 0 2.75 -0.84375q1.140625 -0.84375 1.8125 -2.703125zm-9.625 -4.734375l9.65625 0q-0.203125 -2.1875 -1.109375 -3.28125q-1.40625 -1.6875 -3.625 -1.6875q-2.015625 0 -3.390625 1.359375q-1.375 1.34375 -1.53125 3.609375zm28.160522 4.734375l3.015625 0.375q-0.703125 2.65625 -2.640625 4.125q-1.9375 1.453125 -4.953125 1.453125q-3.796875 0 -6.015625 -2.328125q-2.21875 -2.34375 -2.21875 -6.5625q0 -4.359375 2.25 -6.765625q2.25 -2.40625 5.828125 -2.40625q3.46875 0 5.65625 2.359375q2.203125 2.359375 2.203125 6.640625q0 0.265625 -0.015625 0.78125l-12.890625 0q0.15625 2.84375 1.609375 4.359375q1.453125 1.515625 3.609375 1.515625q1.609375 0 2.75 -0.84375q1.140625 -0.84375 1.8125 -2.703125zm-9.625 -4.734375l9.65625 0q-0.203125 -2.1875 -1.109375 -3.28125q-1.40625 -1.6875 -3.625 -1.6875q-2.015625 0 -3.390625 1.359375q-1.375 1.34375 -1.53125 3.609375zm16.332397 10.296875l0 -17.28125l2.625 0l0 2.453125q1.90625 -2.84375 5.5 -2.84375q1.5625 0 2.875 0.5625q1.3125 0.5625 1.953125 1.46875q0.65625 0.90625 0.921875 2.171875q0.15625 0.8125 0.15625 2.84375l0 10.625l-2.921875 0l0 -10.515625q0 -1.78125 -0.34375 -2.671875q-0.34375 -0.890625 -1.21875 -1.421875q-0.859375 -0.53125 -2.03125 -0.53125q-1.875 0 -3.234375 1.1875q-1.359375 1.1875 -1.359375 4.515625l0 9.4375l-2.921875 0zm27.092026 -7.671875l2.96875 -0.25q0.21875 1.78125 0.984375 2.9375q0.78125 1.140625 2.40625 1.859375q1.625 0.703125 3.65625 0.703125q1.8125 0 3.1875 -0.53125q1.390625 -0.546875 2.0625 -1.484375q0.671875 -0.9375 0.671875 -2.046875q0 -1.109375 -0.65625 -1.953125q-0.640625 -0.84375 -2.140625 -1.40625q-0.953125 -0.375 -4.25 -1.15625q-3.28125 -0.796875 -4.59375 -1.5q-1.71875 -0.890625 -2.5625 -2.21875q-0.828125 -1.328125 -0.828125 -2.96875q0 -1.8125 1.015625 -3.375q1.03125 -1.578125 3.0 -2.390625q1.96875 -0.8125 4.390625 -0.8125q2.640625 0 4.671875 0.859375q2.03125 0.84375 3.109375 2.515625q1.09375 1.65625 1.171875 3.75l-3.015625 0.234375q-0.25 -2.265625 -1.65625 -3.421875q-1.40625 -1.15625 -4.15625 -1.15625q-2.859375 0 -4.171875 1.0625q-1.3125 1.046875 -1.3125 2.515625q0 1.296875 0.921875 2.125q0.921875 0.828125 4.765625 1.703125q3.84375 0.859375 5.28125 1.515625q2.078125 0.953125 3.0625 2.4375q1.0 1.46875 1.0 3.390625q0 1.90625 -1.09375 3.59375q-1.078125 1.671875 -3.125 2.609375q-2.046875 0.9375 -4.59375 0.9375q-3.25 0 -5.4375 -0.9375q-2.1875 -0.953125 -3.4375 -2.84375q-1.234375 -1.890625 -1.296875 -4.296875zm22.932724 14.296875l0 -23.90625l2.65625 0l0 2.25q0.953125 -1.328125 2.140625 -1.984375q1.1875 -0.65625 2.875 -0.65625q2.21875 0 3.90625 1.140625q1.6875 1.140625 2.546875 3.21875q0.875 2.0625 0.875 4.546875q0 2.640625 -0.953125 4.765625q-0.953125 2.125 -2.765625 3.265625q-1.8125 1.125 -3.8125 1.125q-1.46875 0 -2.640625 -0.609375q-1.15625 -0.625 -1.90625 -1.578125l0 8.421875l-2.921875 0zm2.640625 -15.171875q0 3.34375 1.34375 4.9375q1.359375 1.59375 3.28125 1.59375q1.953125 0 3.34375 -1.65625q1.390625 -1.65625 1.390625 -5.109375q0 -3.3125 -1.359375 -4.953125q-1.359375 -1.640625 -3.25 -1.640625q-1.859375 0 -3.3125 1.75q-1.4375 1.75 -1.4375 5.078125zm27.160507 6.421875q-1.625 1.375 -3.1249847 1.953125q-1.5 0.5625 -3.234375 0.5625q-2.84375 0 -4.375 -1.390625q-1.53125 -1.390625 -1.53125 -3.5625q0 -1.265625 0.578125 -2.3125q0.578125 -1.046875 1.515625 -1.671875q0.9375 -0.640625 2.109375 -0.96875q0.859375 -0.234375 2.59375 -0.4375q3.5468597 -0.421875 5.2343597 -1.015625q0.015625 -0.609375 0.015625 -0.765625q0 -1.78125 -0.828125 -2.515625q-1.125 -1.0 -3.3437347 -1.0q-2.0625 0 -3.046875 0.734375q-0.984375 0.71875 -1.453125 2.546875l-2.875 -0.390625q0.390625 -1.828125 1.28125 -2.953125q0.90625 -1.140625 2.59375 -1.75q1.703125 -0.609375 3.921875 -0.609375q2.2187347 0 3.5937347 0.53125q1.390625 0.515625 2.03125 1.3125q0.65625 0.78125 0.921875 1.984375q0.140625 0.75 0.140625 2.703125l0 3.90625q0 4.078125 0.1875 5.15625q0.1875 1.078125 0.75 2.078125l-3.0625 0q-0.453125 -0.90625 -0.59375 -2.125zm-0.234375 -6.546875q-1.59375 0.65625 -4.7812347 1.109375q-1.8125 0.25 -2.5625 0.578125q-0.75 0.328125 -1.15625 0.953125q-0.40625 0.625 -0.40625 1.390625q0 1.171875 0.890625 1.953125q0.890625 0.78125 2.59375 0.78125q1.6875 0 2.9999847 -0.734375q1.328125 -0.75 1.953125 -2.03125q0.46875 -0.984375 0.46875 -2.921875l0 -1.078125zm18.769897 2.34375l2.890625 0.375q-0.46875 2.96875 -2.421875 4.65625q-1.9375 1.6875 -4.78125 1.6875q-3.546875 0 -5.703125 -2.3125q-2.15625 -2.328125 -2.15625 -6.65625q0 -2.796875 0.921875 -4.890625q0.9375 -2.109375 2.828125 -3.15625q1.90625 -1.046875 4.125 -1.046875q2.828125 0 4.609375 1.421875q1.796875 1.421875 2.296875 4.046875l-2.84375 0.4375q-0.40625 -1.734375 -1.453125 -2.609375q-1.03125 -0.890625 -2.484375 -0.890625q-2.21875 0 -3.609375 1.59375q-1.375 1.578125 -1.375 5.015625q0 3.484375 1.328125 5.0625q1.34375 1.578125 3.484375 1.578125q1.734375 0 2.890625 -1.0625q1.15625 -1.0625 1.453125 -3.25zm17.226562 0.765625l3.015625 0.375q-0.703125 2.65625 -2.640625 4.125q-1.9375 1.453125 -4.953125 1.453125q-3.796875 0 -6.015625 -2.328125q-2.21875 -2.34375 -2.21875 -6.5625q0 -4.359375 2.25 -6.765625q2.25 -2.40625 5.828125 -2.40625q3.46875 0 5.65625 2.359375q2.203125 2.359375 2.203125 6.640625q0 0.265625 -0.015625 0.78125l-12.890625 0q0.15625 2.84375 1.609375 4.359375q1.453125 1.515625 3.609375 1.515625q1.609375 0 2.75 -0.84375q1.140625 -0.84375 1.8125 -2.703125zm-9.625 -4.734375l9.65625 0q-0.203125 -2.1875 -1.109375 -3.28125q-1.40625 -1.6875 -3.625 -1.6875q-2.015625 0 -3.390625 1.359375q-1.375 1.34375 -1.53125 3.609375zm26.013885 10.296875l0 -23.859375l10.578125 0q3.1875 0 4.84375 0.640625q1.65625 0.640625 2.640625 2.28125q1.0 1.625 1.0 3.59375q0 2.53125 -1.640625 4.28125q-1.640625 1.734375 -5.078125 2.203125q1.25 0.609375 1.90625 1.1875q1.390625 1.28125 2.625 3.171875l4.140625 6.5l-3.96875 0l-3.15625 -4.96875q-1.375 -2.140625 -2.28125 -3.28125q-0.890625 -1.140625 -1.609375 -1.59375q-0.703125 -0.453125 -1.421875 -0.640625q-0.546875 -0.109375 -1.765625 -0.109375l-3.65625 0l0 10.59375l-3.15625 0zm3.15625 -13.328125l6.78125 0q2.171875 0 3.390625 -0.4375q1.21875 -0.453125 1.84375 -1.4375q0.640625 -0.984375 0.640625 -2.140625q0 -1.703125 -1.234375 -2.78125q-1.21875 -1.09375 -3.875 -1.09375l-7.546875 0l0 7.890625zm32.318542 7.765625l3.015625 0.375q-0.703125 2.65625 -2.640625 4.125q-1.9375 1.453125 -4.953125 1.453125q-3.796875 0 -6.015625 -2.328125q-2.21875 -2.34375 -2.21875 -6.5625q0 -4.359375 2.25 -6.765625q2.25 -2.40625 5.828125 -2.40625q3.46875 0 5.65625 2.359375q2.203125 2.359375 2.203125 6.640625q0 0.265625 -0.015625 0.78125l-12.890625 0q0.15625 2.84375 1.609375 4.359375q1.453125 1.515625 3.609375 1.515625q1.609375 0 2.75 -0.84375q1.140625 -0.84375 1.8125 -2.703125zm-9.625 -4.734375l9.65625 0q-0.203125 -2.1875 -1.109375 -3.28125q-1.40625 -1.6875 -3.625 -1.6875q-2.015625 0 -3.390625 1.359375q-1.375 1.34375 -1.53125 3.609375zm17.019897 10.296875l0 -15.0l-2.578125 0l0 -2.28125l2.578125 0l0 -1.84375q0 -1.734375 0.3125 -2.578125q0.421875 -1.140625 1.484375 -1.84375q1.078125 -0.71875 3.0 -0.71875q1.234375 0 2.734375 0.296875l-0.453125 2.546875q-0.90625 -0.15625 -1.71875 -0.15625q-1.328125 0 -1.890625 0.578125q-0.546875 0.5625 -0.546875 2.125l0 1.59375l3.359375 0l0 2.28125l-3.359375 0l0 15.0l-2.921875 0zm8.494019 0l0 -23.859375l2.9375 0l0 23.859375l-2.9375 0zm19.3107 -5.5625l3.015625 0.375q-0.703125 2.65625 -2.640625 4.125q-1.9375 1.453125 -4.953125 1.453125q-3.796875 0 -6.015625 -2.328125q-2.21875 -2.34375 -2.21875 -6.5625q0 -4.359375 2.25 -6.765625q2.25 -2.40625 5.828125 -2.40625q3.46875 0 5.65625 2.359375q2.203125 2.359375 2.203125 6.640625q0 0.265625 -0.015625 0.78125l-12.890625 0q0.15625 2.84375 1.609375 4.359375q1.453125 1.515625 3.609375 1.515625q1.609375 0 2.75 -0.84375q1.140625 -0.84375 1.8125 -2.703125zm-9.625 -4.734375l9.65625 0q-0.203125 -2.1875 -1.109375 -3.28125q-1.40625 -1.6875 -3.625 -1.6875q-2.015625 0 -3.390625 1.359375q-1.375 1.34375 -1.53125 3.609375zm27.598022 3.96875l2.890625 0.375q-0.46875 2.96875 -2.421875 4.65625q-1.9375 1.6875 -4.78125 1.6875q-3.546875 0 -5.703125 -2.3125q-2.15625 -2.328125 -2.15625 -6.65625q0 -2.796875 0.921875 -4.890625q0.9375 -2.109375 2.828125 -3.15625q1.90625 -1.046875 4.125 -1.046875q2.828125 0 4.609375 1.421875q1.796875 1.421875 2.296875 4.046875l-2.84375 0.4375q-0.40625 -1.734375 -1.453125 -2.609375q-1.03125 -0.890625 -2.484375 -0.890625q-2.21875 0 -3.609375 1.59375q-1.375 1.578125 -1.375 5.015625q0 3.484375 1.328125 5.0625q1.34375 1.578125 3.484375 1.578125q1.734375 0 2.890625 -1.0625q1.15625 -1.0625 1.453125 -3.25zm11.7890625 3.703125l0.421875 2.59375q-1.234375 0.265625 -2.21875 0.265625q-1.59375 0 -2.46875 -0.5q-0.875 -0.515625 -1.234375 -1.328125q-0.359375 -0.828125 -0.359375 -3.46875l0 -9.9375l-2.15625 0l0 -2.28125l2.15625 0l0 -4.28125l2.90625 -1.75l0 6.03125l2.953125 0l0 2.28125l-2.953125 0l0 10.109375q0 1.25 0.15625 1.609375q0.15625 0.359375 0.5 0.578125q0.359375 0.203125 1.015625 0.203125q0.484375 0 1.28125 -0.125zm2.884613 -17.859375l0 -3.375l2.921875 0l0 3.375l-2.921875 0zm0 20.484375l0 -17.28125l2.921875 0l0 17.28125l-2.921875 0zm6.2950745 -8.640625q0 -4.796875 2.671875 -7.109375q2.21875 -1.921875 5.421875 -1.921875q3.578125 0 5.828125 2.34375q2.265625 2.328125 2.265625 6.4375q0 3.34375 -1.0 5.265625q-1.0 1.90625 -2.921875 2.96875q-1.90625 1.046875 -4.171875 1.046875q-3.625 0 -5.859375 -2.328125q-2.234375 -2.328125 -2.234375 -6.703125zm3.015625 0q0 3.3125 1.4375 4.96875q1.453125 1.65625 3.640625 1.65625q2.1875 0 3.625 -1.65625q1.453125 -1.671875 1.453125 -5.0625q0 -3.203125 -1.453125 -4.859375q-1.453125 -1.65625 -3.625 -1.65625q-2.1875 0 -3.640625 1.640625q-1.4375 1.640625 -1.4375 4.96875zm16.613647 8.640625l0 -17.28125l2.625 0l0 2.453125q1.90625 -2.84375 5.5 -2.84375q1.5625 0 2.875 0.5625q1.3125 0.5625 1.953125 1.46875q0.65625 0.90625 0.921875 2.171875q0.15625 0.8125 0.15625 2.84375l0 10.625l-2.921875 0l0 -10.515625q0 -1.78125 -0.34375 -2.671875q-0.34375 -0.890625 -1.21875 -1.421875q-0.859375 -0.53125 -2.03125 -0.53125q-1.875 0 -3.234375 1.1875q-1.359375 1.1875 -1.359375 4.515625l0 9.4375l-2.921875 0zm17.363647 -5.15625l2.890625 -0.453125q0.25 1.734375 1.359375 2.671875q1.109375 0.921875 3.109375 0.921875q2.03125 0 3.0 -0.8125q0.984375 -0.828125 0.984375 -1.9375q0 -1.0 -0.875 -1.5625q-0.59375 -0.390625 -2.984375 -1.0q-3.234375 -0.8125 -4.484375 -1.40625q-1.234375 -0.59375 -1.875 -1.640625q-0.640625 -1.046875 -0.640625 -2.3125q0 -1.15625 0.53125 -2.140625q0.53125 -0.984375 1.4375 -1.640625q0.6875 -0.5 1.859375 -0.84375q1.1875 -0.359375 2.53125 -0.359375q2.03125 0 3.5625 0.59375q1.546875 0.578125 2.28125 1.578125q0.734375 1.0 1.015625 2.671875l-2.875 0.390625q-0.1875 -1.328125 -1.125 -2.078125q-0.9375 -0.75 -2.640625 -0.75q-2.03125 0 -2.890625 0.671875q-0.859375 0.65625 -0.859375 1.5625q0 0.5625 0.359375 1.015625q0.359375 0.484375 1.125 0.78125q0.4375 0.171875 2.578125 0.75q3.109375 0.828125 4.34375 1.359375q1.234375 0.53125 1.921875 1.546875q0.703125 1.0 0.703125 2.5q0 1.46875 -0.859375 2.765625q-0.84375 1.28125 -2.453125 2.0q-1.609375 0.703125 -3.65625 0.703125q-3.359375 0 -5.125 -1.390625q-1.765625 -1.40625 -2.25 -4.15625zm32.6893 12.171875q-2.421875 -3.0625 -4.109375 -7.15625q-1.671875 -4.109375 -1.671875 -8.5q0 -3.875 1.25 -7.421875q1.46875 -4.109375 4.53125 -8.203125l2.09375 0q-1.96875 3.390625 -2.59375 4.828125q-1.0 2.25 -1.5625 4.6875q-0.703125 3.046875 -0.703125 6.125q0 7.828125 4.859375 15.640625l-2.09375 0zm4.8016357 -14.6875l2.96875 -0.25q0.21875 1.78125 0.984375 2.9375q0.78125 1.140625 2.40625 1.859375q1.625 0.703125 3.65625 0.703125q1.8125 0 3.1875 -0.53125q1.390625 -0.546875 2.0625 -1.484375q0.671875 -0.9375 0.671875 -2.046875q0 -1.109375 -0.65625 -1.953125q-0.640625 -0.84375 -2.140625 -1.40625q-0.953125 -0.375 -4.25 -1.15625q-3.28125 -0.796875 -4.59375 -1.5q-1.71875 -0.890625 -2.5625 -2.21875q-0.828125 -1.328125 -0.828125 -2.96875q0 -1.8125 1.015625 -3.375q1.03125 -1.578125 3.0 -2.390625q1.96875 -0.8125 4.390625 -0.8125q2.640625 0 4.671875 0.859375q2.03125 0.84375 3.1094055 2.515625q1.09375 1.65625 1.171875 3.75l-3.0156555 0.234375q-0.25 -2.265625 -1.65625 -3.421875q-1.40625 -1.15625 -4.15625 -1.15625q-2.859375 0 -4.171875 1.0625q-1.3125 1.046875 -1.3125 2.515625q0 1.296875 0.921875 2.125q0.921875 0.828125 4.765625 1.703125q3.84375 0.859375 5.28125 1.515625q2.0781555 0.953125 3.0625305 2.4375q1.0 1.46875 1.0 3.390625q0 1.90625 -1.09375 3.59375q-1.0781555 1.671875 -3.1250305 2.609375q-2.046875 0.9375 -4.59375 0.9375q-3.25 0 -5.4375 -0.9375q-2.1875 -0.953125 -3.4375 -2.84375q-1.234375 -1.890625 -1.296875 -4.296875zm22.229645 0l2.96875 -0.25q0.21875 1.78125 0.984375 2.9375q0.78125 1.140625 2.40625 1.859375q1.625 0.703125 3.65625 0.703125q1.8125 0 3.1875 -0.53125q1.390625 -0.546875 2.0625 -1.484375q0.671875 -0.9375 0.671875 -2.046875q0 -1.109375 -0.65625 -1.953125q-0.640625 -0.84375 -2.140625 -1.40625q-0.953125 -0.375 -4.25 -1.15625q-3.28125 -0.796875 -4.59375 -1.5q-1.71875 -0.890625 -2.5625 -2.21875q-0.828125 -1.328125 -0.828125 -2.96875q0 -1.8125 1.015625 -3.375q1.03125 -1.578125 3.0 -2.390625q1.96875 -0.8125 4.390625 -0.8125q2.640625 0 4.671875 0.859375q2.03125 0.84375 3.109375 2.515625q1.09375 1.65625 1.171875 3.75l-3.015625 0.234375q-0.25 -2.265625 -1.65625 -3.421875q-1.40625 -1.15625 -4.15625 -1.15625q-2.859375 0 -4.171875 1.0625q-1.3125 1.046875 -1.3125 2.515625q0 1.296875 0.921875 2.125q0.921875 0.828125 4.765625 1.703125q3.84375 0.859375 5.28125 1.515625q2.078125 0.953125 3.0625 2.4375q1.0 1.46875 1.0 3.390625q0 1.90625 -1.09375 3.59375q-1.078125 1.671875 -3.125 2.609375q-2.046875 0.9375 -4.59375 0.9375q-3.25 0 -5.4375 -0.9375q-2.1875 -0.953125 -3.4375 -2.84375q-1.234375 -1.890625 -1.296875 -4.296875zm23.354614 7.671875l0 -23.859375l10.578125 0q3.1875 0 4.84375 0.640625q1.65625 0.640625 2.640625 2.28125q1.0 1.625 1.0 3.59375q0 2.53125 -1.640625 4.28125q-1.640625 1.734375 -5.078125 2.203125q1.25 0.609375 1.90625 1.1875q1.390625 1.28125 2.625 3.171875l4.140625 6.5l-3.96875 0l-3.15625 -4.96875q-1.375 -2.140625 -2.28125 -3.28125q-0.890625 -1.140625 -1.609375 -1.59375q-0.703125 -0.453125 -1.421875 -0.640625q-0.546875 -0.109375 -1.765625 -0.109375l-3.65625 0l0 10.59375l-3.15625 0zm3.15625 -13.328125l6.78125 0q2.171875 0 3.390625 -0.4375q1.21875 -0.453125 1.84375 -1.4375q0.640625 -0.984375 0.640625 -2.140625q0 -1.703125 -1.234375 -2.78125q-1.21875 -1.09375 -3.875 -1.09375l-7.546875 0l0 7.890625zm22.412231 20.34375l-2.109375 0q4.875 -7.8125 4.875 -15.640625q0 -3.0625 -0.703125 -6.0625q-0.5625 -2.453125 -1.546875 -4.6875q-0.640625 -1.46875 -2.625 -4.890625l2.109375 0q3.046875 4.09375 4.515625 8.203125q1.25 3.546875 1.25 7.421875q0 4.390625 -1.6875 8.5q-1.671875 4.09375 -4.078125 7.15625z" fill-rule="nonzero"/><path fill="#000000" d="m55.67221 288.80234q1.78125 0 3.5 0.921875q1.734375 0.921875 2.6875 2.65625q0.96875 1.71875 0.96875 3.578125q0 2.984375 -2.109375 5.078125q-2.09375 2.09375 -5.046875 2.09375q-2.984375 0 -5.09375 -2.09375q-2.09375 -2.09375 -2.09375 -5.078125q0 -1.875 0.953125 -3.59375q0.96875 -1.71875 2.6875 -2.640625q1.734375 -0.921875 3.546875 -0.921875z" fill-rule="nonzero"/><path fill="#000000" d="m91.22441 297.69296l2.96875 -0.25q0.21875 1.78125 0.984375 2.9375q0.78125 1.140625 2.40625 1.859375q1.625 0.703125 3.65625 0.703125q1.8125 0 3.1875 -0.53125q1.390625 -0.546875 2.0625 -1.484375q0.671875 -0.9375 0.671875 -2.046875q0 -1.109375 -0.65625 -1.953125q-0.640625 -0.84375 -2.140625 -1.40625q-0.953125 -0.375 -4.25 -1.15625q-3.28125 -0.796875 -4.59375 -1.5q-1.71875 -0.890625 -2.5625 -2.21875q-0.828125 -1.328125 -0.828125 -2.96875q0 -1.8125 1.015625 -3.375q1.03125 -1.578125 3.0 -2.390625q1.96875 -0.8125 4.390625 -0.8125q2.640625 0 4.671875 0.859375q2.03125 0.84375 3.109375 2.515625q1.09375 1.65625 1.171875 3.75l-3.015625 0.234375q-0.25 -2.265625 -1.65625 -3.421875q-1.40625 -1.15625 -4.15625 -1.15625q-2.859375 0 -4.171875 1.0625q-1.3125 1.046875 -1.3125 2.515625q0 1.296875 0.921875 2.125q0.921875 0.828125 4.765625 1.703125q3.84375 0.859375 5.28125 1.515625q2.078125 0.953125 3.0625 2.4375q1.0 1.46875 1.0 3.390625q0 1.90625 -1.09375 3.59375q-1.078125 1.671875 -3.125 2.609375q-2.046875 0.9375 -4.59375 0.9375q-3.25 0 -5.4375 -0.9375q-2.1875 -0.953125 -3.4375 -2.84375q-1.234375 -1.890625 -1.296875 -4.296875zm34.19835 1.34375l2.890625 0.375q-0.46875 2.96875 -2.421875 4.65625q-1.9375 1.6875 -4.78125 1.6875q-3.546875 0 -5.703125 -2.3125q-2.15625 -2.328125 -2.15625 -6.65625q0 -2.796875 0.921875 -4.890625q0.9375 -2.109375 2.828125 -3.15625q1.90625 -1.046875 4.125 -1.046875q2.828125 0 4.609375 1.421875q1.796875 1.421875 2.296875 4.046875l-2.84375 0.4375q-0.40625 -1.734375 -1.453125 -2.609375q-1.03125 -0.890625 -2.484375 -0.890625q-2.21875 0 -3.609375 1.59375q-1.375 1.578125 -1.375 5.015625q0 3.484375 1.328125 5.0625q1.34375 1.578125 3.484375 1.578125q1.734375 0 2.890625 -1.0625q1.15625 -1.0625 1.453125 -3.25zm5.3671875 6.328125l0 -17.28125l2.625 0l0 2.625q1.015625 -1.84375 1.859375 -2.421875q0.859375 -0.59375 1.890625 -0.59375q1.484375 0 3.0 0.9375l-1.0 2.71875q-1.078125 -0.625 -2.15625 -0.625q-0.953125 0 -1.71875 0.578125q-0.765625 0.578125 -1.09375 1.59375q-0.484375 1.5625 -0.484375 3.421875l0 9.046875l-2.921875 0zm22.957901 -5.5625l3.015625 0.375q-0.703125 2.65625 -2.640625 4.125q-1.9375 1.453125 -4.953125 1.453125q-3.796875 0 -6.015625 -2.328125q-2.21875 -2.34375 -2.21875 -6.5625q0 -4.359375 2.25 -6.765625q2.25 -2.40625 5.828125 -2.40625q3.46875 0 5.65625 2.359375q2.203125 2.359375 2.203125 6.640625q0 0.265625 -0.015625 0.78125l-12.890625 0q0.15625 2.84375 1.609375 4.359375q1.453125 1.515625 3.609375 1.515625q1.609375 0 2.75 -0.84375q1.140625 -0.84375 1.8125 -2.703125zm-9.625 -4.734375l9.65625 0q-0.203125 -2.1875 -1.109375 -3.28125q-1.40625 -1.6875 -3.625 -1.6875q-2.015625 0 -3.390625 1.359375q-1.375 1.34375 -1.53125 3.609375zm28.160522 4.734375l3.015625 0.375q-0.703125 2.65625 -2.640625 4.125q-1.9375 1.453125 -4.953125 1.453125q-3.796875 0 -6.015625 -2.328125q-2.21875 -2.34375 -2.21875 -6.5625q0 -4.359375 2.25 -6.765625q2.25 -2.40625 5.828125 -2.40625q3.46875 0 5.65625 2.359375q2.203125 2.359375 2.203125 6.640625q0 0.265625 -0.015625 0.78125l-12.890625 0q0.15625 2.84375 1.609375 4.359375q1.453125 1.515625 3.609375 1.515625q1.609375 0 2.75 -0.84375q1.140625 -0.84375 1.8125 -2.703125zm-9.625 -4.734375l9.65625 0q-0.203125 -2.1875 -1.109375 -3.28125q-1.40625 -1.6875 -3.625 -1.6875q-2.015625 0 -3.390625 1.359375q-1.375 1.34375 -1.53125 3.609375zm16.332397 10.296875l0 -17.28125l2.625 0l0 2.453125q1.90625 -2.84375 5.5 -2.84375q1.5625 0 2.875 0.5625q1.3125 0.5625 1.953125 1.46875q0.65625 0.90625 0.921875 2.171875q0.15625 0.8125 0.15625 2.84375l0 10.625l-2.921875 0l0 -10.515625q0 -1.78125 -0.34375 -2.671875q-0.34375 -0.890625 -1.21875 -1.421875q-0.859375 -0.53125 -2.03125 -0.53125q-1.875 0 -3.234375 1.1875q-1.359375 1.1875 -1.359375 4.515625l0 9.4375l-2.921875 0zm27.092026 -7.671875l2.96875 -0.25q0.21875 1.78125 0.984375 2.9375q0.78125 1.140625 2.40625 1.859375q1.625 0.703125 3.65625 0.703125q1.8125 0 3.1875 -0.53125q1.390625 -0.546875 2.0625 -1.484375q0.671875 -0.9375 0.671875 -2.046875q0 -1.109375 -0.65625 -1.953125q-0.640625 -0.84375 -2.140625 -1.40625q-0.953125 -0.375 -4.25 -1.15625q-3.28125 -0.796875 -4.59375 -1.5q-1.71875 -0.890625 -2.5625 -2.21875q-0.828125 -1.328125 -0.828125 -2.96875q0 -1.8125 1.015625 -3.375q1.03125 -1.578125 3.0 -2.390625q1.96875 -0.8125 4.390625 -0.8125q2.640625 0 4.671875 0.859375q2.03125 0.84375 3.109375 2.515625q1.09375 1.65625 1.171875 3.75l-3.015625 0.234375q-0.25 -2.265625 -1.65625 -3.421875q-1.40625 -1.15625 -4.15625 -1.15625q-2.859375 0 -4.171875 1.0625q-1.3125 1.046875 -1.3125 2.515625q0 1.296875 0.921875 2.125q0.921875 0.828125 4.765625 1.703125q3.84375 0.859375 5.28125 1.515625q2.078125 0.953125 3.0625 2.4375q1.0 1.46875 1.0 3.390625q0 1.90625 -1.09375 3.59375q-1.078125 1.671875 -3.125 2.609375q-2.046875 0.9375 -4.59375 0.9375q-3.25 0 -5.4375 -0.9375q-2.1875 -0.953125 -3.4375 -2.84375q-1.234375 -1.890625 -1.296875 -4.296875zm22.932724 14.296875l0 -23.90625l2.65625 0l0 2.25q0.953125 -1.328125 2.140625 -1.984375q1.1875 -0.65625 2.875 -0.65625q2.21875 0 3.90625 1.140625q1.6875 1.140625 2.546875 3.21875q0.875 2.0625 0.875 4.546875q0 2.640625 -0.953125 4.765625q-0.953125 2.125 -2.765625 3.265625q-1.8125 1.125 -3.8125 1.125q-1.46875 0 -2.640625 -0.609375q-1.15625 -0.625 -1.90625 -1.578125l0 8.421875l-2.921875 0zm2.640625 -15.171875q0 3.34375 1.34375 4.9375q1.359375 1.59375 3.28125 1.59375q1.953125 0 3.34375 -1.65625q1.390625 -1.65625 1.390625 -5.109375q0 -3.3125 -1.359375 -4.953125q-1.359375 -1.640625 -3.25 -1.640625q-1.859375 0 -3.3125 1.75q-1.4375 1.75 -1.4375 5.078125zm27.160507 6.421875q-1.625 1.375 -3.1249847 1.953125q-1.5 0.5625 -3.234375 0.5625q-2.84375 0 -4.375 -1.390625q-1.53125 -1.390625 -1.53125 -3.5625q0 -1.265625 0.578125 -2.3125q0.578125 -1.046875 1.515625 -1.671875q0.9375 -0.640625 2.109375 -0.96875q0.859375 -0.234375 2.59375 -0.4375q3.5468597 -0.421875 5.2343597 -1.015625q0.015625 -0.609375 0.015625 -0.765625q0 -1.78125 -0.828125 -2.515625q-1.125 -1.0 -3.3437347 -1.0q-2.0625 0 -3.046875 0.734375q-0.984375 0.71875 -1.453125 2.546875l-2.875 -0.390625q0.390625 -1.828125 1.28125 -2.953125q0.90625 -1.140625 2.59375 -1.75q1.703125 -0.609375 3.921875 -0.609375q2.2187347 0 3.5937347 0.53125q1.390625 0.515625 2.03125 1.3125q0.65625 0.78125 0.921875 1.984375q0.140625 0.75 0.140625 2.703125l0 3.90625q0 4.078125 0.1875 5.15625q0.1875 1.078125 0.75 2.078125l-3.0625 0q-0.453125 -0.90625 -0.59375 -2.125zm-0.234375 -6.546875q-1.59375 0.65625 -4.7812347 1.109375q-1.8125 0.25 -2.5625 0.578125q-0.75 0.328125 -1.15625 0.953125q-0.40625 0.625 -0.40625 1.390625q0 1.171875 0.890625 1.953125q0.890625 0.78125 2.59375 0.78125q1.6875 0 2.9999847 -0.734375q1.328125 -0.75 1.953125 -2.03125q0.46875 -0.984375 0.46875 -2.921875l0 -1.078125zm18.769897 2.34375l2.890625 0.375q-0.46875 2.96875 -2.421875 4.65625q-1.9375 1.6875 -4.78125 1.6875q-3.546875 0 -5.703125 -2.3125q-2.15625 -2.328125 -2.15625 -6.65625q0 -2.796875 0.921875 -4.890625q0.9375 -2.109375 2.828125 -3.15625q1.90625 -1.046875 4.125 -1.046875q2.828125 0 4.609375 1.421875q1.796875 1.421875 2.296875 4.046875l-2.84375 0.4375q-0.40625 -1.734375 -1.453125 -2.609375q-1.03125 -0.890625 -2.484375 -0.890625q-2.21875 0 -3.609375 1.59375q-1.375 1.578125 -1.375 5.015625q0 3.484375 1.328125 5.0625q1.34375 1.578125 3.484375 1.578125q1.734375 0 2.890625 -1.0625q1.15625 -1.0625 1.453125 -3.25zm17.226562 0.765625l3.015625 0.375q-0.703125 2.65625 -2.640625 4.125q-1.9375 1.453125 -4.953125 1.453125q-3.796875 0 -6.015625 -2.328125q-2.21875 -2.34375 -2.21875 -6.5625q0 -4.359375 2.25 -6.765625q2.25 -2.40625 5.828125 -2.40625q3.46875 0 5.65625 2.359375q2.203125 2.359375 2.203125 6.640625q0 0.265625 -0.015625 0.78125l-12.890625 0q0.15625 2.84375 1.609375 4.359375q1.453125 1.515625 3.609375 1.515625q1.609375 0 2.75 -0.84375q1.140625 -0.84375 1.8125 -2.703125zm-9.625 -4.734375l9.65625 0q-0.203125 -2.1875 -1.109375 -3.28125q-1.40625 -1.6875 -3.625 -1.6875q-2.015625 0 -3.390625 1.359375q-1.375 1.34375 -1.53125 3.609375zm21.502838 10.296875l9.15625 -23.859375l3.40625 0l9.765625 23.859375l-3.59375 0l-2.78125 -7.21875l-9.984375 0l-2.625 7.21875l-3.34375 0zm6.875 -9.796875l8.09375 0l-2.484375 -6.609375q-1.140625 -3.015625 -1.703125 -4.9375q-0.453125 2.28125 -1.28125 4.546875l-2.625 7.0zm17.604614 9.796875l0 -17.28125l2.609375 0l0 2.421875q0.8125 -1.265625 2.15625 -2.03125q1.359375 -0.78125 3.09375 -0.78125q1.921875 0 3.140625 0.796875q1.234375 0.796875 1.734375 2.234375q2.046875 -3.03125 5.34375 -3.03125q2.5625 0 3.9375 1.421875q1.390625 1.421875 1.390625 4.390625l0 11.859375l-2.90625 0l0 -10.890625q0 -1.75 -0.296875 -2.515625q-0.28125 -0.78125 -1.03125 -1.25q-0.734375 -0.484375 -1.75 -0.484375q-1.828125 0 -3.03125 1.21875q-1.203125 1.21875 -1.203125 3.875l0 10.046875l-2.921875 0l0 -11.234375q0 -1.953125 -0.71875 -2.921875q-0.71875 -0.984375 -2.34375 -0.984375q-1.234375 0 -2.296875 0.65625q-1.046875 0.65625 -1.515625 1.90625q-0.46875 1.25 -0.46875 3.609375l0 8.96875l-2.921875 0zm30.450073 0l-2.703125 0l0 -23.859375l2.921875 0l0 8.515625q1.859375 -2.328125 4.734375 -2.328125q1.59375 0 3.015625 0.640625q1.421875 0.640625 2.34375 1.8125q0.921875 1.15625 1.4375 2.8125q0.53125 1.640625 0.53125 3.5q0 4.453125 -2.203125 6.875q-2.1875 2.421875 -5.265625 2.421875q-3.0625 0 -4.8125 -2.5625l0 2.171875zm-0.03125 -8.765625q0 3.109375 0.859375 4.484375q1.375 2.265625 3.734375 2.265625q1.921875 0 3.3125 -1.671875q1.40625 -1.671875 1.40625 -4.96875q0 -3.390625 -1.34375 -5.0q-1.34375 -1.609375 -3.25 -1.609375q-1.90625 0 -3.3125 1.671875q-1.40625 1.671875 -1.40625 4.828125zm15.894897 -11.71875l0 -3.375l2.921875 0l0 3.375l-2.921875 0zm0 20.484375l0 -17.28125l2.921875 0l0 17.28125l-2.921875 0zm19.21695 -5.5625l3.015625 0.375q-0.703125 2.65625 -2.640625 4.125q-1.9375 1.453125 -4.953125 1.453125q-3.796875 0 -6.015625 -2.328125q-2.21875 -2.34375 -2.21875 -6.5625q0 -4.359375 2.25 -6.765625q2.25 -2.40625 5.828125 -2.40625q3.46875 0 5.65625 2.359375q2.203125 2.359375 2.203125 6.640625q0 0.265625 -0.015625 0.78125l-12.890625 0q0.15625 2.84375 1.609375 4.359375q1.453125 1.515625 3.609375 1.515625q1.609375 0 2.75 -0.84375q1.140625 -0.84375 1.8125 -2.703125zm-9.625 -4.734375l9.65625 0q-0.203125 -2.1875 -1.109375 -3.28125q-1.40625 -1.6875 -3.625 -1.6875q-2.015625 0 -3.390625 1.359375q-1.375 1.34375 -1.53125 3.609375zm16.332397 10.296875l0 -17.28125l2.625 0l0 2.453125q1.90625 -2.84375 5.5 -2.84375q1.5625 0 2.875 0.5625q1.3125 0.5625 1.953125 1.46875q0.65625 0.90625 0.921875 2.171875q0.15625 0.8125 0.15625 2.84375l0 10.625l-2.921875 0l0 -10.515625q0 -1.78125 -0.34375 -2.671875q-0.34375 -0.890625 -1.21875 -1.421875q-0.859375 -0.53125 -2.03125 -0.53125q-1.875 0 -3.234375 1.1875q-1.359375 1.1875 -1.359375 4.515625l0 9.4375l-2.921875 0zm24.926147 -2.625l0.421875 2.59375q-1.234375 0.265625 -2.21875 0.265625q-1.59375 0 -2.46875 -0.5q-0.875 -0.515625 -1.234375 -1.328125q-0.359375 -0.828125 -0.359375 -3.46875l0 -9.9375l-2.15625 0l0 -2.28125l2.15625 0l0 -4.28125l2.90625 -1.75l0 6.03125l2.953125 0l0 2.28125l-2.953125 0l0 10.109375q0 1.25 0.15625 1.609375q0.15625 0.359375 0.5 0.578125q0.359375 0.203125 1.015625 0.203125q0.484375 0 1.28125 -0.125zm11.534882 -9.0q0 -5.9375 3.1875 -9.296875q3.1875 -3.359375 8.234375 -3.359375q3.3125 0 5.953125 1.578125q2.65625 1.578125 4.046875 4.40625q1.390625 2.828125 1.390625 6.40625q0 3.625 -1.46875 6.5q-1.453125 2.859375 -4.140625 4.328125q-2.6875 1.46875 -5.796875 1.46875q-3.359375 0 -6.015625 -1.625q-2.65625 -1.625 -4.03125 -4.4375q-1.359375 -2.828125 -1.359375 -5.96875zm3.25 0.046875q0 4.3125 2.3125 6.796875q2.328125 2.484375 5.828125 2.484375q3.5625 0 5.859375 -2.5q2.3125 -2.515625 2.3125 -7.109375q0 -2.921875 -0.984375 -5.09375q-0.984375 -2.171875 -2.890625 -3.359375q-1.890625 -1.203125 -4.25 -1.203125q-3.34375 0 -5.765625 2.3125q-2.421875 2.296875 -2.421875 7.671875zm34.53308 5.25l2.890625 0.375q-0.46875 2.96875 -2.421875 4.65625q-1.9375 1.6875 -4.78125 1.6875q-3.546875 0 -5.703125 -2.3125q-2.15625 -2.328125 -2.15625 -6.65625q0 -2.796875 0.921875 -4.890625q0.9375 -2.109375 2.828125 -3.15625q1.90625 -1.046875 4.125 -1.046875q2.828125 0 4.609375 1.421875q1.796875 1.421875 2.296875 4.046875l-2.84375 0.4375q-0.40625 -1.734375 -1.453125 -2.609375q-1.03125 -0.890625 -2.484375 -0.890625q-2.21875 0 -3.609375 1.59375q-1.375 1.578125 -1.375 5.015625q0 3.484375 1.328125 5.0625q1.34375 1.578125 3.484375 1.578125q1.734375 0 2.890625 -1.0625q1.15625 -1.0625 1.453125 -3.25zm16.664062 0l2.890625 0.375q-0.46875 2.96875 -2.421875 4.65625q-1.9375 1.6875 -4.78125 1.6875q-3.546875 0 -5.703125 -2.3125q-2.15625 -2.328125 -2.15625 -6.65625q0 -2.796875 0.921875 -4.890625q0.9375 -2.109375 2.828125 -3.15625q1.90625 -1.046875 4.125 -1.046875q2.828125 0 4.609375 1.421875q1.796875 1.421875 2.296875 4.046875l-2.84375 0.4375q-0.40625 -1.734375 -1.453125 -2.609375q-1.03125 -0.890625 -2.484375 -0.890625q-2.21875 0 -3.609375 1.59375q-1.375 1.578125 -1.375 5.015625q0 3.484375 1.328125 5.0625q1.34375 1.578125 3.484375 1.578125q1.734375 0 2.890625 -1.0625q1.15625 -1.0625 1.453125 -3.25zm5.3203125 6.328125l0 -23.859375l2.9375 0l0 23.859375l-2.9375 0zm18.795074 0l0 -2.53125q-2.015625 2.921875 -5.46875 2.921875q-1.53125 0 -2.859375 -0.578125q-1.328125 -0.59375 -1.96875 -1.484375q-0.640625 -0.890625 -0.90625 -2.171875q-0.1875 -0.859375 -0.1875 -2.734375l0 -10.703125l2.9375 0l0 9.578125q0 2.296875 0.171875 3.09375q0.28125 1.15625 1.171875 1.828125q0.90625 0.65625 2.21875 0.65625q1.3125 0 2.46875 -0.671875q1.15625 -0.6875 1.640625 -1.84375q0.484375 -1.171875 0.484375 -3.375l0 -9.265625l2.921875 0l0 17.28125l-2.625 0zm6.0511475 -5.15625l2.890625 -0.453125q0.25 1.734375 1.359375 2.671875q1.109375 0.921875 3.109375 0.921875q2.03125 0 3.0 -0.8125q0.984375 -0.828125 0.984375 -1.9375q0 -1.0 -0.875 -1.5625q-0.59375 -0.390625 -2.984375 -1.0q-3.234375 -0.8125 -4.484375 -1.40625q-1.234375 -0.59375 -1.875 -1.640625q-0.640625 -1.046875 -0.640625 -2.3125q0 -1.15625 0.53125 -2.140625q0.53125 -0.984375 1.4375 -1.640625q0.6875 -0.5 1.859375 -0.84375q1.1875 -0.359375 2.53125 -0.359375q2.03125 0 3.5625 0.59375q1.546875 0.578125 2.28125 1.578125q0.734375 1.0 1.015625 2.671875l-2.875 0.390625q-0.1875 -1.328125 -1.125 -2.078125q-0.9375 -0.75 -2.640625 -0.75q-2.03125 0 -2.890625 0.671875q-0.859375 0.65625 -0.859375 1.5625q0 0.5625 0.359375 1.015625q0.359375 0.484375 1.125 0.78125q0.4375 0.171875 2.578125 0.75q3.109375 0.828125 4.34375 1.359375q1.234375 0.53125 1.921875 1.546875q0.703125 1.0 0.703125 2.5q0 1.46875 -0.859375 2.765625q-0.84375 1.28125 -2.453125 2.0q-1.609375 0.703125 -3.65625 0.703125q-3.359375 0 -5.125 -1.390625q-1.765625 -1.40625 -2.25 -4.15625zm17.851562 -15.328125l0 -3.375l2.921875 0l0 3.375l-2.921875 0zm0 20.484375l0 -17.28125l2.921875 0l0 17.28125l-2.921875 0zm6.295105 -8.640625q0 -4.796875 2.671875 -7.109375q2.21875 -1.921875 5.421875 -1.921875q3.578125 0 5.828125 2.34375q2.265625 2.328125 2.265625 6.4375q0 3.34375 -1.0 5.265625q-1.0 1.90625 -2.921875 2.96875q-1.90625 1.046875 -4.171875 1.046875q-3.625 0 -5.859375 -2.328125q-2.234375 -2.328125 -2.234375 -6.703125zm3.015625 0q0 3.3125 1.4375 4.96875q1.453125 1.65625 3.640625 1.65625q2.1875 0 3.625 -1.65625q1.453125 -1.671875 1.453125 -5.0625q0 -3.203125 -1.453125 -4.859375q-1.453125 -1.65625 -3.625 -1.65625q-2.1875 0 -3.640625 1.640625q-1.4375 1.640625 -1.4375 4.96875zm16.613647 8.640625l0 -17.28125l2.625 0l0 2.453125q1.90625 -2.84375 5.5 -2.84375q1.5625 0 2.875 0.5625q1.3125 0.5625 1.953125 1.46875q0.65625 0.90625 0.921875 2.171875q0.15625 0.8125 0.15625 2.84375l0 10.625l-2.921875 0l0 -10.515625q0 -1.78125 -0.34375 -2.671875q-0.34375 -0.890625 -1.21875 -1.421875q-0.859375 -0.53125 -2.03125 -0.53125q-1.875 0 -3.234375 1.1875q-1.359375 1.1875 -1.359375 4.515625l0 9.4375l-2.921875 0zm33.388916 7.015625q-2.421875 -3.0625 -4.109375 -7.15625q-1.671875 -4.109375 -1.671875 -8.5q0 -3.875 1.25 -7.421875q1.46875 -4.109375 4.53125 -8.203125l2.09375 0q-1.96875 3.390625 -2.59375 4.828125q-1.0 2.25 -1.5625 4.6875q-0.703125 3.046875 -0.703125 6.125q0 7.828125 4.859375 15.640625l-2.09375 0zm4.8016357 -14.6875l2.96875 -0.25q0.21875 1.78125 0.984375 2.9375q0.78125 1.140625 2.40625 1.859375q1.625 0.703125 3.65625 0.703125q1.8125 0 3.1875 -0.53125q1.390625 -0.546875 2.0625 -1.484375q0.671875 -0.9375 0.671875 -2.046875q0 -1.109375 -0.65625 -1.953125q-0.640625 -0.84375 -2.140625 -1.40625q-0.953125 -0.375 -4.25 -1.15625q-3.28125 -0.796875 -4.59375 -1.5q-1.71875 -0.890625 -2.5625 -2.21875q-0.828125 -1.328125 -0.828125 -2.96875q0 -1.8125 1.015625 -3.375q1.03125 -1.578125 3.0 -2.390625q1.96875 -0.8125 4.390625 -0.8125q2.640625 0 4.671875 0.859375q2.03125 0.84375 3.109375 2.515625q1.09375 1.65625 1.171875 3.75l-3.015625 0.234375q-0.25 -2.265625 -1.65625 -3.421875q-1.40625 -1.15625 -4.15625 -1.15625q-2.859375 0 -4.171875 1.0625q-1.3125 1.046875 -1.3125 2.515625q0 1.296875 0.921875 2.125q0.921875 0.828125 4.765625 1.703125q3.84375 0.859375 5.28125 1.515625q2.078125 0.953125 3.0625 2.4375q1.0 1.46875 1.0 3.390625q0 1.90625 -1.09375 3.59375q-1.078125 1.671875 -3.125 2.609375q-2.046875 0.9375 -4.59375 0.9375q-3.25 0 -5.4375 -0.9375q-2.1875 -0.953125 -3.4375 -2.84375q-1.234375 -1.890625 -1.296875 -4.296875zm22.229614 0l2.96875 -0.25q0.21875 1.78125 0.984375 2.9375q0.78125 1.140625 2.40625 1.859375q1.625 0.703125 3.65625 0.703125q1.8125 0 3.1875 -0.53125q1.390625 -0.546875 2.0625 -1.484375q0.671875 -0.9375 0.671875 -2.046875q0 -1.109375 -0.65625 -1.953125q-0.640625 -0.84375 -2.140625 -1.40625q-0.953125 -0.375 -4.25 -1.15625q-3.28125 -0.796875 -4.59375 -1.5q-1.71875 -0.890625 -2.5625 -2.21875q-0.828125 -1.328125 -0.828125 -2.96875q0 -1.8125 1.015625 -3.375q1.03125 -1.578125 3.0 -2.390625q1.96875 -0.8125 4.390625 -0.8125q2.640625 0 4.671875 0.859375q2.03125 0.84375 3.109375 2.515625q1.09375 1.65625 1.171875 3.75l-3.015625 0.234375q-0.25 -2.265625 -1.65625 -3.421875q-1.40625 -1.15625 -4.15625 -1.15625q-2.859375 0 -4.171875 1.0625q-1.3125 1.046875 -1.3125 2.515625q0 1.296875 0.921875 2.125q0.921875 0.828125 4.765625 1.703125q3.84375 0.859375 5.28125 1.515625q2.078125 0.953125 3.0625 2.4375q1.0 1.46875 1.0 3.390625q0 1.90625 -1.09375 3.59375q-1.078125 1.671875 -3.125 2.609375q-2.046875 0.9375 -4.59375 0.9375q-3.25 0 -5.4375 -0.9375q-2.1875 -0.953125 -3.4375 -2.84375q-1.234375 -1.890625 -1.296875 -4.296875zm20.68274 7.671875l9.15625 -23.859375l3.40625 0l9.765625 23.859375l-3.59375 0l-2.78125 -7.21875l-9.984375 0l-2.625 7.21875l-3.34375 0zm6.875 -9.796875l8.09375 0l-2.484375 -6.609375q-1.140625 -3.015625 -1.703125 -4.9375q-0.453125 2.28125 -1.28125 4.546875l-2.625 7.0zm17.010864 -1.828125q0 -5.9375 3.1875 -9.296875q3.1875 -3.359375 8.234375 -3.359375q3.3125 0 5.953125 1.578125q2.65625 1.578125 4.046875 4.40625q1.390625 2.828125 1.390625 6.40625q0 3.625 -1.46875 6.5q-1.453125 2.859375 -4.140625 4.328125q-2.6875 1.46875 -5.796875 1.46875q-3.359375 0 -6.015625 -1.625q-2.65625 -1.625 -4.03125 -4.4375q-1.359375 -2.828125 -1.359375 -5.96875zm3.25 0.046875q0 4.3125 2.3125 6.796875q2.328125 2.484375 5.828125 2.484375q3.5625 0 5.859375 -2.5q2.3125 -2.515625 2.3125 -7.109375q0 -2.921875 -0.984375 -5.09375q-0.984375 -2.171875 -2.890625 -3.359375q-1.890625 -1.203125 -4.25 -1.203125q-3.34375 0 -5.765625 2.3125q-2.421875 2.296875 -2.421875 7.671875zm25.189331 18.59375l-2.109375 0q4.875 -7.8125 4.875 -15.640625q0 -3.0625 -0.703125 -6.0625q-0.5625 -2.453125 -1.546875 -4.6875q-0.640625 -1.46875 -2.625 -4.890625l2.109375 0q3.046875 4.09375 4.515625 8.203125q1.25 3.546875 1.25 7.421875q0 4.390625 -1.6875 8.5q-1.671875 4.09375 -4.078125 7.15625z" fill-rule="nonzero"/><path fill="#000000" d="m55.67221 334.80234q1.78125 0 3.5 0.921875q1.734375 0.921875 2.6875 2.65625q0.96875 1.71875 0.96875 3.578125q0 2.984375 -2.109375 5.078125q-2.09375 2.09375 -5.046875 2.09375q-2.984375 0 -5.09375 -2.09375q-2.09375 -2.09375 -2.09375 -5.078125q0 -1.875 0.953125 -3.59375q0.96875 -1.71875 2.6875 -2.640625q1.734375 -0.921875 3.546875 -0.921875z" fill-rule="nonzero"/><path fill="#000000" d="m92.34941 351.36484l0 -23.859375l10.578125 0q3.1875 0 4.84375 0.640625q1.65625 0.640625 2.640625 2.28125q1.0 1.625 1.0 3.59375q0 2.53125 -1.640625 4.28125q-1.640625 1.734375 -5.078125 2.203125q1.25 0.609375 1.90625 1.1875q1.390625 1.28125 2.625 3.171875l4.140625 6.5l-3.96875 0l-3.15625 -4.96875q-1.375 -2.140625 -2.28125 -3.28125q-0.890625 -1.140625 -1.609375 -1.59375q-0.703125 -0.453125 -1.421875 -0.640625q-0.546875 -0.109375 -1.765625 -0.109375l-3.65625 0l0 10.59375l-3.15625 0zm3.15625 -13.328125l6.78125 0q2.171875 0 3.390625 -0.4375q1.21875 -0.453125 1.84375 -1.4375q0.640625 -0.984375 0.640625 -2.140625q0 -1.703125 -1.234375 -2.78125q-1.21875 -1.09375 -3.875 -1.09375l-7.546875 0l0 7.890625zm32.318512 7.765625l3.015625 0.375q-0.703125 2.65625 -2.640625 4.125q-1.9375 1.453125 -4.953125 1.453125q-3.796875 0 -6.015625 -2.328125q-2.21875 -2.34375 -2.21875 -6.5625q0 -4.359375 2.25 -6.765625q2.25 -2.40625 5.828125 -2.40625q3.46875 0 5.65625 2.359375q2.203125 2.359375 2.203125 6.640625q0 0.265625 -0.015625 0.78125l-12.890625 0q0.15625 2.84375 1.609375 4.359375q1.453125 1.515625 3.609375 1.515625q1.609375 0 2.75 -0.84375q1.140625 -0.84375 1.8125 -2.703125zm-9.625 -4.734375l9.65625 0q-0.203125 -2.1875 -1.109375 -3.28125q-1.40625 -1.6875 -3.625 -1.6875q-2.015625 0 -3.390625 1.359375q-1.375 1.34375 -1.53125 3.609375zm17.019897 10.296875l0 -15.0l-2.578125 0l0 -2.28125l2.578125 0l0 -1.84375q0 -1.734375 0.3125 -2.578125q0.421875 -1.140625 1.484375 -1.84375q1.078125 -0.71875 3.0 -0.71875q1.234375 0 2.734375 0.296875l-0.453125 2.546875q-0.90625 -0.15625 -1.71875 -0.15625q-1.328125 0 -1.890625 0.578125q-0.546875 0.5625 -0.546875 2.125l0 1.59375l3.359375 0l0 2.28125l-3.359375 0l0 15.0l-2.921875 0zm8.494003 0l0 -23.859375l2.9375 0l0 23.859375l-2.9375 0zm19.3107 -5.5625l3.015625 0.375q-0.703125 2.65625 -2.640625 4.125q-1.9375 1.453125 -4.953125 1.453125q-3.796875 0 -6.015625 -2.328125q-2.21875 -2.34375 -2.21875 -6.5625q0 -4.359375 2.25 -6.765625q2.25 -2.40625 5.828125 -2.40625q3.46875 0 5.65625 2.359375q2.203125 2.359375 2.203125 6.640625q0 0.265625 -0.015625 0.78125l-12.890625 0q0.15625 2.84375 1.609375 4.359375q1.453125 1.515625 3.609375 1.515625q1.609375 0 2.75 -0.84375q1.140625 -0.84375 1.8125 -2.703125zm-9.625 -4.734375l9.65625 0q-0.203125 -2.1875 -1.109375 -3.28125q-1.40625 -1.6875 -3.625 -1.6875q-2.015625 0 -3.390625 1.359375q-1.375 1.34375 -1.53125 3.609375zm27.598022 3.96875l2.890625 0.375q-0.46875 2.96875 -2.421875 4.65625q-1.9375 1.6875 -4.78125 1.6875q-3.546875 0 -5.703125 -2.3125q-2.15625 -2.328125 -2.15625 -6.65625q0 -2.796875 0.921875 -4.890625q0.9375 -2.109375 2.828125 -3.15625q1.90625 -1.046875 4.125 -1.046875q2.828125 0 4.609375 1.421875q1.796875 1.421875 2.296875 4.046875l-2.84375 0.4375q-0.40625 -1.734375 -1.453125 -2.609375q-1.03125 -0.890625 -2.484375 -0.890625q-2.21875 0 -3.609375 1.59375q-1.375 1.578125 -1.375 5.015625q0 3.484375 1.328125 5.0625q1.34375 1.578125 3.484375 1.578125q1.734375 0 2.890625 -1.0625q1.15625 -1.0625 1.453125 -3.25zm11.7890625 3.703125l0.421875 2.59375q-1.234375 0.265625 -2.21875 0.265625q-1.59375 0 -2.46875 -0.5q-0.875 -0.515625 -1.234375 -1.328125q-0.359375 -0.828125 -0.359375 -3.46875l0 -9.9375l-2.15625 0l0 -2.28125l2.15625 0l0 -4.28125l2.90625 -1.75l0 6.03125l2.953125 0l0 2.28125l-2.953125 0l0 10.109375q0 1.25 0.15625 1.609375q0.15625 0.359375 0.5 0.578125q0.359375 0.203125 1.015625 0.203125q0.484375 0 1.28125 -0.125zm2.8846283 -17.859375l0 -3.375l2.921875 0l0 3.375l-2.921875 0zm0 20.484375l0 -17.28125l2.921875 0l0 17.28125l-2.921875 0zm6.2950745 -8.640625q0 -4.796875 2.671875 -7.109375q2.21875 -1.921875 5.421875 -1.921875q3.578125 0 5.828125 2.34375q2.265625 2.328125 2.265625 6.4375q0 3.34375 -1.0 5.265625q-1.0 1.90625 -2.921875 2.96875q-1.90625 1.046875 -4.171875 1.046875q-3.625 0 -5.859375 -2.328125q-2.234375 -2.328125 -2.234375 -6.703125zm3.015625 0q0 3.3125 1.4375 4.96875q1.453125 1.65625 3.640625 1.65625q2.1875 0 3.625 -1.65625q1.453125 -1.671875 1.453125 -5.0625q0 -3.203125 -1.453125 -4.859375q-1.453125 -1.65625 -3.625 -1.65625q-2.1875 0 -3.640625 1.640625q-1.4375 1.640625 -1.4375 4.96875zm16.613647 8.640625l0 -17.28125l2.625 0l0 2.453125q1.90625 -2.84375 5.5 -2.84375q1.5625 0 2.875 0.5625q1.3125 0.5625 1.953125 1.46875q0.65625 0.90625 0.921875 2.171875q0.15625 0.8125 0.15625 2.84375l0 10.625l-2.921875 0l0 -10.515625q0 -1.78125 -0.34375 -2.671875q-0.34375 -0.890625 -1.21875 -1.421875q-0.859375 -0.53125 -2.03125 -0.53125q-1.875 0 -3.234375 1.1875q-1.359375 1.1875 -1.359375 4.515625l0 9.4375l-2.921875 0zm28.17015 0l0 -23.859375l9.0 0q2.375 0 3.625 0.234375q1.75 0.28125 2.9375 1.109375q1.1875 0.828125 1.90625 2.3125q0.734375 1.46875 0.734375 3.25q0 3.046875 -1.9375 5.15625q-1.9375 2.09375 -7.0 2.09375l-6.109375 0l0 9.703125l-3.15625 0zm3.15625 -12.515625l6.15625 0q3.0625 0 4.34375 -1.140625q1.296875 -1.140625 1.296875 -3.203125q0 -1.5 -0.765625 -2.5625q-0.75 -1.0625 -1.984375 -1.40625q-0.796875 -0.21875 -2.953125 -0.21875l-6.09375 0l0 8.53125zm18.667084 12.515625l0 -17.28125l2.625 0l0 2.625q1.015625 -1.84375 1.859375 -2.421875q0.859375 -0.59375 1.890625 -0.59375q1.484375 0 3.0 0.9375l-1.0 2.71875q-1.078125 -0.625 -2.15625 -0.625q-0.953125 0 -1.71875 0.578125q-0.765625 0.578125 -1.09375 1.59375q-0.484375 1.5625 -0.484375 3.421875l0 9.046875l-2.921875 0zm10.036041 -8.640625q0 -4.796875 2.671875 -7.109375q2.21875 -1.921875 5.421875 -1.921875q3.578125 0 5.828125 2.34375q2.265625 2.328125 2.265625 6.4375q0 3.34375 -1.0 5.265625q-1.0 1.90625 -2.921875 2.96875q-1.90625 1.046875 -4.171875 1.046875q-3.625 0 -5.859375 -2.328125q-2.234375 -2.328125 -2.234375 -6.703125zm3.015625 0q0 3.3125 1.4375 4.96875q1.453125 1.65625 3.640625 1.65625q2.1875 0 3.625 -1.65625q1.453125 -1.671875 1.453125 -5.0625q0 -3.203125 -1.453125 -4.859375q-1.453125 -1.65625 -3.625 -1.65625q-2.1875 0 -3.640625 1.640625q-1.4375 1.640625 -1.4375 4.96875zm19.301147 8.640625l-2.703125 0l0 -23.859375l2.921875 0l0 8.515625q1.859375 -2.328125 4.734375 -2.328125q1.59375 0 3.015625 0.640625q1.421875 0.640625 2.34375 1.8125q0.921875 1.15625 1.4375 2.8125q0.53125 1.640625 0.53125 3.5q0 4.453125 -2.203125 6.875q-2.1875 2.421875 -5.265625 2.421875q-3.0625 0 -4.8125 -2.5625l0 2.171875zm-0.03125 -8.765625q0 3.109375 0.859375 4.484375q1.375 2.265625 3.734375 2.265625q1.921875 0 3.3125 -1.671875q1.40625 -1.671875 1.40625 -4.96875q0 -3.390625 -1.34375 -5.0q-1.34375 -1.609375 -3.25 -1.609375q-1.90625 0 -3.3125 1.671875q-1.40625 1.671875 -1.40625 4.828125zm27.707397 3.203125l3.015625 0.375q-0.703125 2.65625 -2.640625 4.125q-1.9375 1.453125 -4.953125 1.453125q-3.796875 0 -6.015625 -2.328125q-2.21875 -2.34375 -2.21875 -6.5625q0 -4.359375 2.25 -6.765625q2.25 -2.40625 5.828125 -2.40625q3.46875 0 5.65625 2.359375q2.203125 2.359375 2.203125 6.640625q0 0.265625 -0.015625 0.78125l-12.890625 0q0.15625 2.84375 1.609375 4.359375q1.453125 1.515625 3.609375 1.515625q1.609375 0 2.75 -0.84375q1.140625 -0.84375 1.8125 -2.703125zm-9.625 -4.734375l9.65625 0q-0.203125 -2.1875 -1.109375 -3.28125q-1.40625 -1.6875 -3.625 -1.6875q-2.015625 0 -3.390625 1.359375q-1.375 1.34375 -1.53125 3.609375zm15.160522 5.140625l2.890625 -0.453125q0.25 1.734375 1.359375 2.671875q1.109375 0.921875 3.109375 0.921875q2.03125 0 3.0 -0.8125q0.984375 -0.828125 0.984375 -1.9375q0 -1.0 -0.875 -1.5625q-0.59375 -0.390625 -2.984375 -1.0q-3.234375 -0.8125 -4.484375 -1.40625q-1.234375 -0.59375 -1.875 -1.640625q-0.640625 -1.046875 -0.640625 -2.3125q0 -1.15625 0.53125 -2.140625q0.53125 -0.984375 1.4375 -1.640625q0.6875 -0.5 1.859375 -0.84375q1.1875 -0.359375 2.53125 -0.359375q2.03125 0 3.5625 0.59375q1.546875 0.578125 2.28125 1.578125q0.734375 1.0 1.015625 2.671875l-2.875 0.390625q-0.1875 -1.328125 -1.125 -2.078125q-0.9375 -0.75 -2.640625 -0.75q-2.03125 0 -2.890625 0.671875q-0.859375 0.65625 -0.859375 1.5625q0 0.5625 0.359375 1.015625q0.359375 0.484375 1.125 0.78125q0.4375 0.171875 2.578125 0.75q3.109375 0.828125 4.34375 1.359375q1.234375 0.53125 1.921875 1.546875q0.703125 1.0 0.703125 2.5q0 1.46875 -0.859375 2.765625q-0.84375 1.28125 -2.453125 2.0q-1.609375 0.703125 -3.65625 0.703125q-3.359375 0 -5.125 -1.390625q-1.765625 -1.40625 -2.25 -4.15625z" fill-rule="nonzero"/><path fill="#000000" d="m55.67221 380.80234q1.78125 0 3.5 0.921875q1.734375 0.921875 2.6875 2.65625q0.96875 1.71875 0.96875 3.578125q0 2.984375 -2.109375 5.078125q-2.09375 2.09375 -5.046875 2.09375q-2.984375 0 -5.09375 -2.09375q-2.09375 -2.09375 -2.09375 -5.078125q0 -1.875 0.953125 -3.59375q0.96875 -1.71875 2.6875 -2.640625q1.734375 -0.921875 3.546875 -0.921875z" fill-rule="nonzero"/><path fill="#000000" d="m92.16191 397.36484l0 -23.859375l8.953125 0q2.734375 0 4.375 0.734375q1.65625 0.71875 2.59375 2.234375q0.9375 1.5 0.9375 3.140625q0 1.53125 -0.828125 2.890625q-0.828125 1.34375 -2.5 2.171875q2.15625 0.625 3.3125 2.15625q1.171875 1.53125 1.171875 3.609375q0 1.6875 -0.703125 3.125q-0.703125 1.4375 -1.75 2.21875q-1.046875 0.78125 -2.625 1.1875q-1.5625 0.390625 -3.84375 0.390625l-9.09375 0zm3.15625 -13.828125l5.15625 0q2.109375 0 3.015625 -0.28125q1.203125 -0.359375 1.8125 -1.1875q0.609375 -0.828125 0.609375 -2.078125q0 -1.1875 -0.578125 -2.09375q-0.5625 -0.90625 -1.625 -1.234375q-1.046875 -0.34375 -3.625 -0.34375l-4.765625 0l0 7.21875zm0 11.015625l5.9375 0q1.53125 0 2.15625 -0.109375q1.09375 -0.203125 1.8125 -0.65625q0.734375 -0.453125 1.203125 -1.328125q0.484375 -0.875 0.484375 -2.015625q0 -1.328125 -0.6875 -2.3125q-0.6875 -0.984375 -1.90625 -1.375q-1.203125 -0.40625 -3.484375 -0.40625l-5.515625 0l0 8.203125zm30.104599 0.6875q-1.625 1.375 -3.125 1.953125q-1.5 0.5625 -3.234375 0.5625q-2.84375 0 -4.375 -1.390625q-1.53125 -1.390625 -1.53125 -3.5625q0 -1.265625 0.578125 -2.3125q0.578125 -1.046875 1.515625 -1.671875q0.9375 -0.640625 2.109375 -0.96875q0.859375 -0.234375 2.59375 -0.4375q3.546875 -0.421875 5.234375 -1.015625q0.015625 -0.609375 0.015625 -0.765625q0 -1.78125 -0.828125 -2.515625q-1.125 -1.0 -3.34375 -1.0q-2.0625 0 -3.046875 0.734375q-0.984375 0.71875 -1.453125 2.546875l-2.875 -0.390625q0.390625 -1.828125 1.28125 -2.953125q0.90625 -1.140625 2.59375 -1.75q1.703125 -0.609375 3.921875 -0.609375q2.21875 0 3.59375 0.53125q1.390625 0.515625 2.03125 1.3125q0.65625 0.78125 0.921875 1.984375q0.140625 0.75 0.140625 2.703125l0 3.90625q0 4.078125 0.1875 5.15625q0.1875 1.078125 0.75 2.078125l-3.0625 0q-0.453125 -0.90625 -0.59375 -2.125zm-0.234375 -6.546875q-1.59375 0.65625 -4.78125 1.109375q-1.8125 0.25 -2.5625 0.578125q-0.75 0.328125 -1.15625 0.953125q-0.40625 0.625 -0.40625 1.390625q0 1.171875 0.890625 1.953125q0.890625 0.78125 2.59375 0.78125q1.6875 0 3.0 -0.734375q1.328125 -0.75 1.953125 -2.03125q0.46875 -0.984375 0.46875 -2.921875l0 -1.078125zm7.5198975 8.671875l0 -23.859375l2.921875 0l0 13.609375l6.9375 -7.03125l3.78125 0l-6.59375 6.40625l7.265625 10.875l-3.609375 0l-5.71875 -8.84375l-2.0625 2.0l0 6.84375l-2.921875 0zm28.476562 -5.5625l3.015625 0.375q-0.703125 2.65625 -2.640625 4.125q-1.9375 1.453125 -4.953125 1.453125q-3.796875 0 -6.015625 -2.328125q-2.21875 -2.34375 -2.21875 -6.5625q0 -4.359375 2.25 -6.765625q2.25 -2.40625 5.828125 -2.40625q3.46875 0 5.65625 2.359375q2.203125 2.359375 2.203125 6.640625q0 0.265625 -0.015625 0.78125l-12.890625 0q0.15625 2.84375 1.609375 4.359375q1.453125 1.515625 3.609375 1.515625q1.609375 0 2.75 -0.84375q1.140625 -0.84375 1.8125 -2.703125zm-9.625 -4.734375l9.65625 0q-0.203125 -2.1875 -1.109375 -3.28125q-1.40625 -1.6875 -3.625 -1.6875q-2.015625 0 -3.390625 1.359375q-1.375 1.34375 -1.53125 3.609375zm27.535522 10.296875l0 -2.1875q-1.640625 2.578125 -4.828125 2.578125q-2.0625 0 -3.796875 -1.140625q-1.734375 -1.140625 -2.6875 -3.171875q-0.953125 -2.046875 -0.953125 -4.703125q0 -2.59375 0.859375 -4.6875q0.859375 -2.109375 2.578125 -3.234375q1.734375 -1.125 3.875 -1.125q1.5625 0 2.78125 0.65625q1.21875 0.65625 1.984375 1.71875l0 -8.5625l2.90625 0l0 23.859375l-2.71875 0zm-9.25 -8.625q0 3.3125 1.390625 4.96875q1.40625 1.640625 3.3125 1.640625q1.90625 0 3.25 -1.5625q1.34375 -1.578125 1.34375 -4.796875q0 -3.546875 -1.375 -5.203125q-1.359375 -1.671875 -3.359375 -1.671875q-1.953125 0 -3.265625 1.59375q-1.296875 1.59375 -1.296875 5.03125zm26.0764 8.625l0 -23.859375l3.15625 0l0 21.046875l11.75 0l0 2.8125l-14.90625 0zm18.316772 -20.484375l0 -3.375l2.921875 0l0 3.375l-2.921875 0zm0 20.484375l0 -17.28125l2.921875 0l0 17.28125l-2.921875 0zm6.8419495 1.4375l2.84375 0.421875q0.1875 1.3125 1.0 1.921875q1.09375 0.8125 2.984375 0.8125q2.03125 0 3.125 -0.8125q1.109375 -0.8125 1.5 -2.28125q0.234375 -0.890625 0.21875 -3.765625q-1.921875 2.265625 -4.78125 2.265625q-3.5625 0 -5.515625 -2.5625q-1.953125 -2.578125 -1.953125 -6.171875q0 -2.484375 0.890625 -4.5625q0.890625 -2.09375 2.59375 -3.234375q1.703125 -1.140625 4.0 -1.140625q3.0625 0 5.046875 2.46875l0 -2.078125l2.703125 0l0 14.9375q0 4.03125 -0.828125 5.71875q-0.828125 1.6875 -2.609375 2.65625q-1.78125 0.984375 -4.375 0.984375q-3.09375 0 -5.0 -1.390625q-1.90625 -1.390625 -1.84375 -4.1875zm2.421875 -10.390625q0 3.40625 1.34375 4.96875q1.359375 1.5625 3.390625 1.5625q2.03125 0 3.390625 -1.546875q1.375 -1.5625 1.375 -4.890625q0 -3.171875 -1.421875 -4.78125q-1.40625 -1.609375 -3.390625 -1.609375q-1.953125 0 -3.328125 1.59375q-1.359375 1.578125 -1.359375 4.703125zm16.660522 8.953125l0 -23.859375l2.921875 0l0 8.5625q2.046875 -2.375 5.171875 -2.375q1.921875 0 3.328125 0.765625q1.421875 0.75 2.03125 2.09375q0.625 1.328125 0.625 3.859375l0 10.953125l-2.9375 0l0 -10.953125q0 -2.203125 -0.953125 -3.203125q-0.953125 -1.0 -2.6875 -1.0q-1.3125 0 -2.453125 0.6875q-1.140625 0.671875 -1.640625 1.828125q-0.484375 1.15625 -0.484375 3.1875l0 9.453125l-2.921875 0zm24.926132 -2.625l0.421875 2.59375q-1.234375 0.265625 -2.21875 0.265625q-1.59375 0 -2.46875 -0.5q-0.875 -0.515625 -1.234375 -1.328125q-0.359375 -0.828125 -0.359375 -3.46875l0 -9.9375l-2.15625 0l0 -2.28125l2.15625 0l0 -4.28125l2.90625 -1.75l0 6.03125l2.953125 0l0 2.28125l-2.953125 0l0 10.109375q0 1.25 0.15625 1.609375q0.15625 0.359375 0.5 0.578125q0.359375 0.203125 1.015625 0.203125q0.484375 0 1.28125 -0.125zm12.503632 2.625l0 -23.859375l9.0 0q2.375 0 3.625 0.234375q1.75 0.28125 2.9375 1.109375q1.1875 0.828125 1.90625 2.3125q0.734375 1.46875 0.734375 3.25q0 3.046875 -1.9375 5.15625q-1.9375 2.09375 -7.0 2.09375l-6.109375 0l0 9.703125l-3.15625 0zm3.15625 -12.515625l6.15625 0q3.0625 0 4.34375 -1.140625q1.296875 -1.140625 1.296875 -3.203125q0 -1.5 -0.765625 -2.5625q-0.75 -1.0625 -1.984375 -1.40625q-0.796875 -0.21875 -2.953125 -0.21875l-6.09375 0l0 8.53125zm18.667084 12.515625l0 -17.28125l2.625 0l0 2.625q1.015625 -1.84375 1.859375 -2.421875q0.859375 -0.59375 1.890625 -0.59375q1.484375 0 3.0 0.9375l-1.0 2.71875q-1.078125 -0.625 -2.15625 -0.625q-0.953125 0 -1.71875 0.578125q-0.765625 0.578125 -1.09375 1.59375q-0.484375 1.5625 -0.484375 3.421875l0 9.046875l-2.921875 0zm10.036041 -8.640625q0 -4.796875 2.671875 -7.109375q2.21875 -1.921875 5.421875 -1.921875q3.578125 0 5.828125 2.34375q2.265625 2.328125 2.265625 6.4375q0 3.34375 -1.0 5.265625q-1.0 1.90625 -2.921875 2.96875q-1.90625 1.046875 -4.171875 1.046875q-3.625 0 -5.859375 -2.328125q-2.234375 -2.328125 -2.234375 -6.703125zm3.015625 0q0 3.3125 1.4375 4.96875q1.453125 1.65625 3.640625 1.65625q2.1875 0 3.625 -1.65625q1.453125 -1.671875 1.453125 -5.0625q0 -3.203125 -1.453125 -4.859375q-1.453125 -1.65625 -3.625 -1.65625q-2.1875 0 -3.640625 1.640625q-1.4375 1.640625 -1.4375 4.96875zm19.301147 8.640625l-2.703125 0l0 -23.859375l2.921875 0l0 8.515625q1.859375 -2.328125 4.734375 -2.328125q1.59375 0 3.015625 0.640625q1.421875 0.640625 2.34375 1.8125q0.921875 1.15625 1.4375 2.8125q0.53125 1.640625 0.53125 3.5q0 4.453125 -2.203125 6.875q-2.1875 2.421875 -5.265625 2.421875q-3.0625 0 -4.8125 -2.5625l0 2.171875zm-0.03125 -8.765625q0 3.109375 0.859375 4.484375q1.375 2.265625 3.734375 2.265625q1.921875 0 3.3125 -1.671875q1.40625 -1.671875 1.40625 -4.96875q0 -3.390625 -1.34375 -5.0q-1.34375 -1.609375 -3.25 -1.609375q-1.90625 0 -3.3125 1.671875q-1.40625 1.671875 -1.40625 4.828125zm27.707397 3.203125l3.015625 0.375q-0.703125 2.65625 -2.640625 4.125q-1.9375 1.453125 -4.953125 1.453125q-3.796875 0 -6.015625 -2.328125q-2.21875 -2.34375 -2.21875 -6.5625q0 -4.359375 2.25 -6.765625q2.25 -2.40625 5.828125 -2.40625q3.46875 0 5.65625 2.359375q2.203125 2.359375 2.203125 6.640625q0 0.265625 -0.015625 0.78125l-12.890625 0q0.15625 2.84375 1.609375 4.359375q1.453125 1.515625 3.609375 1.515625q1.609375 0 2.75 -0.84375q1.140625 -0.84375 1.8125 -2.703125zm-9.625 -4.734375l9.65625 0q-0.203125 -2.1875 -1.109375 -3.28125q-1.40625 -1.6875 -3.625 -1.6875q-2.015625 0 -3.390625 1.359375q-1.375 1.34375 -1.53125 3.609375zm15.160522 5.140625l2.890625 -0.453125q0.25 1.734375 1.359375 2.671875q1.109375 0.921875 3.109375 0.921875q2.03125 0 3.0 -0.8125q0.984375 -0.828125 0.984375 -1.9375q0 -1.0 -0.875 -1.5625q-0.59375 -0.390625 -2.984375 -1.0q-3.234375 -0.8125 -4.484375 -1.40625q-1.234375 -0.59375 -1.875 -1.640625q-0.640625 -1.046875 -0.640625 -2.3125q0 -1.15625 0.53125 -2.140625q0.53125 -0.984375 1.4375 -1.640625q0.6875 -0.5 1.859375 -0.84375q1.1875 -0.359375 2.53125 -0.359375q2.03125 0 3.5625 0.59375q1.546875 0.578125 2.28125 1.578125q0.734375 1.0 1.015625 2.671875l-2.875 0.390625q-0.1875 -1.328125 -1.125 -2.078125q-0.9375 -0.75 -2.640625 -0.75q-2.03125 0 -2.890625 0.671875q-0.859375 0.65625 -0.859375 1.5625q0 0.5625 0.359375 1.015625q0.359375 0.484375 1.125 0.78125q0.4375 0.171875 2.578125 0.75q3.109375 0.828125 4.34375 1.359375q1.234375 0.53125 1.921875 1.546875q0.703125 1.0 0.703125 2.5q0 1.46875 -0.859375 2.765625q-0.84375 1.28125 -2.453125 2.0q-1.609375 0.703125 -3.65625 0.703125q-3.359375 0 -5.125 -1.390625q-1.765625 -1.40625 -2.25 -4.15625z" fill-rule="nonzero"/></g></svg>