<svg version="1.1" viewBox="0.0 0.0 960.0 540.0" fill="none" stroke="none" stroke-linecap="square" stroke-miterlimit="10" xmlns:xlink="http://www.w3.org/1999/xlink" xmlns="http://www.w3.org/2000/svg"><clipPath id="g39e899d7e67_0_10.0"><path d="m0 0l960.0 0l0 540.0l-960.0 0l0 -540.0z" clip-rule="nonzero"/></clipPath><g clip-path="url(#g39e899d7e67_0_10.0)"><path fill="#6fa8dc" d="m0 0l960.0 0l0 540.0l-960.0 0z" fill-rule="evenodd"/><path fill="#000000" fill-opacity="0.0" d="m32.72441 46.721786l894.55115 0l0 60.125984l-894.55115 0z" fill-rule="evenodd"/><path fill="#000000" d="m44.69316 96.04179l0 -30.0625l9.09375 0l5.453125 20.5l5.390625 -20.5l9.109375 0l0 30.0625l-5.640625 0l0 -23.671875l-5.96875 23.671875l-5.84375 0l-5.953125 -23.671875l0 23.671875l-5.640625 0zm47.64258 -6.9375l5.75 0.96875q-1.109375 3.15625 -3.5 4.8125q-2.390625 1.65625 -5.984375 1.65625q-5.671875 0 -8.40625 -3.71875q-2.15625 -2.96875 -2.15625 -7.5q0 -5.421875 2.828125 -8.484375q2.84375 -3.0625 7.171875 -3.0625q4.859375 0 7.65625 3.203125q2.8125 3.203125 2.6875 9.828125l-14.4375 0q0.0625 2.5625 1.390625 4.0q1.34375 1.421875 3.328125 1.421875q1.359375 0 2.28125 -0.734375q0.921875 -0.75 1.390625 -2.390625zm0.328125 -5.8125q-0.0625 -2.515625 -1.296875 -3.8125q-1.21875 -1.296875 -2.984375 -1.296875q-1.890625 0 -3.125 1.375q-1.21875 1.375 -1.203125 3.734375l8.609375 0zm10.420898 12.75l0 -30.0625l5.765625 0l0 30.0625l-5.765625 0zm8.93457 -21.78125l6.140625 0l5.203125 15.46875l5.09375 -15.46875l5.96875 0l-7.703125 20.953125l-1.359375 3.796875q-0.765625 1.90625 -1.453125 2.90625q-0.6875 1.015625 -1.578125 1.640625q-0.890625 0.625 -2.203125 0.96875q-1.296875 0.359375 -2.9375 0.359375q-1.65625 0 -3.265625 -0.359375l-0.5 -4.5q1.34375 0.265625 2.4375 0.265625q2.0 0 2.96875 -1.1875q0.96875 -1.171875 1.484375 -3.0l-8.296875 -21.84375zm26.092773 -2.953125l0 -5.328125l5.765625 0l0 5.328125l-5.765625 0zm0 24.734375l0 -21.78125l5.765625 0l0 21.78125l-5.765625 0zm11.46582 0l0 -30.0625l5.765625 0l0 15.953125l6.734375 -7.671875l7.109375 0l-7.453125 7.953125l7.984375 13.828125l-6.21875 0l-5.46875 -9.78125l-2.6875 2.8125l0 6.96875l-5.765625 0zm39.54297 -15.140625l-5.234375 -0.9375q0.875 -3.15625 3.03125 -4.671875q2.15625 -1.515625 6.40625 -1.515625q3.84375 0 5.734375 0.90625q1.890625 0.90625 2.65625 2.3125q0.765625 1.40625 0.765625 5.15625l-0.0625 6.734375q0 2.875 0.28125 4.234375q0.28125 1.359375 1.03125 2.921875l-5.6875 0q-0.234375 -0.578125 -0.5625 -1.703125q-0.140625 -0.515625 -0.203125 -0.671875q-1.484375 1.4375 -3.171875 2.15625q-1.671875 0.71875 -3.578125 0.71875q-3.359375 0 -5.296875 -1.828125q-1.9375 -1.828125 -1.9375 -4.625q0 -1.84375 0.875 -3.28125q0.890625 -1.453125 2.46875 -2.21875q1.59375 -0.765625 4.59375 -1.34375q4.03125 -0.765625 5.59375 -1.421875l0 -0.5625q0 -1.671875 -0.828125 -2.375q-0.8125 -0.703125 -3.09375 -0.703125q-1.53125 0 -2.390625 0.609375q-0.859375 0.59375 -1.390625 2.109375zm7.703125 4.6875q-1.109375 0.359375 -3.515625 0.875q-2.390625 0.515625 -3.125 1.0q-1.125 0.8125 -1.125 2.03125q0 1.21875 0.890625 2.109375q0.90625 0.875 2.296875 0.875q1.5625 0 2.984375 -1.03125q1.046875 -0.78125 1.375 -1.90625q0.21875 -0.734375 0.21875 -2.8125l0 -1.140625zm22.886719 -14.28125l0 -5.328125l5.765625 0l0 5.328125l-5.765625 0zm5.765625 2.953125l0 21.109375q0 4.15625 -0.546875 5.859375q-0.546875 1.71875 -2.09375 2.6875q-1.546875 0.96875 -3.9375 0.96875q-0.875 0 -1.875 -0.15625q-0.984375 -0.15625 -2.125 -0.46875l1.0 -4.921875q0.40625 0.09375 0.765625 0.140625q0.359375 0.046875 0.671875 0.046875q0.875 0 1.4375 -0.375q0.5625 -0.375 0.75 -0.921875q0.1875 -0.53125 0.1875 -3.1875l0 -20.78125l5.765625 0zm4.7001953 10.578125q0 -2.859375 1.40625 -5.546875q1.421875 -2.6875 4.015625 -4.09375q2.59375 -1.421875 5.796875 -1.421875q4.9375 0 8.09375 3.203125q3.15625 3.203125 3.15625 8.109375q0 4.9375 -3.1875 8.203125q-3.1875 3.25 -8.03125 3.25q-2.984375 0 -5.703125 -1.359375q-2.71875 -1.359375 -4.140625 -3.96875q-1.40625 -2.609375 -1.40625 -6.375zm5.90625 0.3125q0 3.234375 1.53125 4.96875q1.546875 1.71875 3.796875 1.71875q2.25 0 3.78125 -1.71875q1.53125 -1.734375 1.53125 -5.015625q0 -3.1875 -1.53125 -4.90625q-1.53125 -1.734375 -3.78125 -1.734375q-2.25 0 -3.796875 1.734375q-1.53125 1.71875 -1.53125 4.953125zm20.827133 10.890625l0 -30.0625l5.765625 0l0 10.828125q2.671875 -3.03125 6.3125 -3.03125q3.984375 0 6.578125 2.875q2.609375 2.875 2.609375 8.28125q0 5.578125 -2.65625 8.59375q-2.65625 3.015625 -6.4375 3.015625q-1.875 0 -3.6875 -0.9375q-1.8125 -0.9375 -3.125 -2.765625l0 3.203125l-5.359375 0zm5.71875 -11.359375q0 3.375 1.078125 5.0q1.484375 2.296875 3.96875 2.296875q1.90625 0 3.25 -1.625q1.34375 -1.640625 1.34375 -5.140625q0 -3.734375 -1.359375 -5.375q-1.34375 -1.65625 -3.453125 -1.65625q-2.078125 0 -3.453125 1.609375q-1.375 1.609375 -1.375 4.890625zm19.936523 11.359375l0 -30.0625l5.765625 0l0 10.828125q2.671875 -3.03125 6.3125 -3.03125q3.984375 0 6.578125 2.875q2.609375 2.875 2.609375 8.28125q0 5.578125 -2.65625 8.59375q-2.65625 3.015625 -6.4375 3.015625q-1.875 0 -3.6875 -0.9375q-1.8125 -0.9375 -3.125 -2.765625l0 3.203125l-5.359375 0zm5.71875 -11.359375q0 3.375 1.078125 5.0q1.484375 2.296875 3.96875 2.296875q1.90625 0 3.25 -1.625q1.34375 -1.640625 1.34375 -5.140625q0 -3.734375 -1.359375 -5.375q-1.34375 -1.65625 -3.453125 -1.65625q-2.078125 0 -3.453125 1.609375q-1.375 1.609375 -1.375 4.890625zm31.417969 -10.421875l5.3125 0l0 2.96875q2.859375 -3.453125 6.796875 -3.453125q2.09375 0 3.625 0.859375q1.546875 0.859375 2.53125 2.59375q1.421875 -1.734375 3.078125 -2.59375q1.671875 -0.859375 3.5625 -0.859375q2.390625 0 4.046875 0.96875q1.671875 0.96875 2.484375 2.859375q0.609375 1.390625 0.609375 4.515625l0 13.921875l-5.765625 0l0 -12.453125q0 -3.234375 -0.59375 -4.171875q-0.8125 -1.234375 -2.46875 -1.234375q-1.203125 0 -2.28125 0.734375q-1.0625 0.734375 -1.53125 2.171875q-0.46875 1.421875 -0.46875 4.5l0 10.453125l-5.765625 0l0 -11.9375q0 -3.171875 -0.3125 -4.09375q-0.296875 -0.921875 -0.953125 -1.375q-0.640625 -0.453125 -1.75 -0.453125q-1.328125 0 -2.40625 0.71875q-1.0625 0.71875 -1.53125 2.078125q-0.453125 1.34375 -0.453125 4.484375l0 10.578125l-5.765625 0l0 -21.78125zm36.4541 10.578125q0 -2.859375 1.40625 -5.546875q1.421875 -2.6875 4.015625 -4.09375q2.59375 -1.421875 5.796875 -1.421875q4.9375 0 8.09375 3.203125q3.15625 3.203125 3.15625 8.109375q0 4.9375 -3.1875 8.203125q-3.1875 3.25 -8.03125 3.25q-2.984375 0 -5.703125 -1.359375q-2.71875 -1.359375 -4.140625 -3.96875q-1.40625 -2.609375 -1.40625 -6.375zm5.90625 0.3125q0 3.234375 1.53125 4.96875q1.546875 1.71875 3.796875 1.71875q2.25 0 3.78125 -1.71875q1.53125 -1.734375 1.53125 -5.015625q0 -3.1875 -1.53125 -4.90625q-1.53125 -1.734375 -3.78125 -1.734375q-2.25 0 -3.796875 1.734375q-1.53125 1.71875 -1.53125 4.953125zm2.40625 -13.5625l2.84375 -6.125l6.453125 0l-5.640625 6.125l-3.65625 0zm38.63965 24.453125l-5.34375 0l0 -3.203125q-1.34375 1.875 -3.15625 2.796875q-1.8125 0.90625 -3.65625 0.90625q-3.75 0 -6.4375 -3.03125q-2.671875 -3.03125 -2.671875 -8.4375q0 -5.546875 2.609375 -8.421875q2.609375 -2.875 6.578125 -2.875q3.65625 0 6.328125 3.03125l0 -10.828125l5.75 0l0 30.0625zm-15.375 -11.359375q0 3.484375 0.96875 5.046875q1.390625 2.25 3.890625 2.25q1.984375 0 3.375 -1.6875q1.40625 -1.6875 1.40625 -5.0625q0 -3.75 -1.359375 -5.390625q-1.34375 -1.65625 -3.46875 -1.65625q-2.046875 0 -3.4375 1.625q-1.375 1.625 -1.375 4.875zm19.030273 5.140625l5.78125 -0.875q0.375 1.671875 1.5 2.546875q1.125 0.875 3.15625 0.875q2.234375 0 3.359375 -0.8125q0.765625 -0.578125 0.765625 -1.546875q0 -0.65625 -0.40625 -1.078125q-0.4375 -0.421875 -1.9375 -0.765625q-6.96875 -1.53125 -8.828125 -2.8125q-2.59375 -1.765625 -2.59375 -4.90625q0 -2.828125 2.234375 -4.75q2.234375 -1.921875 6.9375 -1.921875q4.46875 0 6.640625 1.453125q2.171875 1.453125 3.0 4.296875l-5.4375 1.015625q-0.34375 -1.28125 -1.328125 -1.953125q-0.96875 -0.671875 -2.78125 -0.671875q-2.265625 0 -3.25 0.625q-0.65625 0.453125 -0.65625 1.171875q0 0.625 0.578125 1.046875q0.765625 0.578125 5.375 1.625q4.609375 1.046875 6.4375 2.5625q1.796875 1.53125 1.796875 4.28125q0 3.0 -2.5 5.15625q-2.5 2.15625 -7.40625 2.15625q-4.453125 0 -7.046875 -1.8125q-2.59375 -1.8125 -3.390625 -4.90625zm23.077148 6.21875l0 -4.484375l8.15625 -9.375q2.015625 -2.296875 2.96875 -3.265625q-1.0 0.0625 -2.640625 0.078125l-7.6875 0.046875l0 -4.78125l18.0 0l0 4.078125l-8.328125 9.609375l-2.921875 3.171875q2.390625 -0.140625 2.96875 -0.140625l8.921875 0l0 5.0625l-19.4375 0zm35.921875 -6.9375l5.75 0.96875q-1.109375 3.15625 -3.5 4.8125q-2.390625 1.65625 -5.984375 1.65625q-5.671875 0 -8.40625 -3.71875q-2.15625 -2.96875 -2.15625 -7.5q0 -5.421875 2.828125 -8.484375q2.84375 -3.0625 7.171875 -3.0625q4.859375 0 7.65625 3.203125q2.8125 3.203125 2.6875 9.828125l-14.4375 0q0.0625 2.5625 1.390625 4.0q1.34375 1.421875 3.328125 1.421875q1.359375 0 2.28125 -0.734375q0.921875 -0.75 1.390625 -2.390625zm0.328125 -5.8125q-0.0625 -2.515625 -1.296875 -3.8125q-1.21875 -1.296875 -2.984375 -1.296875q-1.890625 0 -3.125 1.375q-1.21875 1.375 -1.203125 3.734375l8.609375 0zm15.936523 12.75l-5.765625 0l0 -21.78125l5.359375 0l0 3.09375q1.375 -2.1875 2.46875 -2.875q1.09375 -0.703125 2.484375 -0.703125q1.96875 0 3.796875 1.078125l-1.78125 5.03125q-1.453125 -0.953125 -2.703125 -0.953125q-1.21875 0 -2.0625 0.671875q-0.828125 0.671875 -1.3125 2.421875q-0.484375 1.734375 -0.484375 7.28125l0 6.734375zm26.810547 -15.140625l-5.234375 -0.9375q0.875 -3.15625 3.03125 -4.671875q2.15625 -1.515625 6.4062805 -1.515625q3.84375 0 5.734375 0.90625q1.890625 0.90625 2.65625 2.3125q0.765625 1.40625 0.765625 5.15625l-0.0625 6.734375q0 2.875 0.28125 4.234375q0.28125 1.359375 1.03125 2.921875l-5.6875 0q-0.234375 -0.578125 -0.5625 -1.703125q-0.140625 -0.515625 -0.203125 -0.671875q-1.484375 1.4375 -3.171875 2.15625q-1.671875 0.71875 -3.5781555 0.71875q-3.359375 0 -5.296875 -1.828125q-1.9375 -1.828125 -1.9375 -4.625q0 -1.84375 0.875 -3.28125q0.890625 -1.453125 2.46875 -2.21875q1.59375 -0.765625 4.59375 -1.34375q4.0312805 -0.765625 5.5937805 -1.421875l0 -0.5625q0 -1.671875 -0.828125 -2.375q-0.8125 -0.703125 -3.09375 -0.703125q-1.5312805 0 -2.3906555 0.609375q-0.859375 0.59375 -1.390625 2.109375zm7.7031555 4.6875q-1.109375 0.359375 -3.515625 0.875q-2.3906555 0.515625 -3.1250305 1.0q-1.125 0.8125 -1.125 2.03125q0 1.21875 0.890625 2.109375q0.90625 0.875 2.296875 0.875q1.5625305 0 2.9844055 -1.03125q1.046875 -0.78125 1.375 -1.90625q0.21875 -0.734375 0.21875 -2.8125l0 -1.140625zm30.714844 10.453125l-10.734375 -30.0625l6.578125 0l7.609375 22.25l7.359375 -22.25l6.4375 0l-10.765625 30.0625l-6.484375 0zm19.551758 -24.734375l0 -5.328125l5.765625 0l0 5.328125l-5.765625 0zm0 24.734375l0 -21.78125l5.765625 0l0 21.78125l-5.765625 0zm17.18457 0l-5.765625 0l0 -21.78125l5.359375 0l0 3.09375q1.375 -2.1875 2.46875 -2.875q1.09375 -0.703125 2.484375 -0.703125q1.96875 0 3.796875 1.078125l-1.78125 5.03125q-1.453125 -0.953125 -2.703125 -0.953125q-1.21875 0 -2.0625 0.671875q-0.828125 0.671875 -1.3125 2.421875q-0.484375 1.734375 -0.484375 7.28125l0 6.734375zm20.813477 -21.78125l0 4.59375l-3.9375 0l0 8.78125q0 2.65625 0.109375 3.109375q0.125 0.4375 0.515625 0.734375q0.40625 0.28125 0.984375 0.28125q0.796875 0 2.3125 -0.5625l0.484375 4.46875q-2.0 0.875 -4.546875 0.875q-1.5625 0 -2.8125 -0.515625q-1.25 -0.53125 -1.84375 -1.359375q-0.578125 -0.84375 -0.796875 -2.25q-0.1875 -1.015625 -0.1875 -4.0625l0 -9.5l-2.640625 0l0 -4.59375l2.640625 0l0 -4.328125l5.78125 -3.359375l0 7.6875l3.9375 0zm18.330078 21.78125l0 -3.265625q-1.1875 1.75 -3.125 2.765625q-1.9375 1.0 -4.09375 1.0q-2.1875 0 -3.9375 -0.96875q-1.734375 -0.96875 -2.515625 -2.703125q-0.78125 -1.75 -0.78125 -4.828125l0 -13.78125l5.765625 0l0 10.015625q0 4.59375 0.3125 5.625q0.328125 1.03125 1.15625 1.640625q0.84375 0.609375 2.140625 0.609375q1.46875 0 2.640625 -0.8125q1.171875 -0.8125 1.59375 -2.015625q0.4375 -1.203125 0.4375 -5.875l0 -9.1875l5.765625 0l0 21.78125l-5.359375 0zm15.639648 -15.140625l-5.234375 -0.9375q0.875 -3.15625 3.03125 -4.671875q2.15625 -1.515625 6.40625 -1.515625q3.84375 0 5.734375 0.90625q1.890625 0.90625 2.65625 2.3125q0.765625 1.40625 0.765625 5.15625l-0.0625 6.734375q0 2.875 0.28125 4.234375q0.28125 1.359375 1.03125 2.921875l-5.6875 0q-0.234375 -0.578125 -0.5625 -1.703125q-0.140625 -0.515625 -0.203125 -0.671875q-1.484375 1.4375 -3.171875 2.15625q-1.671875 0.71875 -3.578125 0.71875q-3.359375 0 -5.296875 -1.828125q-1.9375 -1.828125 -1.9375 -4.625q0 -1.84375 0.875 -3.28125q0.890625 -1.453125 2.46875 -2.21875q1.59375 -0.765625 4.59375 -1.34375q4.03125 -0.765625 5.59375 -1.421875l0 -0.5625q0 -1.671875 -0.828125 -2.375q-0.8125 -0.703125 -3.09375 -0.703125q-1.53125 0 -2.390625 0.609375q-0.859375 0.59375 -1.390625 2.109375zm7.703125 4.6875q-1.109375 0.359375 -3.515625 0.875q-2.390625 0.515625 -3.125 1.0q-1.125 0.8125 -1.125 2.03125q0 1.21875 0.890625 2.109375q0.90625 0.875 2.296875 0.875q1.5625 0 2.984375 -1.03125q1.046875 -0.78125 1.375 -1.90625q0.21875 -0.734375 0.21875 -2.8125l0 -1.140625zm-6.234375 -14.0l2.84375 -6.125l6.453125 0l-5.640625 6.125l-3.65625 0zm17.577148 24.453125l0 -30.0625l5.765625 0l0 30.0625l-5.765625 0zm11.668945 -24.734375l0 -5.328125l5.765625 0l0 5.328125l-5.765625 0zm0 24.734375l0 -21.78125l5.765625 0l0 21.78125l-5.765625 0zm9.637695 -6.21875l5.78125 -0.875q0.375 1.671875 1.5 2.546875q1.125 0.875 3.15625 0.875q2.234375 0 3.359375 -0.8125q0.765625 -0.578125 0.765625 -1.546875q0 -0.65625 -0.40625 -1.078125q-0.4375 -0.421875 -1.9375 -0.765625q-6.96875 -1.53125 -8.828125 -2.8125q-2.59375 -1.765625 -2.59375 -4.90625q0 -2.828125 2.234375 -4.75q2.234375 -1.921875 6.9375 -1.921875q4.46875 0 6.640625 1.453125q2.171875 1.453125 3.0 4.296875l-5.4375 1.015625q-0.34375 -1.28125 -1.328125 -1.953125q-0.96875 -0.671875 -2.78125 -0.671875q-2.265625 0 -3.25 0.625q-0.65625 0.453125 -0.65625 1.171875q0 0.625 0.578125 1.046875q0.765625 0.578125 5.375 1.625q4.609375 1.046875 6.4375 2.5625q1.796875 1.53125 1.796875 4.28125q0 3.0 -2.5 5.15625q-2.5 2.15625 -7.40625 2.15625q-4.453125 0 -7.046875 -1.8125q-2.59375 -1.8125 -3.390625 -4.90625z" fill-rule="nonzero"/><path fill="#000000" d="m50.72441 146.44179l-8.78125 -21.78125l6.0625 0l4.09375 11.109375l1.1875 3.71875q0.46875 -1.421875 0.59375 -1.859375q0.296875 -0.921875 0.625 -1.859375l4.140625 -11.109375l5.921875 0l-8.65625 21.78125l-5.1875 0zm21.686523 -15.140625l-5.234375 -0.9375q0.875 -3.15625 3.03125 -4.671875q2.15625 -1.515625 6.40625 -1.515625q3.84375 0 5.734375 0.90625q1.890625 0.90625 2.65625 2.3125q0.765625 1.40625 0.765625 5.15625l-0.0625 6.734375q0 2.875 0.28125 4.234375q0.28125 1.359375 1.03125 2.921875l-5.6875 0q-0.234375 -0.578125 -0.5625 -1.703125q-0.140625 -0.515625 -0.203125 -0.671875q-1.484375 1.4375 -3.171875 2.15625q-1.671875 0.71875 -3.578125 0.71875q-3.359375 0 -5.296875 -1.828125q-1.9375 -1.828125 -1.9375 -4.625q0 -1.84375 0.875 -3.28125q0.890625 -1.453125 2.46875 -2.21875q1.59375 -0.765625 4.59375 -1.34375q4.03125 -0.765625 5.59375 -1.421875l0 -0.5625q0 -1.671875 -0.828125 -2.375q-0.8125 -0.703125 -3.09375 -0.703125q-1.53125 0 -2.390625 0.609375q-0.859375 0.59375 -1.390625 2.109375zm7.703125 4.6875q-1.109375 0.359375 -3.515625 0.875q-2.390625 0.515625 -3.125 1.0q-1.125 0.8125 -1.125 2.03125q0 1.21875 0.890625 2.109375q0.90625 0.875 2.296875 0.875q1.5625 0 2.984375 -1.03125q1.046875 -0.78125 1.375 -1.90625q0.21875 -0.734375 0.21875 -2.8125l0 -1.140625zm11.342773 10.453125l0 -30.0625l5.765625 0l0 30.0625l-5.765625 0zm10.34082 -11.203125q0 -2.859375 1.40625 -5.546875q1.421875 -2.6875 4.015625 -4.09375q2.59375 -1.421875 5.796875 -1.421875q4.9375 0 8.09375 3.203125q3.15625 3.203125 3.15625 8.109375q0 4.9375 -3.1875 8.203125q-3.1875 3.25 -8.03125 3.25q-2.984375 0 -5.703125 -1.359375q-2.71875 -1.359375 -4.140625 -3.96875q-1.40625 -2.609375 -1.40625 -6.375zm5.90625 0.3125q0 3.234375 1.53125 4.96875q1.546875 1.71875 3.796875 1.71875q2.25 0 3.78125 -1.71875q1.53125 -1.734375 1.53125 -5.015625q0 -3.1875 -1.53125 -4.90625q-1.53125 -1.734375 -3.78125 -1.734375q-2.25 0 -3.796875 1.734375q-1.53125 1.71875 -1.53125 4.953125zm2.40625 -13.5625l2.84375 -6.125l6.453125 0l-5.640625 6.125l-3.65625 0zm16.639648 18.234375l5.78125 -0.875q0.375 1.671875 1.5 2.546875q1.125 0.875 3.15625 0.875q2.234375 0 3.359375 -0.8125q0.765625 -0.578125 0.765625 -1.546875q0 -0.65625 -0.40625 -1.078125q-0.4375 -0.421875 -1.9375 -0.765625q-6.96875 -1.53125 -8.828125 -2.8125q-2.59375 -1.765625 -2.59375 -4.90625q0 -2.828125 2.234375 -4.75q2.234375 -1.921875 6.9375 -1.921875q4.46875 0 6.640625 1.453125q2.171875 1.453125 3.0 4.296875l-5.4375 1.015625q-0.34375 -1.28125 -1.328125 -1.953125q-0.96875 -0.671875 -2.78125 -0.671875q-2.265625 0 -3.25 0.625q-0.65625 0.453125 -0.65625 1.171875q0 0.625 0.578125 1.046875q0.765625 0.578125 5.375 1.625q4.609375 1.046875 6.4375 2.5625q1.796875 1.53125 1.796875 4.28125q0 3.0 -2.5 5.15625q-2.5 2.15625 -7.40625 2.15625q-4.453125 0 -7.046875 -1.8125q-2.59375 -1.8125 -3.390625 -4.90625zm29.702148 -8.921875l-5.234375 -0.9375q0.875 -3.15625 3.03125 -4.671875q2.15625 -1.515625 6.40625 -1.515625q3.84375 0 5.734375 0.90625q1.890625 0.90625 2.65625 2.3125q0.765625 1.40625 0.765625 5.15625l-0.0625 6.734375q0 2.875 0.28125 4.234375q0.28125 1.359375 1.03125 2.921875l-5.6875 0q-0.234375 -0.578125 -0.5625 -1.703125q-0.140625 -0.515625 -0.203125 -0.671875q-1.484375 1.4375 -3.171875 2.15625q-1.671875 0.71875 -3.578125 0.71875q-3.359375 0 -5.296875 -1.828125q-1.9375 -1.828125 -1.9375 -4.625q0 -1.84375 0.875 -3.28125q0.890625 -1.453125 2.46875 -2.21875q1.59375 -0.765625 4.59375 -1.34375q4.03125 -0.765625 5.59375 -1.421875l0 -0.5625q0 -1.671875 -0.828125 -2.375q-0.8125 -0.703125 -3.09375 -0.703125q-1.53125 0 -2.390625 0.609375q-0.859375 0.59375 -1.390625 2.109375zm7.703125 4.6875q-1.109375 0.359375 -3.515625 0.875q-2.390625 0.515625 -3.125 1.0q-1.125 0.8125 -1.125 2.03125q0 1.21875 0.890625 2.109375q0.90625 0.875 2.296875 0.875q1.5625 0 2.984375 -1.03125q1.046875 -0.78125 1.375 -1.90625q0.21875 -0.734375 0.21875 -2.8125l0 -1.140625zm-6.234375 -14.0l2.84375 -6.125l6.453125 0l-5.640625 6.125l-3.65625 0zm17.045898 25.890625l6.578125 0.796875q0.171875 1.15625 0.765625 1.578125q0.8125 0.625 2.578125 0.625q2.25 0 3.390625 -0.6875q0.75 -0.453125 1.140625 -1.453125q0.265625 -0.71875 0.265625 -2.640625l0 -3.1875q-2.578125 3.53125 -6.515625 3.53125q-4.390625 0 -6.953125 -3.71875q-2.015625 -2.921875 -2.015625 -7.296875q0 -5.46875 2.640625 -8.359375q2.640625 -2.890625 6.546875 -2.890625q4.046875 0 6.671875 3.546875l0 -3.0625l5.390625 0l0 19.546875q0 3.859375 -0.640625 5.765625q-0.625 1.90625 -1.78125 2.984375q-1.140625 1.09375 -3.0625 1.703125q-1.921875 0.625 -4.84375 0.625q-5.546875 0 -7.859375 -1.90625q-2.3125 -1.890625 -2.3125 -4.796875q0 -0.296875 0.015625 -0.703125zm5.140625 -12.78125q0 3.46875 1.34375 5.078125q1.34375 1.609375 3.3125 1.609375q2.109375 0 3.5625 -1.640625q1.46875 -1.65625 1.46875 -4.90625q0 -3.375 -1.40625 -5.015625q-1.390625 -1.640625 -3.515625 -1.640625q-2.078125 0 -3.421875 1.609375q-1.34375 1.609375 -1.34375 4.90625zm26.780273 -18.71875l0 11.046875q2.796875 -3.25 6.671875 -3.25q1.984375 0 3.578125 0.734375q1.609375 0.734375 2.421875 1.890625q0.8125 1.140625 1.109375 2.546875q0.296875 1.390625 0.296875 4.3125l0 12.78125l-5.765625 0l0 -11.5q0 -3.4375 -0.328125 -4.359375q-0.328125 -0.921875 -1.15625 -1.453125q-0.828125 -0.546875 -2.078125 -0.546875q-1.4375 0 -2.578125 0.703125q-1.125 0.6875 -1.65625 2.09375q-0.515625 1.40625 -0.515625 4.15625l0 10.90625l-5.75 0l0 -30.0625l5.75 0zm18.592773 18.859375q0 -2.859375 1.40625 -5.546875q1.421875 -2.6875 4.015625 -4.09375q2.59375 -1.421875 5.796875 -1.421875q4.9375 0 8.09375 3.203125q3.15625 3.203125 3.15625 8.109375q0 4.9375 -3.1875 8.203125q-3.1875 3.25 -8.03125 3.25q-2.984375 0 -5.703125 -1.359375q-2.71875 -1.359375 -4.140625 -3.96875q-1.40625 -2.609375 -1.40625 -6.375zm5.90625 0.3125q0 3.234375 1.53125 4.96875q1.546875 1.71875 3.796875 1.71875q2.25 0 3.78125 -1.71875q1.53125 -1.734375 1.53125 -5.015625q0 -3.1875 -1.53125 -4.90625q-1.53125 -1.734375 -3.78125 -1.734375q-2.25 0 -3.796875 1.734375q-1.53125 1.71875 -1.53125 4.953125zm18.764648 10.890625l0 -4.484375l8.156235 -9.375q2.015625 -2.296875 2.96875 -3.265625q-1.0 0.0625 -2.640625 0.078125l-7.6874847 0.046875l0 -4.78125l17.999985 0l0 4.078125l-8.328125 9.609375l-2.921875 3.171875q2.390625 -0.140625 2.96875 -0.140625l8.921875 0l0 5.0625l-19.437485 0zm35.70311 -7.75l-5.234375 0q-0.015625 -1.125 -0.015625 -1.375q0 -2.546875 0.828125 -4.1875q0.84375 -1.640625 3.359375 -3.6875q2.53125 -2.046875 3.03125 -2.6875q0.75 -1.0 0.75 -2.21875q0 -1.671875 -1.34375 -2.875q-1.34375 -1.203125 -3.609375 -1.203125q-2.203125 0 -3.6875 1.25q-1.46875 1.25 -2.015625 3.8125l-5.296875 -0.65625q0.234375 -3.671875 3.125 -6.234375q2.90625 -2.5625 7.625 -2.5625q4.96875 0 7.890625 2.59375q2.9375 2.59375 2.9375 6.046875q0 1.90625 -1.078125 3.609375q-1.078125 1.703125 -4.609375 4.625q-1.8125 1.515625 -2.265625 2.453125q-0.4375 0.921875 -0.390625 3.296875zm-5.234375 7.75l0 -5.765625l5.765625 0l0 5.765625l-5.765625 0z" fill-rule="nonzero"/><path fill="#000000" fill-opacity="0.0" d="m32.72441 172.36482l412.59845 0l0 307.30707l-412.59845 0z" fill-rule="evenodd"/><path fill="#000000" d="m43.34941 207.64357l3.203125 -0.28125q0.234375 1.9375 1.0625 3.171875q0.84375 1.234375 2.59375 2.0q1.765625 0.765625 3.96875 0.765625q1.9375 0 3.4375 -0.578125q1.5 -0.578125 2.21875 -1.578125q0.734375 -1.015625 0.734375 -2.21875q0 -1.203125 -0.703125 -2.109375q-0.703125 -0.90625 -2.3125 -1.53125q-1.046875 -0.40625 -4.59375 -1.25q-3.546875 -0.859375 -4.96875 -1.609375q-1.859375 -0.96875 -2.765625 -2.390625q-0.890625 -1.4375 -0.890625 -3.21875q0 -1.953125 1.09375 -3.640625q1.109375 -1.703125 3.234375 -2.578125q2.140625 -0.875 4.734375 -0.875q2.859375 0 5.046875 0.921875q2.203125 0.921875 3.375 2.71875q1.171875 1.78125 1.265625 4.046875l-3.265625 0.25q-0.265625 -2.4375 -1.796875 -3.6875q-1.515625 -1.25 -4.484375 -1.25q-3.09375 0 -4.515625 1.140625q-1.40625 1.125 -1.40625 2.71875q0 1.390625 1.0 2.296875q0.984375 0.890625 5.140625 1.828125q4.15625 0.9375 5.703125 1.640625q2.25 1.046875 3.3125 2.640625q1.078125 1.578125 1.078125 3.65625q0 2.0625 -1.171875 3.890625q-1.171875 1.8125 -3.390625 2.828125q-2.203125 1.0 -4.953125 1.0q-3.5 0 -5.875 -1.015625q-2.359375 -1.015625 -3.703125 -3.0625q-1.34375 -2.0625 -1.40625 -4.640625zm36.996094 8.28125l0 -2.75q-2.1875 3.171875 -5.921875 3.171875q-1.65625 0 -3.09375 -0.625q-1.421875 -0.640625 -2.125 -1.59375q-0.6875 -0.96875 -0.96875 -2.359375q-0.203125 -0.921875 -0.203125 -2.953125l0 -11.5625l3.171875 0l0 10.359375q0 2.46875 0.1875 3.34375q0.296875 1.234375 1.265625 1.953125q0.96875 0.71875 2.390625 0.71875q1.421875 0 2.671875 -0.734375q1.25 -0.734375 1.765625 -1.984375q0.53125 -1.265625 0.53125 -3.65625l0 -10.0l3.15625 0l0 18.671875l-2.828125 0zm7.2089844 1.546875l3.078125 0.453125q0.1875 1.421875 1.0625 2.078125q1.1875 0.875 3.21875 0.875q2.203125 0 3.390625 -0.875q1.203125 -0.875 1.625 -2.453125q0.25 -0.96875 0.21875 -4.0625q-2.0625 2.4375 -5.15625 2.4375q-3.859375 0 -5.96875 -2.78125q-2.109375 -2.78125 -2.109375 -6.65625q0 -2.671875 0.96875 -4.921875q0.96875 -2.265625 2.796875 -3.5q1.84375 -1.234375 4.328125 -1.234375q3.296875 0 5.453125 2.671875l0 -2.25l2.90625 0l0 16.140625q0 4.359375 -0.890625 6.171875q-0.875 1.828125 -2.8125 2.875q-1.921875 1.0625 -4.734375 1.0625q-3.328125 0 -5.390625 -1.5q-2.0625 -1.5 -1.984375 -4.53125zm2.609375 -11.21875q0 3.671875 1.453125 5.359375q1.46875 1.6875 3.671875 1.6875q2.171875 0 3.640625 -1.671875q1.484375 -1.6875 1.484375 -5.265625q0 -3.421875 -1.515625 -5.15625q-1.515625 -1.75 -3.671875 -1.75q-2.109375 0 -3.59375 1.71875q-1.46875 1.703125 -1.46875 5.078125zm30.177734 7.375q-1.765625 1.484375 -3.390625 2.109375q-1.625 0.609375 -3.484375 0.609375q-3.078125 0 -4.734375 -1.5q-1.65625 -1.5 -1.65625 -3.84375q0 -1.375 0.625 -2.5q0.625 -1.140625 1.640625 -1.828125q1.015625 -0.6875 2.28125 -1.03125q0.921875 -0.25 2.8125 -0.484375q3.828125 -0.453125 5.640625 -1.078125q0.015625 -0.65625 0.015625 -0.828125q0 -1.9375 -0.90625 -2.734375q-1.203125 -1.0625 -3.59375 -1.0625q-2.234375 0 -3.296875 0.78125q-1.0625 0.78125 -1.578125 2.765625l-3.09375 -0.421875q0.421875 -1.984375 1.390625 -3.203125q0.96875 -1.21875 2.796875 -1.875q1.828125 -0.671875 4.234375 -0.671875q2.390625 0 3.875 0.5625q1.5 0.5625 2.203125 1.421875q0.703125 0.84375 0.984375 2.15625q0.15625 0.796875 0.15625 2.90625l0 4.21875q0 4.421875 0.203125 5.59375q0.203125 1.15625 0.8125 2.234375l-3.3125 0q-0.484375 -0.984375 -0.625 -2.296875zm-0.265625 -7.078125q-1.734375 0.703125 -5.171875 1.203125q-1.953125 0.28125 -2.765625 0.640625q-0.796875 0.34375 -1.25 1.015625q-0.4375 0.671875 -0.4375 1.5q0 1.265625 0.953125 2.109375q0.96875 0.84375 2.8125 0.84375q1.828125 0 3.25 -0.796875q1.421875 -0.796875 2.09375 -2.1875q0.515625 -1.078125 0.515625 -3.15625l0 -1.171875zm-6.15625 -11.609375l2.328125 -4.921875l4.15625 0l-3.875 4.921875l-2.609375 0zm14.224609 20.984375l0 -18.671875l2.84375 0l0 2.828125q1.09375 -1.984375 2.015625 -2.609375q0.921875 -0.640625 2.03125 -0.640625q1.59375 0 3.25 1.015625l-1.09375 2.9375q-1.15625 -0.6875 -2.3125 -0.6875q-1.046875 0 -1.875 0.625q-0.828125 0.625 -1.171875 1.734375q-0.53125 1.6875 -0.53125 3.6875l0 9.78125l-3.15625 0zm12.035156 0l0 -25.765625l3.171875 0l0 14.6875l7.484375 -7.59375l4.09375 0l-7.140625 6.921875l7.859375 11.75l-3.90625 0l-6.171875 -9.546875l-2.21875 2.140625l0 7.40625l-3.171875 0zm16.8125 -9.328125q0 -5.1875 2.875 -7.6875q2.40625 -2.078125 5.875 -2.078125q3.84375 0 6.28125 2.53125q2.453125 2.515625 2.453125 6.96875q0 3.59375 -1.078125 5.671875q-1.078125 2.0625 -3.15625 3.203125q-2.0625 1.140625 -4.5 1.140625q-3.921875 0 -6.34375 -2.515625q-2.40625 -2.515625 -2.40625 -7.234375zm3.25 0q0 3.578125 1.5625 5.359375q1.5625 1.78125 3.9375 1.78125q2.359375 0 3.921875 -1.78125q1.5625 -1.796875 1.5625 -5.46875q0 -3.46875 -1.578125 -5.25q-1.578125 -1.78125 -3.90625 -1.78125q-2.375 0 -3.9375 1.78125q-1.5625 1.765625 -1.5625 5.359375zm0.5625 -13.0l0 -3.59375l3.296875 0l0 3.59375l-3.296875 0zm6.546875 0l0 -3.59375l3.3125 0l0 3.59375l-3.3125 0zm16.021484 22.328125l-7.109375 -18.671875l3.34375 0l4.015625 11.1875q0.640625 1.8125 1.1875 3.75q0.421875 -1.46875 1.171875 -3.546875l4.15625 -11.390625l3.25 0l-7.0625 18.671875l-2.953125 0zm25.59375 -6.015625l3.265625 0.40625q-0.765625 2.859375 -2.859375 4.453125q-2.09375 1.578125 -5.34375 1.578125q-4.09375 0 -6.5 -2.515625q-2.40625 -2.53125 -2.40625 -7.078125q0 -4.71875 2.421875 -7.3125q2.4375 -2.609375 6.296875 -2.609375q3.75 0 6.125 2.546875q2.375 2.546875 2.375 7.171875q0 0.28125 -0.015625 0.84375l-13.921875 0q0.171875 3.078125 1.734375 4.71875q1.5625 1.625 3.90625 1.625q1.734375 0 2.96875 -0.90625q1.234375 -0.921875 1.953125 -2.921875zm-10.390625 -5.109375l10.421875 0q-0.203125 -2.359375 -1.1875 -3.53125q-1.515625 -1.828125 -3.921875 -1.828125q-2.1875 0 -3.671875 1.453125q-1.484375 1.453125 -1.640625 3.90625zm24.53711 8.296875l0.453125 2.796875q-1.328125 0.28125 -2.390625 0.28125q-1.71875 0 -2.671875 -0.546875q-0.9375 -0.546875 -1.328125 -1.4375q-0.390625 -0.890625 -0.390625 -3.734375l0 -10.734375l-2.3125 0l0 -2.46875l2.3125 0l0 -4.625l3.140625 -1.890625l0 6.515625l3.1875 0l0 2.46875l-3.1875 0l0 10.90625q0 1.359375 0.171875 1.75q0.171875 0.375 0.546875 0.609375q0.375 0.234375 1.078125 0.234375q0.53125 0 1.390625 -0.125zm15.876953 -3.1875l3.265625 0.40625q-0.765625 2.859375 -2.859375 4.453125q-2.09375 1.578125 -5.34375 1.578125q-4.09375 0 -6.5 -2.515625q-2.40625 -2.53125 -2.40625 -7.078125q0 -4.71875 2.421875 -7.3125q2.4375 -2.609375 6.296875 -2.609375q3.75 0 6.125 2.546875q2.375 2.546875 2.375 7.171875q0 0.28125 -0.015625 0.84375l-13.921875 0q0.171875 3.078125 1.734375 4.71875q1.5625 1.625 3.90625 1.625q1.734375 0 2.96875 -0.90625q1.234375 -0.921875 1.953125 -2.921875zm-10.390625 -5.109375l10.421875 0q-0.203125 -2.359375 -1.1875 -3.53125q-1.515625 -1.828125 -3.921875 -1.828125q-2.1875 0 -3.671875 1.453125q-1.484375 1.453125 -1.640625 3.90625zm3.40625 -9.859375l2.328125 -4.921875l4.15625 0l-3.875 4.921875l-2.609375 0zm12.958984 15.40625l3.125 -0.484375q0.265625 1.875 1.46875 2.875q1.203125 1.0 3.375 1.0q2.171875 0 3.2187347 -0.875q1.0625 -0.890625 1.0625 -2.09375q0 -1.0625 -0.9375 -1.6875q-0.64060974 -0.421875 -3.2343597 -1.0625q-3.46875 -0.890625 -4.8125 -1.53125q-1.34375 -0.640625 -2.046875 -1.765625q-0.6875 -1.140625 -0.6875 -2.515625q0 -1.234375 0.5625 -2.296875q0.578125 -1.078125 1.5625 -1.78125q0.734375 -0.53125 2.0 -0.90625q1.28125 -0.390625 2.75 -0.390625q2.1875 0 3.8437347 0.640625q1.671875 0.625 2.453125 1.71875q0.796875 1.078125 1.09375 2.875l-3.09375 0.421875q-0.203125 -1.4375 -1.2187347 -2.234375q-1.015625 -0.8125 -2.859375 -0.8125q-2.171875 0 -3.109375 0.71875q-0.9375 0.71875 -0.9375 1.6875q0 0.609375 0.390625 1.109375q0.390625 0.5 1.21875 0.84375q0.46875 0.171875 2.796875 0.796875q3.3593597 0.90625 4.6718597 1.484375q1.328125 0.5625 2.078125 1.65625q0.765625 1.078125 0.765625 2.703125q0 1.578125 -0.921875 2.984375q-0.921875 1.390625 -2.671875 2.15625q-1.7343597 0.765625 -3.9218597 0.765625q-3.640625 0 -5.546875 -1.515625q-1.90625 -1.515625 -2.4375 -4.484375zm42.048813 -0.4375l3.265625 0.40625q-0.765625 2.859375 -2.859375 4.453125q-2.09375 1.578125 -5.34375 1.578125q-4.09375 0 -6.5 -2.515625q-2.40625 -2.53125 -2.40625 -7.078125q0 -4.71875 2.421875 -7.3125q2.4375 -2.609375 6.296875 -2.609375q3.75 0 6.125 2.546875q2.375 2.546875 2.375 7.171875q0 0.28125 -0.015625 0.84375l-13.921875 0q0.171875 3.078125 1.734375 4.71875q1.5625 1.625 3.90625 1.625q1.734375 0 2.96875 -0.90625q1.234375 -0.921875 1.953125 -2.921875zm-10.390625 -5.109375l10.421875 0q-0.203125 -2.359375 -1.1875 -3.53125q-1.515625 -1.828125 -3.921875 -1.828125q-2.1875 0 -3.671875 1.453125q-1.484375 1.453125 -1.640625 3.90625zm17.552734 11.125l0 -25.765625l3.171875 0l0 25.765625l-3.171875 0zm6.904297 -9.328125q0 -5.1875 2.875 -7.6875q2.40625 -2.078125 5.875 -2.078125q3.84375 0 6.28125 2.53125q2.453125 2.515625 2.453125 6.96875q0 3.59375 -1.078125 5.671875q-1.078125 2.0625 -3.15625 3.203125q-2.0625 1.140625 -4.5 1.140625q-3.921875 0 -6.34375 -2.515625q-2.40625 -2.515625 -2.40625 -7.234375zm3.25 0q0 3.578125 1.5625 5.359375q1.5625 1.78125 3.9375 1.78125q2.359375 0 3.921875 -1.78125q1.5625 -1.796875 1.5625 -5.46875q0 -3.46875 -1.578125 -5.25q-1.578125 -1.78125 -3.90625 -1.78125q-2.375 0 -3.9375 1.78125q-1.5625 1.765625 -1.5625 5.359375zm0.515625 -11.65625l2.125 -4.921875l4.125 0l-3.71875 4.921875l-2.53125 0zm6.109375 0l2.234375 -4.921875l4.046875 0l-3.625 4.921875l-2.65625 0zm11.318359 20.984375l0 -18.671875l2.84375 0l0 2.65625q2.0625 -3.078125 5.9375 -3.078125q1.6875 0 3.109375 0.609375q1.421875 0.609375 2.125 1.59375q0.703125 0.984375 0.984375 2.328125q0.171875 0.890625 0.171875 3.078125l0 11.484375l-3.171875 0l0 -11.359375q0 -1.9375 -0.375 -2.890625q-0.359375 -0.953125 -1.296875 -1.515625q-0.9375 -0.578125 -2.203125 -0.578125q-2.03125 0 -3.5 1.28125q-1.46875 1.28125 -1.46875 4.859375l0 10.203125l-3.15625 0zm19.88086 7.1875l-0.359375 -2.96875q1.046875 0.28125 1.8125 0.28125q1.0625 0 1.6875 -0.359375q0.640625 -0.34375 1.046875 -0.96875q0.296875 -0.484375 0.96875 -2.359375q0.078125 -0.265625 0.28125 -0.78125l-7.09375 -18.703125l3.40625 0l3.890625 10.8125q0.75 2.0625 1.359375 4.328125q0.546875 -2.1875 1.296875 -4.25l3.984375 -10.890625l3.171875 0l-7.109375 18.984375q-1.140625 3.078125 -1.765625 4.234375q-0.84375 1.578125 -1.9375 2.296875q-1.09375 0.734375 -2.609375 0.734375q-0.90625 0 -2.03125 -0.390625zm30.921875 -13.203125l3.265625 0.40625q-0.765625 2.859375 -2.859375 4.453125q-2.09375 1.578125 -5.34375 1.578125q-4.09375 0 -6.5 -2.515625q-2.40625 -2.53125 -2.40625 -7.078125q0 -4.71875 2.421875 -7.3125q2.4375 -2.609375 6.296875 -2.609375q3.75 0 6.125 2.546875q2.375 2.546875 2.375 7.171875q0 0.28125 -0.015625 0.84375l-13.921875 0q0.171875 3.078125 1.734375 4.71875q1.5625 1.625 3.90625 1.625q1.734375 0 2.96875 -0.90625q1.234375 -0.921875 1.953125 -2.921875zm-10.390625 -5.109375l10.421875 0q-0.203125 -2.359375 -1.1875 -3.53125q-1.515625 -1.828125 -3.921875 -1.828125q-2.1875 0 -3.671875 1.453125q-1.484375 1.453125 -1.640625 3.90625zm17.646484 -11.0l0 -3.640625l3.171875 0l0 3.640625l-3.171875 0zm0 22.125l0 -18.671875l3.171875 0l0 18.671875l-3.171875 0zm8.857422 -15.0625l0 -3.609375l3.609375 0l0 3.609375l-3.609375 0zm0 15.0625l0 -3.609375l3.609375 0l0 3.609375l-3.609375 0z" fill-rule="nonzero"/><path fill="#000000" d="m57.28105 280.72293q1.5 0 2.9375 0.78125q1.453125 0.78125 2.265625 2.234375q0.8125 1.4375 0.8125 3.0q0 2.5 -1.765625 4.265625q-1.765625 1.765625 -4.25 1.765625q-2.5 0 -4.265625 -1.765625q-1.765625 -1.765625 -1.765625 -4.265625q0 -1.5625 0.796875 -3.0q0.8125 -1.453125 2.265625 -2.234375q1.453125 -0.78125 2.96875 -0.78125z" fill-rule="nonzero"/><path fill="#000000" d="m91.94316 294.6448l0 -20.046875l14.484375 0l0 2.375l-11.828125 0l0 6.125l11.078125 0l0 2.359375l-11.078125 0l0 6.828125l12.296875 0l0 2.359375l-14.953125 0zm5.46875 -21.28125l1.828125 -3.828125l3.21875 0l-3.0 3.828125l-2.046875 0zm12.785156 21.28125l0 -20.046875l2.453125 0l0 20.046875l-2.453125 0zm16.205078 -4.671875l2.546875 0.3125q-0.59375 2.21875 -2.234375 3.453125q-1.625 1.234375 -4.15625 1.234375q-3.171875 0 -5.046875 -1.953125q-1.859375 -1.96875 -1.859375 -5.515625q0 -3.65625 1.875 -5.671875q1.890625 -2.03125 4.90625 -2.03125q2.90625 0 4.75 1.984375q1.84375 1.96875 1.84375 5.578125q0 0.21875 -0.015625 0.65625l-10.828125 0q0.140625 2.390625 1.359375 3.65625q1.21875 1.265625 3.03125 1.265625q1.359375 0 2.3125 -0.703125q0.953125 -0.71875 1.515625 -2.265625zm-8.078125 -3.984375l8.109375 0q-0.15625 -1.828125 -0.921875 -2.75q-1.1875 -1.421875 -3.0625 -1.421875q-1.6875 0 -2.84375 1.140625q-1.15625 1.125 -1.28125 3.03125zm19.08789 6.453125l0.359375 2.171875q-1.046875 0.21875 -1.859375 0.21875q-1.34375 0 -2.078125 -0.421875q-0.734375 -0.421875 -1.046875 -1.109375q-0.296875 -0.6875 -0.296875 -2.90625l0 -8.359375l-1.796875 0l0 -1.90625l1.796875 0l0 -3.59375l2.453125 -1.484375l0 5.078125l2.46875 0l0 1.90625l-2.46875 0l0 8.5q0 1.046875 0.125 1.34375q0.125 0.296875 0.421875 0.484375q0.296875 0.171875 0.84375 0.171875q0.40625 0 1.078125 -0.09375zm2.4042969 2.203125l0 -20.046875l2.46875 0l0 7.1875q1.71875 -1.984375 4.34375 -1.984375q1.609375 0 2.796875 0.640625q1.1875 0.625 1.703125 1.75q0.515625 1.125 0.515625 3.25l0 9.203125l-2.453125 0l0 -9.203125q0 -1.84375 -0.8125 -2.6875q-0.796875 -0.84375 -2.25 -0.84375q-1.09375 0 -2.0625 0.578125q-0.96875 0.5625 -1.375 1.53125q-0.40625 0.96875 -0.40625 2.6875l0 7.9375l-2.46875 0zm25.08789 0l0 -2.140625q-1.6875 2.46875 -4.609375 2.46875q-1.28125 0 -2.40625 -0.484375q-1.109375 -0.5 -1.65625 -1.234375q-0.53125 -0.75 -0.75 -1.84375q-0.140625 -0.71875 -0.140625 -2.296875l0 -8.984375l2.453125 0l0 8.046875q0 1.921875 0.15625 2.59375q0.234375 0.96875 0.984375 1.53125q0.75 0.546875 1.859375 0.546875q1.109375 0 2.078125 -0.5625q0.96875 -0.5625 1.375 -1.53125q0.40625 -0.984375 0.40625 -2.84375l0 -7.78125l2.453125 0l0 14.515625l-2.203125 0zm-8.09375 -16.328125l1.65625 -3.828125l3.1875 0l-2.875 3.828125l-1.96875 0zm4.734375 0l1.75 -3.828125l3.15625 0l-2.828125 3.828125l-2.078125 0z" fill-rule="nonzero"/><path fill="#000000" d="m57.28105 347.92297q1.5 0 2.9375 0.78125q1.453125 0.78125 2.265625 2.234375q0.8125 1.4375 0.8125 3.0q0 2.5 -1.765625 4.265625q-1.765625 1.765625 -4.25 1.765625q-2.5 0 -4.265625 -1.765625q-1.765625 -1.765625 -1.765625 -4.265625q0 -1.5625 0.796875 -3.0q0.8125 -1.453125 2.265625 -2.234375q1.453125 -0.78125 2.96875 -0.78125z" fill-rule="nonzero"/><path fill="#000000" d="m101.271286 353.98547l0 -2.359375l8.484375 -0.015625l0 7.4375q-1.953125 1.5625 -4.03125 2.359375q-2.078125 0.78125 -4.265625 0.78125q-2.953125 0 -5.375 -1.265625q-2.40625 -1.265625 -3.640625 -3.65625q-1.234375 -2.390625 -1.234375 -5.34375q0 -2.9375 1.21875 -5.46875q1.234375 -2.53125 3.53125 -3.765625q2.296875 -1.234375 5.296875 -1.234375q2.171875 0 3.921875 0.703125q1.765625 0.703125 2.75 1.96875q1.0 1.25 1.53125 3.28125l-2.390625 0.65625q-0.453125 -1.53125 -1.125 -2.40625q-0.671875 -0.875 -1.921875 -1.390625q-1.234375 -0.53125 -2.75 -0.53125q-1.828125 0 -3.15625 0.546875q-1.328125 0.546875 -2.140625 1.453125q-0.8125 0.90625 -1.265625 1.984375q-0.765625 1.859375 -0.765625 4.03125q0 2.6875 0.921875 4.5q0.9375 1.796875 2.6875 2.671875q1.765625 0.875 3.75 0.875q1.71875 0 3.359375 -0.65625q1.640625 -0.671875 2.5 -1.421875l0 -3.734375l-5.890625 0zm11.966797 13.453125l-0.265625 -2.3125q0.796875 0.21875 1.40625 0.21875q0.8125 0 1.296875 -0.28125q0.5 -0.265625 0.8125 -0.75q0.234375 -0.375 0.765625 -1.84375q0.0625 -0.203125 0.21875 -0.59375l-5.515625 -14.546875l2.65625 0l3.015625 8.40625q0.59375 1.59375 1.046875 3.359375q0.4375 -1.6875 1.015625 -3.3125l3.109375 -8.453125l2.453125 0l-5.515625 14.765625q-0.890625 2.390625 -1.390625 3.296875q-0.65625 1.21875 -1.5 1.78125q-0.84375 0.5625 -2.015625 0.5625q-0.71875 0 -1.59375 -0.296875zm13.203125 -12.859375q0 -4.03125 2.234375 -5.96875q1.875 -1.609375 4.5625 -1.609375q3.0 0 4.890625 1.96875q1.90625 1.953125 1.90625 5.40625q0 2.8125 -0.84375 4.421875q-0.828125 1.59375 -2.4375 2.484375q-1.609375 0.890625 -3.515625 0.890625q-3.046875 0 -4.921875 -1.953125q-1.875 -1.953125 -1.875 -5.640625zm2.515625 0q0 2.796875 1.21875 4.1875q1.21875 1.375 3.0625 1.375q1.84375 0 3.046875 -1.390625q1.21875 -1.390625 1.21875 -4.25q0 -2.6875 -1.21875 -4.078125q-1.21875 -1.390625 -3.046875 -1.390625q-1.84375 0 -3.0625 1.390625q-1.21875 1.375 -1.21875 4.15625zm13.931641 7.265625l0 -14.515625l2.21875 0l0 2.203125q0.84375 -1.546875 1.5625 -2.03125q0.71875 -0.5 1.578125 -0.5q1.25 0 2.53125 0.78125l-0.84375 2.296875q-0.90625 -0.546875 -1.796875 -0.546875q-0.8125 0 -1.453125 0.5q-0.640625 0.484375 -0.921875 1.34375q-0.40625 1.3125 -0.40625 2.859375l0 7.609375l-2.46875 0zm8.371094 -4.328125l2.4375 -0.390625q0.203125 1.46875 1.140625 2.25q0.9375 0.765625 2.625 0.765625q1.6875 0 2.5 -0.6875q0.828125 -0.6875 0.828125 -1.609375q0 -0.84375 -0.71875 -1.3125q-0.515625 -0.328125 -2.515625 -0.84375q-2.71875 -0.6875 -3.765625 -1.171875q-1.03125 -0.5 -1.578125 -1.375q-0.546875 -0.890625 -0.546875 -1.96875q0 -0.96875 0.4375 -1.796875q0.453125 -0.828125 1.21875 -1.375q0.578125 -0.421875 1.5625 -0.703125q1.0 -0.296875 2.140625 -0.296875q1.703125 0 2.984375 0.5q1.296875 0.484375 1.90625 1.328125q0.625 0.828125 0.859375 2.234375l-2.40625 0.328125q-0.171875 -1.109375 -0.953125 -1.734375q-0.78125 -0.640625 -2.21875 -0.640625q-1.703125 0 -2.421875 0.5625q-0.71875 0.5625 -0.71875 1.3125q0 0.484375 0.296875 0.859375q0.296875 0.40625 0.9375 0.65625q0.375 0.140625 2.171875 0.625q2.625 0.703125 3.65625 1.15625q1.03125 0.4375 1.609375 1.28125q0.59375 0.84375 0.59375 2.109375q0 1.234375 -0.71875 2.328125q-0.71875 1.078125 -2.078125 1.671875q-1.34375 0.59375 -3.0625 0.59375q-2.828125 0 -4.3125 -1.171875q-1.484375 -1.1875 -1.890625 -3.484375zm23.357422 4.328125l0 -12.609375l-2.171875 0l0 -1.90625l2.171875 0l0 -1.546875q0 -1.46875 0.25 -2.171875q0.359375 -0.96875 1.25 -1.5625q0.90625 -0.59375 2.515625 -0.59375q1.046875 0 2.296875 0.25l-0.375 2.140625q-0.765625 -0.125 -1.4375 -0.125q-1.125 0 -1.59375 0.484375q-0.46875 0.46875 -0.46875 1.78125l0 1.34375l2.84375 0l0 1.90625l-2.84375 0l0 12.609375l-2.4375 0zm17.123047 -4.671875l2.546875 0.3125q-0.59375 2.21875 -2.234375 3.453125q-1.625 1.234375 -4.15625 1.234375q-3.171875 0 -5.046875 -1.953125q-1.859375 -1.96875 -1.859375 -5.515625q0 -3.65625 1.875 -5.671875q1.890625 -2.03125 4.90625 -2.03125q2.90625 0 4.75 1.984375q1.84375 1.96875 1.84375 5.578125q0 0.21875 -0.015625 0.65625l-10.828125 0q0.140625 2.390625 1.359375 3.65625q1.21875 1.265625 3.03125 1.265625q1.359375 0 2.3125 -0.703125q0.953125 -0.71875 1.515625 -2.265625zm-8.078125 -3.984375l8.109375 0q-0.15625 -1.828125 -0.921875 -2.75q-1.1875 -1.421875 -3.0625 -1.421875q-1.6875 0 -2.84375 1.140625q-1.15625 1.125 -1.28125 3.03125zm13.697266 -8.53125l0 -2.859375l2.46875 0l0 2.859375l-2.46875 0zm-3.109375 22.828125l0.453125 -2.09375q0.75 0.1875 1.171875 0.1875q0.75 0 1.109375 -0.5q0.375 -0.5 0.375 -2.5l0 -15.25l2.46875 0l0 15.3125q0 2.671875 -0.703125 3.734375q-0.890625 1.359375 -2.953125 1.359375q-1.0 0 -1.921875 -0.25zm9.298828 -5.640625l0 -20.046875l2.453125 0l0 20.046875l-2.453125 0zm16.205078 -4.671875l2.546875 0.3125q-0.59375 2.21875 -2.234375 3.453125q-1.625 1.234375 -4.15625 1.234375q-3.171875 0 -5.046875 -1.953125q-1.859375 -1.96875 -1.859375 -5.515625q0 -3.65625 1.875 -5.671875q1.890625 -2.03125 4.90625 -2.03125q2.90625 0 4.75 1.984375q1.84375 1.96875 1.84375 5.578125q0 0.21875 -0.015625 0.65625l-10.828125 0q0.140625 2.390625 1.359375 3.65625q1.21875 1.265625 3.03125 1.265625q1.359375 0 2.3125 -0.703125q0.953125 -0.71875 1.515625 -2.265625zm-8.078125 -3.984375l8.109375 0q-0.15625 -1.828125 -0.921875 -2.75q-1.1875 -1.421875 -3.0625 -1.421875q-1.6875 0 -2.84375 1.140625q-1.15625 1.125 -1.28125 3.03125zm12.728516 4.328125l2.4375 -0.390625q0.203125 1.46875 1.140625 2.25q0.9375 0.765625 2.625 0.765625q1.6875 0 2.5 -0.6875q0.828125 -0.6875 0.828125 -1.609375q0 -0.84375 -0.71875 -1.3125q-0.515625 -0.328125 -2.515625 -0.84375q-2.71875 -0.6875 -3.765625 -1.171875q-1.03125 -0.5 -1.578125 -1.375q-0.546875 -0.890625 -0.546875 -1.96875q0 -0.96875 0.4375 -1.796875q0.453125 -0.828125 1.21875 -1.375q0.578125 -0.421875 1.5625 -0.703125q1.0 -0.296875 2.140625 -0.296875q1.703125 0 2.984375 0.5q1.296875 0.484375 1.90625 1.328125q0.625 0.828125 0.859375 2.234375l-2.40625 0.328125q-0.171875 -1.109375 -0.953125 -1.734375q-0.78125 -0.640625 -2.21875 -0.640625q-1.703125 0 -2.421875 0.5625q-0.71875 0.5625 -0.71875 1.3125q0 0.484375 0.296875 0.859375q0.296875 0.40625 0.9375 0.65625q0.375 0.140625 2.171875 0.625q2.625 0.703125 3.65625 1.15625q1.03125 0.4375 1.609375 1.28125q0.59375 0.84375 0.59375 2.109375q0 1.234375 -0.71875 2.328125q-0.71875 1.078125 -2.078125 1.671875q-1.34375 0.59375 -3.0625 0.59375q-2.828125 0 -4.3125 -1.171875q-1.484375 -1.1875 -1.890625 -3.484375zm13.6875 4.328125l0 -2.0l9.25 -10.609375q-1.578125 0.078125 -2.78125 0.078125l-5.921875 0l0 -1.984375l11.875 0l0 1.625l-7.875 9.21875l-1.515625 1.671875q1.65625 -0.125 3.109375 -0.125l6.71875 0l0 2.125l-12.859375 0zm20.67186 -2.203125l0.359375 2.171875q-1.046875 0.21875 -1.859375 0.21875q-1.3437347 0 -2.0781097 -0.421875q-0.734375 -0.421875 -1.046875 -1.109375q-0.296875 -0.6875 -0.296875 -2.90625l0 -8.359375l-1.796875 0l0 -1.90625l1.796875 0l0 -3.59375l2.4531097 -1.484375l0 5.078125l2.46875 0l0 1.90625l-2.46875 0l0 8.5q0 1.046875 0.125 1.34375q0.125 0.296875 0.421875 0.484375q0.296875 0.171875 0.84375 0.171875q0.40625 0 1.078125 -0.09375zm12.341797 -2.46875l2.546875 0.3125q-0.59375 2.21875 -2.234375 3.453125q-1.625 1.234375 -4.15625 1.234375q-3.171875 0 -5.046875 -1.953125q-1.859375 -1.96875 -1.859375 -5.515625q0 -3.65625 1.875 -5.671875q1.890625 -2.03125 4.90625 -2.03125q2.90625 0 4.75 1.984375q1.84375 1.96875 1.84375 5.578125q0 0.21875 -0.015625 0.65625l-10.828125 0q0.140625 2.390625 1.359375 3.65625q1.21875 1.265625 3.03125 1.265625q1.359375 0 2.3125 -0.703125q0.953125 -0.71875 1.515625 -2.265625zm-8.078125 -3.984375l8.109375 0q-0.15625 -1.828125 -0.921875 -2.75q-1.1875 -1.421875 -3.0625 -1.421875q-1.6875 0 -2.84375 1.140625q-1.15625 1.125 -1.28125 3.03125zm2.65625 -7.671875l1.828125 -3.828125l3.21875 0l-3.0 3.828125l-2.046875 0zm10.072266 12.0l2.4375 -0.390625q0.203125 1.46875 1.140625 2.25q0.9375 0.765625 2.625 0.765625q1.6875 0 2.5 -0.6875q0.828125 -0.6875 0.828125 -1.609375q0 -0.84375 -0.71875 -1.3125q-0.515625 -0.328125 -2.515625 -0.84375q-2.71875 -0.6875 -3.765625 -1.171875q-1.03125 -0.5 -1.578125 -1.375q-0.546875 -0.890625 -0.546875 -1.96875q0 -0.96875 0.4375 -1.796875q0.453125 -0.828125 1.21875 -1.375q0.578125 -0.421875 1.5625 -0.703125q1.0 -0.296875 2.140625 -0.296875q1.703125 0 2.984375 0.5q1.296875 0.484375 1.90625 1.328125q0.625 0.828125 0.859375 2.234375l-2.40625 0.328125q-0.171875 -1.109375 -0.953125 -1.734375q-0.78125 -0.640625 -2.21875 -0.640625q-1.703125 0 -2.421875 0.5625q-0.71875 0.5625 -0.71875 1.3125q0 0.484375 0.296875 0.859375q0.296875 0.40625 0.9375 0.65625q0.375 0.140625 2.171875 0.625q2.625 0.703125 3.65625 1.15625q1.03125 0.4375 1.609375 1.28125q0.59375 0.84375 0.59375 2.109375q0 1.234375 -0.71875 2.328125q-0.71875 1.078125 -2.078125 1.671875q-1.34375 0.59375 -3.0625 0.59375q-2.828125 0 -4.3125 -1.171875q-1.484375 -1.1875 -1.890625 -3.484375z" fill-rule="nonzero"/><path fill="#000000" fill-opacity="0.0" d="m490.59317 172.36482l434.4567 0l0 307.30707l-434.4567 0z" fill-rule="evenodd"/><path fill="#000000" d="m502.4213 215.92482l0 -25.765625l11.4219055 0q3.453125 0 5.234375 0.703125q1.796875 0.6875 2.875 2.453125q1.078125 1.75 1.078125 3.875q0 2.734375 -1.78125 4.625q-1.78125 1.875 -5.484375 2.390625q1.359375 0.640625 2.0625 1.28125q1.484375 1.359375 2.828125 3.421875l4.484375 7.015625l-4.296875 0l-3.40625 -5.359375q-1.5 -2.328125 -2.46875 -3.546875q-0.953125 -1.234375 -1.71875 -1.71875q-0.765625 -0.5 -1.5625305 -0.703125q-0.578125 -0.109375 -1.890625 -0.109375l-3.96875 0l0 11.4375l-3.40625 0zm3.40625 -14.390625l7.3437805 0q2.328125 0 3.640625 -0.484375q1.328125 -0.484375 2.015625 -1.546875q0.6875 -1.0625 0.6875 -2.3125q0 -1.828125 -1.328125 -3.0q-1.328125 -1.1875 -4.203125 -1.1875l-8.1562805 0l0 8.53125zm34.326202 12.09375q-1.765625 1.484375 -3.390625 2.109375q-1.625 0.609375 -3.484375 0.609375q-3.078125 0 -4.734375 -1.5q-1.65625 -1.5 -1.65625 -3.84375q0 -1.375 0.625 -2.5q0.625 -1.140625 1.640625 -1.828125q1.015625 -0.6875 2.28125 -1.03125q0.921875 -0.25 2.8125 -0.484375q3.828125 -0.453125 5.640625 -1.078125q0.015625 -0.65625 0.015625 -0.828125q0 -1.9375 -0.90625 -2.734375q-1.203125 -1.0625 -3.59375 -1.0625q-2.234375 0 -3.296875 0.78125q-1.0625 0.78125 -1.578125 2.765625l-3.09375 -0.421875q0.421875 -1.984375 1.390625 -3.203125q0.96875 -1.21875 2.796875 -1.875q1.828125 -0.671875 4.234375 -0.671875q2.390625 0 3.875 0.5625q1.5 0.5625 2.203125 1.421875q0.703125 0.84375 0.984375 2.15625q0.15625 0.796875 0.15625 2.90625l0 4.21875q0 4.421875 0.203125 5.59375q0.203125 1.15625 0.8125 2.234375l-3.3125 0q-0.484375 -0.984375 -0.625 -2.296875zm-0.265625 -7.078125q-1.734375 0.703125 -5.171875 1.203125q-1.953125 0.28125 -2.765625 0.640625q-0.796875 0.34375 -1.25 1.015625q-0.4375 0.671875 -0.4375 1.5q0 1.265625 0.953125 2.109375q0.96875 0.84375 2.8125 0.84375q1.828125 0 3.25 -0.796875q1.421875 -0.796875 2.09375 -2.1875q0.515625 -1.078125 0.515625 -3.15625l0 -1.171875zm6.8339844 3.796875l3.125 -0.484375q0.265625 1.875 1.46875 2.875q1.203125 1.0 3.375 1.0q2.171875 0 3.21875 -0.875q1.0625 -0.890625 1.0625 -2.09375q0 -1.0625 -0.9375 -1.6875q-0.640625 -0.421875 -3.234375 -1.0625q-3.46875 -0.890625 -4.8125 -1.53125q-1.34375 -0.640625 -2.046875 -1.765625q-0.6875 -1.140625 -0.6875 -2.515625q0 -1.234375 0.5625 -2.296875q0.578125 -1.078125 1.5625 -1.78125q0.734375 -0.53125 2.0 -0.90625q1.28125 -0.390625 2.75 -0.390625q2.1875 0 3.84375 0.640625q1.671875 0.625 2.453125 1.71875q0.796875 1.078125 1.09375 2.875l-3.09375 0.421875q-0.203125 -1.4375 -1.21875 -2.234375q-1.015625 -0.8125 -2.859375 -0.8125q-2.171875 0 -3.109375 0.71875q-0.9375 0.71875 -0.9375 1.6875q0 0.609375 0.390625 1.109375q0.390625 0.5 1.21875 0.84375q0.46875 0.171875 2.796875 0.796875q3.359375 0.90625 4.671875 1.484375q1.328125 0.5625 2.078125 1.65625q0.765625 1.078125 0.765625 2.703125q0 1.578125 -0.921875 2.984375q-0.921875 1.390625 -2.671875 2.15625q-1.734375 0.765625 -3.921875 0.765625q-3.640625 0 -5.546875 -1.515625q-1.90625 -1.515625 -2.4375 -4.484375zm17.59375 5.578125l0 -2.5625l11.890625 -13.640625q-2.03125 0.09375 -3.578125 0.09375l-7.609375 0l0 -2.5625l15.265625 0l0 2.09375l-10.109375 11.84375l-1.953125 2.171875q2.125 -0.15625 3.984375 -0.15625l8.640625 0l0 2.71875l-16.53125 0zm26.578125 -2.828125l0.453125 2.796875q-1.328125 0.28125 -2.390625 0.28125q-1.71875 0 -2.671875 -0.546875q-0.9375 -0.546875 -1.328125 -1.4375q-0.390625 -0.890625 -0.390625 -3.734375l0 -10.734375l-2.3125 0l0 -2.46875l2.3125 0l0 -4.625l3.140625 -1.890625l0 6.515625l3.1875 0l0 2.46875l-3.1875 0l0 10.90625q0 1.359375 0.171875 1.75q0.171875 0.375 0.546875 0.609375q0.375 0.234375 1.078125 0.234375q0.53125 0 1.390625 -0.125zm15.876953 -3.1875l3.265625 0.40625q-0.765625 2.859375 -2.859375 4.453125q-2.09375 1.578125 -5.34375 1.578125q-4.09375 0 -6.5 -2.515625q-2.40625 -2.53125 -2.40625 -7.078125q0 -4.71875 2.421875 -7.3125q2.4375 -2.609375 6.296875 -2.609375q3.75 0 6.125 2.546875q2.375 2.546875 2.375 7.171875q0 0.28125 -0.015625 0.84375l-13.921875 0q0.171875 3.078125 1.734375 4.71875q1.5625 1.625 3.90625 1.625q1.734375 0 2.96875 -0.90625q1.234375 -0.921875 1.953125 -2.921875zm-10.390625 -5.109375l10.421875 0q-0.203125 -2.359375 -1.1875 -3.53125q-1.515625 -1.828125 -3.921875 -1.828125q-2.1875 0 -3.671875 1.453125q-1.484375 1.453125 -1.640625 3.90625zm17.59961 11.125l0 -18.671875l2.84375 0l0 2.828125q1.09375 -1.984375 2.015625 -2.609375q0.921875 -0.640625 2.03125 -0.640625q1.59375 0 3.25 1.015625l-1.09375 2.9375q-1.15625 -0.6875 -2.3125 -0.6875q-1.046875 0 -1.875 0.625q-0.828125 0.625 -1.171875 1.734375q-0.53125 1.6875 -0.53125 3.6875l0 9.78125l-3.15625 0zm12.035156 -22.125l0 -3.640625l3.171875 0l0 3.640625l-3.171875 0zm0 22.125l0 -18.671875l3.171875 0l0 18.671875l-3.171875 0zm6.310547 0l0 -2.5625l11.890625 -13.640625q-2.03125 0.09375 -3.578125 0.09375l-7.609375 0l0 -2.5625l15.265625 0l0 2.09375l-10.109375 11.84375l-1.953125 2.171875q2.125 -0.15625 3.984375 -0.15625l8.640625 0l0 2.71875l-16.53125 0zm31.859375 -2.296875q-1.765625 1.484375 -3.390625 2.109375q-1.625 0.609375 -3.484375 0.609375q-3.078125 0 -4.734375 -1.5q-1.65625 -1.5 -1.65625 -3.84375q0 -1.375 0.625 -2.5q0.625 -1.140625 1.640625 -1.828125q1.015625 -0.6875 2.28125 -1.03125q0.921875 -0.25 2.8125 -0.484375q3.828125 -0.453125 5.640625 -1.078125q0.015625 -0.65625 0.015625 -0.828125q0 -1.9375 -0.90625 -2.734375q-1.203125 -1.0625 -3.59375 -1.0625q-2.234375 0 -3.296875 0.78125q-1.0625 0.78125 -1.578125 2.765625l-3.09375 -0.421875q0.421875 -1.984375 1.390625 -3.203125q0.96875 -1.21875 2.796875 -1.875q1.828125 -0.671875 4.234375 -0.671875q2.390625 0 3.875 0.5625q1.5 0.5625 2.203125 1.421875q0.703125 0.84375 0.984375 2.15625q0.15625 0.796875 0.15625 2.90625l0 4.21875q0 4.421875 0.203125 5.59375q0.203125 1.15625 0.8125 2.234375l-3.3125 0q-0.484375 -0.984375 -0.625 -2.296875zm-0.265625 -7.078125q-1.734375 0.703125 -5.171875 1.203125q-1.953125 0.28125 -2.765625 0.640625q-0.796875 0.34375 -1.25 1.015625q-0.4375 0.671875 -0.4375 1.5q0 1.265625 0.953125 2.109375q0.96875 0.84375 2.8125 0.84375q1.828125 0 3.25 -0.796875q1.421875 -0.796875 2.09375 -2.1875q0.515625 -1.078125 0.515625 -3.15625l0 -1.171875zm-6.15625 -11.609375l2.328125 -4.921875l4.15625 0l-3.875 4.921875l-2.609375 0zm14.177734 20.984375l0 -25.765625l3.171875 0l0 25.765625l-3.171875 0zm20.263672 -2.296875q-1.765625 1.484375 -3.390625 2.109375q-1.625 0.609375 -3.484375 0.609375q-3.078125 0 -4.734375 -1.5q-1.65625 -1.5 -1.65625 -3.84375q0 -1.375 0.625 -2.5q0.625 -1.140625 1.640625 -1.828125q1.015625 -0.6875 2.28125 -1.03125q0.921875 -0.25 2.8125 -0.484375q3.828125 -0.453125 5.640625 -1.078125q0.015625 -0.65625 0.015625 -0.828125q0 -1.9375 -0.90625 -2.734375q-1.203125 -1.0625 -3.59375 -1.0625q-2.234375 0 -3.296875 0.78125q-1.0625 0.78125 -1.578125 2.765625l-3.09375 -0.421875q0.421875 -1.984375 1.390625 -3.203125q0.96875 -1.21875 2.796875 -1.875q1.828125 -0.671875 4.234375 -0.671875q2.390625 0 3.875 0.5625q1.5 0.5625 2.203125 1.421875q0.703125 0.84375 0.984375 2.15625q0.15625 0.796875 0.15625 2.90625l0 4.21875q0 4.421875 0.203125 5.59375q0.203125 1.15625 0.8125 2.234375l-3.3125 0q-0.484375 -0.984375 -0.625 -2.296875zm-0.265625 -7.078125q-1.734375 0.703125 -5.171875 1.203125q-1.953125 0.28125 -2.765625 0.640625q-0.796875 0.34375 -1.25 1.015625q-0.4375 0.671875 -0.4375 1.5q0 1.265625 0.953125 2.109375q0.96875 0.84375 2.8125 0.84375q1.828125 0 3.25 -0.796875q1.421875 -0.796875 2.09375 -2.1875q0.515625 -1.078125 0.515625 -3.15625l0 -1.171875zm-6.15625 -11.609375l2.328125 -4.921875l4.15625 0l-3.875 4.921875l-2.609375 0zm12.990234 15.40625l3.125 -0.484375q0.265625 1.875 1.46875 2.875q1.203125 1.0 3.375 1.0q2.171875 0 3.21875 -0.875q1.0625 -0.890625 1.0625 -2.09375q0 -1.0625 -0.9375 -1.6875q-0.640625 -0.421875 -3.234375 -1.0625q-3.46875 -0.890625 -4.8125 -1.53125q-1.34375 -0.640625 -2.046875 -1.765625q-0.6875 -1.140625 -0.6875 -2.515625q0 -1.234375 0.5625 -2.296875q0.578125 -1.078125 1.5625 -1.78125q0.734375 -0.53125 2.0 -0.90625q1.28125 -0.390625 2.75 -0.390625q2.1875 0 3.84375 0.640625q1.671875 0.625 2.453125 1.71875q0.796875 1.078125 1.09375 2.875l-3.09375 0.421875q-0.203125 -1.4375 -1.21875 -2.234375q-1.015625 -0.8125 -2.859375 -0.8125q-2.171875 0 -3.109375 0.71875q-0.9375 0.71875 -0.9375 1.6875q0 0.609375 0.390625 1.109375q0.390625 0.5 1.21875 0.84375q0.46875 0.171875 2.796875 0.796875q3.359375 0.90625 4.671875 1.484375q1.328125 0.5625 2.078125 1.65625q0.765625 1.078125 0.765625 2.703125q0 1.578125 -0.921875 2.984375q-0.921875 1.390625 -2.671875 2.15625q-1.734375 0.765625 -3.921875 0.765625q-3.640625 0 -5.546875 -1.515625q-1.90625 -1.515625 -2.4375 -4.484375zm42.04883 -0.4375l3.265625 0.40625q-0.765625 2.859375 -2.859375 4.453125q-2.09375 1.578125 -5.34375 1.578125q-4.09375 0 -6.5 -2.515625q-2.40625 -2.53125 -2.40625 -7.078125q0 -4.71875 2.421875 -7.3125q2.4375 -2.609375 6.296875 -2.609375q3.75 0 6.125 2.546875q2.375 2.546875 2.375 7.171875q0 0.28125 -0.015625 0.84375l-13.921875 0q0.171875 3.078125 1.734375 4.71875q1.5625 1.625 3.90625 1.625q1.734375 0 2.96875 -0.90625q1.234375 -0.921875 1.953125 -2.921875zm-10.390625 -5.109375l10.421875 0q-0.203125 -2.359375 -1.1875 -3.53125q-1.515625 -1.828125 -3.921875 -1.828125q-2.1875 0 -3.671875 1.453125q-1.484375 1.453125 -1.640625 3.90625zm17.552734 11.125l0 -25.765625l3.171875 0l0 25.765625l-3.171875 0zm6.904297 -9.328125q0 -5.1875 2.875 -7.6875q2.40625 -2.078125 5.875 -2.078125q3.84375 0 6.28125 2.53125q2.453125 2.515625 2.453125 6.96875q0 3.59375 -1.078125 5.671875q-1.078125 2.0625 -3.15625 3.203125q-2.0625 1.140625 -4.5 1.140625q-3.921875 0 -6.34375 -2.515625q-2.40625 -2.515625 -2.40625 -7.234375zm3.25 0q0 3.578125 1.5625 5.359375q1.5625 1.78125 3.9375 1.78125q2.359375 0 3.921875 -1.78125q1.5625 -1.796875 1.5625 -5.46875q0 -3.46875 -1.578125 -5.25q-1.578125 -1.78125 -3.90625 -1.78125q-2.375 0 -3.9375 1.78125q-1.5625 1.765625 -1.5625 5.359375zm0.515625 -11.65625l2.125 -4.921875l4.125 0l-3.71875 4.921875l-2.53125 0zm6.109375 0l2.234375 -4.921875l4.046875 0l-3.625 4.921875l-2.65625 0zm11.318359 20.984375l0 -18.671875l2.84375 0l0 2.65625q2.0625 -3.078125 5.9375 -3.078125q1.6875 0 3.109375 0.609375q1.421875 0.609375 2.125 1.59375q0.703125 0.984375 0.984375 2.328125q0.171875 0.890625 0.171875 3.078125l0 11.484375l-3.171875 0l0 -11.359375q0 -1.9375 -0.375 -2.890625q-0.359375 -0.953125 -1.296875 -1.515625q-0.9375 -0.578125 -2.203125 -0.578125q-2.03125 0 -3.5 1.28125q-1.46875 1.28125 -1.46875 4.859375l0 10.203125l-3.15625 0zm19.88086 7.1875l-0.359375 -2.96875q1.046875 0.28125 1.8125 0.28125q1.0625 0 1.6875 -0.359375q0.640625 -0.34375 1.046875 -0.96875q0.296875 -0.484375 0.96875 -2.359375q0.078125 -0.265625 0.28125 -0.78125l-7.09375 -18.703125l3.40625 0l3.890625 10.8125q0.75 2.0625 1.359375 4.328125q0.546875 -2.1875 1.296875 -4.25l3.984375 -10.890625l3.171875 0l-7.109375 18.984375q-1.140625 3.078125 -1.765625 4.234375q-0.84375 1.578125 -1.9375 2.296875q-1.09375 0.734375 -2.609375 0.734375q-0.90625 0 -2.03125 -0.390625zm30.921875 -13.203125l3.265625 0.40625q-0.765625 2.859375 -2.859375 4.453125q-2.09375 1.578125 -5.34375 1.578125q-4.09375 0 -6.5 -2.515625q-2.40625 -2.53125 -2.40625 -7.078125q0 -4.71875 2.421875 -7.3125q2.4375 -2.609375 6.296875 -2.609375q3.75 0 6.125 2.546875q2.375 2.546875 2.375 7.171875q0 0.28125 -0.015625 0.84375l-13.921875 0q0.171875 3.078125 1.734375 4.71875q1.5625 1.625 3.90625 1.625q1.734375 0 2.96875 -0.90625q1.234375 -0.921875 1.953125 -2.921875zm-10.390625 -5.109375l10.421875 0q-0.203125 -2.359375 -1.1875 -3.53125q-1.515625 -1.828125 -3.921875 -1.828125q-2.1875 0 -3.671875 1.453125q-1.484375 1.453125 -1.640625 3.90625zm18.50586 -3.9375l0 -3.609375l3.609375 0l0 3.609375l-3.609375 0zm0 15.0625l0 -3.609375l3.609375 0l0 3.609375l-3.609375 0z" fill-rule="nonzero"/><path fill="#000000" d="m515.14984 280.72293q1.5 0 2.9375 0.78125q1.453125 0.78125 2.265625 2.234375q0.8125 1.4375 0.8125 3.0q0 2.5 -1.765625 4.265625q-1.765625 1.765625 -4.25 1.765625q-2.5 0 -4.2656555 -1.765625q-1.765625 -1.765625 -1.765625 -4.265625q0 -1.5625 0.796875 -3.0q0.8125 -1.453125 2.2656555 -2.234375q1.453125 -0.78125 2.96875 -0.78125z" fill-rule="nonzero"/><path fill="#000000" d="m547.5463 294.6448l7.703125 -20.046875l2.859375 0l8.203125 20.046875l-3.015625 0l-2.34375 -6.078125l-8.375 0l-2.203125 6.078125l-2.828125 0zm5.796875 -8.234375l6.78125 0l-2.078125 -5.546875q-0.96875 -2.53125 -1.421875 -4.15625q-0.390625 1.921875 -1.09375 3.828125l-2.1875 5.875zm14.722656 8.234375l0 -20.046875l2.453125 0l0 20.046875l-2.453125 0zm15.751953 -1.796875q-1.375 1.171875 -2.640625 1.65625q-1.265625 0.46875 -2.71875 0.46875q-2.390625 0 -3.671875 -1.171875q-1.28125 -1.171875 -1.28125 -2.984375q0 -1.0625 0.484375 -1.9375q0.484375 -0.890625 1.265625 -1.421875q0.796875 -0.53125 1.78125 -0.8125q0.71875 -0.1875 2.1875 -0.375q2.96875 -0.34375 4.375 -0.84375q0.015625 -0.5 0.015625 -0.640625q0 -1.5 -0.6875 -2.125q-0.953125 -0.828125 -2.8125 -0.828125q-1.734375 0 -2.5625 0.609375q-0.828125 0.609375 -1.21875 2.15625l-2.40625 -0.328125q0.328125 -1.546875 1.078125 -2.5q0.75 -0.953125 2.171875 -1.453125q1.421875 -0.515625 3.296875 -0.515625q1.859375 0 3.015625 0.4375q1.171875 0.4375 1.71875 1.109375q0.546875 0.65625 0.765625 1.65625q0.125 0.640625 0.125 2.28125l0 3.28125q0 3.421875 0.15625 4.34375q0.15625 0.90625 0.625 1.734375l-2.578125 0q-0.375 -0.765625 -0.484375 -1.796875zm-0.21875 -5.484375q-1.328125 0.546875 -4.015625 0.921875q-1.515625 0.21875 -2.140625 0.5q-0.625 0.265625 -0.96875 0.796875q-0.34375 0.515625 -0.34375 1.171875q0 0.984375 0.734375 1.640625q0.75 0.65625 2.1875 0.65625q1.421875 0 2.53125 -0.625q1.109375 -0.625 1.625 -1.703125q0.390625 -0.84375 0.390625 -2.46875l0 -0.890625zm15.791016 1.96875l2.40625 0.3125q-0.390625 2.5 -2.03125 3.921875q-1.625 1.40625 -4.0 1.40625q-2.984375 0 -4.796875 -1.9375q-1.8125 -1.953125 -1.8125 -5.59375q0 -2.359375 0.78125 -4.109375q0.78125 -1.765625 2.375 -2.640625q1.59375 -0.890625 3.46875 -0.890625q2.359375 0 3.859375 1.203125q1.5 1.1875 1.9375 3.390625l-2.40625 0.359375q-0.328125 -1.453125 -1.203125 -2.1875q-0.875 -0.75 -2.09375 -0.75q-1.859375 0 -3.03125 1.34375q-1.15625 1.328125 -1.15625 4.203125q0 2.9375 1.109375 4.265625q1.125 1.3125 2.9375 1.3125q1.453125 0 2.421875 -0.875q0.96875 -0.890625 1.234375 -2.734375zm3.53125 0.984375l2.4375 -0.390625q0.203125 1.46875 1.140625 2.25q0.9375 0.765625 2.625 0.765625q1.6875 0 2.5 -0.6875q0.828125 -0.6875 0.828125 -1.609375q0 -0.84375 -0.71875 -1.3125q-0.515625 -0.328125 -2.515625 -0.84375q-2.71875 -0.6875 -3.765625 -1.171875q-1.03125 -0.5 -1.578125 -1.375q-0.546875 -0.890625 -0.546875 -1.96875q0 -0.96875 0.4375 -1.796875q0.453125 -0.828125 1.21875 -1.375q0.578125 -0.421875 1.5625 -0.703125q1.0 -0.296875 2.140625 -0.296875q1.703125 0 2.984375 0.5q1.296875 0.484375 1.90625 1.328125q0.625 0.828125 0.859375 2.234375l-2.40625 0.328125q-0.171875 -1.109375 -0.953125 -1.734375q-0.78125 -0.640625 -2.21875 -0.640625q-1.703125 0 -2.421875 0.5625q-0.71875 0.5625 -0.71875 1.3125q0 0.484375 0.296875 0.859375q0.296875 0.40625 0.9375 0.65625q0.375 0.140625 2.171875 0.625q2.625 0.703125 3.65625 1.15625q1.03125 0.4375 1.609375 1.28125q0.59375 0.84375 0.59375 2.109375q0 1.234375 -0.71875 2.328125q-0.71875 1.078125 -2.078125 1.671875q-1.34375 0.59375 -3.0625 0.59375q-2.828125 0 -4.3125 -1.171875q-1.484375 -1.1875 -1.890625 -3.484375zm14.078125 -2.9375q0 -4.03125 2.234375 -5.96875q1.875 -1.609375 4.5625 -1.609375q3.0 0 4.890625 1.96875q1.90625 1.953125 1.90625 5.40625q0 2.8125 -0.84375 4.421875q-0.828125 1.59375 -2.4375 2.484375q-1.609375 0.890625 -3.515625 0.890625q-3.046875 0 -4.921875 -1.953125q-1.875 -1.953125 -1.875 -5.640625zm2.515625 0q0 2.796875 1.21875 4.1875q1.21875 1.375 3.0625 1.375q1.84375 0 3.046875 -1.390625q1.21875 -1.390625 1.21875 -4.25q0 -2.6875 -1.21875 -4.078125q-1.21875 -1.390625 -3.046875 -1.390625q-1.84375 0 -3.0625 1.390625q-1.21875 1.375 -1.21875 4.15625zm13.962891 7.265625l0 -14.515625l2.21875 0l0 2.0625q1.59375 -2.390625 4.625 -2.390625q1.3125 0 2.40625 0.46875q1.109375 0.46875 1.65625 1.234375q0.546875 0.765625 0.765625 1.8125q0.125 0.6875 0.125 2.40625l0 8.921875l-2.453125 0l0 -8.828125q0 -1.515625 -0.296875 -2.25q-0.28125 -0.75 -1.015625 -1.1875q-0.734375 -0.453125 -1.71875 -0.453125q-1.5625 0 -2.703125 1.0q-1.140625 1.0 -1.140625 3.78125l0 7.9375l-2.46875 0zm15.462891 5.59375l-0.265625 -2.3125q0.796875 0.21875 1.40625 0.21875q0.8125 0 1.296875 -0.28125q0.5 -0.265625 0.8125 -0.75q0.234375 -0.375 0.765625 -1.84375q0.0625 -0.203125 0.21875 -0.59375l-5.515625 -14.546875l2.65625 0l3.015625 8.40625q0.59375 1.59375 1.046875 3.359375q0.4375 -1.6875 1.015625 -3.3125l3.109375 -8.453125l2.453125 0l-5.515625 14.765625q-0.890625 2.390625 -1.390625 3.296875q-0.65625 1.21875 -1.5 1.78125q-0.84375 0.5625305 -2.015625 0.5625305q-0.71875 0 -1.59375 -0.29690552zm20.904297 -9.921875l2.4375 -0.390625q0.203125 1.46875 1.140625 2.25q0.9375 0.765625 2.625 0.765625q1.6875 0 2.5 -0.6875q0.828125 -0.6875 0.828125 -1.609375q0 -0.84375 -0.71875 -1.3125q-0.515625 -0.328125 -2.515625 -0.84375q-2.71875 -0.6875 -3.765625 -1.171875q-1.03125 -0.5 -1.578125 -1.375q-0.546875 -0.890625 -0.546875 -1.96875q0 -0.96875 0.4375 -1.796875q0.453125 -0.828125 1.21875 -1.375q0.578125 -0.421875 1.5625 -0.703125q1.0 -0.296875 2.140625 -0.296875q1.703125 0 2.984375 0.5q1.296875 0.484375 1.90625 1.328125q0.625 0.828125 0.859375 2.234375l-2.40625 0.328125q-0.171875 -1.109375 -0.953125 -1.734375q-0.78125 -0.640625 -2.21875 -0.640625q-1.703125 0 -2.421875 0.5625q-0.71875 0.5625 -0.71875 1.3125q0 0.484375 0.296875 0.859375q0.296875 0.40625 0.9375 0.65625q0.375 0.140625 2.171875 0.625q2.625 0.703125 3.65625 1.15625q1.03125 0.4375 1.609375 1.28125q0.59375 0.84375 0.59375 2.109375q0 1.234375 -0.71875 2.328125q-0.71875 1.078125 -2.078125 1.671875q-1.34375 0.59375 -3.0625 0.59375q-2.828125 0 -4.3125 -1.171875q-1.484375 -1.1875 -1.890625 -3.484375zm13.6875 4.328125l0 -2.0l9.25 -10.609375q-1.578125 0.078125 -2.78125 0.078125l-5.921875 0l0 -1.984375l11.875 0l0 1.625l-7.875 9.21875l-1.515625 1.671875q1.65625 -0.125 3.109375 -0.125l6.71875 0l0 2.125l-12.859375 0zm24.78125 -1.796875q-1.375 1.171875 -2.640625 1.65625q-1.265625 0.46875 -2.71875 0.46875q-2.390625 0 -3.671875 -1.171875q-1.28125 -1.171875 -1.28125 -2.984375q0 -1.0625 0.484375 -1.9375q0.484375 -0.890625 1.265625 -1.421875q0.796875 -0.53125 1.78125 -0.8125q0.71875 -0.1875 2.1875 -0.375q2.96875 -0.34375 4.375 -0.84375q0.015625 -0.5 0.015625 -0.640625q0 -1.5 -0.6875 -2.125q-0.953125 -0.828125 -2.8125 -0.828125q-1.734375 0 -2.5625 0.609375q-0.828125 0.609375 -1.21875 2.15625l-2.40625 -0.328125q0.328125 -1.546875 1.078125 -2.5q0.75 -0.953125 2.171875 -1.453125q1.421875 -0.515625 3.296875 -0.515625q1.859375 0 3.015625 0.4375q1.171875 0.4375 1.71875 1.109375q0.546875 0.65625 0.765625 1.65625q0.125 0.640625 0.125 2.28125l0 3.28125q0 3.421875 0.15625 4.34375q0.15625 0.90625 0.625 1.734375l-2.578125 0q-0.375 -0.765625 -0.484375 -1.796875zm-0.21875 -5.484375q-1.328125 0.546875 -4.015625 0.921875q-1.515625 0.21875 -2.140625 0.5q-0.625 0.265625 -0.96875 0.796875q-0.34375 0.515625 -0.34375 1.171875q0 0.984375 0.734375 1.640625q0.75 0.65625 2.1875 0.65625q1.421875 0 2.53125 -0.625q1.109375 -0.625 1.625 -1.703125q0.390625 -0.84375 0.390625 -2.46875l0 -0.890625zm-4.78125 -9.046875l1.828125 -3.828125l3.21875 0l-3.0 3.828125l-2.046875 0zm11.087891 16.328125l0 -14.515625l2.203125 0l0 2.03125q0.6875 -1.0625 1.8125 -1.703125q1.140625 -0.65625 2.59375 -0.65625q1.609375 0 2.640625 0.671875q1.03125 0.65625 1.453125 1.859375q1.734375 -2.53125 4.484375 -2.53125q2.171875 0 3.328125 1.203125q1.15625 1.1875 1.15625 3.671875l0 9.96875l-2.4375 0l0 -9.140625q0 -1.484375 -0.25 -2.125q-0.234375 -0.65625 -0.859375 -1.046875q-0.625 -0.40625 -1.484375 -0.40625q-1.53125 0 -2.546875 1.03125q-1.0 1.015625 -1.0 3.25l0 8.4375l-2.46875 0l0 -9.4375q0 -1.640625 -0.609375 -2.453125q-0.59375 -0.828125 -1.953125 -0.828125q-1.046875 0 -1.9375 0.546875q-0.875 0.546875 -1.265625 1.609375q-0.390625 1.046875 -0.390625 3.03125l0 7.53125l-2.46875 0zm24.183594 0l0 -14.515625l2.46875 0l0 14.515625l-2.46875 0zm-0.125 -16.328125l1.828125 -3.828125l3.21875 0l-3.0 3.828125l-2.046875 0zm12.419922 14.125l0.359375 2.171875q-1.046875 0.21875 -1.859375 0.21875q-1.34375 0 -2.078125 -0.421875q-0.734375 -0.421875 -1.046875 -1.109375q-0.296875 -0.6875 -0.296875 -2.90625l0 -8.359375l-1.796875 0l0 -1.90625l1.796875 0l0 -3.59375l2.453125 -1.484375l0 5.078125l2.46875 0l0 1.90625l-2.46875 0l0 8.5q0 1.046875 0.125 1.34375q0.125 0.296875 0.421875 0.484375q0.296875 0.171875 0.84375 0.171875q0.40625 0 1.078125 -0.09375zm11.888672 0.40625q-1.375 1.171875 -2.640625 1.65625q-1.265625 0.46875 -2.71875 0.46875q-2.390625 0 -3.671875 -1.171875q-1.28125 -1.171875 -1.28125 -2.984375q0 -1.0625 0.484375 -1.9375q0.484375 -0.890625 1.265625 -1.421875q0.796875 -0.53125 1.78125 -0.8125q0.71875 -0.1875 2.1875 -0.375q2.96875 -0.34375 4.375 -0.84375q0.015625 -0.5 0.015625 -0.640625q0 -1.5 -0.6875 -2.125q-0.953125 -0.828125 -2.8125 -0.828125q-1.734375 0 -2.5625 0.609375q-0.828125 0.609375 -1.21875 2.15625l-2.40625 -0.328125q0.328125 -1.546875 1.078125 -2.5q0.75 -0.953125 2.171875 -1.453125q1.421875 -0.515625 3.296875 -0.515625q1.859375 0 3.015625 0.4375q1.171875 0.4375 1.71875 1.109375q0.546875 0.65625 0.765625 1.65625q0.125 0.640625 0.125 2.28125l0 3.28125q0 3.421875 0.15625 4.34375q0.15625 0.90625 0.625 1.734375l-2.578125 0q-0.375 -0.765625 -0.484375 -1.796875zm-0.21875 -5.484375q-1.328125 0.546875 -4.015625 0.921875q-1.515625 0.21875 -2.140625 0.5q-0.625 0.265625 -0.96875 0.796875q-0.34375 0.515625 -0.34375 1.171875q0 0.984375 0.734375 1.640625q0.75 0.65625 2.1875 0.65625q1.421875 0 2.53125 -0.625q1.109375 -0.625 1.625 -1.703125q0.390625 -0.84375 0.390625 -2.46875l0 -0.890625zm-4.78125 -9.046875l1.828125 -3.828125l3.21875 0l-3.0 3.828125l-2.046875 0zm10.103516 12.0l2.4375 -0.390625q0.203125 1.46875 1.140625 2.25q0.9375 0.765625 2.625 0.765625q1.6875 0 2.5 -0.6875q0.828125 -0.6875 0.828125 -1.609375q0 -0.84375 -0.71875 -1.3125q-0.515625 -0.328125 -2.515625 -0.84375q-2.71875 -0.6875 -3.765625 -1.171875q-1.03125 -0.5 -1.578125 -1.375q-0.546875 -0.890625 -0.546875 -1.96875q0 -0.96875 0.4375 -1.796875q0.453125 -0.828125 1.21875 -1.375q0.578125 -0.421875 1.5625 -0.703125q1.0 -0.296875 2.140625 -0.296875q1.703125 0 2.984375 0.5q1.296875 0.484375 1.90625 1.328125q0.625 0.828125 0.859375 2.234375l-2.40625 0.328125q-0.171875 -1.109375 -0.953125 -1.734375q-0.78125 -0.640625 -2.21875 -0.640625q-1.703125 0 -2.421875 0.5625q-0.71875 0.5625 -0.71875 1.3125q0 0.484375 0.296875 0.859375q0.296875 0.40625 0.9375 0.65625q0.375 0.140625 2.171875 0.625q2.625 0.703125 3.65625 1.15625q1.03125 0.4375 1.609375 1.28125q0.59375 0.84375 0.59375 2.109375q0 1.234375 -0.71875 2.328125q-0.71875 1.078125 -2.078125 1.671875q-1.34375 0.59375 -3.0625 0.59375q-2.828125 0 -4.3125 -1.171875q-1.484375 -1.1875 -1.890625 -3.484375zm15.0 -12.890625l0 -2.828125l2.46875 0l0 2.828125l-2.46875 0zm0 17.21875l0 -14.515625l2.46875 0l0 14.515625l-2.46875 0zm14.0 -17.21875l0 -2.828125l2.46875 0l0 2.828125l-2.46875 0zm0 17.21875l0 -14.515625l2.46875 0l0 14.515625l-2.46875 0zm5.751953 1.203125l2.390625 0.359375q0.15625 1.109375 0.84375 1.609375q0.90625 0.6875 2.5 0.6875q1.703125 0 2.625 -0.6875q0.9375 -0.6875 1.265625 -1.90625q0.203125 -0.765625 0.1875 -3.171875q-1.625 1.90625 -4.03125 1.90625q-2.984375 0 -4.625 -2.15625q-1.640625 -2.171875 -1.640625 -5.1875q0 -2.078125 0.75 -3.828125q0.75 -1.765625 2.171875 -2.71875q1.4375 -0.953125 3.359375 -0.953125q2.578125 0 4.25 2.078125l0 -1.75l2.265625 0l0 12.546875q0 3.390625 -0.703125 4.796875q-0.6875 1.421875 -2.1875 2.234375q-1.484375 0.8281555 -3.671875 0.8281555q-2.59375 0 -4.203125 -1.1719055q-1.59375 -1.15625 -1.546875 -3.515625zm2.046875 -8.71875q0 2.859375 1.125 4.171875q1.140625 1.3125 2.84375 1.3125q1.703125 0 2.84375 -1.3125q1.15625 -1.3125 1.15625 -4.09375q0 -2.671875 -1.1875 -4.015625q-1.1875 -1.359375 -2.84375 -1.359375q-1.640625 0 -2.796875 1.34375q-1.140625 1.328125 -1.140625 3.953125zm23.916016 2.84375l2.546875 0.3125q-0.59375 2.21875 -2.234375 3.453125q-1.625 1.234375 -4.15625 1.234375q-3.171875 0 -5.046875 -1.953125q-1.859375 -1.96875 -1.859375 -5.515625q0 -3.65625 1.875 -5.671875q1.890625 -2.03125 4.90625 -2.03125q2.90625 0 4.75 1.984375q1.84375 1.96875 1.84375 5.578125q0 0.21875 -0.015625 0.65625l-10.828125 0q0.140625 2.390625 1.359375 3.65625q1.21875 1.265625 3.03125 1.265625q1.359375 0 2.3125 -0.703125q0.953125 -0.71875 1.515625 -2.265625zm-8.078125 -3.984375l8.109375 0q-0.15625 -1.828125 -0.921875 -2.75q-1.1875 -1.421875 -3.0625 -1.421875q-1.6875 0 -2.84375 1.140625q-1.15625 1.125 -1.28125 3.03125zm2.65625 -7.671875l1.828125 -3.828125l3.21875 0l-3.0 3.828125l-2.046875 0zm11.056641 16.328125l0 -14.515625l2.21875 0l0 2.0625q1.59375 -2.390625 4.625 -2.390625q1.3125 0 2.40625 0.46875q1.109375 0.46875 1.65625 1.234375q0.546875 0.765625 0.765625 1.8125q0.125 0.6875 0.125 2.40625l0 8.921875l-2.453125 0l0 -8.828125q0 -1.515625 -0.296875 -2.25q-0.28125 -0.75 -1.015625 -1.1875q-0.734375 -0.453125 -1.71875 -0.453125q-1.5625 0 -2.703125 1.0q-1.140625 1.0 -1.140625 3.78125l0 7.9375l-2.46875 0zm15.462891 5.59375l-0.265625 -2.3125q0.796875 0.21875 1.40625 0.21875q0.8125 0 1.296875 -0.28125q0.5 -0.265625 0.8125 -0.75q0.234375 -0.375 0.765625 -1.84375q0.0625 -0.203125 0.21875 -0.59375l-5.515625 -14.546875l2.65625 0l3.015625 8.40625q0.59375 1.59375 1.046875 3.359375q0.4375 -1.6875 1.015625 -3.3125l3.109375 -8.453125l2.453125 0l-5.515625 14.765625q-0.890625 2.390625 -1.390625 3.296875q-0.65625 1.21875 -1.5 1.78125q-0.84375 0.5625305 -2.015625 0.5625305q-0.71875 0 -1.59375 -0.29690552z" fill-rule="nonzero"/></g></svg>